<?xml version="1.0" encoding="utf-8"?>
<!-- Generator: Adobe Illustrator 26.1.0, SVG Export Plug-In . SVG Version: 6.00 Build 0)  -->
<svg version="1.1" id="Camada_1" xmlns="http://www.w3.org/2000/svg" xmlns:xlink="http://www.w3.org/1999/xlink" x="0px" y="0px"
	 viewBox="0 0 770 90" style="enable-background:new 0 0 770 90;" xml:space="preserve">
<style type="text/css">
	.st0{fill:#108141;}
	.st1{enable-background:new    ;}
	.st2{fill:#FFFFFF;}
	.st3{fill:none;}
	.st4{fill:none;stroke:#108141;}
	.st5{fill:#1B8992;}
	.st6{fill:none;stroke:#1B8992;}
	.st7{fill:#2F5579;}
	.st8{fill:none;stroke:#2F5579;}
	.st9{fill:#294667;}
	.st10{fill:none;stroke:#294667;}
	.st11{fill:#6DAFCC;}
	.st12{fill:none;stroke:#6DAFCC;}
</style>
<g id="img-slide-22" transform="translate(-161 -398)">
	<g id="Grupo_1315" transform="translate(355 193)">
		<g id="Grupo_1992" transform="translate(136 205)">
			<rect id="Retângulo_1004" class="st0" width="110" height="45"/>
			<g class="st1">
				<path class="st2" d="M41.5,20.1c-2.7,0-4.9-2.1-4.9-5s2.2-5,4.9-5c2.8,0,4.9,2.1,4.9,5S44.2,20.1,41.5,20.1z M41.5,19
					c2.1,0,3.6-1.5,3.6-3.9c0-2.4-1.5-3.9-3.6-3.9s-3.6,1.5-3.6,3.9C37.9,17.5,39.4,19,41.5,19z"/>
				<path class="st2" d="M53.6,15.7c0-1.6-0.9-2.4-2.1-2.4c-1.3,0-2.2,0.8-2.2,2.5V20H48v-7.7h1.3v1.1c0.5-0.8,1.4-1.2,2.5-1.2
					c1.8,0,3.1,1.1,3.1,3.3V20h-1.3V15.7z"/>
				<path class="st2" d="M60.2,12.2c1.2,0,2.3,0.6,2.8,1.5V9.6h1.3V20H63v-1.4c-0.5,0.9-1.5,1.6-2.9,1.6c-2.1,0-3.6-1.6-3.6-4
					C56.5,13.7,58.1,12.2,60.2,12.2z M60.4,13.3c-1.4,0-2.6,1-2.6,2.8S59,19,60.4,19S63,18,63,16.1C63,14.4,61.8,13.3,60.4,13.3z"/>
				<path class="st2" d="M69.8,20.1c-2.2,0-3.8-1.5-3.8-4c0-2.4,1.6-3.9,3.8-3.9c2.2,0,3.7,1.6,3.7,3.7c0,0.3,0,0.5,0,0.8h-6.1
					c0.1,1.6,1.2,2.4,2.5,2.4c1.1,0,1.9-0.6,2.2-1.4h1.4C72.9,19,71.7,20.1,69.8,20.1z M67.3,15.6h4.8c0-1.5-1.1-2.3-2.4-2.3
					C68.5,13.3,67.4,14.1,67.3,15.6z"/>
			</g>
			<g class="st1">
				<path class="st2" d="M31.5,38.6c-1.8-1.8-2.8-4.6-2.8-7.7c0-3.2,1.1-6.1,3.1-8H33V23c-2.2,2-3.2,5-3.2,7.8c0,2.8,1,5.6,2.9,7.6
					v0.1H31.5z"/>
			</g>
			<g class="st1">
				<path class="st2" d="M45.4,28.3L41.7,36h-1.3l-0.8-6.1L36.7,36h-1.3l-1-7.7h1.3l0.6,6.4l3-6.4h1.3l0.7,6.4l2.9-6.4H45.4z"/>
				<path class="st2" d="M52.4,28.8c0.5,0.4,0.7,1,0.7,1.8c0,0.3,0,0.6-0.1,0.8L52.2,36h-1.3l0.8-4.3c0-0.2,0.1-0.4,0.1-0.6
					c0-0.6-0.2-1-0.5-1.3c-0.3-0.3-0.7-0.4-1.3-0.4c-0.7,0-1.2,0.2-1.7,0.6c-0.5,0.4-0.8,1-0.9,1.8v0L46.6,36h-1.3l1.8-10.4h1.3
					l-0.7,3.8c0.3-0.4,0.7-0.7,1.2-0.9c0.5-0.2,1-0.3,1.5-0.3C51.3,28.2,51.9,28.4,52.4,28.8z"/>
				<path class="st2" d="M60.7,28.6c0.5,0.2,0.8,0.6,1.1,1c0.2,0.4,0.4,0.9,0.4,1.5c0,0.2,0,0.4-0.1,0.7c0,0.2-0.1,0.5-0.2,0.8h-6.1
					c0,0.2,0,0.3,0,0.4c0,0.6,0.2,1.1,0.6,1.5c0.4,0.4,0.9,0.5,1.5,0.5c0.6,0,1-0.1,1.4-0.4c0.4-0.3,0.7-0.6,0.9-1h1.4
					c-0.3,0.7-0.9,1.3-1.5,1.8s-1.5,0.7-2.4,0.7c-1,0-1.7-0.3-2.3-0.8c-0.6-0.6-0.9-1.3-0.9-2.3c0-0.3,0-0.6,0.1-0.9
					c0.1-0.8,0.4-1.5,0.9-2.1c0.4-0.6,1-1.1,1.6-1.4c0.6-0.3,1.3-0.5,2.1-0.5C59.6,28.2,60.2,28.3,60.7,28.6z M60.8,31.2
					c0-0.6-0.2-1.1-0.6-1.4c-0.4-0.3-0.9-0.5-1.5-0.5c-0.7,0-1.2,0.2-1.8,0.6s-0.9,1-1.1,1.8h4.9C60.8,31.5,60.8,31.3,60.8,31.2z"/>
				<path class="st2" d="M66.5,28.6c0.5-0.3,1-0.4,1.6-0.4l-0.2,1.3h-0.3c-0.7,0-1.2,0.2-1.7,0.5s-0.7,1-0.9,1.8L64.2,36H63l1.4-7.7
					h1.3l-0.3,1.5C65.7,29.3,66,28.9,66.5,28.6z"/>
				<path class="st2" d="M74.6,28.6c0.5,0.2,0.8,0.6,1.1,1s0.4,0.9,0.4,1.5c0,0.2,0,0.4-0.1,0.7c0,0.2-0.1,0.5-0.2,0.8h-6.1
					c0,0.2,0,0.3,0,0.4c0,0.6,0.2,1.1,0.6,1.5s0.9,0.5,1.5,0.5c0.6,0,1-0.1,1.4-0.4s0.7-0.6,0.9-1h1.4c-0.3,0.7-0.9,1.3-1.5,1.8
					s-1.5,0.7-2.4,0.7c-1,0-1.7-0.3-2.3-0.8c-0.6-0.6-0.9-1.3-0.9-2.3c0-0.3,0-0.6,0.1-0.9c0.1-0.8,0.4-1.5,0.9-2.1
					c0.4-0.6,1-1.1,1.6-1.4c0.6-0.3,1.3-0.5,2.1-0.5C73.5,28.2,74.1,28.3,74.6,28.6z M74.7,31.2c0-0.6-0.2-1.1-0.6-1.4
					c-0.4-0.3-0.9-0.5-1.5-0.5c-0.7,0-1.2,0.2-1.8,0.6c-0.5,0.4-0.9,1-1.1,1.8h4.9C74.7,31.5,74.7,31.3,74.7,31.2z"/>
			</g>
			<g class="st1">
				<path class="st2" d="M77.2,38.6v-0.1c1.9-2,2.9-4.8,2.9-7.6c0-2.9-1-5.8-3.2-7.8v-0.1h1.3c2,1.8,3.1,4.8,3.1,8
					c0,3.2-1.1,6-2.8,7.7H77.2z"/>
			</g>
		</g>
	</g>
	<g id="Grupo_1997" transform="translate(355 238)">
		<g id="Grupo_1992-2" transform="translate(136 205)">
			<g id="Retângulo_1004-2">
				<rect class="st3" width="110" height="45"/>
				<rect x="0.5" y="0.5" class="st4" width="109" height="44"/>
			</g>
		</g>
	</g>
	<g id="Grupo_1316" transform="translate(452 101)">
		<rect id="Retângulo_1005" x="149" y="297" class="st5" width="110" height="45"/>
		<g class="st1">
			<path class="st2" d="M183.7,316.4l2.5,2.5h-1.7l-1.9-1.9c-0.5,0.1-1,0.2-1.5,0.2c-2.7,0-4.9-2.1-4.9-5s2.2-5,4.9-5
				c2.8,0,4.9,2.1,4.9,5C186,314,185.1,315.6,183.7,316.4z M181.1,316c2.1,0,3.6-1.5,3.6-3.9c0-2.4-1.5-3.9-3.6-3.9
				c-2.1,0-3.6,1.5-3.6,3.9C177.5,314.5,179,316,181.1,316z"/>
			<path class="st2" d="M194.5,317h-1.3v-1.1c-0.5,0.8-1.4,1.2-2.5,1.2c-1.8,0-3.2-1.1-3.2-3.3v-4.5h1.3v4.3c0,1.6,0.9,2.4,2.1,2.4
				c1.3,0,2.2-0.8,2.2-2.5v-4.2h1.3V317z"/>
			<path class="st2" d="M199.8,309.2c1.4,0,2.4,0.7,2.9,1.5v-1.4h1.3v7.7h-1.3v-1.4c-0.5,0.8-1.5,1.6-2.9,1.6c-2,0-3.6-1.6-3.6-4
				C196.2,310.7,197.8,309.2,199.8,309.2z M200.1,310.3c-1.4,0-2.6,1-2.6,2.8s1.2,2.9,2.6,2.9c1.4,0,2.6-1.1,2.6-2.9
				C202.7,311.4,201.5,310.3,200.1,310.3z"/>
			<path class="st2" d="M211.7,312.7c0-1.6-0.9-2.4-2.1-2.4c-1.3,0-2.2,0.8-2.2,2.5v4.2h-1.3v-7.7h1.3v1.1c0.5-0.8,1.4-1.2,2.5-1.2
				c1.8,0,3.1,1.1,3.1,3.3v4.5h-1.3V312.7z"/>
			<path class="st2" d="M218.3,309.2c1.2,0,2.3,0.6,2.8,1.5v-4.1h1.3V317h-1.3v-1.4c-0.5,0.9-1.5,1.6-2.9,1.6c-2.1,0-3.6-1.6-3.6-4
				C214.6,310.7,216.2,309.2,218.3,309.2z M218.5,310.3c-1.4,0-2.6,1-2.6,2.8s1.2,2.9,2.6,2.9s2.6-1.1,2.6-2.9
				C221.1,311.4,219.9,310.3,218.5,310.3z"/>
			<path class="st2" d="M227.9,317.1c-2.2,0-3.8-1.5-3.8-4c0-2.4,1.7-3.9,3.9-3.9c2.2,0,3.9,1.5,3.9,3.9
				C231.8,315.6,230.1,317.1,227.9,317.1z M227.9,316c1.3,0,2.6-0.9,2.6-2.9c0-1.9-1.3-2.8-2.6-2.8c-1.3,0-2.6,0.9-2.6,2.8
				C225.4,315.1,226.6,316,227.9,316z"/>
		</g>
		<g class="st1">
			<path class="st2" d="M183,335.6c-1.8-1.8-2.8-4.6-2.8-7.7c0-3.2,1.1-6.1,3.1-8h1.3v0.1c-2.2,2-3.2,5-3.2,7.8c0,2.8,1,5.6,2.9,7.6
				v0.1H183z"/>
		</g>
		<g class="st1">
			<path class="st2" d="M196.9,325.3l-3.8,7.7h-1.3l-0.8-6.1l-2.9,6.1h-1.3l-1.1-7.7h1.3l0.6,6.4l3-6.4h1.3l0.7,6.4l2.9-6.4H196.9z"
				/>
			<path class="st2" d="M203.8,325.8c0.5,0.4,0.7,1,0.7,1.8c0,0.3,0,0.6-0.1,0.8l-0.8,4.5h-1.3l0.8-4.3c0-0.2,0.1-0.4,0.1-0.6
				c0-0.6-0.2-1-0.5-1.3c-0.3-0.3-0.8-0.4-1.3-0.4c-0.7,0-1.2,0.2-1.7,0.6s-0.8,1-0.9,1.8v0l-0.8,4.3h-1.3l1.8-10.4h1.3l-0.7,3.8
				c0.3-0.4,0.7-0.7,1.2-0.9c0.5-0.2,1-0.3,1.5-0.3C202.8,325.2,203.4,325.4,203.8,325.8z"/>
			<path class="st2" d="M212.1,325.6c0.5,0.2,0.8,0.6,1.1,1c0.2,0.4,0.4,0.9,0.4,1.5c0,0.2,0,0.4-0.1,0.7c0,0.2-0.1,0.5-0.2,0.8
				h-6.1c0,0.2,0,0.3,0,0.4c0,0.6,0.2,1.1,0.6,1.5s0.9,0.5,1.5,0.5c0.6,0,1-0.1,1.4-0.4c0.4-0.3,0.7-0.6,0.9-1h1.4
				c-0.3,0.7-0.9,1.3-1.5,1.8s-1.5,0.7-2.4,0.7c-1,0-1.7-0.3-2.3-0.8c-0.6-0.6-0.9-1.3-0.9-2.3c0-0.3,0-0.6,0.1-0.9
				c0.1-0.8,0.4-1.5,0.9-2.1c0.4-0.6,1-1.1,1.6-1.4c0.6-0.3,1.3-0.5,2.1-0.5C211.1,325.2,211.7,325.3,212.1,325.6z M212.3,328.2
				c0-0.6-0.2-1.1-0.6-1.4c-0.4-0.3-0.9-0.5-1.5-0.5c-0.7,0-1.2,0.2-1.8,0.6c-0.5,0.4-0.9,1-1.1,1.8h4.9
				C212.2,328.5,212.3,328.3,212.3,328.2z"/>
			<path class="st2" d="M221.5,325.8c0.5,0.4,0.7,1,0.7,1.9c0,0.3,0,0.6-0.1,0.8l-0.8,4.5h-1.3l0.8-4.3c0-0.2,0.1-0.4,0.1-0.6
				c0-0.6-0.2-1-0.5-1.3s-0.7-0.4-1.3-0.4c-0.7,0-1.2,0.2-1.7,0.6c-0.5,0.4-0.8,1-0.9,1.8v0l-0.8,4.3h-1.3l1.4-7.7h1.3l-0.2,1.1
				c0.3-0.4,0.7-0.7,1.2-0.9c0.5-0.2,1-0.3,1.5-0.3C220.4,325.2,221,325.4,221.5,325.8z"/>
		</g>
		<g class="st1">
			<path class="st2" d="M223.7,335.6v-0.1c1.9-2,2.9-4.8,2.9-7.6c0-2.9-1-5.8-3.2-7.8v-0.1h1.3c2,1.8,3.1,4.8,3.1,8
				c0,3.2-1.1,6-2.8,7.7H223.7z"/>
		</g>
	</g>
	<g id="Grupo_1996" transform="translate(452 146)">
		<g id="Retângulo_1005-2" transform="translate(149 297)">
			<rect class="st3" width="110" height="45"/>
			<rect x="0.5" y="0.5" class="st6" width="109" height="44"/>
		</g>
	</g>
	<g id="Grupo_1313" transform="translate(-182 210)">
		<g id="Grupo_1991" transform="translate(563 188)">
			<rect id="Retângulo_1007" class="st7" width="110" height="45"/>
			<g class="st1">
				<path class="st2" d="M32.7,15.9h-1.9V20h-1.3v-9.8h3.2c2.3,0,3.4,1.3,3.4,2.9C36,14.6,35.1,15.9,32.7,15.9z M32.7,14.9
					c1.5,0,2.1-0.7,2.1-1.8c0-1.1-0.6-1.8-2.1-1.8h-1.9v3.6H32.7z"/>
				<path class="st2" d="M41,20.1c-2.2,0-3.8-1.5-3.8-4c0-2.4,1.7-3.9,3.9-3.9c2.2,0,3.9,1.5,3.9,3.9C44.9,18.6,43.2,20.1,41,20.1z
					 M41,19c1.3,0,2.6-0.9,2.6-2.9c0-1.9-1.3-2.8-2.6-2.8c-1.3,0-2.6,0.9-2.6,2.8C38.4,18.1,39.6,19,41,19z"/>
				<path class="st2" d="M47.9,20h-1.3v-7.7h1.3v1.2c0.4-0.9,1.3-1.4,2.5-1.4v1.3H50c-1.2,0-2.1,0.5-2.1,2.3V20z"/>
				<path class="st2" d="M58.7,12.2c1.4,0,2.4,0.7,2.8,1.5v-1.4h1.3v11.3h-1.3v-5.1c-0.4,0.8-1.5,1.5-2.9,1.5c-2,0-3.6-1.6-3.6-4
					C55.1,13.7,56.6,12.2,58.7,12.2z M59,13.3c-1.4,0-2.6,1-2.6,2.8S57.6,19,59,19c1.4,0,2.6-1.1,2.6-2.9
					C61.6,14.4,60.4,13.3,59,13.3z"/>
				<path class="st2" d="M71.8,20h-1.3v-1.1c-0.5,0.8-1.4,1.2-2.5,1.2c-1.8,0-3.2-1.1-3.2-3.3v-4.5h1.3v4.3c0,1.6,0.9,2.4,2.1,2.4
					c1.3,0,2.2-0.8,2.2-2.5v-4.2h1.3V20z"/>
				<path class="st2" d="M77.3,20.1c-2.2,0-3.8-1.5-3.8-4c0-2.4,1.6-3.9,3.8-3.9c2.2,0,3.7,1.6,3.7,3.7c0,0.3,0,0.5,0,0.8h-6.1
					c0.1,1.6,1.2,2.4,2.5,2.4c1.1,0,1.9-0.6,2.2-1.4h1.4C80.4,19,79.2,20.1,77.3,20.1z M74.8,15.6h4.8c0-1.5-1.1-2.3-2.4-2.3
					C76,13.3,74.9,14.1,74.8,15.6z"/>
			</g>
			<g class="st1">
				<path class="st2" d="M38.8,38.6C37.1,36.9,36,34,36,30.9c0-3.2,1.1-6.1,3.1-8h1.3V23c-2.2,2-3.2,5-3.2,7.8c0,2.8,1,5.6,2.9,7.6
					v0.1H38.8z"/>
			</g>
			<g class="st1">
				<path class="st2" d="M52.8,28.3L49,36h-1.3L47,29.9L44,36h-1.3l-1-7.7H43l0.6,6.4l3-6.4h1.3l0.7,6.4l2.9-6.4H52.8z"/>
				<path class="st2" d="M59.7,28.8c0.5,0.4,0.7,1,0.7,1.8c0,0.3,0,0.6-0.1,0.8L59.6,36h-1.3l0.8-4.3c0-0.2,0.1-0.4,0.1-0.6
					c0-0.6-0.2-1-0.5-1.3c-0.3-0.3-0.7-0.4-1.3-0.4c-0.7,0-1.2,0.2-1.7,0.6c-0.5,0.4-0.8,1-0.9,1.8v0L54,36h-1.3l1.8-10.4h1.3
					l-0.7,3.8c0.3-0.4,0.7-0.7,1.2-0.9c0.5-0.2,1-0.3,1.5-0.3C58.6,28.2,59.3,28.4,59.7,28.8z"/>
				<path class="st2" d="M63.5,28.3l1.3,6.2l3.5-6.2h1.3L63,39.6h-1.3l2.2-3.7l-1.8-7.6H63.5z"/>
			</g>
			<g class="st1">
				<path class="st2" d="M69.8,38.6v-0.1c1.9-2,2.9-4.8,2.9-7.6c0-2.9-1-5.8-3.2-7.8v-0.1H71c2,1.8,3.1,4.8,3.1,8
					c0,3.2-1.1,6-2.8,7.7H69.8z"/>
			</g>
		</g>
	</g>
	<g id="Grupo_1998" transform="translate(-182 255)">
		<g id="Grupo_1991-2" transform="translate(563 188)">
			<g id="Retângulo_1007-2">
				<rect class="st3" width="110" height="45"/>
				<rect x="0.5" y="0.5" class="st8" width="109" height="44"/>
			</g>
		</g>
	</g>
	<g id="Grupo_1312" transform="translate(-339 115)">
		<g id="Grupo_1990" transform="translate(610 283)">
			<rect id="Retângulo_1008" class="st0" width="110" height="45"/>
			<g class="st1">
				<path class="st2" d="M41.6,19.4l2.5,2.5h-1.7l-1.9-1.9c-0.5,0.1-1,0.2-1.5,0.2c-2.7,0-4.9-2.1-4.9-5s2.2-5,4.9-5
					c2.8,0,4.9,2.1,4.9,5C43.9,17,43,18.6,41.6,19.4z M39,19c2.1,0,3.6-1.5,3.6-3.9c0-2.4-1.5-3.9-3.6-3.9s-3.6,1.5-3.6,3.9
					C35.4,17.5,36.9,19,39,19z"/>
				<path class="st2" d="M52.4,20h-1.3v-1.1c-0.5,0.8-1.4,1.2-2.5,1.2c-1.8,0-3.2-1.1-3.2-3.3v-4.5h1.3v4.3c0,1.6,0.9,2.4,2.1,2.4
					c1.3,0,2.2-0.8,2.2-2.5v-4.2h1.3V20z"/>
				<path class="st2" d="M57.8,20.1c-2.2,0-3.8-1.5-3.8-4c0-2.4,1.6-3.9,3.8-3.9c2.2,0,3.7,1.6,3.7,3.7c0,0.3,0,0.5,0,0.8h-6.1
					c0.1,1.6,1.2,2.4,2.5,2.4c1.1,0,1.9-0.6,2.2-1.4h1.4C61,19,59.7,20.1,57.8,20.1z M55.4,15.6h4.8c0-1.5-1.1-2.3-2.4-2.3
					C56.5,13.3,55.5,14.1,55.4,15.6z"/>
				<path class="st2" d="M74.3,15.7c0-1.6-0.8-2.4-2.1-2.4c-1.3,0-2.2,0.8-2.2,2.5V20h-1.3v-4.3c0-1.6-0.8-2.4-2.1-2.4
					c-1.3,0-2.2,0.8-2.2,2.5V20h-1.3v-7.7h1.3v1.1c0.5-0.8,1.4-1.2,2.4-1.2c1.3,0,2.3,0.6,2.8,1.7c0.4-1.1,1.5-1.7,2.7-1.7
					c1.8,0,3.1,1.1,3.1,3.3V20h-1.3V15.7z"/>
			</g>
			<g class="st1">
				<path class="st2" d="M38.3,38.6c-1.8-1.8-2.8-4.6-2.8-7.7c0-3.2,1.1-6.1,3.1-8h1.3V23c-2.2,2-3.2,5-3.2,7.8c0,2.8,1,5.6,2.9,7.6
					v0.1H38.3z"/>
			</g>
			<g class="st1">
				<path class="st2" d="M52.2,28.3L48.5,36h-1.3l-0.8-6.1L43.5,36h-1.3l-1-7.7h1.3l0.6,6.4l3-6.4h1.3l0.7,6.4l2.9-6.4H52.2z"/>
				<path class="st2" d="M59.2,28.8c0.5,0.4,0.7,1,0.7,1.8c0,0.3,0,0.6-0.1,0.8L59,36h-1.3l0.8-4.3c0-0.2,0.1-0.4,0.1-0.6
					c0-0.6-0.2-1-0.5-1.3c-0.3-0.3-0.7-0.4-1.3-0.4c-0.7,0-1.2,0.2-1.7,0.6c-0.5,0.4-0.8,1-0.9,1.8v0L53.4,36h-1.3L54,25.6h1.3
					l-0.7,3.8c0.3-0.4,0.7-0.7,1.2-0.9c0.5-0.2,1-0.3,1.5-0.3C58.1,28.2,58.7,28.4,59.2,28.8z"/>
				<path class="st2" d="M62.8,35.7c-0.5-0.3-0.9-0.6-1.1-1.1c-0.3-0.5-0.4-1-0.4-1.7c0-0.9,0.2-1.7,0.6-2.4c0.4-0.7,1-1.3,1.7-1.7
					s1.5-0.6,2.4-0.6c0.6,0,1.2,0.1,1.7,0.4c0.5,0.3,0.9,0.6,1.2,1.1c0.3,0.5,0.4,1,0.4,1.7c0,0.9-0.2,1.7-0.6,2.4
					c-0.4,0.7-1,1.3-1.7,1.7c-0.7,0.4-1.5,0.6-2.4,0.6C63.8,36.1,63.3,36,62.8,35.7z M66.3,34.6c0.5-0.3,0.9-0.8,1.1-1.3
					s0.4-1.1,0.4-1.8c0-0.7-0.2-1.3-0.6-1.6s-0.9-0.6-1.5-0.6c-0.6,0-1.1,0.2-1.6,0.5c-0.5,0.3-0.8,0.8-1.1,1.3
					c-0.3,0.6-0.4,1.1-0.4,1.8c0,0.7,0.2,1.2,0.6,1.6c0.4,0.4,0.9,0.6,1.5,0.6C65.2,35,65.8,34.9,66.3,34.6z"/>
			</g>
			<g class="st1">
				<path class="st2" d="M70.4,38.6v-0.1c1.9-2,2.9-4.8,2.9-7.6c0-2.9-1-5.8-3.2-7.8v-0.1h1.3c2,1.8,3.1,4.8,3.1,8
					c0,3.2-1.1,6-2.8,7.7H70.4z"/>
			</g>
		</g>
	</g>
	<g id="Grupo_1999" transform="translate(-339 160)">
		<g id="Grupo_1990-2" transform="translate(610 283)">
			<g id="Retângulo_1008-2">
				<rect class="st3" width="110" height="45"/>
				<rect x="0.5" y="0.5" class="st4" width="109" height="44"/>
			</g>
		</g>
	</g>
	<g id="Grupo_1318" transform="translate(240 48)">
		<rect id="Retângulo_1009" x="471" y="350" class="st9" width="110" height="45"/>
		<g class="st1">
			<path class="st2" d="M509.9,360.1c2.1,0,3.8,1.1,4.5,3h-1.5c-0.5-1.2-1.6-1.8-3-1.8c-2,0-3.6,1.5-3.6,3.9c0,2.4,1.5,3.9,3.6,3.9
				c1.4,0,2.5-0.7,3-1.8h1.5c-0.7,1.9-2.4,2.9-4.5,2.9c-2.7,0-4.9-2-4.9-5S507.2,360.1,509.9,360.1z"/>
			<path class="st2" d="M519.7,370.1c-2.2,0-3.8-1.5-3.8-4c0-2.4,1.7-3.9,3.9-3.9c2.2,0,3.9,1.5,3.9,3.9
				C523.6,368.6,521.8,370.1,519.7,370.1z M519.7,369c1.3,0,2.6-0.9,2.6-2.9c0-1.9-1.3-2.8-2.6-2.8c-1.3,0-2.6,0.9-2.6,2.8
				C517.1,368.1,518.3,369,519.7,369z"/>
			<path class="st2" d="M536.4,365.7c0-1.6-0.8-2.4-2.1-2.4c-1.3,0-2.2,0.8-2.2,2.5v4.2h-1.3v-4.3c0-1.6-0.8-2.4-2.1-2.4
				c-1.3,0-2.2,0.8-2.2,2.5v4.2h-1.3v-7.7h1.3v1.1c0.5-0.8,1.4-1.2,2.4-1.2c1.3,0,2.3,0.6,2.8,1.7c0.4-1.1,1.5-1.7,2.7-1.7
				c1.8,0,3.1,1.1,3.1,3.3v4.5h-1.3V365.7z"/>
			<path class="st2" d="M543,370.1c-2.2,0-3.8-1.5-3.8-4c0-2.4,1.7-3.9,3.9-3.9c2.2,0,3.9,1.5,3.9,3.9
				C547,368.6,545.2,370.1,543,370.1z M543,369c1.3,0,2.6-0.9,2.6-2.9c0-1.9-1.3-2.8-2.6-2.8c-1.3,0-2.6,0.9-2.6,2.8
				C540.5,368.1,541.7,369,543,369z"/>
		</g>
		<g class="st1">
			<path class="st2" d="M509.3,388.6c-1.8-1.8-2.8-4.6-2.8-7.7c0-3.2,1.1-6.1,3.1-8h1.3v0.1c-2.2,2-3.2,5-3.2,7.8
				c0,2.8,1,5.6,2.9,7.6v0.1H509.3z"/>
		</g>
		<g class="st1">
			<path class="st2" d="M518.7,378.8c0.5,0.4,0.7,1,0.7,1.8c0,0.3,0,0.6-0.1,0.8l-0.8,4.5h-1.3l0.8-4.3c0-0.2,0.1-0.4,0.1-0.6
				c0-0.6-0.2-1-0.5-1.3s-0.7-0.4-1.3-0.4c-0.7,0-1.2,0.2-1.7,0.6c-0.5,0.4-0.8,1-0.9,1.8v0l-0.8,4.3h-1.3l1.8-10.4h1.3l-0.7,3.8
				c0.3-0.4,0.7-0.7,1.2-0.9c0.5-0.2,1-0.3,1.5-0.3C517.6,378.2,518.2,378.4,518.7,378.8z"/>
			<path class="st2" d="M522.3,385.7c-0.5-0.3-0.9-0.6-1.1-1.1c-0.3-0.5-0.4-1-0.4-1.7c0-0.9,0.2-1.7,0.6-2.4c0.4-0.7,1-1.3,1.7-1.7
				c0.7-0.4,1.5-0.6,2.4-0.6c0.6,0,1.2,0.1,1.7,0.4c0.5,0.3,0.9,0.6,1.2,1.1c0.3,0.5,0.4,1,0.4,1.7c0,0.9-0.2,1.7-0.6,2.4
				s-1,1.3-1.7,1.7c-0.7,0.4-1.5,0.6-2.4,0.6C523.4,386.1,522.8,386,522.3,385.7z M525.8,384.6c0.5-0.3,0.9-0.8,1.1-1.3
				s0.4-1.1,0.4-1.8c0-0.7-0.2-1.3-0.6-1.6c-0.4-0.4-0.9-0.6-1.5-0.6c-0.6,0-1.1,0.2-1.6,0.5c-0.5,0.3-0.8,0.8-1.1,1.3
				c-0.3,0.6-0.4,1.1-0.4,1.8c0,0.7,0.2,1.2,0.6,1.6c0.4,0.4,0.9,0.6,1.5,0.6C524.8,385,525.3,384.9,525.8,384.6z"/>
			<path class="st2" d="M541.2,378.3l-3.8,7.7h-1.3l-0.8-6.1l-2.9,6.1h-1.3l-1-7.7h1.3l0.6,6.4l3-6.4h1.3l0.7,6.4l2.9-6.4H541.2z"/>
		</g>
		<g class="st1">
			<path class="st2" d="M541.4,388.6v-0.1c1.9-2,2.9-4.8,2.9-7.6c0-2.9-1-5.8-3.2-7.8v-0.1h1.3c2,1.8,3.1,4.8,3.1,8
				c0,3.2-1.1,6-2.8,7.7H541.4z"/>
		</g>
	</g>
	<g id="Grupo_1995" transform="translate(240 93)">
		<g id="Retângulo_1009-2" transform="translate(471 350)">
			<rect class="st3" width="110" height="45"/>
			<rect x="0.5" y="0.5" class="st10" width="109" height="44"/>
		</g>
	</g>
	<g id="Grupo_1993" transform="translate(-30)">
		<rect id="Retângulo_1010" x="851" y="398" class="st11" width="110" height="45"/>
		<g class="st1">
			<path class="st2" d="M866.3,418.4l2.5,2.5h-1.7l-1.9-1.9c-0.5,0.1-1,0.2-1.5,0.2c-2.7,0-4.9-2.1-4.9-5s2.2-5,4.9-5
				c2.8,0,4.9,2.1,4.9,5C868.6,416,867.7,417.6,866.3,418.4z M863.7,418c2.1,0,3.6-1.5,3.6-3.9c0-2.4-1.5-3.9-3.6-3.9
				c-2.1,0-3.6,1.5-3.6,3.9C860.1,416.5,861.7,418,863.7,418z"/>
			<path class="st2" d="M877.2,419h-1.3v-1.1c-0.5,0.8-1.4,1.2-2.5,1.2c-1.8,0-3.2-1.1-3.2-3.3v-4.5h1.3v4.3c0,1.6,0.9,2.4,2.1,2.4
				c1.3,0,2.2-0.8,2.2-2.5v-4.2h1.3V419z"/>
			<path class="st2" d="M882.5,411.2c1.4,0,2.4,0.7,2.9,1.5v-1.4h1.3v7.7h-1.3v-1.4c-0.5,0.8-1.5,1.6-2.9,1.6c-2,0-3.6-1.6-3.6-4
				C878.8,412.7,880.4,411.2,882.5,411.2z M882.7,412.3c-1.4,0-2.6,1-2.6,2.8s1.2,2.9,2.6,2.9c1.4,0,2.6-1.1,2.6-2.9
				C885.3,413.4,884.1,412.3,882.7,412.3z"/>
			<path class="st2" d="M894.4,414.7c0-1.6-0.9-2.4-2.1-2.4c-1.3,0-2.2,0.8-2.2,2.5v4.2h-1.3v-7.7h1.3v1.1c0.5-0.8,1.4-1.2,2.5-1.2
				c1.8,0,3.1,1.1,3.1,3.3v4.5h-1.3V414.7z"/>
			<path class="st2" d="M898,412.4h-1v-1h1v-1.9h1.3v1.9h2v1h-2v4.5c0,0.8,0.3,1,1.1,1h0.9v1.1h-1.1c-1.4,0-2.1-0.6-2.1-2.1V412.4z"
				/>
			<path class="st2" d="M906.2,419.1c-2.2,0-3.8-1.5-3.8-4c0-2.4,1.7-3.9,3.9-3.9c2.2,0,3.9,1.5,3.9,3.9
				C910.1,417.6,908.4,419.1,906.2,419.1z M906.2,418c1.3,0,2.6-0.9,2.6-2.9c0-1.9-1.3-2.8-2.6-2.8c-1.3,0-2.6,0.9-2.6,2.8
				C903.6,417.1,904.8,418,906.2,418z"/>
			<path class="st2" d="M918.8,411.2c1.9,0,3.2,1,3.5,2.6H921c-0.3-0.9-1-1.5-2.2-1.5c-1.4,0-2.4,1-2.4,2.9c0,1.9,1,2.9,2.4,2.9
				c1.1,0,1.9-0.5,2.2-1.5h1.4c-0.4,1.5-1.6,2.6-3.5,2.6c-2.2,0-3.7-1.5-3.7-4C915,412.7,916.6,411.2,918.8,411.2z"/>
			<path class="st2" d="M930.8,419h-1.3v-1.1c-0.5,0.8-1.4,1.2-2.5,1.2c-1.8,0-3.2-1.1-3.2-3.3v-4.5h1.3v4.3c0,1.6,0.9,2.4,2.1,2.4
				c1.3,0,2.2-0.8,2.2-2.5v-4.2h1.3V419z"/>
			<path class="st2" d="M935.7,419.1c-1.8,0-3.1-1-3.1-2.4h1.3c0.1,0.7,0.7,1.3,1.8,1.3c1,0,1.6-0.5,1.6-1.1c0-1.7-4.5-0.7-4.5-3.6
				c0-1.2,1.1-2.1,2.8-2.1c1.7,0,2.8,0.9,2.9,2.4h-1.3c-0.1-0.8-0.6-1.3-1.7-1.3c-0.9,0-1.5,0.4-1.5,1.1c0,1.8,4.5,0.8,4.5,3.6
				C938.5,418.2,937.4,419.1,935.7,419.1z"/>
			<path class="st2" d="M940.6,412.4h-1v-1h1v-1.9h1.3v1.9h2v1h-2v4.5c0,0.8,0.3,1,1.1,1h0.9v1.1h-1.1c-1.4,0-2.1-0.6-2.1-2.1V412.4
				z"/>
			<path class="st2" d="M948.5,411.2c1.4,0,2.4,0.7,2.9,1.5v-1.4h1.3v7.7h-1.3v-1.4c-0.5,0.8-1.5,1.6-2.9,1.6c-2,0-3.6-1.6-3.6-4
				C944.9,412.7,946.5,411.2,948.5,411.2z M948.8,412.3c-1.4,0-2.6,1-2.6,2.8s1.2,2.9,2.6,2.9s2.6-1.1,2.6-2.9
				C951.4,413.4,950.2,412.3,948.8,412.3z"/>
		</g>
		<g class="st1">
			<path class="st2" d="M866.8,434.6c-1.8-1.8-2.8-4.6-2.8-7.7c0-3.2,1.1-6.1,3.1-8h1.3v0.1c-2.2,2-3.2,5-3.2,7.8
				c0,2.8,1,5.6,2.9,7.6v0.1H866.8z"/>
		</g>
		<g class="st1">
			<path class="st2" d="M876.2,424.8c0.5,0.4,0.7,1,0.7,1.8c0,0.3,0,0.6-0.1,0.8L876,432h-1.3l0.8-4.3c0-0.2,0.1-0.4,0.1-0.6
				c0-0.6-0.2-1-0.5-1.3c-0.3-0.3-0.7-0.4-1.3-0.4c-0.7,0-1.2,0.2-1.7,0.6c-0.5,0.4-0.8,1-0.9,1.8v0l-0.8,4.3h-1.3l1.8-10.4h1.3
				l-0.7,3.8c0.3-0.4,0.7-0.7,1.2-0.9c0.5-0.2,1-0.3,1.5-0.3C875.1,424.2,875.7,424.4,876.2,424.8z"/>
			<path class="st2" d="M879.8,431.7c-0.5-0.3-0.9-0.6-1.1-1.1c-0.3-0.5-0.4-1-0.4-1.7c0-0.9,0.2-1.7,0.6-2.4c0.4-0.7,1-1.3,1.7-1.7
				s1.5-0.6,2.4-0.6c0.6,0,1.2,0.1,1.7,0.4c0.5,0.3,0.9,0.6,1.2,1.1c0.3,0.5,0.4,1,0.4,1.7c0,0.9-0.2,1.7-0.6,2.4
				c-0.4,0.7-1,1.3-1.7,1.7c-0.7,0.4-1.5,0.6-2.4,0.6C880.8,432.1,880.3,432,879.8,431.7z M883.3,430.6c0.5-0.3,0.9-0.8,1.1-1.3
				s0.4-1.1,0.4-1.8c0-0.7-0.2-1.3-0.6-1.6s-0.9-0.6-1.5-0.6c-0.6,0-1.1,0.2-1.6,0.5c-0.5,0.3-0.8,0.8-1.1,1.3
				c-0.3,0.6-0.4,1.1-0.4,1.8c0,0.7,0.2,1.2,0.6,1.6c0.4,0.4,0.9,0.6,1.5,0.6C882.3,431,882.8,430.9,883.3,430.6z"/>
			<path class="st2" d="M898.7,424.3l-3.8,7.7h-1.3l-0.8-6.1l-2.9,6.1h-1.3l-1-7.7h1.3l0.6,6.4l3-6.4h1.3l0.7,6.4l2.9-6.4H898.7z"/>
			<path class="st2" d="M915.2,424.8c0.5,0.4,0.7,1,0.7,1.9c0,0.3,0,0.6-0.1,0.8l-0.8,4.5h-1.3l0.8-4.3c0-0.2,0.1-0.4,0.1-0.6
				c0-0.6-0.2-1-0.5-1.3c-0.3-0.3-0.7-0.4-1.3-0.4c-0.6,0-1.2,0.2-1.6,0.6c-0.5,0.4-0.8,0.9-0.9,1.7l-0.8,4.5h-1.3l0.8-4.3
				c0-0.2,0.1-0.4,0.1-0.6c0-0.6-0.2-1-0.5-1.3s-0.7-0.4-1.3-0.4c-0.7,0-1.2,0.2-1.7,0.6c-0.5,0.4-0.8,1-0.9,1.8v0L904,432h-1.3
				l1.4-7.7h1.3l-0.2,1.1c0.3-0.4,0.7-0.7,1.2-0.9c0.5-0.2,1-0.3,1.5-0.3c0.6,0,1.2,0.1,1.6,0.4s0.7,0.7,0.9,1.3
				c0.3-0.5,0.8-1,1.3-1.3c0.5-0.3,1.1-0.4,1.7-0.4C914.1,424.2,914.8,424.4,915.2,424.8z"/>
			<path class="st2" d="M925.3,424.3L924,432h-1.3l0.2-1.1c-0.3,0.4-0.7,0.7-1.2,0.9c-0.5,0.2-1,0.3-1.5,0.3c-0.8,0-1.4-0.2-1.9-0.7
				s-0.7-1.1-0.7-1.9c0-0.2,0-0.5,0.1-0.8l0.8-4.5h1.3l-0.8,4.3c0,0.2-0.1,0.4-0.1,0.6c0,0.6,0.2,1,0.5,1.3s0.7,0.4,1.3,0.4
				c0.7,0,1.2-0.2,1.7-0.6c0.5-0.4,0.8-1,0.9-1.8v0l0.8-4.3H925.3z"/>
			<path class="st2" d="M927.2,426.1c0.4-0.6,0.9-1.1,1.6-1.4c0.6-0.3,1.3-0.5,2-0.5c0.9,0,1.7,0.2,2.2,0.7c0.5,0.5,0.8,1.1,0.9,1.9
				h-1.4c0-0.5-0.2-0.8-0.6-1.1c-0.3-0.3-0.8-0.4-1.3-0.4c-0.7,0-1.4,0.2-1.9,0.7c-0.5,0.5-0.9,1.2-1,2.1c0,0.3-0.1,0.6-0.1,0.8
				c0,0.7,0.2,1.2,0.5,1.6s0.8,0.6,1.5,0.6c0.6,0,1-0.1,1.5-0.4c0.4-0.3,0.7-0.6,1-1.1h1.4c-0.3,0.8-0.9,1.4-1.6,1.9
				c-0.7,0.5-1.5,0.7-2.4,0.7c-1,0-1.7-0.3-2.3-0.8c-0.6-0.6-0.8-1.3-0.8-2.3c0-0.3,0-0.6,0.1-0.9
				C926.4,427.4,926.7,426.7,927.2,426.1z"/>
			<path class="st2" d="M941.7,424.8c0.5,0.4,0.7,1,0.7,1.8c0,0.3,0,0.6-0.1,0.8l-0.8,4.5h-1.3l0.8-4.3c0-0.2,0.1-0.4,0.1-0.6
				c0-0.6-0.2-1-0.5-1.3c-0.3-0.3-0.8-0.4-1.3-0.4c-0.7,0-1.2,0.2-1.7,0.6s-0.8,1-0.9,1.8v0l-0.8,4.3h-1.3l1.8-10.4h1.3l-0.7,3.8
				c0.3-0.4,0.7-0.7,1.2-0.9c0.5-0.2,1-0.3,1.5-0.3C940.6,424.2,941.2,424.4,941.7,424.8z"/>
		</g>
		<g class="st1">
			<path class="st2" d="M943.9,434.6v-0.1c1.9-2,2.9-4.8,2.9-7.6c0-2.9-1-5.8-3.2-7.8v-0.1h1.3c2,1.8,3.1,4.8,3.1,8
				c0,3.2-1.1,6-2.8,7.7H943.9z"/>
		</g>
	</g>
	<g id="Grupo_1994" transform="translate(-30 45)">
		<g id="Retângulo_1010-2" transform="translate(851 398)">
			<rect class="st3" width="110" height="45"/>
			<rect x="0.5" y="0.5" class="st12" width="109" height="44"/>
		</g>
	</g>
	<g id="Grupo_1328" transform="translate(-237 228)">
		<g id="Grupo_1314" transform="translate(398 170)">
			<g id="Grupo_1989">
				<rect id="Retângulo_1006" class="st5" width="110" height="45"/>
				<g class="st1">
					<path class="st2" d="M39.6,20.1c-2.7,0-4.9-2.1-4.9-5s2.2-5,4.9-5c2.8,0,4.9,2.1,4.9,5S42.3,20.1,39.6,20.1z M39.6,19
						c2.1,0,3.6-1.5,3.6-3.9c0-2.4-1.5-3.9-3.6-3.9S36,12.7,36,15.1C36,17.5,37.5,19,39.6,19z"/>
					<path class="st2" d="M53.1,12.2c1.4,0,2.4,0.7,2.8,1.5v-1.4h1.3v11.3h-1.3v-5.1c-0.4,0.8-1.5,1.5-2.9,1.5c-2,0-3.6-1.6-3.6-4
						C49.4,13.7,51,12.2,53.1,12.2z M53.3,13.3c-1.4,0-2.6,1-2.6,2.8s1.2,2.9,2.6,2.9c1.4,0,2.6-1.1,2.6-2.9
						C55.9,14.4,54.7,13.3,53.3,13.3z"/>
					<path class="st2" d="M66.2,20h-1.3v-1.1c-0.5,0.8-1.4,1.2-2.5,1.2c-1.8,0-3.2-1.1-3.2-3.3v-4.5h1.3v4.3c0,1.6,0.9,2.4,2.1,2.4
						c1.3,0,2.2-0.8,2.2-2.5v-4.2h1.3V20z"/>
					<path class="st2" d="M71.6,20.1c-2.2,0-3.8-1.5-3.8-4c0-2.4,1.6-3.9,3.8-3.9c2.2,0,3.7,1.6,3.7,3.7c0,0.3,0,0.5,0,0.8h-6.1
						c0.1,1.6,1.2,2.4,2.5,2.4c1.1,0,1.9-0.6,2.2-1.4h1.4C74.8,19,73.5,20.1,71.6,20.1z M69.2,15.6H74c0-1.5-1.1-2.3-2.4-2.3
						C70.3,13.3,69.3,14.1,69.2,15.6z"/>
				</g>
				<g class="st1">
					<path class="st2" d="M35.5,38.6c-1.8-1.8-2.8-4.6-2.8-7.7c0-3.2,1.1-6.1,3.1-8H37V23c-2.2,2-3.2,5-3.2,7.8c0,2.8,1,5.6,2.9,7.6
						v0.1H35.5z"/>
				</g>
				<g class="st1">
					<path class="st2" d="M49.4,28.3L45.7,36h-1.3l-0.8-6.1L40.7,36h-1.3l-1-7.7h1.3l0.6,6.4l3-6.4h1.3l0.7,6.4l2.9-6.4H49.4z"/>
					<path class="st2" d="M56.4,28.8c0.5,0.4,0.7,1,0.7,1.8c0,0.3,0,0.6-0.1,0.8L56.2,36H55l0.8-4.3c0-0.2,0.1-0.4,0.1-0.6
						c0-0.6-0.2-1-0.5-1.3c-0.3-0.3-0.7-0.4-1.3-0.4c-0.7,0-1.2,0.2-1.7,0.6c-0.5,0.4-0.8,1-0.9,1.8v0L50.6,36h-1.3l1.8-10.4h1.3
						l-0.7,3.8c0.3-0.4,0.7-0.7,1.2-0.9c0.5-0.2,1-0.3,1.5-0.3C55.3,28.2,55.9,28.4,56.4,28.8z"/>
					<path class="st2" d="M59.3,30.1c0.4-0.6,0.9-1.1,1.6-1.4c0.6-0.3,1.3-0.5,2-0.5c0.7,0,1.2,0.1,1.7,0.4c0.4,0.3,0.7,0.7,0.9,1.1
						l0.3-1.4H67L65.6,36h-1.3l0.3-1.4c-0.3,0.4-0.8,0.8-1.3,1.1s-1.2,0.4-1.8,0.4c-0.6,0-1.1-0.1-1.6-0.4c-0.5-0.3-0.8-0.6-1.1-1.1
						c-0.3-0.5-0.4-1-0.4-1.7c0-0.3,0-0.6,0.1-0.9C58.6,31.4,58.9,30.7,59.3,30.1z M65.1,31.5c0-0.7-0.2-1.2-0.6-1.6
						c-0.4-0.4-0.9-0.6-1.5-0.6c-0.5,0-0.9,0.1-1.4,0.3c-0.4,0.2-0.8,0.6-1.1,1c-0.3,0.4-0.5,0.9-0.6,1.5c0,0.2-0.1,0.4-0.1,0.6
						c0,0.7,0.2,1.2,0.6,1.6s0.9,0.6,1.5,0.6c0.5,0,0.9-0.1,1.4-0.3s0.8-0.6,1.1-1c0.3-0.4,0.5-0.9,0.6-1.5
						C65,32,65.1,31.7,65.1,31.5z"/>
					<path class="st2" d="M69.7,33.9c0,0.1,0,0.3,0,0.4c0,0.2,0.1,0.4,0.2,0.5c0.1,0.1,0.4,0.2,0.7,0.2h0.9L71.3,36h-1.1
						c-0.6,0-1.1-0.1-1.4-0.3c-0.3-0.2-0.5-0.6-0.5-1.1c0-0.2,0-0.4,0.1-0.6l0.8-4.5h-1l0.2-1h1l0.3-1.9H71l-0.3,1.9h2l-0.2,1h-2
						L69.7,33.9z"/>
				</g>
				<g class="st1">
					<path class="st2" d="M73.2,38.6v-0.1c1.9-2,2.9-4.8,2.9-7.6c0-2.9-1-5.8-3.2-7.8v-0.1h1.3c2,1.8,3.1,4.8,3.1,8
						c0,3.2-1.1,6-2.8,7.7H73.2z"/>
				</g>
			</g>
		</g>
	</g>
	<g id="Grupo_2000" transform="translate(-237 273)">
		<g id="Grupo_1314-2" transform="translate(398 170)">
			<g id="Grupo_1989-2">
				<g id="Retângulo_1006-2">
					<rect class="st3" width="110" height="45"/>
					<rect x="0.5" y="0.5" class="st6" width="109" height="44"/>
				</g>
			</g>
		</g>
	</g>
</g>
</svg>
