<svg xmlns="http://www.w3.org/2000/svg" width="534" height="237" viewBox="0 0 534 237">
  <g id="img-slide-21" transform="translate(-280 -243)">
    <g id="Grupo_1311" data-name="Grupo 1311" transform="translate(159 89)">
      <rect id="Retângulo_1002" data-name="Retângulo 1002" width="229.943" height="61.033" rx="30.516" transform="translate(281 243)" fill="#f0f0f3"/>
      <text id="Metodologia_5W2H" data-name="Metodologia   5W2H" transform="translate(322 278)" font-size="14" font-family="Poppins-SemiBold, Poppins" font-weight="600"><tspan x="0" y="0" xml:space="preserve">Metodologia   5W2H</tspan></text>
    </g>
    <g id="Grupo_1315" data-name="Grupo 1315" transform="translate(181 65)">
      <rect id="Retângulo_1004" data-name="Retângulo 1004" width="93" height="45" rx="10" transform="translate(136 205)" fill="#108141"/>
      <text id="Onde_where_" data-name="Onde(where)" transform="translate(183 225)" fill="#fff" font-size="14" font-family="Poppins-Regular, Poppins"><tspan x="-19.054" y="0">Onde</tspan><tspan x="-27.867" y="16">(</tspan><tspan y="16" font-family="Poppins-Italic, Poppins" font-style="italic">where</tspan><tspan y="16">)</tspan></text>
    </g>
    <g id="Grupo_1316" data-name="Grupo 1316" transform="translate(131 56)">
      <rect id="Retângulo_1005" data-name="Retângulo 1005" width="93" height="45" rx="10" transform="translate(149 297)" fill="#1b8992"/>
      <text id="Quando_when_" data-name="Quando(when)" transform="translate(196 317)" fill="#fff" font-size="14" font-family="Poppins-Regular, Poppins"><tspan x="-28.42" y="0">Quando</tspan><tspan x="-25.396" y="16">(</tspan><tspan y="16" font-family="Poppins-Italic, Poppins" font-style="italic">when</tspan><tspan y="16">)</tspan></text>
    </g>
    <g id="Grupo_1313" data-name="Grupo 1313" transform="translate(141 82)">
      <rect id="Retângulo_1007" data-name="Retângulo 1007" width="93" height="45" rx="10" transform="translate(563 188)" fill="#2f5579"/>
      <text id="Por_que_why_" data-name="Por que(why)" transform="translate(610 208)" fill="#fff" font-size="14" font-family="Poppins-Regular, Poppins"><tspan x="-26.565" y="0">Por que</tspan><tspan x="-20.517" y="16">(</tspan><tspan y="16" font-family="Poppins-Italic, Poppins" font-style="italic">why</tspan><tspan y="16">)</tspan></text>
    </g>
    <g id="Grupo_1312" data-name="Grupo 1312" transform="translate(111 70)">
      <rect id="Retângulo_1008" data-name="Retângulo 1008" width="93" height="45" rx="10" transform="translate(610 283)" fill="#108141"/>
      <text id="Quem_who_" data-name="Quem(who)" transform="translate(657 303)" fill="#fff" font-size="14" font-family="Poppins-Regular, Poppins"><tspan x="-21.546" y="0">Quem</tspan><tspan x="-21.056" y="16">(</tspan><tspan y="16" font-family="Poppins-Italic, Poppins" font-style="italic">who</tspan><tspan y="16">)</tspan></text>
    </g>
    <g id="Grupo_1318" data-name="Grupo 1318" transform="translate(157 83)">
      <rect id="Retângulo_1009" data-name="Retângulo 1009" width="93" height="45" rx="10" transform="translate(471 350)" fill="#294667"/>
      <text id="Como_how_" data-name="Como(how)" transform="translate(518 370)" fill="#fff" font-size="14" font-family="Poppins-Regular, Poppins"><tspan x="-21.574" y="0">Como</tspan><tspan x="-21.056" y="16">(</tspan><tspan y="16" font-family="Poppins-Italic, Poppins" font-style="italic">how</tspan><tspan y="16">)</tspan></text>
    </g>
    <g id="Grupo_1317" data-name="Grupo 1317" transform="translate(111 72)">
      <rect id="Retângulo_1010" data-name="Retângulo 1010" width="113" height="45" rx="10" transform="translate(294 363)" fill="#6dafcc"/>
      <text id="Quanto_custa_how_much_" data-name="Quanto custa(how much)" transform="translate(351 383)" fill="#fff" font-size="14" font-family="Poppins-Regular, Poppins"><tspan x="-47.768" y="0">Quanto custa</tspan><tspan x="-43.561" y="16">(</tspan><tspan y="16" font-family="Poppins-Italic, Poppins" font-style="italic">how much</tspan><tspan y="16">)</tspan></text>
    </g>
    <g id="Grupo_1328" data-name="Grupo 1328" transform="translate(111 73)">
      <g id="Grupo_1314" data-name="Grupo 1314" transform="translate(47)">
        <rect id="Retângulo_1006" data-name="Retângulo 1006" width="93" height="45" rx="10" transform="translate(351 170)" fill="#1b8992"/>
        <text id="O_que_what_" data-name="O que(what)" transform="translate(398 190)" fill="#fff" font-size="14" font-family="Poppins-Regular, Poppins"><tspan x="-20.923" y="0">O que</tspan><tspan x="-23.856" y="16">(</tspan><tspan y="16" font-family="Poppins-Italic, Poppins" font-style="italic">what</tspan><tspan y="16">)</tspan></text>
      </g>
    </g>
  </g>
</svg>
