<svg xmlns="http://www.w3.org/2000/svg" xmlns:xlink="http://www.w3.org/1999/xlink" width="773" height="281" viewBox="0 0 773 281">
  <defs>
    <clipPath id="clip-path">
      <rect id="Retângulo_383" data-name="Retângulo 383" width="407.289" height="106.667" fill="none"/>
    </clipPath>
  </defs>
  <g id="img-slide-25" transform="translate(-58 -169)">
    <g id="Grupo_1134" data-name="Grupo 1134" transform="translate(13 14)">
      <g id="Grupo_1127" data-name="Grupo 1127" transform="translate(230 236)">
        <g id="Grupo_1126" data-name="Grupo 1126" clip-path="url(#clip-path)">
          <path id="Caminho_827" data-name="Caminho 827" d="M633.51,4.995,633.1,3.578c.007-.457.326-.606.7-.658a12.815,12.815,0,0,1,1.781-.049q37.1,0,74.191,0a12.368,12.368,0,0,1,1.6.038c.591.077,1.067.269.786,1.026a4.512,4.512,0,0,0-.706,2.146c.363,2.218-.525,4.288-.792,6.431a43.625,43.625,0,0,0,.01,13.757c.157.631.248,1.276.462,1.9a5.709,5.709,0,0,0,6.433,4.166,31.26,31.26,0,0,0,5.542-1.313,45.614,45.614,0,0,1,5.376-1.251c5.531-.877,9.724,2.2,10.537,7.763a32.627,32.627,0,0,1,.026,10.282,11.4,11.4,0,0,1-3.19,6.424c-2.938,2.088-6.154,1.832-9.427,1.122a39.2,39.2,0,0,0-4.17-.931c-1.307-.356-2.55-.9-3.9-1.144-3.86-.693-6.637,1.088-7.492,4.93-.231,1.04-.418,2.089-.575,3.146a48.666,48.666,0,0,0,.008,8.816,3.038,3.038,0,0,1,.082,1.19,2.643,2.643,0,0,0-.063,1.959c.034,2.779.957,5.368,1.745,7.979.28.928.133,1.362-.856,1.664a49.122,49.122,0,0,1-21.33,1.945,11.432,11.432,0,0,1-2.07-.53c-3.588-1.214-4.674-3.073-4.021-6.785.618-3.513,2.092-6.827,2.44-10.4.515-5.3-1.294-8.677-6.264-10.159a25.27,25.27,0,0,0-15.293.215c-3.926,1.275-6.045,4.982-5.61,9.279.363,3.582,1.616,6.936,2.449,10.4.988,4.1-.123,6.322-4.131,7.461-5.441,1.546-10.962,1.08-16.457.191a53.567,53.567,0,0,1-6.591-1.566c-1.011-.3-1.284-.716-.961-1.792a52.812,52.812,0,0,0,2.281-18.665,18.119,18.119,0,0,0-1.054-5.4c-1.034-.994-1.466-2.489-2.745-3.276a4.446,4.446,0,0,0-1.765-.73,5.951,5.951,0,0,0-2.993.045,12.76,12.76,0,0,0-2.272.5,10.86,10.86,0,0,0-1.955.646,6.537,6.537,0,0,1-2.5.769,3.778,3.778,0,0,0-2.186.5c-.664.239-1.362-.054-2.029.138a9.126,9.126,0,0,1-2.321.056,6.8,6.8,0,0,0-1.944-.243,1.2,1.2,0,0,1-.462-.194,11.745,11.745,0,0,1-3.849-3.735c-1.672-3.3-1.823-6.871-1.611-10.439a18.872,18.872,0,0,1,1.162-6.284,8.143,8.143,0,0,1,9.122-5.243,51.879,51.879,0,0,1,7.47,1.718,17.589,17.589,0,0,0,4.882.981,5.344,5.344,0,0,0,5.235-3.311,14.6,14.6,0,0,0,1.255-5.345A50.74,50.74,0,0,0,633.771,7.8c-.4-.907.1-1.9-.262-2.809" transform="translate(-389.271 -1.84)" fill="#108141"/>
          <path id="Caminho_828" data-name="Caminho 828" d="M161.084,54.031a6.519,6.519,0,0,1-4.875-4.707,23.912,23.912,0,0,1-.153-15.1c1.411-4.459,5.023-6.08,10.216-5.1,3.337.63,6.477,2.016,9.855,2.489,3.579.5,6.18-1.052,7.2-4.567,1.474-5.076,1.247-10.24.519-15.4a47.3,47.3,0,0,0-1.865-8.526c-.308-.915-.108-1.374.927-1.293.3.023.6,0,.893,0H258.85c2.163,0,2.136-.005,1.5,1.971-.36,1.116-.612,2.267-.913,3.4.747,1.976-.28,3.842-.383,5.767-.22,4.09-.536,8.168.3,12.225,1.044,5.083,3.447,6.681,8.556,5.683a17.023,17.023,0,0,0,2.246-.583c1.694-.578,3.44-.96,5.165-1.419a14.371,14.371,0,0,1,5.144-.3c3.682.361,5.782,2.63,6.714,6.007a26.065,26.065,0,0,1,.024,13.748,9.484,9.484,0,0,1-2.928,4.812,9.1,9.1,0,0,1-5.508,1.541,10,10,0,0,0-2.8-.2c-.188.006-.375,0-.563-.013-1.93-.15-3.612-1.116-5.428-1.642-.57-.165-1.133-.354-1.71-.5-5.1-1.276-7.855.426-8.928,5.531a41.66,41.66,0,0,0-.132,12.918c.188,1.358-.172,2.7.156,4.035-.05,1.82.741,3.44,1.254,5.121.253.829.4,1.434-.7,1.76-7.455,2.2-15.006,3.284-22.712,1.671-4.286-.9-5.6-3.136-4.722-7.41.716-3.487,2-6.835,2.428-10.4a8.6,8.6,0,0,0-6.385-9.789,26.34,26.34,0,0,0-14.45.014c-4.588,1.292-6.861,5.038-6.318,9.789.41,3.582,1.684,6.921,2.451,10.4.867,3.929-.505,6.421-4.416,7.332-6.642,1.546-13.259.848-19.793-.7-4.461-1.059-4.284-1.136-3.171-5.612a43.66,43.66,0,0,0,.811-19.79c-.973-4.587-4.309-6.693-8.245-5.349-1.6.865-3.44,1.035-5.1,1.72a9.359,9.359,0,0,0-2.855.481,14.11,14.11,0,0,0-1.686.366c-1.561-.02-3.165.487-4.654-.386" transform="translate(-99.526 -1.169)" fill="#1b8992"/>
          <path id="Caminho_829" data-name="Caminho 829" d="M70.529,52.1c1.723-.671,3.407-1.486,5.327-1.418,4.414.23,6.243,1.912,6.7,7.126a52.074,52.074,0,0,1-1.962,20.477c-.452,1.424-1.1,1.336-2.221.979A48.263,48.263,0,0,0,56.512,77.5c-5.339.776-7.382,4.012-6.192,9.308.715,3.184,2.1,6.213,2.3,9.512.359,5.814-1.537,8.364-7.209,9.585a26.6,26.6,0,0,1-11.172-.01c-5.714-1.213-7.913-4.777-6.865-10.67.5-2.819,1.517-5.5,2.163-8.277,1.275-5.48-.8-8.674-6.379-9.477A50.339,50.339,0,0,0,1.62,79.144C.387,79.506,0,79.454.007,78.018Q.065,39.881,0,1.744C0,.244.52,0,1.849,0Q40.09.049,78.331,0a1.978,1.978,0,0,1,2.288,1.621,49.975,49.975,0,0,1,1.668,21.7c-.693,4.822-3.611,6.556-8.321,5.327-3.161-.825-6.213-2.074-9.521-2.339-5.94-.475-9.313,1.857-10.529,7.686a25.989,25.989,0,0,0,.578,13.748c.959,2.859,2.756,4.961,5.932,5.5.857.388,1.7-.178,2.549-.044a21,21,0,0,0,3.378-.179,7.142,7.142,0,0,1,1.592-.356,15.021,15.021,0,0,1,2.585-.567" transform="translate(0 0)" fill="#3e6d93"/>
          <path id="Caminho_830" data-name="Caminho 830" d="M517.285,53.288a5.321,5.321,0,0,0,2.43-.744c.557-.337,1.292.033,1.811-.455a12.815,12.815,0,0,1,2.4-.429,6.944,6.944,0,0,1,2.73-.149,4.574,4.574,0,0,1,2.353,1.063c1.991,1.436,2.036,3.712,2.276,5.777a52.059,52.059,0,0,1-.874,16.711c-.427,1.355-.932,2.691-1.253,4.07-.23.986-.644,1.262-1.592.955A51.8,51.8,0,0,0,513.9,77.721a30.4,30.4,0,0,0-10.262.859c-3.97,1.193-5.572,3.982-4.876,8.06.552,3.233,1.96,6.241,2.38,9.508.833,6.483-1.168,9.444-7.571,10.531a28.562,28.562,0,0,1-9.96-.031c-6.4-1.189-8.715-4.871-7.284-11.242.482-2.145,1.051-4.279,1.724-6.372,2.445-7.6-1.411-10.616-8-11.171a50.248,50.248,0,0,0-18.88,1.856c-1.568.472-2.891.918-3.264-1.46a23.758,23.758,0,0,1-.722-2.469,41.063,41.063,0,0,1-1.658-14.366,27.421,27.421,0,0,1,.551-4.592c.5-2.265,1.314-4.311,3.688-5.277,1.635-.665,3.259-.306,4.89,0,2.5.471,4.785,1.691,7.307,2.079a5.177,5.177,0,0,1,.561.048,5.892,5.892,0,0,0,1.906.187c2.246.16,4.45.122,6.363-1.321a12.946,12.946,0,0,0,3.843-7.825,25.246,25.246,0,0,0-.886-11.794,7.992,7.992,0,0,0-8.919-5.5,34.431,34.431,0,0,0-6.956,1.529,33.79,33.79,0,0,1-3.269.893c-4.636,1.077-7.3-.525-8.524-5.126-.861-4.289-.585-8.606-.343-12.921.093-.709.273-1.406.333-2.121a4.607,4.607,0,0,1,.7-2.867A31.259,31.259,0,0,1,448.494,1.5a1.074,1.074,0,0,1,1.181-.822c.475.021.952,0,1.428,0h74.089c3.289,0,3.289,0,4.437,2.962a37.21,37.21,0,0,1,.856,23.413c-1.389,2.482-3.4,3.449-6.417,3.02a44.789,44.789,0,0,1-6.381-1.66c-2.691-.8-5.389-1.471-8.241-.782a7.353,7.353,0,0,0-5.693,4.9c-1.933,6.008-2.049,12.02.76,17.862.79,1.882,2.644,2.541,4.151,3.6l-.027-.011c.587.173,1.215-.04,1.8.191a14.659,14.659,0,0,0,2.88-.024c.656-.239,1.4.344,2.02-.212.577-.437,1.346-.293,1.951-.646" transform="translate(-286.221 -0.434)" fill="#6dafcc"/>
          <path id="Caminho_831" data-name="Caminho 831" d="M969.112,53.288a5.321,5.321,0,0,0,2.43-.744c.557-.337,1.292.033,1.812-.455a12.811,12.811,0,0,1,2.4-.429,6.944,6.944,0,0,1,2.73-.149,4.574,4.574,0,0,1,2.353,1.063c1.991,1.436,2.036,3.712,2.276,5.777a52.059,52.059,0,0,1-.874,16.711c-.426,1.355-.931,2.691-1.253,4.07-.23.986-.644,1.262-1.592.955a51.8,51.8,0,0,0-13.663-2.365,30.4,30.4,0,0,0-10.262.859c-3.97,1.193-5.571,3.982-4.876,8.06.552,3.233,1.96,6.241,2.38,9.508.833,6.483-1.168,9.444-7.571,10.531a28.563,28.563,0,0,1-9.96-.031c-6.4-1.189-8.715-4.871-7.284-11.242.482-2.145,1.051-4.279,1.724-6.372,2.445-7.6-1.411-10.616-8-11.171a50.248,50.248,0,0,0-18.88,1.856c-1.568.472-2.891.918-3.264-1.46a23.863,23.863,0,0,1-.722-2.469,41.063,41.063,0,0,1-1.658-14.366,27.408,27.408,0,0,1,.551-4.592c.5-2.265,1.314-4.311,3.689-5.277,1.635-.665,3.259-.306,4.889,0,2.5.471,4.785,1.691,7.307,2.079a5.176,5.176,0,0,1,.561.048,5.891,5.891,0,0,0,1.906.187c2.246.16,4.45.122,6.363-1.321a12.946,12.946,0,0,0,3.843-7.825,25.244,25.244,0,0,0-.886-11.794,7.992,7.992,0,0,0-8.918-5.5,34.427,34.427,0,0,0-6.956,1.529,33.79,33.79,0,0,1-3.269.893c-4.636,1.077-7.3-.525-8.524-5.126-.861-4.289-.585-8.606-.342-12.921.093-.709.273-1.406.333-2.121a4.607,4.607,0,0,1,.7-2.867A31.256,31.256,0,0,1,900.321,1.5,1.074,1.074,0,0,1,901.5.677c.475.021.952,0,1.428,0h74.089c3.289,0,3.289,0,4.437,2.962a37.211,37.211,0,0,1,.856,23.413c-1.389,2.482-3.4,3.449-6.417,3.02a44.8,44.8,0,0,1-6.381-1.66c-2.691-.8-5.389-1.471-8.241-.782a7.353,7.353,0,0,0-5.693,4.9c-1.933,6.008-2.049,12.02.76,17.862.79,1.882,2.644,2.541,4.151,3.6l-.027-.011c.587.173,1.215-.04,1.8.191a14.659,14.659,0,0,0,2.88-.024c.656-.239,1.4.344,2.02-.212.577-.437,1.346-.293,1.951-.646" transform="translate(-576.513 -0.434)" fill="#cce3f2"/>
        </g>
      </g>
      <g id="Grupo_1132" data-name="Grupo 1132" transform="translate(0 9)">
        <g id="Grupo_1117" data-name="Grupo 1117" transform="translate(-26 95)">
          <text id="Prever" transform="translate(131 155)" fill="#3e6d93" font-size="12" font-family="Poppins-Medium, Poppins" font-weight="500"><tspan x="-19.038" y="13">Prever</tspan></text>
          <text id="É_a_avaliação_do_futuro_o_aproveitamento_de_recursos_e_o_planejamento_de_um_plano_de_ação." data-name="É a avaliação do futuro, o aproveitamento de recursos e o planejamento de um plano de ação." transform="translate(71 174)" fill="#444" font-size="10" font-family="Poppins-Regular, Poppins"><tspan x="0" y="11">É a avaliação do futuro, o </tspan><tspan x="0" y="24.2">aproveitamento de recursos e o </tspan><tspan x="0" y="37.4">planejamento de um plano de </tspan><tspan x="0" y="50.6">ação.</tspan></text>
        </g>
        <g id="Grupo_1130" data-name="Grupo 1130" transform="translate(584 95)">
          <text id="Controlar_" data-name="Controlar " transform="translate(132 155)" fill="#3e6d93" font-size="12" font-family="Poppins-Medium, Poppins" font-weight="500"><tspan x="-28.68" y="13">Controlar </tspan></text>
          <text id="É_a_certificação_de_que_tudo_ocorra_conforme_as_normas_preestabelecidas." data-name="É a certificação de que tudo ocorra conforme as normas preestabelecidas." transform="translate(92 174)" fill="#444" font-size="10" font-family="Poppins-Regular, Poppins"><tspan x="0" y="11">É a certificação de que tudo </tspan><tspan x="0" y="24.2">ocorra conforme as normas </tspan><tspan x="0" y="37.4">preestabelecidas.</tspan></text>
        </g>
      </g>
      <g id="Grupo_1133" data-name="Grupo 1133" transform="translate(1)">
        <g id="Grupo_1128" data-name="Grupo 1128" transform="translate(169)">
          <text id="Organizar_" data-name="Organizar " transform="translate(121 155)" fill="#3e6d93" font-size="12" font-family="Poppins-Medium, Poppins" font-weight="500"><tspan x="-29.82" y="13">Organizar </tspan></text>
          <text id="É_o_fornecimento_dos_recursos_necessários_para_o_funcionamento_da_empresa_ou_do_serviço." data-name="É o fornecimento dos recursos necessários para o funcionamento da empresa ou do serviço." transform="translate(61 174)" fill="#444" font-size="10" font-family="Poppins-Regular, Poppins"><tspan x="0" y="11">É o fornecimento dos recursos </tspan><tspan x="0" y="24.2">necessários para o funcionamento </tspan><tspan x="0" y="37.4">da empresa ou do serviço.</tspan></text>
        </g>
        <g id="Grupo_1131" data-name="Grupo 1131" transform="translate(398)">
          <text id="Coordenar_" data-name="Coordenar " transform="translate(114 155)" fill="#3e6d93" font-size="12" font-family="Poppins-Medium, Poppins" font-weight="500"><tspan x="-32.634" y="13">Coordenar </tspan></text>
          <text id="É_a_harmonização_das_ações_e_dos_esforços_coletivos_com_o_intuito_de_facilitar_o_trabalho." data-name="É a harmonização das ações e dos esforços coletivos, com o intuito de facilitar o trabalho." transform="translate(61 174)" fill="#444" font-size="10" font-family="Poppins-Regular, Poppins"><tspan x="0" y="11">É a harmonização das ações e dos </tspan><tspan x="0" y="24.2">esforços coletivos, com o intuito de </tspan><tspan x="0" y="37.4">facilitar o trabalho.</tspan></text>
        </g>
      </g>
      <g id="Grupo_1129" data-name="Grupo 1129" transform="translate(286 207)">
        <text id="Comandar_" data-name="Comandar " transform="translate(112 155)" fill="#3e6d93" font-size="12" font-family="Poppins-Medium, Poppins" font-weight="500"><tspan x="-33.102" y="13">Comandar </tspan></text>
        <text id="É_a_direção_e_a_orientação_das_pessoas_com_o_intuito_de_maximizar_o_retorno_de_todos_os_envolvidos." data-name="É a direção e a orientação das pessoas, com o intuito de maximizar o retorno de todos os envolvidos." transform="translate(61 174)" fill="#444" font-size="10" font-family="Poppins-Regular, Poppins"><tspan x="0" y="11">É a direção e a orientação das </tspan><tspan x="0" y="24.2">pessoas, com o intuito de </tspan><tspan x="0" y="37.4">maximizar o retorno de todos os </tspan><tspan x="0" y="50.6">envolvidos.</tspan></text>
      </g>
    </g>
    <path id="Caminho_832" data-name="Caminho 832" d="M4.582,142.233a5.97,5.97,0,0,1,.273-.6c.073-.139.029-.193-.1-.251q-2.09-.93-4.173-1.873c-.142-.064-.186-.03-.251.1a2.052,2.052,0,0,1-.329.646v.116q2.165.976,4.329,1.954c.128.058.2.052.253-.091" transform="translate(262 143.402)" fill="#fff" stroke="#fff" stroke-width="0.5"/>
    <path id="Caminho_833" data-name="Caminho 833" d="M97.9,82.587a9.082,9.082,0,0,0-6.8,11.246,8.983,8.983,0,0,0,2.945,4.6,4.674,4.674,0,0,1,1.775,3.813c-.014,1.217,0,2.434,0,3.651,0,.546.161.712.7.713q1.666,0,3.332,0c1.13,0,2.26,0,3.39,0,.505,0,.677-.176.677-.679q0-1.9,0-3.8a4.749,4.749,0,0,1,.094-1.005,5.037,5.037,0,0,1,1.736-2.754,8.761,8.761,0,0,0,3.009-8.763A9.023,9.023,0,0,0,97.9,82.587m4.941,22.955c-.149.148-.458.043-.7.043-1.668,0-3.337,0-5.005.006-.211,0-.321-.03-.291-.276.027-.227-.071-.535.045-.669.136-.158.451-.047.687-.049.762-.007,1.524,0,2.286,0,.926,0,1.852.007,2.777-.006.21,0,.268.061.246.258-.027.237.1.547-.049.7m0-2.015c-.13.123-.456.044-.695.044-1.68,0-3.36,0-5.04.006-.2,0-.277-.035-.256-.247.024-.238-.077-.56.044-.7.142-.161.47-.048.717-.051.753-.007,1.506,0,2.259,0,.927,0,1.854,0,2.781,0,.181,0,.263.034.24.233-.028.246.1.575-.051.72m2.252-5.94a5.852,5.852,0,0,0-2.148,3.8c-.024.2-.149.162-.268.162H99.865c-.937,0-1.874,0-2.811,0-.154,0-.237-.015-.261-.206a5.334,5.334,0,0,0-1.771-3.409,10.083,10.083,0,0,1-2.139-2.451,8.059,8.059,0,1,1,14.9-5.531,7.751,7.751,0,0,1-2.692,7.636" transform="translate(176.966 196.893)" fill="#fff" stroke="#fff" stroke-width="0.5"/>
    <path id="Caminho_834" data-name="Caminho 834" d="M297.9,4.576a5.588,5.588,0,0,1,.544.261c.192.116.271.056.357-.132.553-1.212,1.118-2.419,1.676-3.629.1-.224.312-.488.258-.671s-.42-.212-.629-.344c-.188-.119-.272-.057-.358.132-.625,1.368-1.26,2.732-1.892,4.1-.024.052-.049.1-.077.162-.017.089.061.1.12.124" transform="translate(-16.929 274.05)" fill="#fff" stroke="#fff" stroke-width="0.5"/>
    <path id="Caminho_835" data-name="Caminho 835" d="M125.988,4.994c.027.058.042.132.139.123.2-.094.408-.205.624-.283s.229-.15.133-.351C126.319,3.294,125.775,2.1,125.216.9c-.113-.241-.163-.633-.371-.678s-.5.2-.754.3c-.121.048-.138.091-.083.209q.994,2.126,1.979,4.257" transform="translate(145.868 273.844)" fill="#fff" stroke="#fff" stroke-width="0.5"/>
    <path id="Caminho_836" data-name="Caminho 836" d="M387.914,308.834c-1.2-.528-2.4-1.074-3.6-1.608-.225-.1-.486-.339-.669-.25s-.222.421-.339.64c-.089.166-.074.252.118.337,1.363.6,2.719,1.212,4.078,1.821l.145.064c.114.022.12-.067.144-.119.087-.182.151-.376.249-.551s.062-.251-.127-.334" transform="translate(-96.998 -13.48)" fill="#fff" stroke="#fff" stroke-width="0.5"/>
    <path id="Caminho_837" data-name="Caminho 837" d="M13.438,307.15c-1.178.541-2.364,1.064-3.546,1.6-.235.106-.592.171-.664.347-.084.208.174.479.271.728,0,.009.006.018.009.027.043.133.119.142.24.087q2.1-.948,4.2-1.889c.061-.027.132-.042.122-.122-.1-.221-.208-.426-.282-.643s-.153-.223-.351-.132" transform="translate(253.372 -13.611)" fill="#fff" stroke="#fff" stroke-width="0.5"/>
    <path id="Caminho_838" data-name="Caminho 838" d="M396.471,139.774c-.065-.176-.135-.2-.309-.118-1.186.541-2.379,1.066-3.566,1.6-.241.11-.632.152-.68.359s.181.5.29.751l.01.027c.037.1.089.118.192.071q2.119-.958,4.243-1.908c.053-.024.111-.034.121-.1-.1-.228-.214-.451-.3-.684" transform="translate(-105.105 143.274)" fill="#fff" stroke="#fff" stroke-width="0.5"/>
    <g id="Icon_feather-archive" data-name="Icon feather-archive" transform="translate(353.5 264.945)">
      <path id="Caminho_839" data-name="Caminho 839" d="M24.136,12V26.182H4.5V12" transform="translate(-0.818 -2.045)" fill="none" stroke="#fff" stroke-linecap="round" stroke-linejoin="round" stroke-width="2"/>
      <path id="Caminho_840" data-name="Caminho 840" d="M1.5,4.5h24V9.955H1.5Z" fill="none" stroke="#fff" stroke-linecap="round" stroke-linejoin="round" stroke-width="2"/>
      <path id="Caminho_841" data-name="Caminho 841" d="M15,18h4.364" transform="translate(-3.682 -3.682)" fill="none" stroke="#fff" stroke-linecap="round" stroke-linejoin="round" stroke-width="2"/>
    </g>
    <g id="Icon_ionic-logo-game-controller-b" data-name="Icon ionic-logo-game-controller-b" transform="translate(592.753 253.764)">
      <path id="Caminho_842" data-name="Caminho 842" d="M9.5,14.386a1.364,1.364,0,1,0,1.357,1.364A1.359,1.359,0,0,0,9.5,14.386Z" transform="translate(-1.332 -1.792)" fill="none" stroke="#fff" stroke-width="1"/>
      <path id="Caminho_843" data-name="Caminho 843" d="M26.482,15.283c-1.183-4.938-2.433-7.56-4.938-8.3a4.977,4.977,0,0,0-1.434-.223c-1.54,0-2.617.82-5.362.82s-3.822-.82-5.362-.82a4.922,4.922,0,0,0-1.434.223c-2.505.742-3.755,3.37-4.938,8.3s-.965,8.5.43,9.167a1.628,1.628,0,0,0,.7.156c1.211,0,2.516-1.328,3.777-2.9,1.434-1.791,1.791-1.841,6.154-1.841h1.356c4.358,0,4.72.045,6.154,1.841,1.255,1.573,2.567,2.9,3.777,2.9a1.646,1.646,0,0,0,.7-.156C27.447,23.78,27.659,20.215,26.482,15.283ZM8.007,16.1a2.21,2.21,0,1,1,2.187-2.21A2.2,2.2,0,0,1,8.007,16.1Zm9.647-1.088a1.121,1.121,0,1,1,1.122-1.121A1.122,1.122,0,0,1,17.655,15.015ZM20.1,17.464a1.119,1.119,0,1,1,1.122-1.116A1.12,1.12,0,0,1,20.1,17.464Zm0-4.9a1.121,1.121,0,1,1,1.122-1.122A1.122,1.122,0,0,1,20.1,12.565Zm2.449,2.449a1.121,1.121,0,1,1,1.122-1.121A1.122,1.122,0,0,1,22.553,15.015Z" fill="none" stroke="#fff" stroke-width="1"/>
    </g>
    <path id="Icon_awesome-users" data-name="Icon awesome-users" d="M4.5,11.25a3,3,0,1,0-3-3A3,3,0,0,0,4.5,11.25Zm21,0a3,3,0,1,0-3-3A3,3,0,0,0,25.5,11.25Zm1.5,1.5H24a2.991,2.991,0,0,0-2.114.872,6.857,6.857,0,0,1,3.52,5.128H28.5a1.5,1.5,0,0,0,1.5-1.5v-1.5A3,3,0,0,0,27,12.75Zm-12,0A5.25,5.25,0,1,0,9.75,7.5,5.247,5.247,0,0,0,15,12.75Zm3.6,1.5h-.389a7.248,7.248,0,0,1-6.422,0H11.4A5.4,5.4,0,0,0,6,19.65V21a2.251,2.251,0,0,0,2.25,2.25h13.5A2.251,2.251,0,0,0,24,21V19.65A5.4,5.4,0,0,0,18.6,14.25ZM8.114,13.622A2.991,2.991,0,0,0,6,12.75H3a3,3,0,0,0-3,3v1.5a1.5,1.5,0,0,0,1.5,1.5H4.589A6.874,6.874,0,0,1,8.114,13.622Z" transform="translate(515 266.498)" fill="none" stroke="#fff" stroke-width="1"/>
    <g id="Icon_feather-users" data-name="Icon feather-users" transform="translate(434.5 295.87)">
      <path id="Caminho_844" data-name="Caminho 844" d="M19.007,29.065V26.877A4.377,4.377,0,0,0,14.63,22.5H5.877A4.377,4.377,0,0,0,1.5,26.877v2.188" transform="translate(0 -4.87)" fill="none" stroke="#fff" stroke-linecap="round" stroke-linejoin="round" stroke-width="2"/>
      <path id="Caminho_845" data-name="Caminho 845" d="M16.253,8.877A4.377,4.377,0,1,1,11.877,4.5,4.377,4.377,0,0,1,16.253,8.877Z" transform="translate(-1.623)" fill="none" stroke="#fff" stroke-linecap="round" stroke-linejoin="round" stroke-width="2"/>
      <path id="Caminho_846" data-name="Caminho 846" d="M33.282,29.118V26.929A4.377,4.377,0,0,0,30,22.7" transform="translate(-7.711 -4.923)" fill="none" stroke="#fff" stroke-linecap="round" stroke-linejoin="round" stroke-width="2"/>
      <path id="Caminho_847" data-name="Caminho 847" d="M24,4.7a4.377,4.377,0,0,1,0,8.48" transform="translate(-6.088 -0.053)" fill="none" stroke="#fff" stroke-linecap="round" stroke-linejoin="round" stroke-width="2"/>
    </g>
  </g>
</svg>
