<svg xmlns="http://www.w3.org/2000/svg" width="790.796" height="115.5" viewBox="0 0 790.796 115.5">
  <g id="img-slide-33" transform="translate(-49 -233)">
    <path id="Caminho_610" data-name="Caminho 610" d="M191.46,18.819h-35.1c-13.863,0-27.149-4.712-38.565-12.587A35.446,35.446,0,0,0,77.6,6.263c-11.4,7.859-24.687,12.556-38.55,12.556H0v16.25H191.46l5.351-8.117Zm-93.047,4a5.283,5.283,0,1,1,5.275-5.275,5.281,5.281,0,0,1-5.275,5.275" transform="translate(49 233)" fill="#fcb34d"/>
    <path id="Caminho_611" data-name="Caminho 611" d="M389.291,18.819h-35.1c-13.863,0-27.149-4.712-38.565-12.587a35.446,35.446,0,0,0-40.193.031c-11.4,7.859-24.687,12.556-38.55,12.556H197.831l5.35,8.133-5.35,8.117h191.46l5.351-8.117Zm-93.047,4a5.283,5.283,0,1,1,5.275-5.275,5.281,5.281,0,0,1-5.275,5.275" transform="translate(49.169 233)" fill="#fcb34d"/>
    <path id="Caminho_612" data-name="Caminho 612" d="M587.121,18.819h-35.1c-13.864,0-27.15-4.712-38.566-12.587a35.446,35.446,0,0,0-40.193.031c-11.4,7.859-24.687,12.556-38.55,12.556H395.661l5.35,8.133-5.35,8.117h191.46l5.351-8.117Zm-93.047,4a5.283,5.283,0,1,1,5.275-5.275,5.281,5.281,0,0,1-5.275,5.275" transform="translate(49.339 233)" fill="#f2f2f4"/>
    <path id="Caminho_613" data-name="Caminho 613" d="M785.149,18.819H750.034c-13.848,0-27.149-4.712-38.55-12.587a35.446,35.446,0,0,0-40.193.031c-11.4,7.859-24.687,12.556-38.55,12.556H593.7l5.351,8.133L593.7,35.069H785.149l5.351-8.117Zm-93.047,4a5.283,5.283,0,1,1,5.275-5.275,5.28,5.28,0,0,1-5.275,5.275" transform="translate(49.296 233)" fill="#f2f2f4"/>
    <rect id="Retângulo_177" data-name="Retângulo 177" width="790.5" height="35.069" transform="translate(49 233)" fill="none"/>
    <text id="Teoria_de_Traços_de_Personalidade_ou_das_Características_dos_Líderes" data-name="Teoria de Traços de Personalidade ou das Características dos Líderes" transform="translate(60.11 280.5)" fill="#294667" font-size="14" font-family="Poppins-Bold, Poppins" font-weight="700"><tspan x="-69.79" y="15">Teoria de Traços de </tspan><tspan x="-62.874" y="31">Personalidade ou </tspan><tspan x="-71.071" y="47">das Características </tspan><tspan x="-40.467" y="63">dos Líderes</tspan></text>
    <text id="Teoria_Comportamental_ou_dos_Estilos_de_Liderança" data-name="Teoria Comportamental ou dos Estilos de Liderança" transform="translate(268 280.5)" fill="#294667" font-size="14" font-family="Poppins-Bold, Poppins" font-weight="700"><tspan x="-22.722" y="15">Teoria </tspan><tspan x="-73.773" y="31">Comportamental ou </tspan><tspan x="-48.181" y="47">dos Estilos de </tspan><tspan x="-35.924" y="63">Liderança</tspan></text>
    <text id="Teoria_da_Liderança_Contingencial_ou_Situacional_" data-name="Teoria da Liderança Contingencial ou Situacional " transform="translate(466 280.5)" fill="#f2f2f4" font-size="14" font-family="Poppins-Bold, Poppins" font-weight="700"><tspan x="-71.12" y="15">Teoria da Liderança </tspan><tspan x="-61.698" y="31">Contingencial ou </tspan><tspan x="-40.978" y="47">Situacional </tspan></text>
    <text id="Teorias_Motivacionais_da_Liderança" data-name="Teorias Motivacionais da Liderança" transform="translate(664 280.5)" fill="#f2f2f4" font-size="14" font-family="Poppins-Bold, Poppins" font-weight="700"><tspan x="-26.628" y="15">Teorias </tspan><tspan x="-62.118" y="31">Motivacionais da </tspan><tspan x="-35.924" y="47">Liderança</tspan></text>
  </g>
</svg>
