<svg xmlns="http://www.w3.org/2000/svg" xmlns:xlink="http://www.w3.org/1999/xlink" width="811.79" height="186.174" viewBox="0 0 811.79 186.174">
  <defs>
    <filter id="Caminho_879" x="10.689" y="4.822" width="68.446" height="62.58" filterUnits="userSpaceOnUse">
      <feOffset dy="3" input="SourceAlpha"/>
      <feGaussianBlur stdDeviation="3" result="blur"/>
      <feFlood flood-opacity="0.161"/>
      <feComposite operator="in" in2="blur"/>
      <feComposite in="SourceGraphic"/>
    </filter>
    <filter id="Caminho_885" x="47.429" y="4.824" width="227.933" height="62.582" filterUnits="userSpaceOnUse">
      <feOffset dy="3" input="SourceAlpha"/>
      <feGaussianBlur stdDeviation="3" result="blur-2"/>
      <feFlood flood-opacity="0.161"/>
      <feComposite operator="in" in2="blur-2"/>
      <feComposite in="SourceGraphic"/>
    </filter>
    <filter id="Caminho_879-2" x="10.689" y="123.589" width="68.446" height="62.58" filterUnits="userSpaceOnUse">
      <feOffset dy="3" input="SourceAlpha"/>
      <feGaussianBlur stdDeviation="3" result="blur-3"/>
      <feFlood flood-opacity="0.161"/>
      <feComposite operator="in" in2="blur-3"/>
      <feComposite in="SourceGraphic"/>
    </filter>
    <filter id="Caminho_885-2" x="47.429" y="123.591" width="227.933" height="62.582" filterUnits="userSpaceOnUse">
      <feOffset dy="3" input="SourceAlpha"/>
      <feGaussianBlur stdDeviation="3" result="blur-4"/>
      <feFlood flood-opacity="0.161"/>
      <feComposite operator="in" in2="blur-4"/>
      <feComposite in="SourceGraphic"/>
    </filter>
    <filter id="Caminho_883" x="280.757" y="4.822" width="68.446" height="62.58" filterUnits="userSpaceOnUse">
      <feOffset dy="3" input="SourceAlpha"/>
      <feGaussianBlur stdDeviation="3" result="blur-5"/>
      <feFlood flood-opacity="0.161"/>
      <feComposite operator="in" in2="blur-5"/>
      <feComposite in="SourceGraphic"/>
    </filter>
    <filter id="Caminho_887" x="317.496" y="4.825" width="227.933" height="62.582" filterUnits="userSpaceOnUse">
      <feOffset dy="3" input="SourceAlpha"/>
      <feGaussianBlur stdDeviation="3" result="blur-6"/>
      <feFlood flood-opacity="0.161"/>
      <feComposite operator="in" in2="blur-6"/>
      <feComposite in="SourceGraphic"/>
    </filter>
    <filter id="Caminho_883-2" x="280.757" y="123.589" width="68.446" height="62.58" filterUnits="userSpaceOnUse">
      <feOffset dy="3" input="SourceAlpha"/>
      <feGaussianBlur stdDeviation="3" result="blur-7"/>
      <feFlood flood-opacity="0.161"/>
      <feComposite operator="in" in2="blur-7"/>
      <feComposite in="SourceGraphic"/>
    </filter>
    <filter id="Caminho_887-2" x="317.496" y="123.592" width="227.933" height="62.582" filterUnits="userSpaceOnUse">
      <feOffset dy="3" input="SourceAlpha"/>
      <feGaussianBlur stdDeviation="3" result="blur-8"/>
      <feFlood flood-opacity="0.161"/>
      <feComposite operator="in" in2="blur-8"/>
      <feComposite in="SourceGraphic"/>
    </filter>
    <filter id="Caminho_883-3" x="547.118" y="4.822" width="68.446" height="62.58" filterUnits="userSpaceOnUse">
      <feOffset dy="3" input="SourceAlpha"/>
      <feGaussianBlur stdDeviation="3" result="blur-9"/>
      <feFlood flood-opacity="0.161"/>
      <feComposite operator="in" in2="blur-9"/>
      <feComposite in="SourceGraphic"/>
    </filter>
    <filter id="Caminho_887-3" x="583.857" y="4.825" width="227.933" height="62.582" filterUnits="userSpaceOnUse">
      <feOffset dy="3" input="SourceAlpha"/>
      <feGaussianBlur stdDeviation="3" result="blur-10"/>
      <feFlood flood-opacity="0.161"/>
      <feComposite operator="in" in2="blur-10"/>
      <feComposite in="SourceGraphic"/>
    </filter>
    <filter id="Caminho_883-4" x="547.118" y="123.589" width="68.446" height="62.58" filterUnits="userSpaceOnUse">
      <feOffset dy="3" input="SourceAlpha"/>
      <feGaussianBlur stdDeviation="3" result="blur-11"/>
      <feFlood flood-opacity="0.161"/>
      <feComposite operator="in" in2="blur-11"/>
      <feComposite in="SourceGraphic"/>
    </filter>
    <filter id="Caminho_887-4" x="583.857" y="123.592" width="227.933" height="62.582" filterUnits="userSpaceOnUse">
      <feOffset dy="3" input="SourceAlpha"/>
      <feGaussianBlur stdDeviation="3" result="blur-12"/>
      <feFlood flood-opacity="0.161"/>
      <feComposite operator="in" in2="blur-12"/>
      <feComposite in="SourceGraphic"/>
    </filter>
  </defs>
  <g id="img-slide-58" transform="translate(-29 -166)">
    <g id="Grupo_1262" data-name="Grupo 1262" transform="translate(29 166)">
      <path id="Caminho_878" data-name="Caminho 878" d="M246.935,33.116,231.478,3.608H16.929L32.384,33.116,16.929,62.623H231.478ZM233.662,0l17.347,33.116L233.662,66.233H10.964L28.311,33.116,10.966,0Z" transform="translate(-10.964 0)" fill="#fcc103"/>
      <g transform="matrix(1, 0, 0, 1, 0, 0)" filter="url(#Caminho_879)">
        <path id="Caminho_879-3" data-name="Caminho 879" d="M93.444,26.807,81.771,49.089h38.752L132.2,26.807l-11.692-22.3H81.752Z" transform="translate(-62.06 6.31)" fill="#fcc103"/>
      </g>
      <g transform="matrix(1, 0, 0, 1, 0, 0)" filter="url(#Caminho_885)">
        <path id="Caminho_885-3" data-name="Caminho 885" d="M198.256,4.509,209.933,26.8,198.256,49.092H0L11.674,26.8,0,4.509Z" transform="translate(56.43 6.31)" fill="#fff"/>
      </g>
    </g>
    <g id="Grupo_1265" data-name="Grupo 1265" transform="translate(29 284.767)">
      <path id="Caminho_878-2" data-name="Caminho 878" d="M246.935,33.116,231.478,3.608H16.929L32.384,33.116,16.929,62.623H231.478ZM233.662,0l17.347,33.116L233.662,66.233H10.964L28.311,33.116,10.966,0Z" transform="translate(-10.964 0)" fill="#6cadca"/>
      <g transform="matrix(1, 0, 0, 1, 0, -118.77)" filter="url(#Caminho_879-2)">
        <path id="Caminho_879-4" data-name="Caminho 879" d="M93.444,26.807,81.771,49.089h38.752L132.2,26.807l-11.692-22.3H81.752Z" transform="translate(-62.06 125.08)" fill="#6cadca"/>
      </g>
      <g transform="matrix(1, 0, 0, 1, 0, -118.77)" filter="url(#Caminho_885-2)">
        <path id="Caminho_885-4" data-name="Caminho 885" d="M198.256,4.509,209.933,26.8,198.256,49.092H0L11.674,26.8,0,4.509Z" transform="translate(56.43 125.08)" fill="#fff"/>
      </g>
    </g>
    <g id="Grupo_1261" data-name="Grupo 1261" transform="translate(299.068 166)">
      <path id="Caminho_882" data-name="Caminho 882" d="M359.451,33.116,343.993,3.608H129.445L144.9,33.116,129.445,62.623H343.993ZM346.178,0l17.347,33.116L346.178,66.233H123.48l17.347-33.116L123.48,0Z" transform="translate(-123.48 0)" fill="#1b8891"/>
      <g transform="matrix(1, 0, 0, 1, -270.07, 0)" filter="url(#Caminho_883)">
        <path id="Caminho_883-5" data-name="Caminho 883" d="M205.96,26.807,194.288,49.089H233.04l11.675-22.282-11.692-22.3H194.268Z" transform="translate(95.49 6.31)" fill="#1b8790"/>
      </g>
      <g transform="matrix(1, 0, 0, 1, -270.07, 0)" filter="url(#Caminho_887)">
        <path id="Caminho_887-5" data-name="Caminho 887" d="M112.516,4.51H310.772L322.449,26.8,310.772,49.092H112.516L124.193,26.8Z" transform="translate(213.98 6.31)" fill="#fff"/>
      </g>
    </g>
    <g id="Grupo_1264" data-name="Grupo 1264" transform="translate(299.068 284.767)">
      <path id="Caminho_882-2" data-name="Caminho 882" d="M359.451,33.116,343.993,3.608H129.445L144.9,33.116,129.445,62.623H343.993ZM346.178,0l17.347,33.116L346.178,66.233H123.48l17.347-33.116L123.48,0Z" transform="translate(-123.48 0)" fill="#107f40"/>
      <g transform="matrix(1, 0, 0, 1, -270.07, -118.77)" filter="url(#Caminho_883-2)">
        <path id="Caminho_883-6" data-name="Caminho 883" d="M205.96,26.807,194.288,49.089H233.04l11.675-22.282-11.692-22.3H194.268Z" transform="translate(95.49 125.08)" fill="#107f40"/>
      </g>
      <g transform="matrix(1, 0, 0, 1, -270.07, -118.77)" filter="url(#Caminho_887-2)">
        <path id="Caminho_887-6" data-name="Caminho 887" d="M112.516,4.51H310.772L322.449,26.8,310.772,49.092H112.516L124.193,26.8Z" transform="translate(213.98 125.08)" fill="#fff"/>
      </g>
    </g>
    <g id="Grupo_1263" data-name="Grupo 1263" transform="translate(565.429 166)">
      <path id="Caminho_882-3" data-name="Caminho 882" d="M359.451,33.116,343.993,3.608H129.445L144.9,33.116,129.445,62.623H343.993ZM346.178,0l17.347,33.116L346.178,66.233H123.48l17.347-33.116L123.48,0Z" transform="translate(-123.48 0)" fill="#294667"/>
      <g transform="matrix(1, 0, 0, 1, -536.43, 0)" filter="url(#Caminho_883-3)">
        <path id="Caminho_883-7" data-name="Caminho 883" d="M205.96,26.807,194.288,49.089H233.04l11.675-22.282-11.692-22.3H194.268Z" transform="translate(361.85 6.31)" fill="#294667"/>
      </g>
      <g transform="matrix(1, 0, 0, 1, -536.43, 0)" filter="url(#Caminho_887-3)">
        <path id="Caminho_887-7" data-name="Caminho 887" d="M112.516,4.51H310.772L322.449,26.8,310.772,49.092H112.516L124.193,26.8Z" transform="translate(480.34 6.31)" fill="#fff"/>
      </g>
    </g>
    <g id="Grupo_1266" data-name="Grupo 1266" transform="translate(565.429 284.767)">
      <path id="Caminho_882-4" data-name="Caminho 882" d="M359.451,33.116,343.993,3.608H129.445L144.9,33.116,129.445,62.623H343.993ZM346.178,0l17.347,33.116L346.178,66.233H123.48l17.347-33.116L123.48,0Z" transform="translate(-123.48 0)" fill="#3e6d93"/>
      <g transform="matrix(1, 0, 0, 1, -536.43, -118.77)" filter="url(#Caminho_883-4)">
        <path id="Caminho_883-8" data-name="Caminho 883" d="M205.96,26.807,194.288,49.089H233.04l11.675-22.282-11.692-22.3H194.268Z" transform="translate(361.85 125.08)" fill="#3e6d93"/>
      </g>
      <g transform="matrix(1, 0, 0, 1, -536.43, -118.77)" filter="url(#Caminho_887-4)">
        <path id="Caminho_887-8" data-name="Caminho 887" d="M112.516,4.51H310.772L322.449,26.8,310.772,49.092H112.516L124.193,26.8Z" transform="translate(480.34 125.08)" fill="#fff"/>
      </g>
    </g>
    <text id="Equipes_tradicionais_lideradas_por_gerentes" data-name="Equipes tradicionais 
lideradas por gerentes" transform="translate(105 197)" fill="#294667" font-size="13" font-family="Poppins-SemiBold, Poppins" font-weight="600"><tspan x="0" y="0">EQUIPES TRADICIONAIS </tspan><tspan x="0" y="12">LIDERADAS POR GERENTES</tspan></text>
    <text id="Equipes_autogerenciadas" data-name="Equipes autogerenciadas" transform="translate(370 204)" fill="#294667" font-size="13" font-family="Poppins-SemiBold, Poppins" font-weight="600"><tspan x="0" y="0">EQUIPES AUTOGERENCIADAS</tspan></text>
    <text id="Equipes_multifuncionais" data-name="Equipes multifuncionais" transform="translate(641 204)" fill="#294667" font-size="13" font-family="Poppins-SemiBold, Poppins" font-weight="600"><tspan x="0" y="0">EQUIPES MULTIFUNCIONAIS</tspan></text>
    <text id="Equipes_virtuais" data-name="Equipes virtuais" transform="translate(112 323)" fill="#294667" font-size="13" font-family="Poppins-SemiBold, Poppins" font-weight="600"><tspan x="0" y="0">EQUIPES VIRTUAIS</tspan></text>
    <text id="Forças-tarefa_ou_equipes_ad_hoc" data-name="Forças-tarefa 
ou equipes ad hoc" transform="translate(381 316)" fill="#294667" font-size="13" font-family="Poppins-SemiBold, Poppins" font-weight="600"><tspan x="0" y="0">FORÇAS-TAREFA </tspan><tspan x="0" y="12">OU EQUIPES AD HOC</tspan></text>
    <text id="Equipes_permanentes" data-name="Equipes permanentes" transform="translate(649 323)" fill="#294667" font-size="13" font-family="Poppins-SemiBold, Poppins" font-weight="600"><tspan x="0" y="0">EQUIPES PERMANENTES</tspan></text>
  </g>
</svg>
