<svg id="img-slide-53" xmlns="http://www.w3.org/2000/svg" xmlns:xlink="http://www.w3.org/1999/xlink" width="330.72" height="277.162" viewBox="0 0 330.72 277.162">
  <defs>
    <clipPath id="clip-path">
      <rect id="Retângulo_1065" data-name="Retângulo 1065" width="330.72" height="277.162" fill="none"/>
    </clipPath>
    <clipPath id="clip-path-3">
      <rect id="Retângulo_1011" data-name="Retângulo 1011" width="330.72" height="276.778" fill="none"/>
    </clipPath>
    <clipPath id="clip-path-4">
      <path id="Caminho_1442" data-name="Caminho 1442" d="M230.384,101.813a3.983,3.983,0,1,1,3.983,3.984,3.982,3.982,0,0,1-3.983-3.984m1.913-11.19-.179,2.271a9.1,9.1,0,0,0-2.466,1.021l-1.733-1.478-2.927,2.928,1.479,1.731a9.093,9.093,0,0,0-1.022,2.467l-2.27.18v4.14l2.27.18a9.083,9.083,0,0,0,1.022,2.467l-1.479,1.732,2.927,2.928,1.733-1.478a9.079,9.079,0,0,0,2.466,1.021L232.3,113h4.139l.182-2.271a9.114,9.114,0,0,0,2.465-1.021l1.733,1.478,2.928-2.928-1.479-1.732a9.085,9.085,0,0,0,1.021-2.468l2.272-.179v-4.14l-2.272-.18a9.09,9.09,0,0,0-1.021-2.467l1.479-1.731-2.928-2.928-1.733,1.478a9.138,9.138,0,0,0-2.465-1.021l-.182-2.271Z" transform="translate(-223.177 -90.623)" fill="none"/>
    </clipPath>
    <clipPath id="clip-path-5">
      <rect id="Retângulo_1013" data-name="Retângulo 1013" width="22.38" height="22.379" fill="none"/>
    </clipPath>
    <clipPath id="clip-path-7">
      <rect id="Retângulo_1015" data-name="Retângulo 1015" width="16.089" height="16.09" fill="none"/>
    </clipPath>
    <clipPath id="clip-path-8">
      <path id="Caminho_1445" data-name="Caminho 1445" d="M222.064,123.768v-2.977l-1.63-.128a6.593,6.593,0,0,0-.736-1.773l1.063-1.245-2.106-2.1-1.245,1.062a6.6,6.6,0,0,0-1.773-.734l-.129-1.632h-2.977l-.129,1.632a6.6,6.6,0,0,0-1.774.734l-1.245-1.063-2.1,2.106,1.062,1.245a6.612,6.612,0,0,0-.735,1.773l-1.632.129v2.977l1.632.129a6.576,6.576,0,0,0,.735,1.773l-1.062,1.246,2.1,2.1,1.245-1.063a6.582,6.582,0,0,0,1.774.735l.129,1.633h2.977l.129-1.633a6.582,6.582,0,0,0,1.773-.735l1.245,1.063,2.106-2.1L219.7,125.67a6.523,6.523,0,0,0,.736-1.773Zm-8.044,1.375a2.864,2.864,0,1,1,2.864-2.863,2.864,2.864,0,0,1-2.864,2.863" transform="translate(-205.975 -114.235)" fill="none"/>
    </clipPath>
    <clipPath id="clip-path-10">
      <rect id="Retângulo_1016" data-name="Retângulo 1016" width="43.318" height="33.924" fill="none"/>
    </clipPath>
    <clipPath id="clip-path-11">
      <path id="Caminho_1451" data-name="Caminho 1451" d="M308.985,205.621l-8.9,6.25s-3.744,14.9,7.879,24.791l24.768-22.485c1.577-3.452-.346-6.788-3.151-9.524a40.766,40.766,0,0,0-9.848-6.58Z" transform="translate(-299.507 -198.072)" fill="none"/>
    </clipPath>
    <clipPath id="clip-path-12">
      <rect id="Retângulo_1018" data-name="Retângulo 1018" width="20.594" height="13.247" fill="none"/>
    </clipPath>
    <clipPath id="clip-path-14">
      <path id="Caminho_1455" data-name="Caminho 1455" d="M317.847,155.5c-.668,5.381-1.014,32.525,1.969,38.3s7.057,6.688,7.057,6.688l9.993,2.506c2.629-3.236-1.191-21.447-4.3-35.2-.922-4.1-1.783-7.818-2.4-10.608-.469-2.175-.785-3.79-.861-4.612-.181-2.016-1.725-2.87-3.626-2.87-3.2,0-7.417,2.423-7.836,5.8" transform="translate(-317.39 -149.698)" fill="none"/>
    </clipPath>
    <clipPath id="clip-path-15">
      <rect id="Retângulo_1020" data-name="Retângulo 1020" width="7.787" height="10.608" fill="none"/>
    </clipPath>
    <clipPath id="clip-path-17">
      <path id="Caminho_1459" data-name="Caminho 1459" d="M329.879,79.213c-2.252,15-21.563,27.121-21.563,27.121,5.335,10.924,11.238,14.852,11.238,14.852s2.89-2.452,6.942-5.327c5.143-3.659,12.145-7.995,17.5-8.917,7.035-1.215,12.372-.391,12.77-4.749.015-.088.022-.148.022-.148.108-1.568-.407-3.8-1.684-6.988C350.526,83.562,340.512,74.4,334.525,74.4c-2.391,0-4.14,1.461-4.646,4.816" transform="translate(-308.316 -74.397)" fill="none"/>
    </clipPath>
    <clipPath id="clip-path-18">
      <rect id="Retângulo_1022" data-name="Retângulo 1022" width="33.502" height="16.41" fill="none"/>
    </clipPath>
    <clipPath id="clip-path-20">
      <path id="Caminho_1465" data-name="Caminho 1465" d="M302.311,117.612a16.134,16.134,0,0,0-.66,1.6,8.487,8.487,0,0,0,1.445,8.456c3.313,4.42,6.756,4.489,9.278,4.566s14.375-8.871,14.375-8.871l-.438-1.092c-9.655-6.15-11.239-15.013-11.239-15.013l-2.437-.646s-9.809,9.878-10.325,11" transform="translate(-301.103 -106.612)" fill="none"/>
    </clipPath>
    <clipPath id="clip-path-21">
      <rect id="Retângulo_1024" data-name="Retângulo 1024" width="25.647" height="24.977" fill="none"/>
    </clipPath>
    <clipPath id="clip-path-23">
      <rect id="Retângulo_1025" data-name="Retângulo 1025" width="22.116" height="26.36" fill="none"/>
    </clipPath>
    <clipPath id="clip-path-24">
      <path id="Caminho_1472" data-name="Caminho 1472" d="M318.131,136.782s4.682,13.044,8.069,15.439,12.127-4.885,11.342-6.118-9.241-9.082-10.575-15.471c0,0-3.982.555-8.836,6.15" transform="translate(-318.131 -130.632)" fill="none"/>
    </clipPath>
    <clipPath id="clip-path-26">
      <rect id="Retângulo_1027" data-name="Retângulo 1027" width="0.022" height="0.148" fill="none"/>
    </clipPath>
    <clipPath id="clip-path-27">
      <rect id="Retângulo_1028" data-name="Retângulo 1028" width="43.125" height="36.849" fill="none"/>
    </clipPath>
    <clipPath id="clip-path-28">
      <path id="Caminho_1487" data-name="Caminho 1487" d="M317.836,300.028a259.152,259.152,0,0,0,25.229,10.731,69.817,69.817,0,0,0,9.725,2.737c3.083.569,5.512.577,6.78-.284,0,0-6.173-23.085-12.661-24.8-7.741-2.037-19.765-10.27-19.765-10.27-9.271,6.111-9.308,21.886-9.308,21.886" transform="translate(-317.836 -278.142)" fill="none"/>
    </clipPath>
    <clipPath id="clip-path-29">
      <rect id="Retângulo_1030" data-name="Retângulo 1030" width="10.086" height="19.602" fill="none"/>
    </clipPath>
    <clipPath id="clip-path-31">
      <path id="Caminho_1495" data-name="Caminho 1495" d="M337.79,269.034c-1.1.723-3.836,22.893-4.236,25.345-.085.484,1.192,1.153,1.677,1.045.208-.046.454-.1.73-.154,3.36-.723,11.24-2.475,12.339-2.929.9-.377,1.153-.953,2.5-8.379,1.437-7.941,2.076-12.423,2.114-14.683v-.246a2.678,2.678,0,0,0-1.468-1.791,4.2,4.2,0,0,0-.908-.063c-2.932,0-11.293.9-12.745,1.854" transform="translate(-333.55 -267.18)" fill="none"/>
    </clipPath>
    <clipPath id="clip-path-32">
      <rect id="Retângulo_1032" data-name="Retângulo 1032" width="16.95" height="25.991" fill="none"/>
    </clipPath>
    <clipPath id="clip-path-34">
      <rect id="Retângulo_1033" data-name="Retângulo 1033" width="46.877" height="42.918" fill="none"/>
    </clipPath>
    <clipPath id="clip-path-35">
      <path id="Caminho_1515" data-name="Caminho 1515" d="M97.473,180.165l23.7,33.539c13.692-6.765,13.961-19.341,13.961-19.341l-12.546-15.82-8.579-10.816-.008-.015s-18.2,3.382-16.528,12.453" transform="translate(-97.365 -167.712)" fill="none"/>
    </clipPath>
    <clipPath id="clip-path-36">
      <rect id="Retângulo_1035" data-name="Retângulo 1035" width="16.881" height="13.504" fill="none"/>
    </clipPath>
    <clipPath id="clip-path-38">
      <path id="Caminho_1519" data-name="Caminho 1519" d="M108.79,131.76c-.407,1.176-1.368,3.575-2.568,6.657-2.175,5.55-5.134,13.314-7.11,20.01-1.722,5.835-2.691,10.87-1.722,12.945h10.3s4.174.108,8.479-4.766,2.36-23.83,3.029-29.211c.473-3.851-4.14-7.7-7.461-7.7a2.914,2.914,0,0,0-2.948,2.066" transform="translate(-97.006 -129.694)" fill="none"/>
    </clipPath>
    <clipPath id="clip-path-39">
      <rect id="Retângulo_1037" data-name="Retângulo 1037" width="13.322" height="23.1" fill="none"/>
    </clipPath>
    <clipPath id="clip-path-41">
      <rect id="Retângulo_1044" data-name="Retângulo 1044" width="52.658" height="38.628" transform="matrix(0.586, -0.811, 0.811, 0.586, 0, 42.683)" fill="none"/>
    </clipPath>
    <clipPath id="clip-path-42">
      <rect id="Retângulo_1043" data-name="Retângulo 1043" width="62.15" height="65.305" fill="none"/>
    </clipPath>
    <clipPath id="clip-path-44">
      <rect id="Retângulo_1046" data-name="Retângulo 1046" width="35.776" height="34.454" fill="none"/>
    </clipPath>
    <clipPath id="clip-path-45">
      <path id="Caminho_1537" data-name="Caminho 1537" d="M89.368,283.816a86.245,86.245,0,0,1-9.893,3.521c-2.275.6-4.542,3.206-6.518,6.327a78.809,78.809,0,0,0-6.38,13.407c5.965,7.188,42.487-6.042,42.487-6.042s-.047-15.774-9.309-21.886c0,0-4.851,2.383-10.386,4.674" transform="translate(-66.576 -279.142)" fill="none"/>
    </clipPath>
    <clipPath id="clip-path-46">
      <rect id="Retângulo_1048" data-name="Retângulo 1048" width="16.412" height="13.588" fill="none"/>
    </clipPath>
    <clipPath id="clip-path-48">
      <path id="Caminho_1541" data-name="Caminho 1541" d="M76.021,235.191c-1.215,0-2.352.023-3.175.069-3.06.177-9.686,13.33-9.686,13.33-4.321,30.049-3.775,50.282,4.82,49.9L78.035,289.5c6.027-3.874-5.359-21.624-5.312-33.347,2.767-.354,3.913-1.668,4.336-2.375a2.144,2.144,0,0,0,.223-.461c3.175.5,6.134.131,6.041-3.528,0,0,1.707-.438,1.684-4.32-.016-2.591-1.783-10.209-1.783-10.209s-3.091-.073-6.1-.073c-.373,0-.744,0-1.108,0" transform="translate(-60.514 -235.187)" fill="none"/>
    </clipPath>
    <clipPath id="clip-path-49">
      <rect id="Retângulo_1050" data-name="Retângulo 1050" width="8.987" height="18.592" fill="none"/>
    </clipPath>
    <clipPath id="clip-path-51">
      <path id="Caminho_1549" data-name="Caminho 1549" d="M84.667,230.032c-.008.261-.031.515-.031.776,0,6.3,2.575,11.792,6.38,14.675H103.2c3.8-2.883,6.373-8.371,6.373-14.675,0-.261-.015-.515-.031-.776Z" transform="translate(-84.636 -230.032)" fill="none"/>
    </clipPath>
    <clipPath id="clip-path-52">
      <rect id="Retângulo_1052" data-name="Retângulo 1052" width="15.605" height="15.451" fill="none"/>
    </clipPath>
    <clipPath id="clip-path-54">
      <rect id="Retângulo_1053" data-name="Retângulo 1053" width="15.44" height="1.892" fill="none"/>
    </clipPath>
    <clipPath id="clip-path-55">
      <path id="Caminho_1555" data-name="Caminho 1555" d="M91.473,249.189l-.657,1.893h15.441l-.658-1.893Z" transform="translate(-90.816 -249.189)" fill="none"/>
    </clipPath>
    <clipPath id="clip-path-56">
      <path id="Caminho_1554" data-name="Caminho 1554" d="M90.816,251.651h0Z" transform="translate(-90.816 -251.651)" fill="none"/>
    </clipPath>
    <clipPath id="clip-path-58">
      <path id="Caminho_1563" data-name="Caminho 1563" d="M126.684,314.573s-6.234,14.175-5.213,21.363a6.4,6.4,0,0,0,.63,2.122c3.129,5.958,46.6-1.338,46.6-1.338l-.922-14.406V322.3l-.208-.008L158.485,322l-10.154-.323.108-.223.323-.707a40.832,40.832,0,0,0-8.1-3.9c0,.008,0,.008-.008,0a35.569,35.569,0,0,0-11.875-2.372c-.7,0-1.4.031-2.092.1" transform="translate(-121.358 -314.476)" fill="none"/>
    </clipPath>
    <clipPath id="clip-path-59">
      <rect id="Retângulo_1056" data-name="Retângulo 1056" width="14.045" height="6.165" fill="none"/>
    </clipPath>
    <clipPath id="clip-path-60">
      <rect id="Retângulo_1057" data-name="Retângulo 1057" width="47.23" height="18.768" fill="none"/>
    </clipPath>
    <clipPath id="clip-path-62">
      <path id="Caminho_1579" data-name="Caminho 1579" d="M283.409,316.848c-.007.008-.007.008-.007,0a40.778,40.778,0,0,0-8.1,3.9l.322.707.108.223L265.574,322l-9.086.292-.207.008v.015l-.923,14.406s43.471,7.3,46.6,1.338a6.326,6.326,0,0,0,.63-2.122c1.022-7.188-5.212-21.363-5.212-21.363-.693-.066-1.392-.1-2.092-.1a35.569,35.569,0,0,0-11.875,2.372" transform="translate(-255.358 -314.476)" fill="none"/>
    </clipPath>
    <clipPath id="clip-path-66">
      <rect id="Retângulo_1061" data-name="Retângulo 1061" width="13.478" height="18.1" fill="none"/>
    </clipPath>
    <clipPath id="clip-path-67">
      <rect id="Retângulo_1062" data-name="Retângulo 1062" width="21.621" height="13.975" fill="none"/>
    </clipPath>
    <clipPath id="clip-path-68">
      <rect id="Retângulo_1063" data-name="Retângulo 1063" width="4.587" height="9.451" fill="none"/>
    </clipPath>
  </defs>
  <g id="Grupo_1867" data-name="Grupo 1867" clip-path="url(#clip-path)">
    <g id="Grupo_1704" data-name="Grupo 1704">
      <g id="Grupo_1703" data-name="Grupo 1703" clip-path="url(#clip-path)">
        <path id="Caminho_1432" data-name="Caminho 1432" d="M133.89,4.906c87.362-22.659,116.142,37.283,152.176,95.514s73.581,130.8,11.41,176.358H38.465S.643,267.18,0,216.234c-.47-37.478,36.98-42.559,49.239-100.039S89.433,16.437,133.89,4.906" transform="translate(0 0)" fill="#92e3a9"/>
        <g id="Grupo_1702" data-name="Grupo 1702" opacity="0.7">
          <g id="Grupo_1701" data-name="Grupo 1701">
            <g id="Grupo_1700" data-name="Grupo 1700" clip-path="url(#clip-path-3)">
              <path id="Caminho_1433" data-name="Caminho 1433" d="M133.89,4.906c87.362-22.659,116.142,37.283,152.176,95.514s73.581,130.8,11.41,176.358H38.465S.643,267.18,0,216.234c-.47-37.478,36.98-42.559,49.239-100.039S89.433,16.437,133.89,4.906" transform="translate(0 0)" fill="#fff"/>
            </g>
          </g>
        </g>
        <path id="Caminho_1434" data-name="Caminho 1434" d="M375.987,243.316H355.912a.964.964,0,0,0-.965.965v6.149a.964.964,0,0,0,.965.965h1.309c-.48.854-1.225,2.23-1.039,2.23a31.668,31.668,0,0,0,3.276-2.23h16.528a.965.965,0,0,0,.965-.965v-6.149A.965.965,0,0,0,375.987,243.316Z" transform="translate(-82.091 -56.273)" fill="none" stroke="#263238" stroke-linecap="round" stroke-linejoin="round" stroke-width="1"/>
        <path id="Caminho_1435" data-name="Caminho 1435" d="M375.3,258.532h20.074a.964.964,0,0,1,.965.965v6.149a.964.964,0,0,1-.965.965H394.07c.48.854,1.225,2.23,1.039,2.23a31.674,31.674,0,0,1-3.276-2.23H375.3a.966.966,0,0,1-.966-.965V259.5A.965.965,0,0,1,375.3,258.532Z" transform="translate(-86.576 -59.793)" fill="none" stroke="#263238" stroke-linecap="round" stroke-linejoin="round" stroke-width="1"/>
        <path id="Caminho_1436" data-name="Caminho 1436" d="M375.3,226.874h20.074a.964.964,0,0,1,.965.965v6.149a.964.964,0,0,1-.965.965H394.07c.48.854,1.225,2.23,1.039,2.23a31.674,31.674,0,0,1-3.276-2.23H375.3a.966.966,0,0,1-.966-.965v-6.149A.966.966,0,0,1,375.3,226.874Z" transform="translate(-86.576 -52.471)" fill="none" stroke="#263238" stroke-linecap="round" stroke-linejoin="round" stroke-width="1"/>
        <path id="Caminho_1437" data-name="Caminho 1437" d="M250.036,95.962c0-18.6-20.032-33.671-44.744-33.671s-44.744,15.075-44.744,33.671c0,17.528,17.8,31.923,40.542,33.518l4.2,10.969,4.2-10.969c22.74-1.6,40.542-15.989,40.542-33.518" transform="translate(-37.131 -14.406)" fill="#fff"/>
        <path id="Caminho_1438" data-name="Caminho 1438" d="M250.036,95.962c0-18.6-20.032-33.671-44.744-33.671s-44.744,15.075-44.744,33.671c0,17.528,17.8,31.923,40.542,33.518l4.2,10.969,4.2-10.969C232.235,127.885,250.036,113.49,250.036,95.962Z" transform="translate(-37.131 -14.406)" fill="none" stroke="#263238" stroke-linecap="round" stroke-linejoin="round" stroke-width="1"/>
        <path id="Caminho_1439" data-name="Caminho 1439" d="M214.157,94.163V88.809l-2.936-.231a11.832,11.832,0,0,0-1.321-3.19l1.911-2.24-3.784-3.786-2.24,1.912a11.851,11.851,0,0,0-3.19-1.321l-.233-2.936H197.01l-.232,2.936a11.836,11.836,0,0,0-3.189,1.321l-2.24-1.912-3.787,3.786,1.913,2.24a11.827,11.827,0,0,0-1.321,3.189l-2.936.232v5.353l2.936.233a11.8,11.8,0,0,0,1.321,3.189l-1.913,2.241,3.787,3.785,2.24-1.911a11.86,11.86,0,0,0,3.189,1.321l.232,2.936h5.353l.233-2.936a11.876,11.876,0,0,0,3.19-1.321l2.24,1.911,3.784-3.785L209.9,97.585a11.822,11.822,0,0,0,1.321-3.19Zm-14.47,2.475a5.151,5.151,0,1,1,5.151-5.151,5.152,5.152,0,0,1-5.151,5.151" transform="translate(-42.836 -17.812)" fill="#606060"/>
        <path id="Caminho_1440" data-name="Caminho 1440" d="M245.557,103.883v-4.14l-2.272-.179a9.106,9.106,0,0,0-1.022-2.467l1.479-1.732-2.927-2.928-1.733,1.478a9.149,9.149,0,0,0-2.465-1.021l-.182-2.271H232.3l-.179,2.271a9.118,9.118,0,0,0-2.467,1.021l-1.733-1.478-2.927,2.928,1.479,1.732a9.109,9.109,0,0,0-1.023,2.467l-2.27.179v4.14l2.27.18a9.12,9.12,0,0,0,1.023,2.467l-1.479,1.732,2.927,2.928,1.733-1.479a9.071,9.071,0,0,0,2.467,1.022L232.3,113h4.139l.182-2.271a9.1,9.1,0,0,0,2.465-1.022l1.733,1.479,2.927-2.928-1.479-1.732a9.121,9.121,0,0,0,1.022-2.468Zm-11.19,1.914a3.984,3.984,0,1,1,3.984-3.984,3.983,3.983,0,0,1-3.984,3.984" transform="translate(-51.615 -20.959)" fill="#e9a527"/>
      </g>
    </g>
    <g id="Grupo_1709" data-name="Grupo 1709" transform="translate(171.561 69.664)">
      <g id="Grupo_1708" data-name="Grupo 1708" clip-path="url(#clip-path-4)">
        <g id="Grupo_1707" data-name="Grupo 1707" transform="translate(0 0)" opacity="0.5">
          <g id="Grupo_1706" data-name="Grupo 1706">
            <g id="Grupo_1705" data-name="Grupo 1705" clip-path="url(#clip-path-5)">
              <path id="Caminho_1441" data-name="Caminho 1441" d="M245.557,103.883v-4.14l-2.272-.179a9.106,9.106,0,0,0-1.022-2.467l1.479-1.732-2.927-2.928-1.733,1.478a9.149,9.149,0,0,0-2.465-1.021l-.182-2.271H232.3l-.179,2.271a9.118,9.118,0,0,0-2.467,1.021l-1.733-1.478-2.927,2.928,1.479,1.732a9.109,9.109,0,0,0-1.023,2.467l-2.27.179v4.14l2.27.18a9.12,9.12,0,0,0,1.023,2.467l-1.479,1.732,2.927,2.928,1.733-1.479a9.071,9.071,0,0,0,2.467,1.022L232.3,113h4.139l.182-2.271a9.1,9.1,0,0,0,2.465-1.022l1.733,1.479,2.927-2.928-1.479-1.732a9.121,9.121,0,0,0,1.022-2.468Zm-11.19,1.914a3.984,3.984,0,1,1,3.984-3.984,3.983,3.983,0,0,1-3.984,3.984" transform="translate(-223.177 -90.623)" fill="#e9a527"/>
            </g>
          </g>
        </g>
      </g>
    </g>
    <g id="Grupo_1722" data-name="Grupo 1722">
      <g id="Grupo_1721" data-name="Grupo 1721" clip-path="url(#clip-path)">
        <g id="Grupo_1717" data-name="Grupo 1717" transform="translate(158.338 87.815)" opacity="0.2">
          <g id="Grupo_1716" data-name="Grupo 1716">
            <g id="Grupo_1715" data-name="Grupo 1715" clip-path="url(#clip-path-7)">
              <path id="Caminho_1443" data-name="Caminho 1443" d="M222.064,123.768v-2.976l-1.63-.129a6.578,6.578,0,0,0-.736-1.773l1.063-1.246-2.106-2.1-1.245,1.063a6.582,6.582,0,0,0-1.773-.735l-.129-1.632h-2.977l-.129,1.632a6.582,6.582,0,0,0-1.774.735l-1.245-1.063-2.1,2.1,1.062,1.245a6.62,6.62,0,0,0-.734,1.773l-1.632.13v2.976l1.632.13a6.61,6.61,0,0,0,.734,1.773l-1.062,1.246,2.1,2.1,1.245-1.062a6.605,6.605,0,0,0,1.774.734l.129,1.633h2.977l.129-1.633a6.605,6.605,0,0,0,1.773-.734l1.245,1.062,2.106-2.1-1.063-1.246a6.543,6.543,0,0,0,.736-1.773Zm-8.044,1.376a2.864,2.864,0,1,1,2.864-2.864,2.864,2.864,0,0,1-2.864,2.864" transform="translate(-205.975 -114.235)"/>
              <g id="Grupo_1714" data-name="Grupo 1714" transform="translate(0 0)">
                <g id="Grupo_1713" data-name="Grupo 1713" clip-path="url(#clip-path-8)">
                  <g id="Grupo_1712" data-name="Grupo 1712" transform="translate(0 0)" opacity="0.7">
                    <g id="Grupo_1711" data-name="Grupo 1711">
                      <g id="Grupo_1710" data-name="Grupo 1710" clip-path="url(#clip-path-7)">
                        <path id="Caminho_1444" data-name="Caminho 1444" d="M222.064,123.768v-2.976l-1.63-.129a6.578,6.578,0,0,0-.736-1.773l1.063-1.246-2.106-2.1-1.245,1.063a6.582,6.582,0,0,0-1.773-.735l-.129-1.632h-2.977l-.129,1.632a6.582,6.582,0,0,0-1.774.735l-1.245-1.063-2.1,2.1,1.062,1.245a6.62,6.62,0,0,0-.734,1.773l-1.632.13v2.976l1.632.13a6.61,6.61,0,0,0,.734,1.773l-1.062,1.246,2.1,2.1,1.245-1.062a6.605,6.605,0,0,0,1.774.734l.129,1.633h2.977l.129-1.633a6.605,6.605,0,0,0,1.773-.734l1.245,1.062,2.106-2.1-1.063-1.246a6.543,6.543,0,0,0,.736-1.773Zm-8.044,1.376a2.864,2.864,0,1,1,2.864-2.864,2.864,2.864,0,0,1-2.864,2.864" transform="translate(-205.975 -114.235)"/>
                      </g>
                    </g>
                  </g>
                </g>
              </g>
            </g>
          </g>
        </g>
        <path id="Caminho_1446" data-name="Caminho 1446" d="M295.307,243.017l-5.458,4.159c-8.5-3.275-7.956-4.013-16.089-5.189-4.213-.607-12.938-.354-20.271.031-6.626.338-12.123.784-12.123.784s16.212-16.112,20.671-18.5c4.389-2.345,24.038-10.777,24.653-11.039a.027.027,0,0,0,.015-.008s14.752,16.435,8.6,29.765" transform="translate(-55.822 -49.32)" fill="#50878f"/>
        <g id="Grupo_1720" data-name="Grupo 1720" transform="translate(197.666 163.932)" opacity="0.2">
          <g id="Grupo_1719" data-name="Grupo 1719">
            <g id="Grupo_1718" data-name="Grupo 1718" clip-path="url(#clip-path-10)">
              <path id="Caminho_1447" data-name="Caminho 1447" d="M298.955,243.017l-5.458,4.159c-8.5-3.275-7.956-4.013-16.089-5.189-4.213-.607-12.938-.354-20.271.031,9.125-6.311,33.8-1.138,33.8-1.138s-3.821-4.866-4.12-14.729c-.292-9.494,3.252-12.661,3.521-12.891a.027.027,0,0,0,.015-.008s14.752,16.435,8.6,29.765" transform="translate(-257.136 -213.252)"/>
            </g>
          </g>
        </g>
        <path id="Caminho_1448" data-name="Caminho 1448" d="M241.365,242.8s16.216-16.116,20.672-18.5,24.669-11.05,24.669-11.05,14.747,16.435,8.6,29.764l-5.46,4.158" transform="translate(-55.822 -49.32)" fill="none" stroke="#263238" stroke-linecap="round" stroke-linejoin="round" stroke-width="1"/>
        <path id="Caminho_1449" data-name="Caminho 1449" d="M332.731,214.177l-24.768,22.485c-11.623-9.893-7.879-24.791-7.879-24.791l8.9-6.25,10.747-7.549a40.768,40.768,0,0,1,9.847,6.58c2.806,2.737,4.728,6.073,3.152,9.524" transform="translate(-69.269 -45.809)" fill="#fff"/>
      </g>
    </g>
    <g id="Grupo_1727" data-name="Grupo 1727" transform="translate(230.238 152.262)">
      <g id="Grupo_1726" data-name="Grupo 1726" clip-path="url(#clip-path-11)">
        <g id="Grupo_1725" data-name="Grupo 1725" transform="translate(9.477)" opacity="0.2">
          <g id="Grupo_1724" data-name="Grupo 1724">
            <g id="Grupo_1723" data-name="Grupo 1723" clip-path="url(#clip-path-12)">
              <path id="Caminho_1450" data-name="Caminho 1450" d="M332.43,204.652a7.464,7.464,0,0,1-2.56,3.444c-8.01,6.634-14.56,1.614-18.034-2.475l10.747-7.549a40.768,40.768,0,0,1,9.847,6.58" transform="translate(-311.836 -198.072)" fill="#92e3a9"/>
            </g>
          </g>
        </g>
      </g>
    </g>
    <g id="Grupo_1729" data-name="Grupo 1729">
      <g id="Grupo_1728" data-name="Grupo 1728" clip-path="url(#clip-path)">
        <path id="Caminho_1452" data-name="Caminho 1452" d="M332.731,214.177l-24.768,22.485c-11.623-9.893-7.879-24.791-7.879-24.791l8.9-6.25,10.747-7.549a40.768,40.768,0,0,1,9.847,6.58C332.385,207.389,334.307,210.725,332.731,214.177Z" transform="translate(-69.269 -45.809)" fill="none" stroke="#263238" stroke-linecap="round" stroke-linejoin="round" stroke-width="1"/>
        <path id="Caminho_1453" data-name="Caminho 1453" d="M326.873,200.483s-4.074-.922-7.057-6.688-2.637-32.917-1.968-38.3,10.977-8.341,11.462-2.929c.077.823.392,2.437.861,4.612.615,2.79,1.476,6.5,2.4,10.608,3.106,13.752,6.926,31.964,4.3,35.2" transform="translate(-73.405 -34.622)" fill="#fff"/>
      </g>
    </g>
    <g id="Grupo_1734" data-name="Grupo 1734" transform="translate(243.985 115.076)">
      <g id="Grupo_1733" data-name="Grupo 1733" clip-path="url(#clip-path-14)">
        <g id="Grupo_1732" data-name="Grupo 1732" transform="translate(7.392 7.483)" opacity="0.2">
          <g id="Grupo_1731" data-name="Grupo 1731">
            <g id="Grupo_1730" data-name="Grupo 1730" clip-path="url(#clip-path-15)">
              <path id="Caminho_1454" data-name="Caminho 1454" d="M334.793,170.04c-4.559-3.375-7.787-9.724-7.787-9.724l5.389-.884c.615,2.79,1.476,6.5,2.4,10.608" transform="translate(-327.006 -159.432)" fill="#92e3a9"/>
            </g>
          </g>
        </g>
      </g>
    </g>
    <g id="Grupo_1736" data-name="Grupo 1736">
      <g id="Grupo_1735" data-name="Grupo 1735" clip-path="url(#clip-path)">
        <path id="Caminho_1456" data-name="Caminho 1456" d="M326.873,200.483s-4.074-.922-7.057-6.688-2.637-32.917-1.968-38.3,10.977-8.341,11.462-2.929c.077.823.392,2.437.861,4.612.615,2.79,1.476,6.5,2.4,10.608,3.106,13.752,6.926,31.964,4.3,35.2" transform="translate(-73.405 -34.622)" fill="none" stroke="#263238" stroke-linecap="round" stroke-linejoin="round" stroke-width="1"/>
        <path id="Caminho_1457" data-name="Caminho 1457" d="M356.792,102.044s-.006.06-.021.148c-.4,4.359-5.736,3.534-12.771,4.749-5.358.922-12.361,5.258-17.5,8.917-4.051,2.875-6.942,5.327-6.942,5.327s-5.9-3.928-11.239-14.852c0,0,19.31-12.123,21.563-27.121,1.776-11.761,18.818-.238,25.229,15.843,1.276,3.19,1.791,5.419,1.684,6.988" transform="translate(-71.306 -17.206)" fill="#fff"/>
      </g>
    </g>
    <g id="Grupo_1741" data-name="Grupo 1741" transform="translate(237.01 57.191)">
      <g id="Grupo_1740" data-name="Grupo 1740" clip-path="url(#clip-path-17)">
        <g id="Grupo_1739" data-name="Grupo 1739" transform="translate(14.952 25.051)" opacity="0.15">
          <g id="Grupo_1738" data-name="Grupo 1738">
            <g id="Grupo_1737" data-name="Grupo 1737" clip-path="url(#clip-path-18)">
              <path id="Caminho_1458" data-name="Caminho 1458" d="M361.268,109.73c-.4,4.358-5.735,3.533-12.771,4.749-5.358.922-12.361,5.258-17.5,8.917-2.345-1.384-3.636-2.721-3.113-3.882,2.375-5.266,11.308-6.957,11.308-6.957s-.761-3.452.63-5.12,6.511,1.668,13.814,4.266c6.554,2.336,7.508-1.212,7.636-1.974" transform="translate(-327.766 -106.985)"/>
            </g>
          </g>
        </g>
      </g>
    </g>
    <g id="Grupo_1743" data-name="Grupo 1743">
      <g id="Grupo_1742" data-name="Grupo 1742" clip-path="url(#clip-path)">
        <path id="Caminho_1460" data-name="Caminho 1460" d="M356.792,102.044s-.006.06-.021.148c-.4,4.359-5.736,3.534-12.771,4.749-5.358.922-12.361,5.258-17.5,8.917-4.051,2.875-6.942,5.327-6.942,5.327s-5.9-3.928-11.239-14.852c0,0,19.31-12.123,21.563-27.121,1.776-11.761,18.818-.238,25.229,15.843C356.384,98.247,356.9,100.476,356.792,102.044Z" transform="translate(-71.306 -17.206)" fill="none" stroke="#263238" stroke-linecap="round" stroke-linejoin="round" stroke-width="1"/>
        <path id="Caminho_1461" data-name="Caminho 1461" d="M345.206,92.015c4.725-1.787,6.55-5,7.46-4.276s4.192,3.11,3.66,4.5-4.779,6.324-5.2,7.2" transform="translate(-79.838 -20.268)" fill="none" stroke="#263238" stroke-linecap="round" stroke-linejoin="round" stroke-width="1"/>
        <path id="Caminho_1462" data-name="Caminho 1462" d="M341.9,77.024c-2.545.238-2.2,6.935,4.028,15.165s12.391,12,15.124,11.053.835-4.526.835-4.526" transform="translate(-78.729 -17.814)" fill="none" stroke="#263238" stroke-linecap="round" stroke-linejoin="round" stroke-width="1"/>
        <path id="Caminho_1463" data-name="Caminho 1463" d="M326.75,123.362s-11.861,8.956-14.375,8.871-5.965-.146-9.278-4.566a8.487,8.487,0,0,1-1.445-8.456,16.124,16.124,0,0,1,.661-1.6c.515-1.122,10.324-11,10.324-11l2.437.646s1.584,8.863,11.239,15.013Z" transform="translate(-69.638 -24.657)" fill="#92e3a9"/>
      </g>
    </g>
    <g id="Grupo_1748" data-name="Grupo 1748" transform="translate(231.465 81.955)">
      <g id="Grupo_1747" data-name="Grupo 1747" clip-path="url(#clip-path-20)">
        <g id="Grupo_1746" data-name="Grupo 1746" transform="translate(0 0.646)" opacity="0.2">
          <g id="Grupo_1745" data-name="Grupo 1745">
            <g id="Grupo_1744" data-name="Grupo 1744" clip-path="url(#clip-path-21)">
              <path id="Caminho_1464" data-name="Caminho 1464" d="M326.75,123.557s-11.861,8.956-14.375,8.871-5.965-.146-9.278-4.566a8.487,8.487,0,0,1-1.445-8.456c.615,2.406,1.8,5.858,3.7,7.226,3.036,2.2,15.667-4.866,15.667-4.866s-7.011-8.633-5.942-14.314c0,0,1.584,8.863,11.239,15.013Z" transform="translate(-301.103 -107.452)"/>
            </g>
          </g>
        </g>
      </g>
    </g>
    <g id="Grupo_1753" data-name="Grupo 1753">
      <g id="Grupo_1752" data-name="Grupo 1752" clip-path="url(#clip-path)">
        <path id="Caminho_1466" data-name="Caminho 1466" d="M326.75,123.362s-11.861,8.956-14.375,8.871-5.965-.146-9.278-4.566a8.487,8.487,0,0,1-1.445-8.456,16.124,16.124,0,0,1,.661-1.6c.515-1.122,10.324-11,10.324-11l2.437.646s1.584,8.863,11.239,15.013Z" transform="translate(-69.638 -24.657)" fill="none" stroke="#263238" stroke-linecap="round" stroke-linejoin="round" stroke-width="1"/>
        <g id="Grupo_1751" data-name="Grupo 1751" transform="translate(261.679 59.21)" opacity="0.15">
          <g id="Grupo_1750" data-name="Grupo 1750">
            <g id="Grupo_1749" data-name="Grupo 1749" clip-path="url(#clip-path-23)">
              <path id="Caminho_1467" data-name="Caminho 1467" d="M341.9,77.024c-2.545.238-2.2,6.935,4.028,15.165s12.391,12,15.124,11.053.835-4.526.835-4.526a33.356,33.356,0,0,0-7.754-13.536c-7.111-7.593-12.233-8.156-12.233-8.156" transform="translate(-340.407 -77.024)"/>
            </g>
          </g>
        </g>
        <path id="Caminho_1468" data-name="Caminho 1468" d="M342.272,146.443c-.276,3.412-9.383,15.846-15.266,13.151" transform="translate(-75.629 -33.869)" fill="#fff"/>
        <path id="Caminho_1469" data-name="Caminho 1469" d="M342.272,146.443c-.276,3.412-9.383,15.846-15.266,13.151" transform="translate(-75.629 -33.869)" fill="none" stroke="#263238" stroke-linecap="round" stroke-linejoin="round" stroke-width="1"/>
        <path id="Caminho_1470" data-name="Caminho 1470" d="M318.131,136.782s4.682,13.044,8.069,15.439,12.127-4.885,11.342-6.118-9.241-9.082-10.575-15.471c0,0-3.983.555-8.836,6.15" transform="translate(-73.576 -30.212)" fill="#92e3a9"/>
      </g>
    </g>
    <g id="Grupo_1755" data-name="Grupo 1755" transform="translate(244.555 100.42)">
      <g id="Grupo_1754" data-name="Grupo 1754" clip-path="url(#clip-path-24)">
        <path id="Caminho_1471" data-name="Caminho 1471" d="M318.131,136.782s4.682,13.044,8.069,15.439,12.127-4.885,11.342-6.118-9.241-9.082-10.575-15.471c0,0-3.983.555-8.836,6.15" transform="translate(-318.131 -130.632)" fill="#506d8f"/>
      </g>
    </g>
    <g id="Grupo_1763" data-name="Grupo 1763">
      <g id="Grupo_1762" data-name="Grupo 1762" clip-path="url(#clip-path)">
        <path id="Caminho_1473" data-name="Caminho 1473" d="M318.131,136.782s4.682,13.044,8.069,15.439,12.127-4.885,11.342-6.118-9.241-9.082-10.575-15.471C326.967,130.632,322.984,131.187,318.131,136.782Z" transform="translate(-73.576 -30.212)" fill="none" stroke="#263238" stroke-linecap="round" stroke-linejoin="round" stroke-width="1"/>
        <path id="Caminho_1474" data-name="Caminho 1474" d="M341.6,143.209c.8-2.691-1.151-1.962-.838-4.489s-1.311-2.521-1.826-5.131-2.122-2.355-3.059-4.505-3.288-1.29-5.563-.241-5.33,6.046-5.33,6.046c-.45,3.215,2.24,2.547,2.24,2.547-1.786,3.3,1.19,4.03,1.19,4.03-.158,3.551,1.988,3.11,1.988,3.11a1.819,1.819,0,0,0,1.5,1.926c1.032.173,8.9-.6,9.7-3.292" transform="translate(-75.15 -29.546)" fill="#fff"/>
        <path id="Caminho_1475" data-name="Caminho 1475" d="M341.6,143.209c.8-2.691-1.151-1.962-.838-4.489s-1.311-2.521-1.826-5.131-2.122-2.355-3.059-4.505-3.288-1.29-5.563-.241-5.33,6.046-5.33,6.046c-.45,3.215,2.24,2.547,2.24,2.547-1.786,3.3,1.19,4.03,1.19,4.03-.158,3.551,1.988,3.11,1.988,3.11a1.819,1.819,0,0,0,1.5,1.926C332.936,146.674,340.8,145.9,341.6,143.209Z" transform="translate(-75.15 -29.546)" fill="none" stroke="#263238" stroke-linecap="round" stroke-linejoin="round" stroke-width="1"/>
        <path id="Caminho_1476" data-name="Caminho 1476" d="M327.914,138.811s4.346-4.589,5.677-5.109" transform="translate(-75.839 -30.922)" fill="none" stroke="#263238" stroke-linecap="round" stroke-linejoin="round" stroke-width="1"/>
        <path id="Caminho_1477" data-name="Caminho 1477" d="M329.462,144.262a17.9,17.9,0,0,1,6.978-4.414" transform="translate(-76.197 -32.344)" fill="none" stroke="#263238" stroke-linecap="round" stroke-linejoin="round" stroke-width="1"/>
        <path id="Caminho_1478" data-name="Caminho 1478" d="M332.048,148.7s5.766-2.842,6.613-3.1" transform="translate(-76.795 -33.673)" fill="none" stroke="#263238" stroke-linecap="round" stroke-linejoin="round" stroke-width="1"/>
        <path id="Caminho_1479" data-name="Caminho 1479" d="M320.158,155.736s-4.228-3.911-5-5.573-2.251-8.813-1.194-10.734,4.167-5.12,4.65-6.658,3.171,1.833.1,7.976c0,0,3.674,4.45,3.072,9.321" transform="translate(-72.528 -30.621)" fill="#fff"/>
        <path id="Caminho_1480" data-name="Caminho 1480" d="M320.158,155.736s-4.228-3.911-5-5.573-2.251-8.813-1.194-10.734,4.167-5.12,4.65-6.658,3.171,1.833.1,7.976c0,0,3.674,4.45,3.072,9.321" transform="translate(-72.528 -30.621)" fill="none" stroke="#263238" stroke-linecap="round" stroke-linejoin="round" stroke-width="1"/>
        <g id="Grupo_1758" data-name="Grupo 1758" transform="translate(285.464 84.838)" opacity="0.15">
          <g id="Grupo_1757" data-name="Grupo 1757">
            <g id="Grupo_1756" data-name="Grupo 1756" clip-path="url(#clip-path-26)">
              <path id="Caminho_1481" data-name="Caminho 1481" d="M371.37,110.362s-.006.06-.021.148c0-.052.018-.095.021-.148" transform="translate(-371.348 -110.362)"/>
            </g>
          </g>
        </g>
        <path id="Caminho_1482" data-name="Caminho 1482" d="M303.051,297.671s-1.691.684-4.128-2.36c-4.635-5.8-11.569-19.718-16.128-26.39-1.953-2.86-7.349-5.673-13.184-8.033a174.453,174.453,0,0,0-19.1-6.219s24.553-1.514,30.787.361c5.4,1.614,24.507,12.546,29.957,15.69l1.461.846s.823,11.577-9.671,26.106" transform="translate(-57.939 -58.765)" fill="#50878f"/>
        <g id="Grupo_1761" data-name="Grupo 1761" transform="translate(211.672 202.122)" opacity="0.2">
          <g id="Grupo_1760" data-name="Grupo 1760">
            <g id="Grupo_1759" data-name="Grupo 1759" clip-path="url(#clip-path-27)">
              <path id="Caminho_1483" data-name="Caminho 1483" d="M308.8,299.715s-1.691.684-4.128-2.36c-4.635-5.8-11.569-19.718-16.128-26.39-1.953-2.86-7.349-5.673-13.184-8.033,22.27,5.089,30.165,27.443,30.165,27.443s1.184-12.692,11.485-17.611l1.461.846s.823,11.577-9.671,26.106" transform="translate(-275.356 -262.932)"/>
            </g>
          </g>
        </g>
        <path id="Caminho_1484" data-name="Caminho 1484" d="M250.514,254.669s24.555-1.513,30.787.359c6.31,1.9,31.422,16.537,31.422,16.537s.816,11.577-9.672,26.107" transform="translate(-57.938 -58.766)" fill="none" stroke="#263238" stroke-linecap="round" stroke-linejoin="round" stroke-width="1"/>
        <path id="Caminho_1485" data-name="Caminho 1485" d="M359.57,313.211c-1.268.861-3.7.853-6.78.284a69.809,69.809,0,0,1-9.724-2.737,259.112,259.112,0,0,1-25.229-10.731s.038-15.774,9.309-21.886c0,0,12.023,8.233,19.764,10.27,6.488,1.714,12.661,24.8,12.661,24.8" transform="translate(-73.508 -64.328)" fill="#fff"/>
      </g>
    </g>
    <g id="Grupo_1768" data-name="Grupo 1768" transform="translate(244.328 213.814)">
      <g id="Grupo_1767" data-name="Grupo 1767" clip-path="url(#clip-path-28)">
        <g id="Grupo_1766" data-name="Grupo 1766" transform="translate(24.867 15.751)" opacity="0.2">
          <g id="Grupo_1765" data-name="Grupo 1765">
            <g id="Grupo_1764" data-name="Grupo 1764" clip-path="url(#clip-path-29)">
              <path id="Caminho_1486" data-name="Caminho 1486" d="M360.271,318.234a69.808,69.808,0,0,1-9.724-2.737c-1.73-7.987,3.3-16.866,3.3-16.866a36.631,36.631,0,0,0,6.427,19.6" transform="translate(-350.185 -298.632)" fill="#92e3a9"/>
            </g>
          </g>
        </g>
      </g>
    </g>
    <g id="Grupo_1770" data-name="Grupo 1770">
      <g id="Grupo_1769" data-name="Grupo 1769" clip-path="url(#clip-path)">
        <path id="Caminho_1488" data-name="Caminho 1488" d="M359.57,313.211c-1.268.861-3.7.853-6.78.284a69.809,69.809,0,0,1-9.724-2.737,259.112,259.112,0,0,1-25.229-10.731s.038-15.774,9.309-21.886c0,0,12.023,8.233,19.764,10.27C353.4,290.126,359.57,313.211,359.57,313.211Z" transform="translate(-73.508 -64.328)" fill="none" stroke="#263238" stroke-linecap="round" stroke-linejoin="round" stroke-width="1"/>
        <path id="Caminho_1489" data-name="Caminho 1489" d="M357.249,315.972a25.733,25.733,0,0,1-1.6-6.217" transform="translate(-82.254 -71.639)" fill="#fff"/>
        <path id="Caminho_1490" data-name="Caminho 1490" d="M357.249,315.972a25.733,25.733,0,0,1-1.6-6.217" transform="translate(-82.254 -71.639)" fill="none" stroke="#263238" stroke-linecap="round" stroke-linejoin="round" stroke-width="1"/>
        <path id="Caminho_1491" data-name="Caminho 1491" d="M357.735,283.184c3.41.537,6.55,7.885,8.664,10.5,0,0,6.021,2.806,7.045,5.453s5.132,13.247-3.01,15.426c-4.683,1.253-8.179,1.033-10.61-1.446" transform="translate(-82.736 -65.494)" fill="#fff"/>
        <path id="Caminho_1492" data-name="Caminho 1492" d="M357.735,283.184c3.41.537,6.55,7.885,8.664,10.5,0,0,6.021,2.806,7.045,5.453s5.132,13.247-3.01,15.426c-4.683,1.253-8.179,1.033-10.61-1.446" transform="translate(-82.736 -65.494)" fill="none" stroke="#263238" stroke-linecap="round" stroke-linejoin="round" stroke-width="1"/>
        <path id="Caminho_1493" data-name="Caminho 1493" d="M352.911,269.034v.246c-.038,2.26-.676,6.742-2.114,14.683-1.345,7.426-1.6,8-2.5,8.379-1.1.454-8.979,2.206-12.338,2.929-.277.054-.523.108-.73.154-.484.108-1.76-.561-1.676-1.045.4-2.452,3.136-24.622,4.236-25.345,1.668-1.092,12.453-2.122,13.652-1.791a2.678,2.678,0,0,1,1.468,1.791" transform="translate(-77.143 -61.793)" fill="#999"/>
      </g>
    </g>
    <g id="Grupo_1775" data-name="Grupo 1775" transform="translate(256.407 205.387)">
      <g id="Grupo_1774" data-name="Grupo 1774" clip-path="url(#clip-path-31)">
        <g id="Grupo_1773" data-name="Grupo 1773" transform="translate(2.411 2.1)" opacity="0.2">
          <g id="Grupo_1772" data-name="Grupo 1772">
            <g id="Grupo_1771" data-name="Grupo 1771" clip-path="url(#clip-path-32)">
              <path id="Caminho_1494" data-name="Caminho 1494" d="M353.636,269.912c-.038,2.26-.676,6.742-2.114,14.683-1.345,7.426-1.6,8-2.5,8.379-1.1.454-8.979,2.206-12.338,2.929.407-3.206,1.637-12.161,4.174-24.43Z" transform="translate(-336.686 -269.912)"/>
            </g>
          </g>
        </g>
      </g>
    </g>
    <g id="Grupo_1780" data-name="Grupo 1780">
      <g id="Grupo_1779" data-name="Grupo 1779" clip-path="url(#clip-path)">
        <path id="Caminho_1496" data-name="Caminho 1496" d="M352.911,269.034v.246c-.038,2.26-.676,6.742-2.114,14.683-1.345,7.426-1.6,8-2.5,8.379-1.1.454-8.979,2.206-12.338,2.929-.277.054-.523.108-.73.154-.484.108-1.76-.561-1.676-1.045.4-2.452,3.136-24.622,4.236-25.345,1.668-1.092,12.453-2.122,13.652-1.791A2.678,2.678,0,0,1,352.911,269.034Z" transform="translate(-77.143 -61.793)" fill="none" stroke="#263238" stroke-linecap="round" stroke-linejoin="round" stroke-width="1"/>
        <path id="Caminho_1497" data-name="Caminho 1497" d="M336.484,294.352s3.587-20.883,3.907-22.165.641-.769,11.4-2.179" transform="translate(-77.821 -62.447)" fill="none" stroke="#263238" stroke-linecap="round" stroke-linejoin="round" stroke-width="1"/>
        <path id="Caminho_1498" data-name="Caminho 1498" d="M352.447,303.61s-5.572,1.989-5.189-1.407a3.135,3.135,0,0,1-1.281-2.305,6.97,6.97,0,0,1,.9-2.947s-2.115,3.651-3.908,1.537c-.47-.555,1.44-4.524,1.44-4.524a1.724,1.724,0,0,1-2.593-.921c-.254-.605,2.682-6.067,3.323-6.47,2.153-1.357,7.758-4.242,9.681-3.146s2.563,4.555,3.716,5.837.512,5.637,0,8.712" transform="translate(-79.05 -65.494)" fill="#fff"/>
        <path id="Caminho_1499" data-name="Caminho 1499" d="M352.447,303.61s-5.572,1.989-5.189-1.407a3.135,3.135,0,0,1-1.281-2.305,6.97,6.97,0,0,1,.9-2.947s-2.115,3.651-3.908,1.537c-.47-.555,1.44-4.524,1.44-4.524a1.724,1.724,0,0,1-2.593-.921c-.254-.605,2.682-6.067,3.323-6.47,2.153-1.357,7.758-4.242,9.681-3.146s2.563,4.555,3.716,5.837.512,5.637,0,8.712" transform="translate(-79.05 -65.494)" fill="none" stroke="#263238" stroke-linecap="round" stroke-linejoin="round" stroke-width="1"/>
        <path id="Caminho_1500" data-name="Caminho 1500" d="M345.191,295.465a31.255,31.255,0,0,1,2.6-3.932,46.038,46.038,0,0,1,5.445-1.858" transform="translate(-79.835 -66.995)" fill="#fff"/>
        <path id="Caminho_1501" data-name="Caminho 1501" d="M345.191,295.465a31.255,31.255,0,0,1,2.6-3.932,46.038,46.038,0,0,1,5.445-1.858" transform="translate(-79.835 -66.995)" fill="none" stroke="#263238" stroke-linecap="round" stroke-linejoin="round" stroke-width="1"/>
        <path id="Caminho_1502" data-name="Caminho 1502" d="M348.4,299.956c1.217-1.346,1.921-2.9,2.434-2.987s4.421-.666,4.741-.793" transform="translate(-80.577 -68.498)" fill="#fff"/>
        <path id="Caminho_1503" data-name="Caminho 1503" d="M348.4,299.956c1.217-1.346,1.921-2.9,2.434-2.987s4.421-.666,4.741-.793" transform="translate(-80.577 -68.498)" fill="none" stroke="#263238" stroke-linecap="round" stroke-linejoin="round" stroke-width="1"/>
        <path id="Caminho_1504" data-name="Caminho 1504" d="M348.635,306.641c1.358-1.564,3.473-3.165,3.921-3.165a30.906,30.906,0,0,0,3.075-.384" transform="translate(-80.631 -70.098)" fill="#fff"/>
        <path id="Caminho_1505" data-name="Caminho 1505" d="M348.635,306.641c1.358-1.564,3.473-3.165,3.921-3.165a30.906,30.906,0,0,0,3.075-.384" transform="translate(-80.631 -70.098)" fill="none" stroke="#263238" stroke-linecap="round" stroke-linejoin="round" stroke-width="1"/>
        <path id="Caminho_1506" data-name="Caminho 1506" d="M355.957,308.759a3.607,3.607,0,0,1-2.889.7" transform="translate(-81.657 -71.409)" fill="#fff"/>
        <path id="Caminho_1507" data-name="Caminho 1507" d="M355.957,308.759a3.607,3.607,0,0,1-2.889.7" transform="translate(-81.657 -71.409)" fill="none" stroke="#263238" stroke-linecap="round" stroke-linejoin="round" stroke-width="1"/>
        <path id="Caminho_1508" data-name="Caminho 1508" d="M355.651,309.525s5.077,4.233,7.384-.766" transform="translate(-82.254 -71.409)" fill="#fff"/>
        <path id="Caminho_1509" data-name="Caminho 1509" d="M355.651,309.525s5.077,4.233,7.384-.766" transform="translate(-82.254 -71.409)" fill="none" stroke="#263238" stroke-linecap="round" stroke-linejoin="round" stroke-width="1"/>
        <path id="Caminho_1510" data-name="Caminho 1510" d="M178.249,239.085s-2.245-.062-5.5-.146c-7.487-.184-20.333-.461-23.377-.269a35.031,35.031,0,0,0-11.1,2.96l-12.4-16.912c1.891-23.438,16.835-26.006,16.835-26.006s10.555,12.046,14.4,15.328,21.14,25.045,21.14,25.045" transform="translate(-29.112 -45.958)" fill="#50878f"/>
        <g id="Grupo_1778" data-name="Grupo 1778" transform="translate(96.764 152.754)" opacity="0.2">
          <g id="Grupo_1777" data-name="Grupo 1777">
            <g id="Grupo_1776" data-name="Grupo 1776" clip-path="url(#clip-path-34)">
              <path id="Caminho_1511" data-name="Caminho 1511" d="M172.753,238.939c-7.487-.184-20.333-.461-23.377-.269a35.031,35.031,0,0,0-11.1,2.96l-12.4-16.912c1.891-23.438,16.835-26.006,16.835-26.006s.876,14.314-10.555,24.13c0,0,3.536,9.932,11.254,11.9s22.785.354,29.342,4.2" transform="translate(-125.876 -198.712)"/>
            </g>
          </g>
        </g>
        <path id="Caminho_1512" data-name="Caminho 1512" d="M178.248,239.086s-17.3-21.763-21.14-25.046-14.4-15.328-14.4-15.328-14.944,2.564-16.84,26l12.4,16.914" transform="translate(-29.111 -45.958)" fill="none" stroke="#263238" stroke-linecap="round" stroke-linejoin="round" stroke-width="1"/>
        <path id="Caminho_1513" data-name="Caminho 1513" d="M135.133,194.364s-.269,12.576-13.96,19.341l-23.7-33.539C95.805,171.094,114,167.712,114,167.712l.008.015,8.579,10.816Z" transform="translate(-22.518 -38.788)" fill="#fff"/>
      </g>
    </g>
    <g id="Grupo_1785" data-name="Grupo 1785" transform="translate(74.847 128.924)">
      <g id="Grupo_1784" data-name="Grupo 1784" clip-path="url(#clip-path-35)">
        <g id="Grupo_1783" data-name="Grupo 1783" transform="translate(8.341 0.015)" opacity="0.2">
          <g id="Grupo_1782" data-name="Grupo 1782">
            <g id="Grupo_1781" data-name="Grupo 1781" clip-path="url(#clip-path-36)">
              <path id="Caminho_1514" data-name="Caminho 1514" d="M125.1,178.548c-8,6.327-16.881-.5-16.881-.5l8.3-10.316Z" transform="translate(-108.216 -167.732)" fill="#92e3a9"/>
            </g>
          </g>
        </g>
      </g>
    </g>
    <g id="Grupo_1787" data-name="Grupo 1787">
      <g id="Grupo_1786" data-name="Grupo 1786" clip-path="url(#clip-path)">
        <path id="Caminho_1516" data-name="Caminho 1516" d="M135.133,194.364s-.269,12.576-13.96,19.341l-23.7-33.539C95.805,171.094,114,167.712,114,167.712l.008.015,8.579,10.816Z" transform="translate(-22.518 -38.788)" fill="none" stroke="#263238" stroke-linecap="round" stroke-linejoin="round" stroke-width="1"/>
        <path id="Caminho_1517" data-name="Caminho 1517" d="M97.39,171.373c-.969-2.076,0-7.111,1.722-12.945,1.976-6.7,4.935-14.46,7.111-20.01,1.2-3.083,2.16-5.481,2.568-6.657,1.8-5.127,11.07.254,10.409,5.635s1.268,24.345-3.029,29.211-8.479,4.766-8.479,4.766" transform="translate(-22.435 -29.995)" fill="#fff"/>
      </g>
    </g>
    <g id="Grupo_1792" data-name="Grupo 1792" transform="translate(74.571 99.699)">
      <g id="Grupo_1791" data-name="Grupo 1791" clip-path="url(#clip-path-38)">
        <g id="Grupo_1790" data-name="Grupo 1790" transform="translate(2.106 5.633)" opacity="0.2">
          <g id="Grupo_1789" data-name="Grupo 1789">
            <g id="Grupo_1788" data-name="Grupo 1788" clip-path="url(#clip-path-39)">
              <path id="Caminho_1518" data-name="Caminho 1518" d="M113.068,137.022s-3.475,20.748-6.811,21.962a32.931,32.931,0,0,1-6.511,1.138c1.976-6.7,4.935-14.46,7.111-20.01Z" transform="translate(-99.746 -137.022)" fill="#92e3a9"/>
            </g>
          </g>
        </g>
      </g>
    </g>
    <g id="Grupo_1794" data-name="Grupo 1794">
      <g id="Grupo_1793" data-name="Grupo 1793" clip-path="url(#clip-path)">
        <path id="Caminho_1520" data-name="Caminho 1520" d="M97.39,171.373c-.969-2.076,0-7.111,1.722-12.945,1.976-6.7,4.935-14.46,7.111-20.01,1.2-3.083,2.16-5.481,2.568-6.657,1.8-5.127,11.07.254,10.409,5.635s1.268,24.345-3.029,29.211-8.479,4.766-8.479,4.766" transform="translate(-22.435 -29.995)" fill="none" stroke="#263238" stroke-linecap="round" stroke-linejoin="round" stroke-width="1"/>
        <path id="Caminho_1521" data-name="Caminho 1521" d="M96.3,131.284a2.157,2.157,0,0,1-3.01.484L60.9,108.367a2.157,2.157,0,0,1-.485-3.011L92.1,61.505a2.156,2.156,0,0,1,3.01-.485l32.39,23.4a2.157,2.157,0,0,1,.484,3.011Z" transform="translate(-13.877 -14.018)" fill="#bfbfbf"/>
        <path id="Caminho_1522" data-name="Caminho 1522" d="M96.3,131.284a2.157,2.157,0,0,1-3.01.484L60.9,108.367a2.157,2.157,0,0,1-.485-3.011L92.1,61.505a2.156,2.156,0,0,1,3.01-.485l32.39,23.4a2.157,2.157,0,0,1,.484,3.011Z" transform="translate(-13.877 -14.018)" fill="none" stroke="#263238" stroke-miterlimit="10" stroke-width="1"/>
        <rect id="Retângulo_1038" data-name="Retângulo 1038" width="4.804" height="20.772" transform="matrix(0.586, -0.811, 0.811, 0.586, 86.641, 55.892)" fill="#e2d393"/>
        <rect id="Retângulo_1039" data-name="Retângulo 1039" width="4.804" height="20.772" transform="matrix(0.586, -0.811, 0.811, 0.586, 86.641, 55.892)" fill="none" stroke="#263238" stroke-linecap="round" stroke-linejoin="round" stroke-width="1"/>
        <rect id="Retângulo_1040" data-name="Retângulo 1040" width="52.658" height="38.628" transform="matrix(0.586, -0.811, 0.811, 0.586, 49.244, 92.406)" fill="#92e3a9"/>
      </g>
    </g>
    <g id="Grupo_1799" data-name="Grupo 1799" transform="translate(49.243 49.724)">
      <g id="Grupo_1798" data-name="Grupo 1798" clip-path="url(#clip-path-41)">
        <g id="Grupo_1797" data-name="Grupo 1797" transform="translate(0 0)" opacity="0.7">
          <g id="Grupo_1796" data-name="Grupo 1796">
            <g id="Grupo_1795" data-name="Grupo 1795" clip-path="url(#clip-path-42)">
              <rect id="Retângulo_1042" data-name="Retângulo 1042" width="52.658" height="38.628" transform="matrix(0.586, -0.811, 0.811, 0.586, 0, 42.683)" fill="#fff"/>
            </g>
          </g>
        </g>
      </g>
    </g>
    <g id="Grupo_1804" data-name="Grupo 1804">
      <g id="Grupo_1803" data-name="Grupo 1803" clip-path="url(#clip-path)">
        <rect id="Retângulo_1045" data-name="Retângulo 1045" width="52.658" height="38.628" transform="matrix(0.586, -0.811, 0.811, 0.586, 49.244, 92.406)" fill="none" stroke="#263238" stroke-linecap="round" stroke-linejoin="round" stroke-width="1"/>
        <path id="Caminho_1523" data-name="Caminho 1523" d="M129.455,80.919l-1.707,2.362a.81.81,0,0,1-1.138.183l-4.262-3.079a1.7,1.7,0,0,0-2.641-1.91l-4.268-3.083a.815.815,0,0,1-.184-1.138l1.707-2.362a.82.82,0,0,1,1.138-.183l11.172,8.072A.815.815,0,0,1,129.455,80.919Z" transform="translate(-26.62 -16.55)" fill="none" stroke="#263238" stroke-linecap="round" stroke-linejoin="round" stroke-width="1"/>
        <path id="Caminho_1524" data-name="Caminho 1524" d="M121.842,136.662s4.889-3.043,5.958-4.532,3.871-8.231,3.2-10.317-3.127-5.814-3.312-7.415-3.46,1.2-1.6,7.814c0,0-4.446,3.678-4.773,8.574" transform="translate(-28.056 -26.356)" fill="#fff"/>
        <path id="Caminho_1525" data-name="Caminho 1525" d="M121.842,136.662s4.889-3.043,5.958-4.532,3.871-8.231,3.2-10.317-3.127-5.814-3.312-7.415-3.46,1.2-1.6,7.814c0,0-4.446,3.678-4.773,8.574" transform="translate(-28.056 -26.356)" fill="none" stroke="#263238" stroke-linecap="round" stroke-linejoin="round" stroke-width="1"/>
        <path id="Caminho_1526" data-name="Caminho 1526" d="M112.29,103.454A10.513,10.513,0,1,1,101.776,92.94a10.513,10.513,0,0,1,10.514,10.514" transform="translate(-21.107 -21.495)" fill="#fff"/>
        <path id="Caminho_1527" data-name="Caminho 1527" d="M112.29,103.454A10.513,10.513,0,1,1,101.776,92.94,10.513,10.513,0,0,1,112.29,103.454Z" transform="translate(-21.107 -21.495)" fill="none" stroke="#263238" stroke-linecap="round" stroke-linejoin="round" stroke-width="1"/>
        <path id="Caminho_1528" data-name="Caminho 1528" d="M98.131,101.716l1.29,7.379,11.755-3.194" transform="translate(-22.695 -23.524)" fill="#fff"/>
        <path id="Caminho_1529" data-name="Caminho 1529" d="M98.131,101.716l1.29,7.379,11.755-3.194" transform="translate(-22.695 -23.524)" fill="none" stroke="#263238" stroke-linecap="round" stroke-linejoin="round" stroke-width="1"/>
        <path id="Caminho_1530" data-name="Caminho 1530" d="M170.437,255.668s-15.09,2.406-26.444,8.548a36.168,36.168,0,0,0-6.35,4.259c-5.281,4.528-9.893,13.906-13.829,21.34-3.367,6.334-5.911,8.856-5.911,8.856-10.485-14.529-9.671-26.106-9.671-26.106s.038-.023.1-.054c1.707-1,25.245-14.66,31.318-16.481,6.234-1.876,30.787-.361,30.787-.361" transform="translate(-25.028 -58.997)" fill="#50878f"/>
        <g id="Grupo_1802" data-name="Grupo 1802" transform="translate(83.189 205.22)" opacity="0.2">
          <g id="Grupo_1801" data-name="Grupo 1801">
            <g id="Grupo_1800" data-name="Grupo 1800" clip-path="url(#clip-path-44)">
              <path id="Caminho_1531" data-name="Caminho 1531" d="M143.993,266.962a36.168,36.168,0,0,0-6.35,4.259c-5.281,4.528-9.893,13.906-13.829,21.34-3.367,6.334-5.911,8.856-5.911,8.856-10.485-14.529-9.671-26.106-9.671-26.106s.038-.023.1-.054c.807-.361,6.242-2.168,13.46,11.685,0,0,4.989-16.289,22.2-19.979" transform="translate(-108.217 -266.962)"/>
            </g>
          </g>
        </g>
        <path id="Caminho_1532" data-name="Caminho 1532" d="M87.314,234.161s-6.6-1.712-4.625,4.468,9.043,5.984,9.043,5.984" transform="translate(-19.039 -54.106)" fill="#fff"/>
        <path id="Caminho_1533" data-name="Caminho 1533" d="M87.314,234.161s-6.6-1.712-4.625,4.468,9.043,5.984,9.043,5.984" transform="translate(-19.039 -54.106)" fill="none" stroke="#263238" stroke-linecap="round" stroke-linejoin="round" stroke-width="1"/>
        <path id="Caminho_1534" data-name="Caminho 1534" d="M170.439,255.669s-24.555-1.513-30.787.359c-6.31,1.9-31.422,16.537-31.422,16.537s-.816,11.577,9.672,26.107" transform="translate(-25.028 -58.997)" fill="none" stroke="#263238" stroke-linecap="round" stroke-linejoin="round" stroke-width="1"/>
        <path id="Caminho_1535" data-name="Caminho 1535" d="M109.063,301.028s-36.522,13.23-42.487,6.042a78.809,78.809,0,0,1,6.38-13.407c1.976-3.121,4.243-5.727,6.519-6.327a86.348,86.348,0,0,0,9.893-3.521c5.535-2.291,10.385-4.674,10.385-4.674,9.263,6.111,9.309,21.886,9.309,21.886" transform="translate(-15.397 -64.559)" fill="#fff"/>
      </g>
    </g>
    <g id="Grupo_1809" data-name="Grupo 1809" transform="translate(51.178 214.583)">
      <g id="Grupo_1808" data-name="Grupo 1808" clip-path="url(#clip-path-45)">
        <g id="Grupo_1807" data-name="Grupo 1807" transform="translate(6.38 4.674)" opacity="0.2">
          <g id="Grupo_1806" data-name="Grupo 1806">
            <g id="Grupo_1805" data-name="Grupo 1805" clip-path="url(#clip-path-46)">
              <path id="Caminho_1536" data-name="Caminho 1536" d="M91.288,285.222c-1.045,4.943-3.982,14.16-11.354,13.56a5.317,5.317,0,0,1-5.058-3.713c1.976-3.121,4.243-5.727,6.519-6.327a86.354,86.354,0,0,0,9.893-3.521" transform="translate(-74.876 -285.222)" fill="#92e3a9"/>
            </g>
          </g>
        </g>
      </g>
    </g>
    <g id="Grupo_1811" data-name="Grupo 1811">
      <g id="Grupo_1810" data-name="Grupo 1810" clip-path="url(#clip-path)">
        <path id="Caminho_1538" data-name="Caminho 1538" d="M109.063,301.028s-36.522,13.23-42.487,6.042a78.809,78.809,0,0,1,6.38-13.407c1.976-3.121,4.243-5.727,6.519-6.327a86.348,86.348,0,0,0,9.893-3.521c5.535-2.291,10.385-4.674,10.385-4.674C109.017,285.253,109.063,301.028,109.063,301.028Z" transform="translate(-15.397 -64.559)" fill="none" stroke="#263238" stroke-linecap="round" stroke-linejoin="round" stroke-width="1"/>
        <path id="Caminho_1539" data-name="Caminho 1539" d="M67.98,298.488c-8.594.384-9.14-19.848-4.82-49.9,0,0,6.626-13.153,9.686-13.33.823-.046,1.96-.069,3.175-.069,3.3-.023,7.2.069,7.2.069s1.768,7.618,1.783,10.209c.023,3.882-1.684,4.32-1.684,4.32.092,3.659-2.867,4.028-6.042,3.528a2.144,2.144,0,0,1-.223.461c-.423.707-1.568,2.022-4.336,2.375-.046,11.723,11.339,29.473,5.312,33.347" transform="translate(-13.996 -54.393)" fill="#fff"/>
      </g>
    </g>
    <g id="Grupo_1816" data-name="Grupo 1816" transform="translate(46.518 180.794)">
      <g id="Grupo_1815" data-name="Grupo 1815" clip-path="url(#clip-path-48)">
        <g id="Grupo_1814" data-name="Grupo 1814" transform="translate(15.507 0)" opacity="0.2">
          <g id="Grupo_1813" data-name="Grupo 1813">
            <g id="Grupo_1812" data-name="Grupo 1812" clip-path="url(#clip-path-49)">
              <path id="Caminho_1540" data-name="Caminho 1540" d="M89.672,245.469c.023,3.882-1.684,4.32-1.684,4.32.092,3.659-2.867,4.028-6.042,3.528a2.144,2.144,0,0,1-.223.461l.976-2.944a2.474,2.474,0,0,0,1.637.131c1.922-.946.915-4.259.915-4.259a2.208,2.208,0,0,0,1.4-1.806c.3-1.514-3.052-2.537-3.052-2.537,1.053-1.76-1.291-3.444-1.291-3.444.838-1.261-.254-2.644-1.622-3.728,3.3-.023,7.2.069,7.2.069s1.768,7.618,1.783,10.209" transform="translate(-80.686 -235.187)" fill="#92e3a9"/>
            </g>
          </g>
        </g>
      </g>
    </g>
    <g id="Grupo_1818" data-name="Grupo 1818">
      <g id="Grupo_1817" data-name="Grupo 1817" clip-path="url(#clip-path)">
        <path id="Caminho_1542" data-name="Caminho 1542" d="M67.98,298.488c-8.594.384-9.14-19.848-4.82-49.9,0,0,6.626-13.153,9.686-13.33.823-.046,1.96-.069,3.175-.069,3.3-.023,7.2.069,7.2.069s1.768,7.618,1.783,10.209c.023,3.882-1.684,4.32-1.684,4.32.092,3.659-2.867,4.028-6.042,3.528a2.144,2.144,0,0,1-.223.461c-.423.707-1.568,2.022-4.336,2.375-.046,11.723,11.339,29.473,5.312,33.347" transform="translate(-13.996 -54.393)" fill="none" stroke="#263238" stroke-linecap="round" stroke-linejoin="round" stroke-width="1"/>
        <path id="Caminho_1543" data-name="Caminho 1543" d="M87.944,246.4c-1.062-1.951-2.085-.824-7.185-2.056a20.9,20.9,0,0,0,5.815-.278" transform="translate(-18.678 -56.446)" fill="none" stroke="#263238" stroke-linecap="round" stroke-linejoin="round" stroke-width="1"/>
        <path id="Caminho_1544" data-name="Caminho 1544" d="M79.99,239.489c.69.309,3.694.085,5.1,0" transform="translate(-18.5 -55.388)" fill="none" stroke="#263238" stroke-linecap="round" stroke-linejoin="round" stroke-width="1"/>
        <path id="Caminho_1545" data-name="Caminho 1545" d="M82.321,250.206c-.018-.146,4.3.212,5,.723s1.141,2.411,1.141,2.411" transform="translate(-19.039 -57.859)" fill="none" stroke="#263238" stroke-linecap="round" stroke-linejoin="round" stroke-width="1"/>
        <path id="Caminho_1546" data-name="Caminho 1546" d="M85.63,255.54c-.322.3-2.55,0-2.55,0a6.876,6.876,0,0,1-.759,2.488" transform="translate(-19.039 -59.101)" fill="none" stroke="#263238" stroke-linecap="round" stroke-linejoin="round" stroke-width="1"/>
        <path id="Caminho_1547" data-name="Caminho 1547" d="M109.573,230.808c0,6.3-2.575,11.792-6.373,14.675H91.016c-3.805-2.883-6.38-8.371-6.38-14.675,0-.261.023-.515.031-.776h24.876c.015.261.031.515.031.776" transform="translate(-19.574 -53.201)" fill="#757575"/>
      </g>
    </g>
    <g id="Grupo_1823" data-name="Grupo 1823" transform="translate(65.062 176.831)">
      <g id="Grupo_1822" data-name="Grupo 1822" clip-path="url(#clip-path-51)">
        <g id="Grupo_1821" data-name="Grupo 1821" transform="translate(0 0)" opacity="0.2">
          <g id="Grupo_1820" data-name="Grupo 1820">
            <g id="Grupo_1819" data-name="Grupo 1819" clip-path="url(#clip-path-52)">
              <path id="Caminho_1548" data-name="Caminho 1548" d="M100.241,244.761l-.054.723H91.016c-3.805-2.883-6.38-8.371-6.38-14.675,0-.261.023-.515.031-.776h2.706c1.868,4.6,5.973,12.469,12.868,14.729" transform="translate(-84.636 -230.032)"/>
            </g>
          </g>
        </g>
      </g>
    </g>
    <g id="Grupo_1828" data-name="Grupo 1828">
      <g id="Grupo_1827" data-name="Grupo 1827" clip-path="url(#clip-path)">
        <path id="Caminho_1550" data-name="Caminho 1550" d="M109.573,230.808c0,6.3-2.575,11.792-6.373,14.675H91.016c-3.805-2.883-6.38-8.371-6.38-14.675,0-.261.023-.515.031-.776h24.876C109.558,230.293,109.573,230.547,109.573,230.808Z" transform="translate(-19.574 -53.201)" fill="none" stroke="#263238" stroke-linecap="round" stroke-linejoin="round" stroke-width="1"/>
        <path id="Caminho_1551" data-name="Caminho 1551" d="M105.6,249.19H91.474l-.657,1.893h15.439Z" transform="translate(-21.004 -57.632)" fill="#757575"/>
        <path id="Caminho_1552" data-name="Caminho 1552" d="M105.6,249.19H91.474l-.657,1.893h15.439Z" transform="translate(-21.004 -57.632)" fill="none" stroke="#263238" stroke-linecap="round" stroke-linejoin="round" stroke-width="1"/>
        <g id="Grupo_1826" data-name="Grupo 1826" transform="translate(69.813 191.558)" opacity="0.2">
          <g id="Grupo_1825" data-name="Grupo 1825">
            <g id="Grupo_1824" data-name="Grupo 1824" clip-path="url(#clip-path-54)">
              <path id="Caminho_1553" data-name="Caminho 1553" d="M106.256,251.082l-.657-1.893H91.473l-.657,1.893" transform="translate(-90.816 -249.19)"/>
            </g>
          </g>
        </g>
      </g>
    </g>
    <g id="Grupo_1834" data-name="Grupo 1834" transform="translate(69.812 191.557)">
      <g id="Grupo_1833" data-name="Grupo 1833" clip-path="url(#clip-path-55)">
        <g id="Grupo_1831" data-name="Grupo 1831" transform="translate(0 1.893)" opacity="0.2">
          <g id="Grupo_1830" data-name="Grupo 1830">
            <g id="Grupo_1829" data-name="Grupo 1829" clip-path="url(#clip-path-56)">
              <line id="Linha_62" data-name="Linha 62" x2="15.44" transform="translate(0 0.001)"/>
            </g>
          </g>
        </g>
      </g>
    </g>
    <g id="Grupo_1837" data-name="Grupo 1837">
      <g id="Grupo_1836" data-name="Grupo 1836" clip-path="url(#clip-path)">
        <path id="Caminho_1556" data-name="Caminho 1556" d="M95.507,210.089c-2.142,3.688,3.6,7.154.755,12.2" transform="translate(-21.975 -48.589)" fill="none" stroke="#263238" stroke-linecap="round" stroke-linejoin="round" stroke-width="1"/>
        <path id="Caminho_1557" data-name="Caminho 1557" d="M100.3,210.089c-2.143,3.689,3.6,7.154.755,12.2" transform="translate(-23.084 -48.589)" fill="none" stroke="#263238" stroke-linecap="round" stroke-linejoin="round" stroke-width="1"/>
        <path id="Caminho_1558" data-name="Caminho 1558" d="M105.43,210.089c-2.142,3.689,3.6,7.154.755,12.2" transform="translate(-24.27 -48.589)" fill="none" stroke="#263238" stroke-linecap="round" stroke-linejoin="round" stroke-width="1"/>
        <path id="Caminho_1559" data-name="Caminho 1559" d="M254.581,274.92c-5.463-9.318-28.071-17.434-53.183-18.435l-.2-.009q-1.233-.048-2.472-.072l0-.025c-.419,0-.836.008-1.255.012s-.836-.012-1.255-.012l0,.025q-1.238.024-2.471.072c-.072,0-.141.008-.213.009-25.107,1-47.709,9.117-53.171,18.435-5.838,9.957-14.48,25.976-14.48,25.976,4.845,7.844,23.447,8.893,23.447,8.893l.99,21.1h94.315l.99-21.1s18.6-1.049,23.448-8.893c0,0-8.643-16.019-14.48-25.976" transform="translate(-29.111 -59.295)" fill="#50878f"/>
        <path id="Caminho_1560" data-name="Caminho 1560" d="M168.7,336.72s-43.471,7.3-46.6,1.338a6.362,6.362,0,0,1-.63-2.122c-1.022-7.188,5.212-21.363,5.212-21.363,4.835-.461,9.909.792,13.968,2.275.008.008.008.008.008,0a40.805,40.805,0,0,1,8.1,3.9l-.323.707-.108.223,10.155.323,9.086.292.208.008v.015Z" transform="translate(-28.067 -72.731)" fill="#fff"/>
      </g>
    </g>
    <g id="Grupo_1845" data-name="Grupo 1845" transform="translate(93.291 241.745)">
      <g id="Grupo_1844" data-name="Grupo 1844" clip-path="url(#clip-path-58)">
        <g id="Grupo_1840" data-name="Grupo 1840" transform="translate(13.359 2.372)" opacity="0.2">
          <g id="Grupo_1839" data-name="Grupo 1839">
            <g id="Grupo_1838" data-name="Grupo 1838" clip-path="url(#clip-path-59)">
              <path id="Caminho_1561" data-name="Caminho 1561" d="M152.458,322.167c-9.947.192-13.722,1.561-13.722,1.561a23.194,23.194,0,0,1,5.935-6.165c.008.008.008.008.008,0a40.808,40.808,0,0,1,8.1,3.9Z" transform="translate(-138.736 -317.562)" fill="#92e3a9"/>
            </g>
          </g>
        </g>
        <g id="Grupo_1843" data-name="Grupo 1843" transform="translate(0.114 7.154)" opacity="0.2">
          <g id="Grupo_1842" data-name="Grupo 1842">
            <g id="Grupo_1841" data-name="Grupo 1841" clip-path="url(#clip-path-60)">
              <path id="Caminho_1562" data-name="Caminho 1562" d="M168.736,338.872s-43.471,7.3-46.6,1.338a6.362,6.362,0,0,1-.63-2.122,10.617,10.617,0,0,0,3.359.738c5.689.2,34.377-3.344,34.377-3.344l-.723-11.331-.023-.369c2.752.138,5.781.346,9.109.661l.208.023Z" transform="translate(-121.506 -323.782)" fill="#92e3a9"/>
            </g>
          </g>
        </g>
      </g>
    </g>
    <g id="Grupo_1847" data-name="Grupo 1847">
      <g id="Grupo_1846" data-name="Grupo 1846" clip-path="url(#clip-path)">
        <path id="Caminho_1564" data-name="Caminho 1564" d="M168.7,336.72s-43.471,7.3-46.6,1.338a6.362,6.362,0,0,1-.63-2.122c-1.022-7.188,5.212-21.363,5.212-21.363,4.835-.461,9.909.792,13.968,2.275.008.008.008.008.008,0a40.805,40.805,0,0,1,8.1,3.9l-.323.707-.108.223,10.155.323,9.086.292.208.008v.015Z" transform="translate(-28.067 -72.731)" fill="none" stroke="#263238" stroke-linecap="round" stroke-linejoin="round" stroke-width="1"/>
        <path id="Caminho_1565" data-name="Caminho 1565" d="M152.038,323.834s-10.267-.271-14.644,1.735" transform="translate(-31.776 -74.893)" fill="none" stroke="#263238" stroke-linecap="round" stroke-linejoin="round" stroke-width="1"/>
        <path id="Caminho_1566" data-name="Caminho 1566" d="M276.34,311.738s-4.026-18.613,3.779-27.624" transform="translate(-63.671 -65.709)" fill="none" stroke="#263238" stroke-linecap="round" stroke-linejoin="round" stroke-width="1"/>
        <path id="Caminho_1567" data-name="Caminho 1567" d="M283.672,296.175s-5.286,3.83-6.246,10.056" transform="translate(-64.162 -68.498)" fill="none" stroke="#263238" stroke-linecap="round" stroke-linejoin="round" stroke-width="1"/>
        <path id="Caminho_1568" data-name="Caminho 1568" d="M156.444,281.29a48.34,48.34,0,0,1,3.01,30.82" transform="translate(-36.182 -65.056)" fill="none" stroke="#263238" stroke-linecap="round" stroke-linejoin="round" stroke-width="1"/>
        <path id="Caminho_1569" data-name="Caminho 1569" d="M149.719,289.675s5.632,3.43,8.179,8.777" transform="translate(-34.627 -66.995)" fill="none" stroke="#263238" stroke-linecap="round" stroke-linejoin="round" stroke-width="1"/>
        <path id="Caminho_1570" data-name="Caminho 1570" d="M231.4,259.383s-8.331,21.267-33.13,9.737" transform="translate(-45.855 -59.989)" fill="none" stroke="#263238" stroke-linecap="round" stroke-linejoin="round" stroke-width="1"/>
        <path id="Caminho_1571" data-name="Caminho 1571" d="M289.282,278.142a19.887,19.887,0,0,0-7.794,10.05" transform="translate(-65.102 -64.328)" fill="none" stroke="#263238" stroke-linecap="round" stroke-linejoin="round" stroke-width="1"/>
        <path id="Caminho_1572" data-name="Caminho 1572" d="M146.386,278.142a16.753,16.753,0,0,1,6.652,7.616" transform="translate(-33.856 -64.328)" fill="none" stroke="#263238" stroke-linecap="round" stroke-linejoin="round" stroke-width="1"/>
        <path id="Caminho_1573" data-name="Caminho 1573" d="M194.006,258.478s2.762,11.329,18.613,11.585" transform="translate(-44.869 -59.78)" fill="none" stroke="#263238" stroke-linecap="round" stroke-linejoin="round" stroke-width="1"/>
        <path id="Caminho_1574" data-name="Caminho 1574" d="M246.024,273.549s-29.468,28.785-50.352,29.831" transform="translate(-45.254 -63.266)" fill="none" stroke="#263238" stroke-linecap="round" stroke-linejoin="round" stroke-width="1"/>
        <path id="Caminho_1575" data-name="Caminho 1575" d="M174.172,279.882s4.081,9.162,11.522,12.525" transform="translate(-40.282 -64.73)" fill="none" stroke="#263238" stroke-linecap="round" stroke-linejoin="round" stroke-width="1"/>
        <path id="Caminho_1576" data-name="Caminho 1576" d="M255.358,336.72s43.471,7.3,46.6,1.338a6.361,6.361,0,0,0,.63-2.122c1.022-7.188-5.212-21.363-5.212-21.363-4.835-.461-9.909.792-13.968,2.275-.008.008-.008.008-.008,0a40.8,40.8,0,0,0-8.1,3.9l.323.707.108.223L265.574,322l-9.086.292-.208.008v.015Z" transform="translate(-59.058 -72.731)" fill="#fff"/>
      </g>
    </g>
    <g id="Grupo_1855" data-name="Grupo 1855" transform="translate(196.3 241.745)">
      <g id="Grupo_1854" data-name="Grupo 1854" clip-path="url(#clip-path-62)">
        <g id="Grupo_1850" data-name="Grupo 1850" transform="translate(19.941 2.372)" opacity="0.2">
          <g id="Grupo_1849" data-name="Grupo 1849">
            <g id="Grupo_1848" data-name="Grupo 1848" clip-path="url(#clip-path-59)">
              <path id="Caminho_1577" data-name="Caminho 1577" d="M281.621,322.167c9.947.192,13.722,1.561,13.722,1.561a23.194,23.194,0,0,0-5.935-6.165c-.008.008-.008.008-.008,0a40.807,40.807,0,0,0-8.1,3.9Z" transform="translate(-281.298 -317.562)" fill="#92e3a9"/>
            </g>
          </g>
        </g>
        <g id="Grupo_1853" data-name="Grupo 1853" transform="translate(0 7.154)" opacity="0.2">
          <g id="Grupo_1852" data-name="Grupo 1852">
            <g id="Grupo_1851" data-name="Grupo 1851" clip-path="url(#clip-path-60)">
              <path id="Caminho_1578" data-name="Caminho 1578" d="M255.358,338.872s43.471,7.3,46.6,1.338a6.361,6.361,0,0,0,.63-2.122,10.617,10.617,0,0,1-3.359.738c-5.689.2-34.377-3.344-34.377-3.344l.723-11.331.023-.369c-2.752.138-5.781.346-9.109.661l-.208.023Z" transform="translate(-255.358 -323.782)" fill="#92e3a9"/>
            </g>
          </g>
        </g>
      </g>
    </g>
    <g id="Grupo_1866" data-name="Grupo 1866">
      <g id="Grupo_1865" data-name="Grupo 1865" clip-path="url(#clip-path)">
        <path id="Caminho_1580" data-name="Caminho 1580" d="M255.358,336.72s43.471,7.3,46.6,1.338a6.361,6.361,0,0,0,.63-2.122c1.022-7.188-5.212-21.363-5.212-21.363-4.835-.461-9.909.792-13.968,2.275-.008.008-.008.008-.008,0a40.8,40.8,0,0,0-8.1,3.9l.323.707.108.223L265.574,322l-9.086.292-.208.008v.015Z" transform="translate(-59.058 -72.731)" fill="none" stroke="#263238" stroke-linecap="round" stroke-linejoin="round" stroke-width="1"/>
        <path id="Caminho_1581" data-name="Caminho 1581" d="M281.86,323.834s10.268-.271,14.644,1.735" transform="translate(-65.188 -74.893)" fill="none" stroke="#263238" stroke-linecap="round" stroke-linejoin="round" stroke-width="1"/>
        <path id="Caminho_1582" data-name="Caminho 1582" d="M228.941,253.829a17.137,17.137,0,0,1-15.623,7.939c-8.944-.449-15.052-7.229-15.052-7.229,3.213-2.605,3.691-8.908,3.466-13.048-.007-.094-.007-.181-.015-.274-.014-.268-.036-.536-.058-.8a35.442,35.442,0,0,0-.817-5.24l26.759,1.338a27.856,27.856,0,0,0-1.758,8.083,16.456,16.456,0,0,0,.21,3.618c.007.044.015.08.021.115.739,3.98,2.866,5.493,2.866,5.493" transform="translate(-45.855 -54.392)" fill="#fff"/>
        <path id="Caminho_1583" data-name="Caminho 1583" d="M228.941,253.829a17.137,17.137,0,0,1-15.623,7.939c-8.944-.449-15.052-7.229-15.052-7.229,3.213-2.605,3.691-8.908,3.466-13.048-.007-.094-.007-.181-.015-.274-.014-.268-.036-.536-.058-.8a35.442,35.442,0,0,0-.817-5.24l26.759,1.338a27.856,27.856,0,0,0-1.758,8.083,16.456,16.456,0,0,0,.21,3.618c.007.044.015.08.021.115C226.814,252.316,228.941,253.829,228.941,253.829Z" transform="translate(-45.855 -54.392)" fill="none" stroke="#263238" stroke-miterlimit="10" stroke-width="1"/>
        <path id="Caminho_1584" data-name="Caminho 1584" d="M160.359,338.712v2.86a1.626,1.626,0,0,0,1.627,1.627h86.142a1.626,1.626,0,0,0,1.627-1.627v-2.86Z" transform="translate(-37.087 -78.336)" fill="#757575"/>
        <path id="Caminho_1585" data-name="Caminho 1585" d="M160.359,338.712v2.86a1.626,1.626,0,0,0,1.627,1.627h86.142a1.626,1.626,0,0,0,1.627-1.627v-2.86Z" transform="translate(-37.087 -78.336)" fill="none" stroke="#263238" stroke-linecap="round" stroke-linejoin="round" stroke-width="1"/>
        <path id="Caminho_1586" data-name="Caminho 1586" d="M257.13,283.361l-11.1,41.448a2.965,2.965,0,0,1-1.737,1.89,2.4,2.4,0,0,1-.89.181H160.3a2.394,2.394,0,0,1-.89-.181,2.965,2.965,0,0,1-1.737-1.89l-11.1-41.448a1.531,1.531,0,0,1,1.512-2.07h107.53a1.532,1.532,0,0,1,1.513,2.07" transform="translate(-33.882 -65.056)" fill="#bfbfbf"/>
        <path id="Caminho_1587" data-name="Caminho 1587" d="M257.13,283.361l-11.1,41.448a2.965,2.965,0,0,1-1.737,1.89,2.4,2.4,0,0,1-.89.181H160.3a2.394,2.394,0,0,1-.89-.181,2.965,2.965,0,0,1-1.737-1.89l-11.1-41.448a1.531,1.531,0,0,1,1.512-2.07h107.53A1.532,1.532,0,0,1,257.13,283.361Z" transform="translate(-33.882 -65.056)" fill="none" stroke="#263238" stroke-miterlimit="10" stroke-width="1"/>
        <path id="Caminho_1588" data-name="Caminho 1588" d="M255.864,286.184l-11.028,41.167a2.394,2.394,0,0,1-.89.181h-83.1a2.4,2.4,0,0,1-.89-.181l-11.028-41.167a1.531,1.531,0,0,1,1.513-2.069H254.352a1.531,1.531,0,0,1,1.513,2.069" transform="translate(-34.426 -65.709)" fill="#999"/>
        <path id="Caminho_1589" data-name="Caminho 1589" d="M255.864,286.184l-11.028,41.167a2.394,2.394,0,0,1-.89.181h-83.1a2.4,2.4,0,0,1-.89-.181l-11.028-41.167a1.531,1.531,0,0,1,1.513-2.069H254.352A1.531,1.531,0,0,1,255.864,286.184Z" transform="translate(-34.426 -65.709)" fill="none" stroke="#263238" stroke-linecap="round" stroke-linejoin="round" stroke-width="1"/>
        <path id="Caminho_1590" data-name="Caminho 1590" d="M222.255,315.556c-2.458,0-4.452-1.474-4.452-3.29a2.537,2.537,0,0,1,.3-1.187,8.3,8.3,0,0,0-1.48-.136c-3.448,0-6.241,2.066-6.241,4.613s2.794,4.613,6.241,4.613,6.241-2.066,6.241-4.613c0-.012,0-.022,0-.035-.2.02-.4.035-.612.035" transform="translate(-48.658 -71.914)" fill="#bfbfbf"/>
        <path id="Caminho_1591" data-name="Caminho 1591" d="M222.255,315.556c-2.458,0-4.452-1.474-4.452-3.29a2.537,2.537,0,0,1,.3-1.187,8.3,8.3,0,0,0-1.48-.136c-3.448,0-6.241,2.066-6.241,4.613s2.794,4.613,6.241,4.613,6.241-2.066,6.241-4.613c0-.012,0-.022,0-.035C222.667,315.542,222.464,315.556,222.255,315.556Z" transform="translate(-48.658 -71.914)" fill="none" stroke="#263238" stroke-miterlimit="10" stroke-width="1"/>
        <path id="Caminho_1592" data-name="Caminho 1592" d="M228.378,236.519a27.851,27.851,0,0,0-1.758,8.083c-2.9,2.909-6.463,5.073-10.392,4.457-5.68-.9-10.405-5.094-13.792-8.64a35.321,35.321,0,0,0-.817-5.239Z" transform="translate(-46.63 -54.392)" fill="#263238"/>
        <path id="Caminho_1593" data-name="Caminho 1593" d="M243.021,211.059s2.157-2.344,3.217-1.573a5.029,5.029,0,0,1,1.735,4.947c-.577,1.992-3.084,5.462-3.277,7.486s-1.492,4.316-2.913,2.977,1.238-13.837,1.238-13.837" transform="translate(-55.822 -48.413)" fill="#fff"/>
        <path id="Caminho_1594" data-name="Caminho 1594" d="M243.021,211.059s2.157-2.344,3.217-1.573a5.029,5.029,0,0,1,1.735,4.947c-.577,1.992-3.084,5.462-3.277,7.486s-1.492,4.316-2.913,2.977S243.021,211.059,243.021,211.059Z" transform="translate(-55.822 -48.413)" fill="none" stroke="#263238" stroke-miterlimit="10" stroke-width="1"/>
        <path id="Caminho_1595" data-name="Caminho 1595" d="M191.958,211.059s-2.159-2.344-3.219-1.573A5.034,5.034,0,0,0,187,214.433c.579,1.992,3.083,5.462,3.277,7.486s1.491,4.316,2.914,2.977-1.238-13.837-1.238-13.837" transform="translate(-43.216 -48.413)" fill="#fff"/>
        <path id="Caminho_1596" data-name="Caminho 1596" d="M191.958,211.059s-2.159-2.344-3.219-1.573A5.034,5.034,0,0,0,187,214.433c.579,1.992,3.083,5.462,3.277,7.486s1.491,4.316,2.914,2.977S191.958,211.059,191.958,211.059Z" transform="translate(-43.216 -48.413)" fill="none" stroke="#263238" stroke-miterlimit="10" stroke-width="1"/>
        <path id="Caminho_1597" data-name="Caminho 1597" d="M212.153,176.325c27.138,0,20.686,36.144,15.693,47.747-1.753,4.075-10.842,9.424-15.238,9.424-4.087,0-13.44-6.392-15.1-10.219-5.051-11.662-11.225-46.952,14.643-46.952" transform="translate(-44.638 -40.78)" fill="#fff"/>
        <path id="Caminho_1598" data-name="Caminho 1598" d="M212.153,176.325c27.138,0,20.686,36.144,15.693,47.747-1.753,4.075-10.842,9.424-15.238,9.424-4.087,0-13.44-6.392-15.1-10.219C192.459,211.615,186.285,176.325,212.153,176.325Z" transform="translate(-44.638 -40.78)" fill="none" stroke="#263238" stroke-miterlimit="10" stroke-width="1"/>
        <path id="Caminho_1599" data-name="Caminho 1599" d="M223.9,213.738s6.92-1.27,9.25,1.46" transform="translate(-51.782 -49.365)" fill="none" stroke="#263238" stroke-linecap="round" stroke-linejoin="round" stroke-width="1"/>
        <path id="Caminho_1600" data-name="Caminho 1600" d="M230.134,220.162c0,.834-.423,1.509-.946,1.509s-.946-.675-.946-1.509.424-1.511.946-1.511.946.676.946,1.511" transform="translate(-52.787 -50.569)" fill="#263238"/>
        <path id="Caminho_1601" data-name="Caminho 1601" d="M210.331,213.805s-6.379-.562-9.252,1.46" transform="translate(-46.505 -49.432)" fill="none" stroke="#263238" stroke-linecap="round" stroke-linejoin="round" stroke-width="1"/>
        <path id="Caminho_1602" data-name="Caminho 1602" d="M206.308,220.162c0,.834.424,1.509.946,1.509s.946-.675.946-1.509-.424-1.511-.946-1.511-.946.676-.946,1.511" transform="translate(-47.714 -50.569)" fill="#263238"/>
        <path id="Caminho_1603" data-name="Caminho 1603" d="M222.677,184.606a34.351,34.351,0,0,1-20.912,0s-3.662-.214-5.108,1.627,0,7.528.386,9.841-3.18,3.919-2.7,9.765l-1.379,2.018s-3.829-9.408-2.864-17.5,6.075-11.241,6.075-11.241,2.328-6.99,15.984-6.938c14.719.056,16.205,8.022,16.205,8.022s9.978,6.654,2.6,28.339l-1.6-2.7a12.128,12.128,0,0,0-1.863-8.223c-1.285-1.877.77-7.518.288-10.409s-5.107-2.6-5.107-2.6" transform="translate(-43.93 -39.82)" fill="#263238"/>
        <path id="Caminho_1604" data-name="Caminho 1604" d="M219.65,218.652s.409,6.174,1.6,8.521-2.988,2.743-4.779,1.35" transform="translate(-50.066 -50.569)" fill="none" stroke="#263238" stroke-linecap="round" stroke-linejoin="round" stroke-width="1"/>
        <path id="Caminho_1605" data-name="Caminho 1605" d="M211.719,237.931c0,.942,3.1,2.125,6.151,2.125,3.068,0,5.337-1.281,4.884-1.751" transform="translate(-48.966 -55.028)" fill="none" stroke="#263238" stroke-linecap="round" stroke-linejoin="round" stroke-width="1"/>
        <path id="Caminho_1606" data-name="Caminho 1606" d="M230.623,188.562s-3.981,5.415-13.025,9.153v-2.578s-8.174,4.716-15.537,4l1.667-3.351s-6.2,6.574-11.458,6.316-6.776-29.923,19.708-29.923c21.523,0,18.645,16.387,18.645,16.387" transform="translate(-43.748 -39.82)" fill="#263238"/>
        <path id="Caminho_1607" data-name="Caminho 1607" d="M237.26,193.07a14.808,14.808,0,0,0,5.987,13.595s4.386-4.715,2.7-13.595-5.554-9.156-5.554-9.156Z" transform="translate(-54.848 -42.535)" fill="#263238"/>
        <g id="Grupo_1858" data-name="Grupo 1858" transform="translate(166.013 138.191)" opacity="0.2">
          <g id="Grupo_1857" data-name="Grupo 1857">
            <g id="Grupo_1856" data-name="Grupo 1856" clip-path="url(#clip-path-66)">
              <path id="Caminho_1608" data-name="Caminho 1608" d="M229.122,179.882s-2.758,11.723-12.91,17.681" transform="translate(-216.018 -179.794)" fill="none" stroke="#fff" stroke-miterlimit="10" stroke-width="1"/>
            </g>
          </g>
        </g>
        <g id="Grupo_1861" data-name="Grupo 1861" transform="translate(151.399 138.14)" opacity="0.2">
          <g id="Grupo_1860" data-name="Grupo 1860">
            <g id="Grupo_1859" data-name="Grupo 1859" clip-path="url(#clip-path-67)">
              <path id="Caminho_1609" data-name="Caminho 1609" d="M218.225,179.882s-4.5,11.531-21.219,13.453" transform="translate(-196.962 -179.742)" fill="none" stroke="#fff" stroke-miterlimit="10" stroke-width="1"/>
            </g>
          </g>
        </g>
        <g id="Grupo_1864" data-name="Grupo 1864" transform="translate(178.884 142.587)" opacity="0.2">
          <g id="Grupo_1863" data-name="Grupo 1863">
            <g id="Grupo_1862" data-name="Grupo 1862" clip-path="url(#clip-path-68)">
              <path id="Caminho_1610" data-name="Caminho 1610" d="M236.976,185.492s.066,6.065-3.97,9.14" transform="translate(-232.773 -185.487)" fill="none" stroke="#fff" stroke-miterlimit="10" stroke-width="1"/>
            </g>
          </g>
        </g>
        <line id="Linha_63" data-name="Linha 63" y1="14.806" x2="7.633" transform="translate(280.13 37.193)" fill="#fff"/>
        <line id="Linha_64" data-name="Linha 64" y1="14.806" x2="7.633" transform="translate(280.13 37.193)" fill="none" stroke="#263238" stroke-linecap="round" stroke-linejoin="round" stroke-width="1"/>
        <line id="Linha_65" data-name="Linha 65" y1="10.304" x2="17.168" transform="translate(287.763 49.724)" fill="#fff"/>
        <line id="Linha_66" data-name="Linha 66" y1="10.304" x2="17.168" transform="translate(287.763 49.724)" fill="none" stroke="#263238" stroke-linecap="round" stroke-linejoin="round" stroke-width="1"/>
        <line id="Linha_67" data-name="Linha 67" y1="0.944" x2="14.907" transform="translate(294.861 71.446)" fill="#fff"/>
        <line id="Linha_68" data-name="Linha 68" y1="0.944" x2="14.907" transform="translate(294.861 71.446)" fill="none" stroke="#263238" stroke-linecap="round" stroke-linejoin="round" stroke-width="1"/>
        <path id="Caminho_1611" data-name="Caminho 1611" d="M61.928,356.464H50.037V346.248a1.7,1.7,0,0,1,1.7-1.7H307.349a1.7,1.7,0,0,1,1.7,1.7v10.216" transform="translate(-11.572 -79.686)" fill="#fff"/>
        <path id="Caminho_1612" data-name="Caminho 1612" d="M61.928,356.464H50.037V346.248a1.7,1.7,0,0,1,1.7-1.7H307.349a1.7,1.7,0,0,1,1.7,1.7v10.216" transform="translate(-11.572 -79.686)" fill="none" stroke="#263238" stroke-miterlimit="10" stroke-width="1"/>
        <line id="Linha_69" data-name="Linha 69" x1="106.317" transform="translate(177.346 276.778)" fill="none" stroke="#263238" stroke-miterlimit="10" stroke-width="1"/>
        <line id="Linha_70" data-name="Linha 70" x1="7.64" transform="translate(162.094 276.778)" fill="none" stroke="#263238" stroke-miterlimit="10" stroke-width="1"/>
        <line id="Linha_71" data-name="Linha 71" x1="56.111" transform="translate(56.506 276.778)" fill="none" stroke="#263238" stroke-miterlimit="10" stroke-width="1"/>
      </g>
    </g>
  </g>
</svg>
