<?xml version="1.0" encoding="utf-8"?>
<!-- Generator: Adobe Illustrator 26.1.0, SVG Export Plug-In . SVG Version: 6.00 Build 0)  -->
<svg version="1.1" id="Camada_1" xmlns="http://www.w3.org/2000/svg" xmlns:xlink="http://www.w3.org/1999/xlink" x="0px" y="0px"
	 viewBox="0 0 811.8 186.2" style="enable-background:new 0 0 811.8 186.2;" xml:space="preserve">
<style type="text/css">
	.st0{fill:#FCC103;}
	.st1{fill:#FFFFFF;}
	.st2{fill:#6CADCA;}
	.st3{fill:#1B8891;}
	.st4{fill:#1B8790;}
	.st5{fill:#107F40;}
	.st6{fill:#294667;}
	.st7{fill:#3E6D93;}
	.st8{enable-background:new    ;}
</style>
<g id="img-slide-58" transform="translate(-29 -166)">
	<g id="Grupo_1262" transform="translate(29 166)">
		<g id="Caminho_878">
			<path class="st0" d="M240.5,33.7L225,4.2H10.5l15.5,29.5L10.5,63.2H225L240.5,33.7z M227.2,0.6l17.3,33.1l-17.3,33.1H4.5
				l17.3-33.1L4.5,0.6H227.2z"/>
		</g>
		<g transform="matrix(1, 0, 0, 1, 0, 0)">
			<g id="Caminho_879-3">
				<path class="st0" d="M35.9,33.7L24.2,56H63l11.7-22.3L62.9,11.4H24.2L35.9,33.7z"/>
			</g>
		</g>
		<g transform="matrix(1, 0, 0, 1, 0, 0)">
			<g id="Caminho_885-3">
				<path class="st1" d="M259.2,11.4l11.7,22.3L259.2,56H60.9l11.7-22.3L60.9,11.4H259.2z"/>
			</g>
		</g>
	</g>
	<g id="Grupo_1265" transform="translate(29 284.767)">
		<g id="Caminho_878-2">
			<path class="st2" d="M240.5,33.7L225,4.2H10.5l15.5,29.5L10.5,63.2H225L240.5,33.7z M227.2,0.6l17.3,33.1l-17.3,33.1H4.5
				l17.3-33.1L4.5,0.6H227.2z"/>
		</g>
		<g transform="matrix(1, 0, 0, 1, 0, -118.77)">
			<g id="Caminho_879-4">
				<path class="st2" d="M35.9,152.5l-11.7,22.3H63l11.7-22.3l-11.7-22.3H24.2L35.9,152.5z"/>
			</g>
		</g>
		<g transform="matrix(1, 0, 0, 1, 0, -118.77)">
			<g id="Caminho_885-4">
				<path class="st1" d="M259.2,130.2l11.7,22.3l-11.7,22.3H60.9l11.7-22.3l-11.7-22.3H259.2z"/>
			</g>
		</g>
	</g>
	<g id="Grupo_1261" transform="translate(299.068 166)">
		<g id="Caminho_882">
			<path class="st3" d="M240.5,33.7L225,4.2H10.5l15.5,29.5L10.5,63.2H225L240.5,33.7z M227.2,0.6l17.3,33.1l-17.3,33.1H4.5
				l17.3-33.1L4.5,0.6H227.2z"/>
		</g>
		<g transform="matrix(1, 0, 0, 1, -270.07, 0)">
			<g id="Caminho_883-5">
				<path class="st4" d="M306,33.7L294.3,56H333l11.7-22.3L333,11.4h-38.8L306,33.7z"/>
			</g>
		</g>
		<g transform="matrix(1, 0, 0, 1, -270.07, 0)">
			<g id="Caminho_887-5">
				<path class="st1" d="M331,11.4h198.3l11.7,22.3L529.3,56H331l11.7-22.3L331,11.4z"/>
			</g>
		</g>
	</g>
	<g id="Grupo_1264" transform="translate(299.068 284.767)">
		<g id="Caminho_882-2">
			<path class="st5" d="M240.5,33.7L225,4.2H10.5l15.5,29.5L10.5,63.2H225L240.5,33.7z M227.2,0.6l17.3,33.1l-17.3,33.1H4.5
				l17.3-33.1L4.5,0.6H227.2z"/>
		</g>
		<g transform="matrix(1, 0, 0, 1, -270.07, -118.77)">
			<g id="Caminho_883-6">
				<path class="st5" d="M306,152.5l-11.7,22.3H333l11.7-22.3L333,130.2h-38.8L306,152.5z"/>
			</g>
		</g>
		<g transform="matrix(1, 0, 0, 1, -270.07, -118.77)">
			<g id="Caminho_887-6">
				<path class="st1" d="M331,130.2h198.3l11.7,22.3l-11.7,22.3H331l11.7-22.3L331,130.2z"/>
			</g>
		</g>
	</g>
	<g id="Grupo_1263" transform="translate(565.429 166)">
		<g id="Caminho_882-3">
			<path class="st6" d="M240.5,33.7L225,4.2H10.5l15.5,29.5L10.5,63.2H225L240.5,33.7z M227.2,0.6l17.3,33.1l-17.3,33.1H4.5
				l17.3-33.1L4.5,0.6H227.2z"/>
		</g>
		<g transform="matrix(1, 0, 0, 1, -536.43, 0)">
			<g id="Caminho_883-7">
				<path class="st6" d="M572.3,33.7L560.6,56h38.8l11.7-22.3l-11.7-22.3h-38.8L572.3,33.7z"/>
			</g>
		</g>
		<g transform="matrix(1, 0, 0, 1, -536.43, 0)">
			<g id="Caminho_887-7">
				<path class="st1" d="M597.4,11.4h198.3l11.7,22.3L795.6,56H597.4L609,33.7L597.4,11.4z"/>
			</g>
		</g>
	</g>
	<g id="Grupo_1266" transform="translate(565.429 284.767)">
		<g id="Caminho_882-4">
			<path class="st7" d="M240.5,33.7L225,4.2H10.5l15.5,29.5L10.5,63.2H225L240.5,33.7z M227.2,0.6l17.3,33.1l-17.3,33.1H4.5
				l17.3-33.1L4.5,0.6H227.2z"/>
		</g>
		<g transform="matrix(1, 0, 0, 1, -536.43, -118.77)">
			<g id="Caminho_883-8">
				<path class="st7" d="M572.3,152.5l-11.7,22.3h38.8l11.7-22.3l-11.7-22.3h-38.8L572.3,152.5z"/>
			</g>
		</g>
		<g transform="matrix(1, 0, 0, 1, -536.43, -118.77)">
			<g id="Caminho_887-8">
				<path class="st1" d="M597.4,130.2h198.3l11.7,22.3l-11.7,22.3H597.4l11.7-22.3L597.4,130.2z"/>
			</g>
		</g>
	</g>
	<g class="st8">
		<path class="st6" d="M112.2,190v2.3h3.1v1.4h-3.1v2.4h3.4v1.5h-5.3v-9.1h5.3v1.5H112.2z"/>
		<path class="st6" d="M124.1,199.2l-1.4-1.7c-0.4,0.1-0.8,0.1-1.2,0.1c-0.8,0-1.6-0.2-2.3-0.6c-0.7-0.4-1.3-1-1.7-1.7
			c-0.4-0.7-0.6-1.5-0.6-2.4c0-0.9,0.2-1.7,0.6-2.4s1-1.3,1.7-1.7c0.7-0.4,1.5-0.6,2.3-0.6c0.9,0,1.6,0.2,2.3,0.6
			c0.7,0.4,1.3,1,1.7,1.7s0.6,1.5,0.6,2.4c0,0.8-0.2,1.5-0.5,2.2s-0.8,1.2-1.4,1.6l2.1,2.3H124.1z M119.1,194.6
			c0.2,0.5,0.6,0.8,1,1.1c0.4,0.2,0.9,0.4,1.4,0.4s1-0.1,1.4-0.4c0.4-0.2,0.7-0.6,1-1.1c0.2-0.5,0.4-1,0.4-1.6
			c0-0.6-0.1-1.1-0.4-1.6c-0.2-0.5-0.6-0.8-1-1c-0.4-0.2-0.9-0.4-1.4-0.4s-1,0.1-1.4,0.4c-0.4,0.2-0.7,0.6-1,1
			c-0.2,0.5-0.4,1-0.4,1.6C118.7,193.6,118.9,194.2,119.1,194.6z"/>
		<path class="st6" d="M129.3,188.5v5.6c0,0.6,0.2,1.1,0.5,1.4c0.3,0.3,0.8,0.5,1.4,0.5c0.6,0,1-0.2,1.4-0.5
			c0.3-0.3,0.5-0.8,0.5-1.4v-5.6h1.8v5.6c0,0.8-0.2,1.4-0.5,2c-0.3,0.5-0.8,0.9-1.3,1.2c-0.6,0.3-1.2,0.4-1.9,0.4
			c-0.7,0-1.3-0.1-1.8-0.4c-0.6-0.3-1-0.7-1.3-1.2c-0.3-0.5-0.5-1.2-0.5-2v-5.6H129.3z"/>
		<path class="st6" d="M138.4,188.5v9.1h-1.8v-9.1H138.4z"/>
		<path class="st6" d="M146.5,192.7c-0.2,0.4-0.6,0.8-1.1,1s-1.1,0.4-1.9,0.4H142v3.5h-1.8v-9.1h3.3c0.7,0,1.3,0.1,1.8,0.4
			c0.5,0.2,0.9,0.6,1.1,1s0.4,0.9,0.4,1.4C146.8,191.8,146.7,192.3,146.5,192.7z M144.6,192.3c0.2-0.2,0.4-0.6,0.4-1
			c0-0.9-0.5-1.3-1.5-1.3H142v2.6h1.4C144,192.6,144.4,192.5,144.6,192.3z"/>
		<path class="st6" d="M149.9,190v2.3h3.1v1.4h-3.1v2.4h3.4v1.5h-5.3v-9.1h5.3v1.5H149.9z"/>
		<path class="st6" d="M156.5,197.4c-0.5-0.2-0.9-0.5-1.2-0.9c-0.3-0.4-0.4-0.9-0.5-1.4h1.9c0,0.4,0.2,0.7,0.4,0.9
			c0.2,0.2,0.6,0.3,1,0.3c0.4,0,0.8-0.1,1-0.3c0.2-0.2,0.4-0.5,0.4-0.8c0-0.3-0.1-0.5-0.2-0.7s-0.4-0.3-0.6-0.4
			c-0.2-0.1-0.6-0.2-1-0.3c-0.6-0.2-1.1-0.3-1.4-0.5c-0.4-0.2-0.7-0.4-0.9-0.8c-0.3-0.3-0.4-0.8-0.4-1.4c0-0.5,0.1-1,0.4-1.4
			s0.6-0.7,1.1-0.9c0.5-0.2,1-0.3,1.7-0.3c0.9,0,1.7,0.2,2.3,0.7s0.9,1.1,1,1.9h-2c0-0.3-0.1-0.6-0.4-0.8c-0.2-0.2-0.6-0.3-1-0.3
			c-0.4,0-0.6,0.1-0.9,0.3c-0.2,0.2-0.3,0.4-0.3,0.8c0,0.2,0.1,0.4,0.2,0.6c0.2,0.2,0.4,0.3,0.6,0.4s0.6,0.2,1,0.3
			c0.6,0.2,1.1,0.3,1.4,0.5c0.4,0.2,0.7,0.4,1,0.8s0.4,0.8,0.4,1.4c0,0.5-0.1,0.9-0.4,1.4s-0.6,0.7-1.1,1s-1.1,0.4-1.7,0.4
			C157.5,197.7,157,197.6,156.5,197.4z"/>
		<path class="st6" d="M172.2,188.5v1.5h-2.4v7.6H168V190h-2.4v-1.5H172.2z"/>
		<path class="st6" d="M178.2,197.6l-2-3.5h-0.9v3.5h-1.8v-9.1h3.4c0.7,0,1.3,0.1,1.8,0.4c0.5,0.2,0.9,0.6,1.1,1
			c0.2,0.4,0.4,0.9,0.4,1.4c0,0.6-0.2,1.1-0.5,1.6c-0.3,0.5-0.9,0.8-1.5,1l2.2,3.7H178.2z M175.4,192.7h1.5c0.5,0,0.9-0.1,1.1-0.4
			s0.4-0.6,0.4-1c0-0.4-0.1-0.7-0.4-1s-0.6-0.3-1.1-0.3h-1.5V192.7z"/>
		<path class="st6" d="M187.4,195.9h-3.6l-0.6,1.7h-1.9l3.3-9.1h2.1l3.3,9.1H188L187.4,195.9z M187,194.4l-1.3-3.8l-1.3,3.8H187z"/>
		<path class="st6" d="M196.9,189.1c0.7,0.4,1.3,0.9,1.7,1.6c0.4,0.7,0.6,1.5,0.6,2.4c0,0.9-0.2,1.7-0.6,2.4c-0.4,0.7-1,1.2-1.7,1.6
			c-0.7,0.4-1.6,0.6-2.5,0.6h-3.2v-9.1h3.2C195.3,188.5,196.2,188.7,196.9,189.1z M196.5,195.3c0.5-0.5,0.8-1.3,0.8-2.2
			c0-0.9-0.3-1.7-0.8-2.2s-1.3-0.8-2.2-0.8H193v6h1.3C195.3,196,196,195.8,196.5,195.3z"/>
		<path class="st6" d="M202.3,188.5v9.1h-1.8v-9.1H202.3z"/>
		<path class="st6" d="M204.3,190.6c0.4-0.7,1-1.3,1.7-1.7s1.5-0.6,2.3-0.6c1,0,1.9,0.3,2.7,0.8c0.8,0.5,1.3,1.2,1.6,2.2h-2.1
			c-0.2-0.4-0.5-0.8-0.9-1c-0.4-0.2-0.8-0.3-1.3-0.3c-0.5,0-1,0.1-1.4,0.4s-0.7,0.6-1,1c-0.2,0.5-0.3,1-0.3,1.6
			c0,0.6,0.1,1.1,0.3,1.6s0.6,0.8,1,1.1c0.4,0.2,0.9,0.4,1.4,0.4c0.5,0,0.9-0.1,1.3-0.3c0.4-0.2,0.7-0.5,0.9-1h2.1
			c-0.3,0.9-0.8,1.6-1.6,2.2s-1.6,0.8-2.7,0.8c-0.9,0-1.6-0.2-2.3-0.6s-1.2-0.9-1.7-1.6s-0.6-1.5-0.6-2.4S203.9,191.3,204.3,190.6z"
			/>
		<path class="st6" d="M215.9,188.5v9.1h-1.8v-9.1H215.9z"/>
		<path class="st6" d="M219.6,197.1c-0.7-0.4-1.3-1-1.7-1.7c-0.4-0.7-0.6-1.5-0.6-2.4c0-0.9,0.2-1.7,0.6-2.4s1-1.3,1.7-1.7
			c0.7-0.4,1.5-0.6,2.3-0.6c0.9,0,1.6,0.2,2.3,0.6c0.7,0.4,1.3,1,1.7,1.7s0.6,1.5,0.6,2.4c0,0.9-0.2,1.7-0.6,2.4
			c-0.4,0.7-1,1.3-1.7,1.7c-0.7,0.4-1.5,0.6-2.3,0.6C221.1,197.7,220.3,197.5,219.6,197.1z M223.4,195.7c0.4-0.2,0.7-0.6,1-1.1
			c0.2-0.5,0.4-1,0.4-1.6c0-0.6-0.1-1.1-0.4-1.6c-0.2-0.5-0.6-0.8-1-1c-0.4-0.2-0.9-0.4-1.4-0.4s-1,0.1-1.4,0.4
			c-0.4,0.2-0.7,0.6-1,1c-0.2,0.5-0.4,1-0.4,1.6c0,0.6,0.1,1.1,0.4,1.6c0.2,0.5,0.6,0.8,1,1.1c0.4,0.2,0.9,0.4,1.4,0.4
			S223,195.9,223.4,195.7z"/>
		<path class="st6" d="M235.7,197.6h-1.8l-4.1-6.2v6.2h-1.8v-9.1h1.8l4.1,6.2v-6.2h1.8V197.6z"/>
		<path class="st6" d="M243,195.9h-3.6l-0.6,1.7h-1.9l3.3-9.1h2.1l3.3,9.1h-1.9L243,195.9z M242.6,194.4l-1.3-3.8l-1.3,3.8H242.6z"
			/>
		<path class="st6" d="M248.6,188.5v9.1h-1.8v-9.1H248.6z"/>
		<path class="st6" d="M251.8,197.4c-0.5-0.2-0.9-0.5-1.2-0.9c-0.3-0.4-0.4-0.9-0.5-1.4h1.9c0,0.4,0.2,0.7,0.4,0.9
			c0.2,0.2,0.6,0.3,1,0.3c0.4,0,0.8-0.1,1-0.3c0.2-0.2,0.4-0.5,0.4-0.8c0-0.3-0.1-0.5-0.2-0.7s-0.4-0.3-0.6-0.4
			c-0.2-0.1-0.6-0.2-1-0.3c-0.6-0.2-1.1-0.3-1.4-0.5c-0.4-0.2-0.7-0.4-0.9-0.8c-0.3-0.3-0.4-0.8-0.4-1.4c0-0.5,0.1-1,0.4-1.4
			s0.6-0.7,1.1-0.9c0.5-0.2,1-0.3,1.7-0.3c0.9,0,1.7,0.2,2.3,0.7s0.9,1.1,1,1.9h-2c0-0.3-0.1-0.6-0.4-0.8c-0.2-0.2-0.6-0.3-1-0.3
			c-0.4,0-0.6,0.1-0.9,0.3c-0.2,0.2-0.3,0.4-0.3,0.8c0,0.2,0.1,0.4,0.2,0.6c0.2,0.2,0.4,0.3,0.6,0.4s0.6,0.2,1,0.3
			c0.6,0.2,1.1,0.3,1.4,0.5c0.4,0.2,0.7,0.4,1,0.8s0.4,0.8,0.4,1.4c0,0.5-0.1,0.9-0.4,1.4s-0.6,0.7-1.1,1s-1.1,0.4-1.7,0.4
			C252.9,197.7,252.3,197.6,251.8,197.4z"/>
	</g>
	<g class="st8">
		<path class="st6" d="M112.2,208.1h3v1.4h-4.8v-9.1h1.8V208.1z"/>
		<path class="st6" d="M118.2,200.5v9.1h-1.8v-9.1H118.2z"/>
		<path class="st6" d="M125.7,201.1c0.7,0.4,1.3,0.9,1.7,1.6c0.4,0.7,0.6,1.5,0.6,2.4c0,0.9-0.2,1.7-0.6,2.4c-0.4,0.7-1,1.2-1.7,1.6
			c-0.7,0.4-1.6,0.6-2.5,0.6H120v-9.1h3.2C124.1,200.5,124.9,200.7,125.7,201.1z M125.3,207.3c0.5-0.5,0.8-1.3,0.8-2.2
			c0-0.9-0.3-1.7-0.8-2.2s-1.3-0.8-2.2-0.8h-1.3v6h1.3C124,208,124.8,207.8,125.3,207.3z"/>
		<path class="st6" d="M131.1,202v2.3h3.1v1.4h-3.1v2.4h3.4v1.5h-5.3v-9.1h5.3v1.5H131.1z"/>
		<path class="st6" d="M140.9,209.6l-2-3.5H138v3.5h-1.8v-9.1h3.4c0.7,0,1.3,0.1,1.8,0.4c0.5,0.2,0.9,0.6,1.1,1
			c0.2,0.4,0.4,0.9,0.4,1.4c0,0.6-0.2,1.1-0.5,1.6c-0.3,0.5-0.9,0.8-1.5,1l2.2,3.7H140.9z M138,204.7h1.5c0.5,0,0.9-0.1,1.1-0.4
			s0.4-0.6,0.4-1c0-0.4-0.1-0.7-0.4-1s-0.6-0.3-1.1-0.3H138V204.7z"/>
		<path class="st6" d="M150.1,207.9h-3.6l-0.6,1.7H144l3.3-9.1h2.1l3.3,9.1h-1.9L150.1,207.9z M149.6,206.4l-1.3-3.8l-1.3,3.8H149.6
			z"/>
		<path class="st6" d="M159.5,201.1c0.7,0.4,1.3,0.9,1.7,1.6c0.4,0.7,0.6,1.5,0.6,2.4c0,0.9-0.2,1.7-0.6,2.4c-0.4,0.7-1,1.2-1.7,1.6
			c-0.7,0.4-1.6,0.6-2.5,0.6h-3.2v-9.1h3.2C158,200.5,158.8,200.7,159.5,201.1z M159.2,207.3c0.5-0.5,0.8-1.3,0.8-2.2
			c0-0.9-0.3-1.7-0.8-2.2s-1.3-0.8-2.2-0.8h-1.3v6h1.3C157.9,208,158.7,207.8,159.2,207.3z"/>
		<path class="st6" d="M168.7,207.9h-3.6l-0.6,1.7h-1.9l3.3-9.1h2.1l3.3,9.1h-1.9L168.7,207.9z M168.2,206.4l-1.3-3.8l-1.3,3.8
			H168.2z"/>
		<path class="st6" d="M173.9,209.4c-0.5-0.2-0.9-0.5-1.2-0.9c-0.3-0.4-0.4-0.9-0.5-1.4h1.9c0,0.4,0.2,0.7,0.4,0.9
			c0.2,0.2,0.6,0.3,1,0.3c0.4,0,0.8-0.1,1-0.3c0.2-0.2,0.4-0.5,0.4-0.8c0-0.3-0.1-0.5-0.2-0.7s-0.4-0.3-0.6-0.4
			c-0.2-0.1-0.6-0.2-1-0.3c-0.6-0.2-1.1-0.3-1.4-0.5c-0.4-0.2-0.7-0.4-0.9-0.8c-0.3-0.3-0.4-0.8-0.4-1.4c0-0.5,0.1-1,0.4-1.4
			s0.6-0.7,1.1-0.9c0.5-0.2,1-0.3,1.7-0.3c0.9,0,1.7,0.2,2.3,0.7s0.9,1.1,1,1.9h-2c0-0.3-0.1-0.6-0.4-0.8c-0.2-0.2-0.6-0.3-1-0.3
			c-0.4,0-0.6,0.1-0.9,0.3c-0.2,0.2-0.3,0.4-0.3,0.8c0,0.2,0.1,0.4,0.2,0.6c0.2,0.2,0.4,0.3,0.6,0.4s0.6,0.2,1,0.3
			c0.6,0.2,1.1,0.3,1.4,0.5c0.4,0.2,0.7,0.4,1,0.8s0.4,0.8,0.4,1.4c0,0.5-0.1,0.9-0.4,1.4s-0.6,0.7-1.1,1s-1.1,0.4-1.7,0.4
			C175,209.7,174.4,209.6,173.9,209.4z"/>
		<path class="st6" d="M189.8,204.7c-0.2,0.4-0.6,0.8-1.1,1s-1.1,0.4-1.9,0.4h-1.5v3.5h-1.8v-9.1h3.3c0.7,0,1.3,0.1,1.8,0.4
			c0.5,0.2,0.9,0.6,1.1,1s0.4,0.9,0.4,1.4C190.1,203.8,190,204.3,189.8,204.7z M187.9,204.3c0.2-0.2,0.4-0.6,0.4-1
			c0-0.9-0.5-1.3-1.5-1.3h-1.4v2.6h1.4C187.3,204.6,187.6,204.5,187.9,204.3z"/>
		<path class="st6" d="M193.3,209.1c-0.7-0.4-1.3-1-1.7-1.7c-0.4-0.7-0.6-1.5-0.6-2.4c0-0.9,0.2-1.7,0.6-2.4s1-1.3,1.7-1.7
			c0.7-0.4,1.5-0.6,2.3-0.6c0.9,0,1.6,0.2,2.3,0.6c0.7,0.4,1.3,1,1.7,1.7s0.6,1.5,0.6,2.4c0,0.9-0.2,1.7-0.6,2.4
			c-0.4,0.7-1,1.3-1.7,1.7c-0.7,0.4-1.5,0.6-2.3,0.6C194.8,209.7,194,209.5,193.3,209.1z M197.1,207.7c0.4-0.2,0.7-0.6,1-1.1
			c0.2-0.5,0.4-1,0.4-1.6c0-0.6-0.1-1.1-0.4-1.6c-0.2-0.5-0.6-0.8-1-1c-0.4-0.2-0.9-0.4-1.4-0.4s-1,0.1-1.4,0.4
			c-0.4,0.2-0.7,0.6-1,1c-0.2,0.5-0.4,1-0.4,1.6c0,0.6,0.1,1.1,0.4,1.6c0.2,0.5,0.6,0.8,1,1.1c0.4,0.2,0.9,0.4,1.4,0.4
			S196.6,207.9,197.1,207.7z"/>
		<path class="st6" d="M206.3,209.6l-2-3.5h-0.9v3.5h-1.8v-9.1h3.4c0.7,0,1.3,0.1,1.8,0.4c0.5,0.2,0.9,0.6,1.1,1
			c0.2,0.4,0.4,0.9,0.4,1.4c0,0.6-0.2,1.1-0.5,1.6c-0.3,0.5-0.9,0.8-1.5,1l2.2,3.7H206.3z M203.4,204.7h1.5c0.5,0,0.9-0.1,1.1-0.4
			s0.4-0.6,0.4-1c0-0.4-0.1-0.7-0.4-1s-0.6-0.3-1.1-0.3h-1.5V204.7z"/>
		<path class="st6" d="M219.3,203.2c-0.2-0.4-0.5-0.7-0.9-0.9c-0.4-0.2-0.8-0.3-1.3-0.3c-0.5,0-1,0.1-1.4,0.4c-0.4,0.2-0.7,0.6-1,1
			c-0.2,0.5-0.4,1-0.4,1.6c0,0.6,0.1,1.1,0.4,1.6c0.2,0.5,0.6,0.8,1,1c0.4,0.2,0.9,0.4,1.5,0.4c0.7,0,1.3-0.2,1.7-0.6
			c0.4-0.4,0.7-0.9,0.9-1.5h-3.1v-1.4h4.9v1.6c-0.1,0.6-0.4,1.2-0.8,1.8c-0.4,0.5-0.9,1-1.5,1.3c-0.6,0.3-1.3,0.5-2.1,0.5
			c-0.9,0-1.7-0.2-2.4-0.6c-0.7-0.4-1.3-0.9-1.7-1.6s-0.6-1.5-0.6-2.4s0.2-1.7,0.6-2.4s1-1.3,1.7-1.7c0.7-0.4,1.5-0.6,2.4-0.6
			c1,0,1.9,0.2,2.7,0.7s1.3,1.2,1.6,2.1H219.3z"/>
		<path class="st6" d="M224.8,202v2.3h3.1v1.4h-3.1v2.4h3.4v1.5H223v-9.1h5.3v1.5H224.8z"/>
		<path class="st6" d="M234.6,209.6l-2-3.5h-0.9v3.5h-1.8v-9.1h3.4c0.7,0,1.3,0.1,1.8,0.4c0.5,0.2,0.9,0.6,1.1,1
			c0.2,0.4,0.4,0.9,0.4,1.4c0,0.6-0.2,1.1-0.5,1.6c-0.3,0.5-0.9,0.8-1.5,1l2.2,3.7H234.6z M231.8,204.7h1.5c0.5,0,0.9-0.1,1.1-0.4
			s0.4-0.6,0.4-1c0-0.4-0.1-0.7-0.4-1s-0.6-0.3-1.1-0.3h-1.5V204.7z"/>
		<path class="st6" d="M240.1,202v2.3h3.1v1.4h-3.1v2.4h3.4v1.5h-5.3v-9.1h5.3v1.5H240.1z"/>
		<path class="st6" d="M252.9,209.6h-1.8l-4.1-6.2v6.2h-1.8v-9.1h1.8l4.1,6.2v-6.2h1.8V209.6z"/>
		<path class="st6" d="M260.9,200.5v1.5h-2.4v7.6h-1.8V202h-2.4v-1.5H260.9z"/>
		<path class="st6" d="M264.1,202v2.3h3.1v1.4h-3.1v2.4h3.4v1.5h-5.3v-9.1h5.3v1.5H264.1z"/>
		<path class="st6" d="M270.6,209.4c-0.5-0.2-0.9-0.5-1.2-0.9c-0.3-0.4-0.4-0.9-0.5-1.4h1.9c0,0.4,0.2,0.7,0.4,0.9
			c0.2,0.2,0.6,0.3,1,0.3c0.4,0,0.8-0.1,1-0.3c0.2-0.2,0.4-0.5,0.4-0.8c0-0.3-0.1-0.5-0.2-0.7s-0.4-0.3-0.6-0.4
			c-0.2-0.1-0.6-0.2-1-0.3c-0.6-0.2-1.1-0.3-1.4-0.5c-0.4-0.2-0.7-0.4-0.9-0.8c-0.3-0.3-0.4-0.8-0.4-1.4c0-0.5,0.1-1,0.4-1.4
			s0.6-0.7,1.1-0.9c0.5-0.2,1-0.3,1.7-0.3c0.9,0,1.7,0.2,2.3,0.7s0.9,1.1,1,1.9h-2c0-0.3-0.1-0.6-0.4-0.8c-0.2-0.2-0.6-0.3-1-0.3
			c-0.4,0-0.6,0.1-0.9,0.3c-0.2,0.2-0.3,0.4-0.3,0.8c0,0.2,0.1,0.4,0.2,0.6c0.2,0.2,0.4,0.3,0.6,0.4s0.6,0.2,1,0.3
			c0.6,0.2,1.1,0.3,1.4,0.5c0.4,0.2,0.7,0.4,1,0.8s0.4,0.8,0.4,1.4c0,0.5-0.1,0.9-0.4,1.4s-0.6,0.7-1.1,1s-1.1,0.4-1.7,0.4
			C271.7,209.7,271.1,209.6,270.6,209.4z"/>
	</g>
	<g class="st8">
		<path class="st6" d="M377.2,197v2.3h3.1v1.4h-3.1v2.4h3.4v1.5h-5.3v-9.1h5.3v1.5H377.2z"/>
		<path class="st6" d="M389.1,206.2l-1.4-1.7c-0.4,0.1-0.8,0.1-1.2,0.1c-0.8,0-1.6-0.2-2.3-0.6c-0.7-0.4-1.3-1-1.7-1.7
			c-0.4-0.7-0.6-1.5-0.6-2.4c0-0.9,0.2-1.7,0.6-2.4s1-1.3,1.7-1.7c0.7-0.4,1.5-0.6,2.3-0.6c0.9,0,1.6,0.2,2.3,0.6
			c0.7,0.4,1.3,1,1.7,1.7s0.6,1.5,0.6,2.4c0,0.8-0.2,1.5-0.5,2.2s-0.8,1.2-1.4,1.6l2.1,2.3H389.1z M384.1,201.6
			c0.2,0.5,0.6,0.8,1,1.1c0.4,0.2,0.9,0.4,1.4,0.4s1-0.1,1.4-0.4c0.4-0.2,0.7-0.6,1-1.1c0.2-0.5,0.4-1,0.4-1.6
			c0-0.6-0.1-1.1-0.4-1.6c-0.2-0.5-0.6-0.8-1-1c-0.4-0.2-0.9-0.4-1.4-0.4s-1,0.1-1.4,0.4c-0.4,0.2-0.7,0.6-1,1
			c-0.2,0.5-0.4,1-0.4,1.6C383.7,200.6,383.9,201.2,384.1,201.6z"/>
		<path class="st6" d="M394.3,195.5v5.6c0,0.6,0.2,1.1,0.5,1.4c0.3,0.3,0.8,0.5,1.4,0.5c0.6,0,1-0.2,1.4-0.5
			c0.3-0.3,0.5-0.8,0.5-1.4v-5.6h1.8v5.6c0,0.8-0.2,1.4-0.5,2c-0.3,0.5-0.8,0.9-1.3,1.2c-0.6,0.3-1.2,0.4-1.9,0.4
			c-0.7,0-1.3-0.1-1.8-0.4c-0.6-0.3-1-0.7-1.3-1.2c-0.3-0.5-0.5-1.2-0.5-2v-5.6H394.3z"/>
		<path class="st6" d="M403.4,195.5v9.1h-1.8v-9.1H403.4z"/>
		<path class="st6" d="M411.5,199.7c-0.2,0.4-0.6,0.8-1.1,1s-1.1,0.4-1.9,0.4H407v3.5h-1.8v-9.1h3.3c0.7,0,1.3,0.1,1.8,0.4
			c0.5,0.2,0.9,0.6,1.1,1s0.4,0.9,0.4,1.4C411.8,198.8,411.7,199.3,411.5,199.7z M409.6,199.3c0.2-0.2,0.4-0.6,0.4-1
			c0-0.9-0.5-1.3-1.5-1.3H407v2.6h1.4C409,199.6,409.4,199.5,409.6,199.3z"/>
		<path class="st6" d="M414.9,197v2.3h3.1v1.4h-3.1v2.4h3.4v1.5h-5.3v-9.1h5.3v1.5H414.9z"/>
		<path class="st6" d="M421.5,204.4c-0.5-0.2-0.9-0.5-1.2-0.9c-0.3-0.4-0.4-0.9-0.5-1.4h1.9c0,0.4,0.2,0.7,0.4,0.9
			c0.2,0.2,0.6,0.3,1,0.3c0.4,0,0.8-0.1,1-0.3c0.2-0.2,0.4-0.5,0.4-0.8c0-0.3-0.1-0.5-0.2-0.7s-0.4-0.3-0.6-0.4
			c-0.2-0.1-0.6-0.2-1-0.3c-0.6-0.2-1.1-0.3-1.4-0.5c-0.4-0.2-0.7-0.4-0.9-0.8c-0.3-0.3-0.4-0.8-0.4-1.4c0-0.5,0.1-1,0.4-1.4
			s0.6-0.7,1.1-0.9c0.5-0.2,1-0.3,1.7-0.3c0.9,0,1.7,0.2,2.3,0.7s0.9,1.1,1,1.9h-2c0-0.3-0.1-0.6-0.4-0.8c-0.2-0.2-0.6-0.3-1-0.3
			c-0.4,0-0.6,0.1-0.9,0.3c-0.2,0.2-0.3,0.4-0.3,0.8c0,0.2,0.1,0.4,0.2,0.6c0.2,0.2,0.4,0.3,0.6,0.4s0.6,0.2,1,0.3
			c0.6,0.2,1.1,0.3,1.4,0.5c0.4,0.2,0.7,0.4,1,0.8s0.4,0.8,0.4,1.4c0,0.5-0.1,0.9-0.4,1.4s-0.6,0.7-1.1,1s-1.1,0.4-1.7,0.4
			C422.5,204.7,422,204.6,421.5,204.4z"/>
		<path class="st6" d="M436.6,202.9H433l-0.6,1.7h-1.9l3.3-9.1h2.1l3.3,9.1h-1.9L436.6,202.9z M436.1,201.4l-1.3-3.8l-1.3,3.8H436.1
			z"/>
		<path class="st6" d="M442.2,195.5v5.6c0,0.6,0.2,1.1,0.5,1.4c0.3,0.3,0.8,0.5,1.4,0.5c0.6,0,1-0.2,1.4-0.5
			c0.3-0.3,0.5-0.8,0.5-1.4v-5.6h1.8v5.6c0,0.8-0.2,1.4-0.5,2c-0.3,0.5-0.8,0.9-1.3,1.2s-1.2,0.4-1.9,0.4c-0.7,0-1.3-0.1-1.8-0.4
			s-1-0.7-1.3-1.2s-0.5-1.2-0.5-2v-5.6H442.2z"/>
		<path class="st6" d="M455.6,195.5v1.5h-2.4v7.6h-1.8V197h-2.4v-1.5H455.6z"/>
		<path class="st6" d="M458.8,204.1c-0.7-0.4-1.3-1-1.7-1.7c-0.4-0.7-0.6-1.5-0.6-2.4c0-0.9,0.2-1.7,0.6-2.4s1-1.3,1.7-1.7
			c0.7-0.4,1.5-0.6,2.3-0.6c0.9,0,1.6,0.2,2.3,0.6c0.7,0.4,1.3,1,1.7,1.7s0.6,1.5,0.6,2.4c0,0.9-0.2,1.7-0.6,2.4
			c-0.4,0.7-1,1.3-1.7,1.7c-0.7,0.4-1.5,0.6-2.3,0.6C460.3,204.7,459.5,204.5,458.8,204.1z M462.6,202.7c0.4-0.2,0.7-0.6,1-1.1
			c0.2-0.5,0.4-1,0.4-1.6c0-0.6-0.1-1.1-0.4-1.6c-0.2-0.5-0.6-0.8-1-1c-0.4-0.2-0.9-0.4-1.4-0.4s-1,0.1-1.4,0.4
			c-0.4,0.2-0.7,0.6-1,1s-0.4,1-0.4,1.6c0,0.6,0.1,1.1,0.4,1.6s0.6,0.8,1,1.1c0.4,0.2,0.9,0.4,1.4,0.4S462.2,202.9,462.6,202.7z"/>
		<path class="st6" d="M473.4,198.2c-0.2-0.4-0.5-0.7-0.9-0.9c-0.4-0.2-0.8-0.3-1.3-0.3c-0.5,0-1,0.1-1.4,0.4c-0.4,0.2-0.7,0.6-1,1
			c-0.2,0.5-0.4,1-0.4,1.6c0,0.6,0.1,1.1,0.4,1.6s0.6,0.8,1,1c0.4,0.2,0.9,0.4,1.5,0.4c0.7,0,1.3-0.2,1.7-0.6
			c0.4-0.4,0.7-0.9,0.9-1.5h-3.1v-1.4h4.9v1.6c-0.1,0.6-0.4,1.2-0.8,1.8s-0.9,1-1.5,1.3c-0.6,0.3-1.3,0.5-2.1,0.5
			c-0.9,0-1.7-0.2-2.4-0.6c-0.7-0.4-1.3-0.9-1.7-1.6s-0.6-1.5-0.6-2.4s0.2-1.7,0.6-2.4s1-1.3,1.7-1.7c0.7-0.4,1.5-0.6,2.4-0.6
			c1,0,1.9,0.2,2.7,0.7s1.3,1.2,1.6,2.1H473.4z"/>
		<path class="st6" d="M478.9,197v2.3h3.1v1.4h-3.1v2.4h3.4v1.5h-5.3v-9.1h5.3v1.5H478.9z"/>
		<path class="st6" d="M488.7,204.6l-2-3.5h-0.9v3.5H484v-9.1h3.4c0.7,0,1.3,0.1,1.8,0.4s0.9,0.6,1.1,1c0.2,0.4,0.4,0.9,0.4,1.4
			c0,0.6-0.2,1.1-0.5,1.6c-0.3,0.5-0.9,0.8-1.5,1l2.2,3.7H488.7z M485.8,199.7h1.5c0.5,0,0.9-0.1,1.1-0.4c0.2-0.2,0.4-0.6,0.4-1
			c0-0.4-0.1-0.7-0.4-1c-0.2-0.2-0.6-0.3-1.1-0.3h-1.5V199.7z"/>
		<path class="st6" d="M494.2,197v2.3h3.1v1.4h-3.1v2.4h3.4v1.5h-5.3v-9.1h5.3v1.5H494.2z"/>
		<path class="st6" d="M507,204.6h-1.8l-4.1-6.2v6.2h-1.8v-9.1h1.8l4.1,6.2v-6.2h1.8V204.6z"/>
		<path class="st6" d="M509,197.6c0.4-0.7,1-1.3,1.7-1.7s1.5-0.6,2.3-0.6c1,0,1.9,0.3,2.7,0.8c0.8,0.5,1.3,1.2,1.6,2.2h-2.1
			c-0.2-0.4-0.5-0.8-0.9-1c-0.4-0.2-0.8-0.3-1.3-0.3c-0.5,0-1,0.1-1.4,0.4s-0.7,0.6-1,1c-0.2,0.5-0.3,1-0.3,1.6
			c0,0.6,0.1,1.1,0.3,1.6s0.5,0.8,1,1.1c0.4,0.2,0.9,0.4,1.4,0.4c0.5,0,0.9-0.1,1.3-0.3c0.4-0.2,0.7-0.5,0.9-1h2.1
			c-0.3,0.9-0.8,1.6-1.6,2.2c-0.8,0.5-1.6,0.8-2.7,0.8c-0.9,0-1.6-0.2-2.3-0.6s-1.2-0.9-1.7-1.6c-0.4-0.7-0.6-1.5-0.6-2.4
			S508.6,198.3,509,197.6z"/>
		<path class="st6" d="M520.6,195.5v9.1h-1.8v-9.1H520.6z"/>
		<path class="st6" d="M528,202.9h-3.6l-0.6,1.7h-1.9l3.3-9.1h2.1l3.3,9.1h-1.9L528,202.9z M527.5,201.4l-1.3-3.8l-1.3,3.8H527.5z"
			/>
		<path class="st6" d="M537.4,196.1c0.7,0.4,1.3,0.9,1.7,1.6c0.4,0.7,0.6,1.5,0.6,2.4c0,0.9-0.2,1.7-0.6,2.4c-0.4,0.7-1,1.2-1.7,1.6
			c-0.7,0.4-1.6,0.6-2.5,0.6h-3.2v-9.1h3.2C535.9,195.5,536.7,195.7,537.4,196.1z M537.1,202.3c0.5-0.5,0.8-1.3,0.8-2.2
			c0-0.9-0.3-1.7-0.8-2.2s-1.3-0.8-2.2-0.8h-1.3v6h1.3C535.8,203,536.5,202.8,537.1,202.3z"/>
		<path class="st6" d="M546.6,202.9H543l-0.6,1.7h-1.9l3.3-9.1h2.1l3.3,9.1h-1.9L546.6,202.9z M546.1,201.4l-1.3-3.8l-1.3,3.8H546.1
			z"/>
		<path class="st6" d="M551.8,204.4c-0.5-0.2-0.9-0.5-1.2-0.9s-0.4-0.9-0.5-1.4h1.9c0,0.4,0.2,0.7,0.4,0.9c0.2,0.2,0.6,0.3,1,0.3
			c0.4,0,0.8-0.1,1-0.3c0.2-0.2,0.4-0.5,0.4-0.8c0-0.3-0.1-0.5-0.2-0.7c-0.2-0.2-0.4-0.3-0.6-0.4c-0.2-0.1-0.6-0.2-1-0.3
			c-0.6-0.2-1.1-0.3-1.4-0.5c-0.4-0.2-0.7-0.4-0.9-0.8c-0.3-0.3-0.4-0.8-0.4-1.4c0-0.5,0.1-1,0.4-1.4s0.6-0.7,1.1-0.9
			c0.5-0.2,1-0.3,1.7-0.3c0.9,0,1.7,0.2,2.3,0.7c0.6,0.5,0.9,1.1,1,1.9h-2c0-0.3-0.1-0.6-0.4-0.8c-0.2-0.2-0.6-0.3-1-0.3
			c-0.4,0-0.6,0.1-0.9,0.3c-0.2,0.2-0.3,0.4-0.3,0.8c0,0.2,0.1,0.4,0.2,0.6s0.4,0.3,0.6,0.4s0.6,0.2,1,0.3c0.6,0.2,1.1,0.3,1.4,0.5
			c0.4,0.2,0.7,0.4,1,0.8s0.4,0.8,0.4,1.4c0,0.5-0.1,0.9-0.4,1.4c-0.3,0.4-0.6,0.7-1.1,1s-1.1,0.4-1.7,0.4
			C552.9,204.7,552.3,204.6,551.8,204.4z"/>
	</g>
	<g class="st8">
		<path class="st6" d="M648.2,197v2.3h3.1v1.4h-3.1v2.4h3.4v1.5h-5.3v-9.1h5.3v1.5H648.2z"/>
		<path class="st6" d="M660.1,206.2l-1.4-1.7c-0.4,0.1-0.8,0.1-1.2,0.1c-0.8,0-1.6-0.2-2.3-0.6s-1.3-1-1.7-1.7
			c-0.4-0.7-0.6-1.5-0.6-2.4c0-0.9,0.2-1.7,0.6-2.4s1-1.3,1.7-1.7c0.7-0.4,1.5-0.6,2.3-0.6c0.9,0,1.6,0.2,2.3,0.6
			c0.7,0.4,1.3,1,1.7,1.7c0.4,0.7,0.6,1.5,0.6,2.4c0,0.8-0.2,1.5-0.5,2.2s-0.8,1.2-1.4,1.6l2.1,2.3H660.1z M655.1,201.6
			c0.2,0.5,0.6,0.8,1,1.1s0.9,0.4,1.4,0.4c0.5,0,1-0.1,1.4-0.4s0.7-0.6,1-1.1c0.2-0.5,0.4-1,0.4-1.6c0-0.6-0.1-1.1-0.4-1.6
			c-0.2-0.5-0.6-0.8-1-1c-0.4-0.2-0.9-0.4-1.4-0.4c-0.5,0-1,0.1-1.4,0.4c-0.4,0.2-0.7,0.6-1,1c-0.2,0.5-0.4,1-0.4,1.6
			C654.7,200.6,654.9,201.2,655.1,201.6z"/>
		<path class="st6" d="M665.3,195.5v5.6c0,0.6,0.2,1.1,0.5,1.4c0.3,0.3,0.8,0.5,1.4,0.5c0.6,0,1-0.2,1.4-0.5
			c0.3-0.3,0.5-0.8,0.5-1.4v-5.6h1.8v5.6c0,0.8-0.2,1.4-0.5,2c-0.3,0.5-0.8,0.9-1.3,1.2s-1.2,0.4-1.9,0.4c-0.7,0-1.3-0.1-1.8-0.4
			s-1-0.7-1.3-1.2s-0.5-1.2-0.5-2v-5.6H665.3z"/>
		<path class="st6" d="M674.4,195.5v9.1h-1.8v-9.1H674.4z"/>
		<path class="st6" d="M682.5,199.7c-0.2,0.4-0.6,0.8-1.1,1s-1.1,0.4-1.9,0.4H678v3.5h-1.8v-9.1h3.3c0.7,0,1.3,0.1,1.8,0.4
			c0.5,0.2,0.9,0.6,1.1,1c0.2,0.4,0.4,0.9,0.4,1.4C682.8,198.8,682.7,199.3,682.5,199.7z M680.6,199.3c0.2-0.2,0.4-0.6,0.4-1
			c0-0.9-0.5-1.3-1.5-1.3H678v2.6h1.4C680,199.6,680.4,199.5,680.6,199.3z"/>
		<path class="st6" d="M685.9,197v2.3h3.1v1.4h-3.1v2.4h3.4v1.5h-5.3v-9.1h5.3v1.5H685.9z"/>
		<path class="st6" d="M692.5,204.4c-0.5-0.2-0.9-0.5-1.2-0.9c-0.3-0.4-0.4-0.9-0.5-1.4h2c0,0.4,0.2,0.7,0.4,0.9
			c0.2,0.2,0.6,0.3,1,0.3c0.4,0,0.8-0.1,1-0.3c0.2-0.2,0.4-0.5,0.4-0.8c0-0.3-0.1-0.5-0.2-0.7c-0.2-0.2-0.4-0.3-0.6-0.4
			c-0.2-0.1-0.6-0.2-1-0.3c-0.6-0.2-1.1-0.3-1.4-0.5c-0.4-0.2-0.7-0.4-0.9-0.8c-0.3-0.3-0.4-0.8-0.4-1.4c0-0.5,0.1-1,0.4-1.4
			s0.6-0.7,1.1-0.9c0.5-0.2,1-0.3,1.7-0.3c0.9,0,1.7,0.2,2.3,0.7c0.6,0.5,0.9,1.1,1,1.9h-2c0-0.3-0.1-0.6-0.4-0.8
			c-0.2-0.2-0.6-0.3-1-0.3c-0.4,0-0.6,0.1-0.9,0.3c-0.2,0.2-0.3,0.4-0.3,0.8c0,0.2,0.1,0.4,0.2,0.6c0.2,0.2,0.4,0.3,0.6,0.4
			s0.6,0.2,1,0.3c0.6,0.2,1.1,0.3,1.4,0.5c0.4,0.2,0.7,0.4,1,0.8s0.4,0.8,0.4,1.4c0,0.5-0.1,0.9-0.4,1.4c-0.3,0.4-0.6,0.7-1.1,1
			s-1.1,0.4-1.7,0.4C693.5,204.7,693,204.6,692.5,204.4z"/>
		<path class="st6" d="M711.9,195.5v9.1h-1.8v-5.9l-2.4,5.9h-1.4l-2.4-5.9v5.9h-1.8v-9.1h2.1l2.9,6.7l2.9-6.7H711.9z"/>
		<path class="st6" d="M715.5,195.5v5.6c0,0.6,0.2,1.1,0.5,1.4c0.3,0.3,0.8,0.5,1.4,0.5c0.6,0,1-0.2,1.4-0.5
			c0.3-0.3,0.5-0.8,0.5-1.4v-5.6h1.8v5.6c0,0.8-0.2,1.4-0.5,2c-0.3,0.5-0.8,0.9-1.3,1.2s-1.2,0.4-1.9,0.4c-0.7,0-1.3-0.1-1.8-0.4
			s-1-0.7-1.3-1.2s-0.5-1.2-0.5-2v-5.6H715.5z"/>
		<path class="st6" d="M724.6,203.1h3v1.4h-4.8v-9.1h1.8V203.1z"/>
		<path class="st6" d="M734.9,195.5v1.5h-2.4v7.6h-1.8V197h-2.4v-1.5H734.9z"/>
		<path class="st6" d="M738.1,195.5v9.1h-1.8v-9.1H738.1z"/>
		<path class="st6" d="M745.5,195.5v1.5h-3.8v2.3h2.9v1.4h-2.9v3.8h-1.8v-9.1H745.5z"/>
		<path class="st6" d="M748.6,195.5v5.6c0,0.6,0.2,1.1,0.5,1.4c0.3,0.3,0.8,0.5,1.4,0.5c0.6,0,1-0.2,1.4-0.5
			c0.3-0.3,0.5-0.8,0.5-1.4v-5.6h1.8v5.6c0,0.8-0.2,1.4-0.5,2c-0.3,0.5-0.8,0.9-1.3,1.2s-1.2,0.4-1.9,0.4c-0.7,0-1.3-0.1-1.8-0.4
			s-1-0.7-1.3-1.2s-0.5-1.2-0.5-2v-5.6H748.6z"/>
		<path class="st6" d="M763.6,204.6h-1.8l-4.1-6.2v6.2h-1.8v-9.1h1.8l4.1,6.2v-6.2h1.8V204.6z"/>
		<path class="st6" d="M765.5,197.6c0.4-0.7,1-1.3,1.7-1.7s1.5-0.6,2.3-0.6c1,0,1.9,0.3,2.7,0.8c0.8,0.5,1.3,1.2,1.6,2.2h-2.1
			c-0.2-0.4-0.5-0.8-0.9-1c-0.4-0.2-0.8-0.3-1.3-0.3c-0.5,0-1,0.1-1.4,0.4s-0.7,0.6-1,1c-0.2,0.5-0.3,1-0.3,1.6
			c0,0.6,0.1,1.1,0.3,1.6s0.6,0.8,1,1.1c0.4,0.2,0.9,0.4,1.4,0.4c0.5,0,0.9-0.1,1.3-0.3c0.4-0.2,0.7-0.5,0.9-1h2.1
			c-0.3,0.9-0.8,1.6-1.6,2.2c-0.8,0.5-1.6,0.8-2.7,0.8c-0.9,0-1.6-0.2-2.3-0.6s-1.2-0.9-1.7-1.6c-0.4-0.7-0.6-1.5-0.6-2.4
			S765.1,198.3,765.5,197.6z"/>
		<path class="st6" d="M777.2,195.5v9.1h-1.8v-9.1H777.2z"/>
		<path class="st6" d="M780.9,204.1c-0.7-0.4-1.3-1-1.7-1.7c-0.4-0.7-0.6-1.5-0.6-2.4c0-0.9,0.2-1.7,0.6-2.4s1-1.3,1.7-1.7
			c0.7-0.4,1.5-0.6,2.3-0.6c0.9,0,1.6,0.2,2.3,0.6c0.7,0.4,1.3,1,1.7,1.7s0.6,1.5,0.6,2.4c0,0.9-0.2,1.7-0.6,2.4
			c-0.4,0.7-1,1.3-1.7,1.7s-1.5,0.6-2.3,0.6S781.6,204.5,780.9,204.1z M784.6,202.7c0.4-0.2,0.7-0.6,1-1.1s0.4-1,0.4-1.6
			c0-0.6-0.1-1.1-0.4-1.6s-0.6-0.8-1-1c-0.4-0.2-0.9-0.4-1.4-0.4s-1,0.1-1.4,0.4c-0.4,0.2-0.7,0.6-1,1c-0.2,0.5-0.4,1-0.4,1.6
			c0,0.6,0.1,1.1,0.4,1.6c0.2,0.5,0.6,0.8,1,1.1s0.9,0.4,1.4,0.4S784.2,202.9,784.6,202.7z"/>
		<path class="st6" d="M796.9,204.6h-1.8l-4.1-6.2v6.2h-1.8v-9.1h1.8l4.1,6.2v-6.2h1.8V204.6z"/>
		<path class="st6" d="M804.3,202.9h-3.6l-0.6,1.7h-1.9l3.3-9.1h2.1l3.3,9.1h-1.9L804.3,202.9z M803.8,201.4l-1.3-3.8l-1.3,3.8
			H803.8z"/>
		<path class="st6" d="M809.9,195.5v9.1h-1.8v-9.1H809.9z"/>
		<path class="st6" d="M813.1,204.4c-0.5-0.2-0.9-0.5-1.2-0.9c-0.3-0.4-0.4-0.9-0.5-1.4h1.9c0,0.4,0.2,0.7,0.4,0.9
			c0.2,0.2,0.6,0.3,1,0.3c0.4,0,0.8-0.1,1-0.3c0.2-0.2,0.4-0.5,0.4-0.8c0-0.3-0.1-0.5-0.2-0.7s-0.4-0.3-0.6-0.4
			c-0.2-0.1-0.6-0.2-1-0.3c-0.6-0.2-1.1-0.3-1.4-0.5c-0.4-0.2-0.7-0.4-0.9-0.8c-0.3-0.3-0.4-0.8-0.4-1.4c0-0.5,0.1-1,0.4-1.4
			c0.3-0.4,0.6-0.7,1.1-0.9c0.5-0.2,1-0.3,1.7-0.3c0.9,0,1.7,0.2,2.3,0.7s0.9,1.1,1,1.9h-2c0-0.3-0.1-0.6-0.4-0.8
			c-0.2-0.2-0.6-0.3-1-0.3c-0.4,0-0.6,0.1-0.9,0.3c-0.2,0.2-0.3,0.4-0.3,0.8c0,0.2,0.1,0.4,0.2,0.6s0.4,0.3,0.6,0.4s0.6,0.2,1,0.3
			c0.6,0.2,1.1,0.3,1.4,0.5c0.4,0.2,0.7,0.4,1,0.8c0.3,0.3,0.4,0.8,0.4,1.4c0,0.5-0.1,0.9-0.4,1.4s-0.6,0.7-1.1,1
			c-0.5,0.2-1.1,0.4-1.7,0.4C814.2,204.7,813.6,204.6,813.1,204.4z"/>
	</g>
	<g class="st8">
		<path class="st6" d="M119.2,316v2.3h3.1v1.4h-3.1v2.4h3.4v1.5h-5.3v-9.1h5.3v1.5H119.2z"/>
		<path class="st6" d="M131.1,325.2l-1.4-1.7c-0.4,0.1-0.8,0.1-1.2,0.1c-0.8,0-1.6-0.2-2.3-0.6c-0.7-0.4-1.3-1-1.7-1.7
			c-0.4-0.7-0.6-1.5-0.6-2.4c0-0.9,0.2-1.7,0.6-2.4s1-1.3,1.7-1.7c0.7-0.4,1.5-0.6,2.3-0.6c0.9,0,1.6,0.2,2.3,0.6
			c0.7,0.4,1.3,1,1.7,1.7s0.6,1.5,0.6,2.4c0,0.8-0.2,1.5-0.5,2.2s-0.8,1.2-1.4,1.6l2.1,2.3H131.1z M126.1,320.6
			c0.2,0.5,0.6,0.8,1,1.1c0.4,0.2,0.9,0.4,1.4,0.4s1-0.1,1.4-0.4c0.4-0.2,0.7-0.6,1-1.1c0.2-0.5,0.4-1,0.4-1.6
			c0-0.6-0.1-1.1-0.4-1.6c-0.2-0.5-0.6-0.8-1-1c-0.4-0.2-0.9-0.4-1.4-0.4s-1,0.1-1.4,0.4c-0.4,0.2-0.7,0.6-1,1
			c-0.2,0.5-0.4,1-0.4,1.6C125.7,319.6,125.9,320.2,126.1,320.6z"/>
		<path class="st6" d="M136.3,314.5v5.6c0,0.6,0.2,1.1,0.5,1.4c0.3,0.3,0.8,0.5,1.4,0.5c0.6,0,1-0.2,1.4-0.5
			c0.3-0.3,0.5-0.8,0.5-1.4v-5.6h1.8v5.6c0,0.8-0.2,1.4-0.5,2c-0.3,0.5-0.8,0.9-1.3,1.2c-0.6,0.3-1.2,0.4-1.9,0.4
			c-0.7,0-1.3-0.1-1.8-0.4c-0.6-0.3-1-0.7-1.3-1.2c-0.3-0.5-0.5-1.2-0.5-2v-5.6H136.3z"/>
		<path class="st6" d="M145.4,314.5v9.1h-1.8v-9.1H145.4z"/>
		<path class="st6" d="M153.5,318.7c-0.2,0.4-0.6,0.8-1.1,1s-1.1,0.4-1.9,0.4H149v3.5h-1.8v-9.1h3.3c0.7,0,1.3,0.1,1.8,0.4
			c0.5,0.2,0.9,0.6,1.1,1s0.4,0.9,0.4,1.4C153.8,317.8,153.7,318.3,153.5,318.7z M151.6,318.3c0.2-0.2,0.4-0.6,0.4-1
			c0-0.9-0.5-1.3-1.5-1.3H149v2.6h1.4C151,318.6,151.4,318.5,151.6,318.3z"/>
		<path class="st6" d="M156.9,316v2.3h3.1v1.4h-3.1v2.4h3.4v1.5h-5.3v-9.1h5.3v1.5H156.9z"/>
		<path class="st6" d="M163.5,323.4c-0.5-0.2-0.9-0.5-1.2-0.9c-0.3-0.4-0.4-0.9-0.5-1.4h1.9c0,0.4,0.2,0.7,0.4,0.9
			c0.2,0.2,0.6,0.3,1,0.3c0.4,0,0.8-0.1,1-0.3c0.2-0.2,0.4-0.5,0.4-0.8c0-0.3-0.1-0.5-0.2-0.7s-0.4-0.3-0.6-0.4
			c-0.2-0.1-0.6-0.2-1-0.3c-0.6-0.2-1.1-0.3-1.4-0.5c-0.4-0.2-0.7-0.4-0.9-0.8c-0.3-0.3-0.4-0.8-0.4-1.4c0-0.5,0.1-1,0.4-1.4
			s0.6-0.7,1.1-0.9c0.5-0.2,1-0.3,1.7-0.3c0.9,0,1.7,0.2,2.3,0.7s0.9,1.1,1,1.9h-2c0-0.3-0.1-0.6-0.4-0.8c-0.2-0.2-0.6-0.3-1-0.3
			c-0.4,0-0.6,0.1-0.9,0.3c-0.2,0.2-0.3,0.4-0.3,0.8c0,0.2,0.1,0.4,0.2,0.6c0.2,0.2,0.4,0.3,0.6,0.4s0.6,0.2,1,0.3
			c0.6,0.2,1.1,0.3,1.4,0.5c0.4,0.2,0.7,0.4,1,0.8s0.4,0.8,0.4,1.4c0,0.5-0.1,0.9-0.4,1.4s-0.6,0.7-1.1,1s-1.1,0.4-1.7,0.4
			C164.5,323.7,164,323.6,163.5,323.4z"/>
		<path class="st6" d="M181.2,314.5l-3.3,9.1h-2.2l-3.3-9.1h1.9l2.5,7.2l2.5-7.2H181.2z"/>
		<path class="st6" d="M184.1,314.5v9.1h-1.8v-9.1H184.1z"/>
		<path class="st6" d="M190.6,323.6l-2-3.5h-0.9v3.5h-1.8v-9.1h3.4c0.7,0,1.3,0.1,1.8,0.4c0.5,0.2,0.9,0.6,1.1,1
			c0.2,0.4,0.4,0.9,0.4,1.4c0,0.6-0.2,1.1-0.5,1.6c-0.3,0.5-0.9,0.8-1.5,1l2.2,3.7H190.6z M187.7,318.7h1.5c0.5,0,0.9-0.1,1.1-0.4
			s0.4-0.6,0.4-1c0-0.4-0.1-0.7-0.4-1s-0.6-0.3-1.1-0.3h-1.5V318.7z"/>
		<path class="st6" d="M200.4,314.5v1.5H198v7.6h-1.8V316h-2.4v-1.5H200.4z"/>
		<path class="st6" d="M203.5,314.5v5.6c0,0.6,0.2,1.1,0.5,1.4c0.3,0.3,0.8,0.5,1.4,0.5c0.6,0,1-0.2,1.4-0.5
			c0.3-0.3,0.5-0.8,0.5-1.4v-5.6h1.8v5.6c0,0.8-0.2,1.4-0.5,2c-0.3,0.5-0.8,0.9-1.3,1.2c-0.6,0.3-1.2,0.4-1.9,0.4
			c-0.7,0-1.3-0.1-1.8-0.4c-0.6-0.3-1-0.7-1.3-1.2c-0.3-0.5-0.5-1.2-0.5-2v-5.6H203.5z"/>
		<path class="st6" d="M216.4,321.9h-3.6l-0.6,1.7h-1.9l3.3-9.1h2.1l3.3,9.1H217L216.4,321.9z M215.9,320.4l-1.3-3.8l-1.3,3.8H215.9
			z"/>
		<path class="st6" d="M221.9,314.5v9.1h-1.8v-9.1H221.9z"/>
		<path class="st6" d="M225.1,323.4c-0.5-0.2-0.9-0.5-1.2-0.9c-0.3-0.4-0.4-0.9-0.5-1.4h1.9c0,0.4,0.2,0.7,0.4,0.9
			c0.2,0.2,0.6,0.3,1,0.3c0.4,0,0.8-0.1,1-0.3c0.2-0.2,0.4-0.5,0.4-0.8c0-0.3-0.1-0.5-0.2-0.7s-0.4-0.3-0.6-0.4
			c-0.2-0.1-0.6-0.2-1-0.3c-0.6-0.2-1.1-0.3-1.4-0.5c-0.4-0.2-0.7-0.4-0.9-0.8c-0.3-0.3-0.4-0.8-0.4-1.4c0-0.5,0.1-1,0.4-1.4
			s0.6-0.7,1.1-0.9c0.5-0.2,1-0.3,1.7-0.3c0.9,0,1.7,0.2,2.3,0.7s0.9,1.1,1,1.9h-2c0-0.3-0.1-0.6-0.4-0.8c-0.2-0.2-0.6-0.3-1-0.3
			c-0.4,0-0.6,0.1-0.9,0.3c-0.2,0.2-0.3,0.4-0.3,0.8c0,0.2,0.1,0.4,0.2,0.6c0.2,0.2,0.4,0.3,0.6,0.4s0.6,0.2,1,0.3
			c0.6,0.2,1.1,0.3,1.4,0.5c0.4,0.2,0.7,0.4,1,0.8s0.4,0.8,0.4,1.4c0,0.5-0.1,0.9-0.4,1.4s-0.6,0.7-1.1,1s-1.1,0.4-1.7,0.4
			C226.2,323.7,225.7,323.6,225.1,323.4z"/>
	</g>
	<g class="st8">
		<path class="st6" d="M392,307.5v1.5h-3.8v2.3h2.9v1.4h-2.9v3.8h-1.8v-9.1H392z"/>
		<path class="st6" d="M395.2,316.1c-0.7-0.4-1.3-1-1.7-1.7c-0.4-0.7-0.6-1.5-0.6-2.4c0-0.9,0.2-1.7,0.6-2.4s1-1.3,1.7-1.7
			c0.7-0.4,1.5-0.6,2.3-0.6c0.9,0,1.6,0.2,2.3,0.6c0.7,0.4,1.3,1,1.7,1.7s0.6,1.5,0.6,2.4c0,0.9-0.2,1.7-0.6,2.4
			c-0.4,0.7-1,1.3-1.7,1.7c-0.7,0.4-1.5,0.6-2.3,0.6C396.7,316.7,395.9,316.5,395.2,316.1z M398.9,314.7c0.4-0.2,0.7-0.6,1-1.1
			c0.2-0.5,0.4-1,0.4-1.6c0-0.6-0.1-1.1-0.4-1.6c-0.2-0.5-0.6-0.8-1-1c-0.4-0.2-0.9-0.4-1.4-0.4s-1,0.1-1.4,0.4
			c-0.4,0.2-0.7,0.6-1,1c-0.2,0.5-0.4,1-0.4,1.6c0,0.6,0.1,1.1,0.4,1.6c0.2,0.5,0.6,0.8,1,1.1c0.4,0.2,0.9,0.4,1.4,0.4
			S398.5,314.9,398.9,314.7z"/>
		<path class="st6" d="M408.2,316.6l-2-3.5h-0.9v3.5h-1.8v-9.1h3.4c0.7,0,1.3,0.1,1.8,0.4c0.5,0.2,0.9,0.6,1.1,1
			c0.2,0.4,0.4,0.9,0.4,1.4c0,0.6-0.2,1.1-0.5,1.6c-0.3,0.5-0.9,0.8-1.5,1l2.2,3.7H408.2z M405.3,311.7h1.5c0.5,0,0.9-0.1,1.1-0.4
			s0.4-0.6,0.4-1c0-0.4-0.1-0.7-0.4-1s-0.6-0.3-1.1-0.3h-1.5V311.7z"/>
		<path class="st6" d="M417.3,314.7c0.4-0.2,0.7-0.5,0.9-1h2.1c-0.3,0.8-0.7,1.5-1.4,2s-1.4,0.8-2.3,0.9v0.5c0.5,0,0.9,0.1,1.2,0.4
			c0.3,0.2,0.5,0.6,0.5,1.1c0,0.5-0.2,0.8-0.5,1.1c-0.3,0.3-0.7,0.4-1.2,0.4h-1.8V319h1.5c0.2,0,0.4,0,0.5-0.1
			c0.1-0.1,0.2-0.2,0.2-0.3c0-0.2-0.1-0.3-0.2-0.3c-0.1-0.1-0.3-0.1-0.5-0.1h-0.8v-1.5c-0.8-0.1-1.5-0.3-2.1-0.7
			c-0.6-0.4-1.1-1-1.4-1.6c-0.3-0.7-0.5-1.4-0.5-2.2c0-0.9,0.2-1.7,0.6-2.4s1-1.3,1.7-1.7s1.5-0.6,2.3-0.6c1,0,1.9,0.3,2.7,0.8
			c0.8,0.5,1.3,1.2,1.6,2.2h-2.1c-0.2-0.4-0.5-0.8-0.9-1c-0.4-0.2-0.8-0.3-1.3-0.3c-0.5,0-1,0.1-1.4,0.4s-0.7,0.6-1,1
			c-0.2,0.5-0.3,1-0.3,1.6c0,0.6,0.1,1.1,0.3,1.6s0.6,0.8,1,1.1c0.4,0.2,0.9,0.4,1.4,0.4C416.5,315,416.9,314.9,417.3,314.7z"/>
		<path class="st6" d="M427.4,314.9h-3.6l-0.6,1.7h-1.9l3.3-9.1h2.1l3.3,9.1H428L427.4,314.9z M426.9,313.4l-1.3-3.8l-1.3,3.8H426.9
			z"/>
		<path class="st6" d="M432.5,316.4c-0.5-0.2-0.9-0.5-1.2-0.9c-0.3-0.4-0.4-0.9-0.5-1.4h1.9c0,0.4,0.2,0.7,0.4,0.9
			c0.2,0.2,0.6,0.3,1,0.3c0.4,0,0.8-0.1,1-0.3c0.2-0.2,0.4-0.5,0.4-0.8c0-0.3-0.1-0.5-0.2-0.7s-0.4-0.3-0.6-0.4
			c-0.2-0.1-0.6-0.2-1-0.3c-0.6-0.2-1.1-0.3-1.4-0.5c-0.4-0.2-0.7-0.4-0.9-0.8c-0.3-0.3-0.4-0.8-0.4-1.4c0-0.5,0.1-1,0.4-1.4
			s0.6-0.7,1.1-0.9c0.5-0.2,1-0.3,1.7-0.3c0.9,0,1.7,0.2,2.3,0.7s0.9,1.1,1,1.9h-2c0-0.3-0.1-0.6-0.4-0.8c-0.2-0.2-0.6-0.3-1-0.3
			c-0.4,0-0.6,0.1-0.9,0.3c-0.2,0.2-0.3,0.4-0.3,0.8c0,0.2,0.1,0.4,0.2,0.6c0.2,0.2,0.4,0.3,0.6,0.4s0.6,0.2,1,0.3
			c0.6,0.2,1.1,0.3,1.4,0.5c0.4,0.2,0.7,0.4,1,0.8c0.3,0.3,0.4,0.8,0.4,1.4c0,0.5-0.1,0.9-0.4,1.4s-0.6,0.7-1.1,1
			c-0.5,0.2-1.1,0.4-1.7,0.4C433.6,316.7,433,316.6,432.5,316.4z"/>
		<path class="st6" d="M444.6,311.2v1.5h-5.5v-1.5H444.6z"/>
		<path class="st6" d="M452.8,307.5v1.5h-2.4v7.6h-1.8V309h-2.4v-1.5H452.8z"/>
		<path class="st6" d="M459.7,314.9h-3.6l-0.6,1.7h-1.9l3.3-9.1h2.1l3.3,9.1h-1.9L459.7,314.9z M459.2,313.4l-1.3-3.8l-1.3,3.8
			H459.2z"/>
		<path class="st6" d="M468.1,316.6l-2-3.5h-0.9v3.5h-1.8v-9.1h3.4c0.7,0,1.3,0.1,1.8,0.4c0.5,0.2,0.9,0.6,1.1,1
			c0.2,0.4,0.4,0.9,0.4,1.4c0,0.6-0.2,1.1-0.5,1.6c-0.3,0.5-0.9,0.8-1.5,1l2.2,3.7H468.1z M465.2,311.7h1.5c0.5,0,0.9-0.1,1.1-0.4
			c0.2-0.2,0.4-0.6,0.4-1c0-0.4-0.1-0.7-0.4-1c-0.2-0.2-0.6-0.3-1.1-0.3h-1.5V311.7z"/>
		<path class="st6" d="M473.6,309v2.3h3.1v1.4h-3.1v2.4h3.4v1.5h-5.3v-9.1h5.3v1.5H473.6z"/>
		<path class="st6" d="M484.3,307.5v1.5h-3.8v2.3h2.9v1.4h-2.9v3.8h-1.8v-9.1H484.3z"/>
		<path class="st6" d="M491.1,314.9h-3.6l-0.6,1.7H485l3.3-9.1h2.1l3.3,9.1h-1.9L491.1,314.9z M490.6,313.4l-1.3-3.8l-1.3,3.8H490.6
			z"/>
	</g>
	<g class="st8">
		<path class="st6" d="M388.3,328.1c-0.7-0.4-1.3-1-1.7-1.7c-0.4-0.7-0.6-1.5-0.6-2.4c0-0.9,0.2-1.7,0.6-2.4s1-1.3,1.7-1.7
			c0.7-0.4,1.5-0.6,2.3-0.6c0.9,0,1.6,0.2,2.3,0.6c0.7,0.4,1.3,1,1.7,1.7s0.6,1.5,0.6,2.4c0,0.9-0.2,1.7-0.6,2.4
			c-0.4,0.7-1,1.3-1.7,1.7c-0.7,0.4-1.5,0.6-2.3,0.6C389.8,328.7,389,328.5,388.3,328.1z M392.1,326.7c0.4-0.2,0.7-0.6,1-1.1
			c0.2-0.5,0.4-1,0.4-1.6c0-0.6-0.1-1.1-0.4-1.6c-0.2-0.5-0.6-0.8-1-1c-0.4-0.2-0.9-0.4-1.4-0.4s-1,0.1-1.4,0.4
			c-0.4,0.2-0.7,0.6-1,1c-0.2,0.5-0.4,1-0.4,1.6c0,0.6,0.1,1.1,0.4,1.6c0.2,0.5,0.6,0.8,1,1.1c0.4,0.2,0.9,0.4,1.4,0.4
			S391.6,326.9,392.1,326.7z"/>
		<path class="st6" d="M398.4,319.5v5.6c0,0.6,0.2,1.1,0.5,1.4c0.3,0.3,0.8,0.5,1.4,0.5c0.6,0,1-0.2,1.4-0.5
			c0.3-0.3,0.5-0.8,0.5-1.4v-5.6h1.8v5.6c0,0.8-0.2,1.4-0.5,2c-0.3,0.5-0.8,0.9-1.3,1.2c-0.6,0.3-1.2,0.4-1.9,0.4
			c-0.7,0-1.3-0.1-1.8-0.4c-0.6-0.3-1-0.7-1.3-1.2c-0.3-0.5-0.5-1.2-0.5-2v-5.6H398.4z"/>
		<path class="st6" d="M410.6,321v2.3h3.1v1.4h-3.1v2.4h3.4v1.5h-5.3v-9.1h5.3v1.5H410.6z"/>
		<path class="st6" d="M422.4,330.2l-1.4-1.7c-0.4,0.1-0.8,0.1-1.2,0.1c-0.8,0-1.6-0.2-2.3-0.6c-0.7-0.4-1.3-1-1.7-1.7
			c-0.4-0.7-0.6-1.5-0.6-2.4c0-0.9,0.2-1.7,0.6-2.4s1-1.3,1.7-1.7c0.7-0.4,1.5-0.6,2.3-0.6c0.9,0,1.6,0.2,2.3,0.6
			c0.7,0.4,1.3,1,1.7,1.7s0.6,1.5,0.6,2.4c0,0.8-0.2,1.5-0.5,2.2s-0.8,1.2-1.4,1.6l2.1,2.3H422.4z M417.5,325.6
			c0.2,0.5,0.6,0.8,1,1.1c0.4,0.2,0.9,0.4,1.4,0.4s1-0.1,1.4-0.4c0.4-0.2,0.7-0.6,1-1.1c0.2-0.5,0.4-1,0.4-1.6
			c0-0.6-0.1-1.1-0.4-1.6c-0.2-0.5-0.6-0.8-1-1c-0.4-0.2-0.9-0.4-1.4-0.4s-1,0.1-1.4,0.4c-0.4,0.2-0.7,0.6-1,1
			c-0.2,0.5-0.4,1-0.4,1.6C417.1,324.6,417.2,325.2,417.5,325.6z"/>
		<path class="st6" d="M427.7,319.5v5.6c0,0.6,0.2,1.1,0.5,1.4c0.3,0.3,0.8,0.5,1.4,0.5c0.6,0,1-0.2,1.4-0.5
			c0.3-0.3,0.5-0.8,0.5-1.4v-5.6h1.8v5.6c0,0.8-0.2,1.4-0.5,2c-0.3,0.5-0.8,0.9-1.3,1.2c-0.6,0.3-1.2,0.4-1.9,0.4
			c-0.7,0-1.3-0.1-1.8-0.4c-0.6-0.3-1-0.7-1.3-1.2c-0.3-0.5-0.5-1.2-0.5-2v-5.6H427.7z"/>
		<path class="st6" d="M436.8,319.5v9.1H435v-9.1H436.8z"/>
		<path class="st6" d="M444.9,323.7c-0.2,0.4-0.6,0.8-1.1,1s-1.1,0.4-1.9,0.4h-1.5v3.5h-1.8v-9.1h3.3c0.7,0,1.3,0.1,1.8,0.4
			c0.5,0.2,0.9,0.6,1.1,1c0.2,0.4,0.4,0.9,0.4,1.4C445.2,322.8,445.1,323.3,444.9,323.7z M443,323.3c0.2-0.2,0.4-0.6,0.4-1
			c0-0.9-0.5-1.3-1.5-1.3h-1.4v2.6h1.4C442.3,323.6,442.7,323.5,443,323.3z"/>
		<path class="st6" d="M448.3,321v2.3h3.1v1.4h-3.1v2.4h3.4v1.5h-5.3v-9.1h5.3v1.5H448.3z"/>
		<path class="st6" d="M454.8,328.4c-0.5-0.2-0.9-0.5-1.2-0.9c-0.3-0.4-0.4-0.9-0.5-1.4h2c0,0.4,0.2,0.7,0.4,0.9
			c0.2,0.2,0.6,0.3,1,0.3c0.4,0,0.8-0.1,1-0.3c0.2-0.2,0.4-0.5,0.4-0.8c0-0.3-0.1-0.5-0.2-0.7c-0.2-0.2-0.4-0.3-0.6-0.4
			c-0.2-0.1-0.6-0.2-1-0.3c-0.6-0.2-1.1-0.3-1.4-0.5c-0.4-0.2-0.7-0.4-0.9-0.8c-0.3-0.3-0.4-0.8-0.4-1.4c0-0.5,0.1-1,0.4-1.4
			s0.6-0.7,1.1-0.9c0.5-0.2,1-0.3,1.7-0.3c0.9,0,1.7,0.2,2.3,0.7c0.6,0.5,0.9,1.1,1,1.9h-2c0-0.3-0.1-0.6-0.4-0.8
			c-0.2-0.2-0.6-0.3-1-0.3c-0.4,0-0.6,0.1-0.9,0.3c-0.2,0.2-0.3,0.4-0.3,0.8c0,0.2,0.1,0.4,0.2,0.6c0.2,0.2,0.4,0.3,0.6,0.4
			s0.6,0.2,1,0.3c0.6,0.2,1.1,0.3,1.4,0.5c0.4,0.2,0.7,0.4,1,0.8s0.4,0.8,0.4,1.4c0,0.5-0.1,0.9-0.4,1.4c-0.3,0.4-0.6,0.7-1.1,1
			s-1.1,0.4-1.7,0.4C455.9,328.7,455.3,328.6,454.8,328.4z"/>
		<path class="st6" d="M470,326.9h-3.6l-0.6,1.7h-1.9l3.3-9.1h2.1l3.3,9.1h-1.9L470,326.9z M469.5,325.4l-1.3-3.8l-1.3,3.8H469.5z"
			/>
		<path class="st6" d="M479.4,320.1c0.7,0.4,1.3,0.9,1.7,1.6c0.4,0.7,0.6,1.5,0.6,2.4c0,0.9-0.2,1.7-0.6,2.4c-0.4,0.7-1,1.2-1.7,1.6
			c-0.7,0.4-1.6,0.6-2.5,0.6h-3.2v-9.1h3.2C477.8,319.5,478.7,319.7,479.4,320.1z M479,326.3c0.5-0.5,0.8-1.3,0.8-2.2
			c0-0.9-0.3-1.7-0.8-2.2c-0.5-0.5-1.3-0.8-2.2-0.8h-1.3v6h1.3C477.8,327,478.5,326.8,479,326.3z"/>
		<path class="st6" d="M493.7,319.5v9.1h-1.8v-3.9H488v3.9h-1.8v-9.1h1.8v3.7h3.9v-3.7H493.7z"/>
		<path class="st6" d="M497.3,328.1c-0.7-0.4-1.3-1-1.7-1.7c-0.4-0.7-0.6-1.5-0.6-2.4c0-0.9,0.2-1.7,0.6-2.4s1-1.3,1.7-1.7
			c0.7-0.4,1.5-0.6,2.3-0.6c0.9,0,1.6,0.2,2.3,0.6c0.7,0.4,1.3,1,1.7,1.7c0.4,0.7,0.6,1.5,0.6,2.4c0,0.9-0.2,1.7-0.6,2.4
			c-0.4,0.7-1,1.3-1.7,1.7s-1.5,0.6-2.3,0.6S498,328.5,497.3,328.1z M501.1,326.7c0.4-0.2,0.7-0.6,1-1.1s0.4-1,0.4-1.6
			c0-0.6-0.1-1.1-0.4-1.6s-0.6-0.8-1-1c-0.4-0.2-0.9-0.4-1.4-0.4c-0.5,0-1,0.1-1.4,0.4c-0.4,0.2-0.7,0.6-1,1s-0.4,1-0.4,1.6
			c0,0.6,0.1,1.1,0.4,1.6s0.6,0.8,1,1.1c0.4,0.2,0.9,0.4,1.4,0.4C500.2,327.1,500.7,326.9,501.1,326.7z"/>
		<path class="st6" d="M505.8,321.6c0.4-0.7,1-1.3,1.7-1.7s1.5-0.6,2.3-0.6c1,0,1.9,0.3,2.7,0.8c0.8,0.5,1.3,1.2,1.6,2.2H512
			c-0.2-0.4-0.5-0.8-0.9-1c-0.4-0.2-0.8-0.3-1.3-0.3c-0.5,0-1,0.1-1.4,0.4s-0.7,0.6-1,1c-0.2,0.5-0.3,1-0.3,1.6
			c0,0.6,0.1,1.1,0.3,1.6s0.5,0.8,1,1.1c0.4,0.2,0.9,0.4,1.4,0.4c0.5,0,0.9-0.1,1.3-0.3c0.4-0.2,0.7-0.5,0.9-1h2.1
			c-0.3,0.9-0.8,1.6-1.6,2.2c-0.8,0.5-1.6,0.8-2.7,0.8c-0.9,0-1.6-0.2-2.3-0.6s-1.2-0.9-1.7-1.6c-0.4-0.7-0.6-1.5-0.6-2.4
			S505.4,322.3,505.8,321.6z"/>
	</g>
	<g class="st8">
		<path class="st6" d="M656.2,316v2.3h3.1v1.4h-3.1v2.4h3.4v1.5h-5.3v-9.1h5.3v1.5H656.2z"/>
		<path class="st6" d="M668.1,325.2l-1.4-1.7c-0.4,0.1-0.8,0.1-1.2,0.1c-0.8,0-1.6-0.2-2.3-0.6s-1.3-1-1.7-1.7
			c-0.4-0.7-0.6-1.5-0.6-2.4c0-0.9,0.2-1.7,0.6-2.4s1-1.3,1.7-1.7c0.7-0.4,1.5-0.6,2.3-0.6c0.9,0,1.6,0.2,2.3,0.6
			c0.7,0.4,1.3,1,1.7,1.7c0.4,0.7,0.6,1.5,0.6,2.4c0,0.8-0.2,1.5-0.5,2.2s-0.8,1.2-1.4,1.6l2.1,2.3H668.1z M663.1,320.6
			c0.2,0.5,0.6,0.8,1,1.1s0.9,0.4,1.4,0.4c0.5,0,1-0.1,1.4-0.4s0.7-0.6,1-1.1c0.2-0.5,0.4-1,0.4-1.6c0-0.6-0.1-1.1-0.4-1.6
			c-0.2-0.5-0.6-0.8-1-1c-0.4-0.2-0.9-0.4-1.4-0.4c-0.5,0-1,0.1-1.4,0.4c-0.4,0.2-0.7,0.6-1,1c-0.2,0.5-0.4,1-0.4,1.6
			C662.7,319.6,662.9,320.2,663.1,320.6z"/>
		<path class="st6" d="M673.3,314.5v5.6c0,0.6,0.2,1.1,0.5,1.4c0.3,0.3,0.8,0.5,1.4,0.5c0.6,0,1-0.2,1.4-0.5
			c0.3-0.3,0.5-0.8,0.5-1.4v-5.6h1.8v5.6c0,0.8-0.2,1.4-0.5,2c-0.3,0.5-0.8,0.9-1.3,1.2s-1.2,0.4-1.9,0.4c-0.7,0-1.3-0.1-1.8-0.4
			s-1-0.7-1.3-1.2s-0.5-1.2-0.5-2v-5.6H673.3z"/>
		<path class="st6" d="M682.4,314.5v9.1h-1.8v-9.1H682.4z"/>
		<path class="st6" d="M690.5,318.7c-0.2,0.4-0.6,0.8-1.1,1s-1.1,0.4-1.9,0.4H686v3.5h-1.8v-9.1h3.3c0.7,0,1.3,0.1,1.8,0.4
			c0.5,0.2,0.9,0.6,1.1,1c0.2,0.4,0.4,0.9,0.4,1.4C690.8,317.8,690.7,318.3,690.5,318.7z M688.6,318.3c0.2-0.2,0.4-0.6,0.4-1
			c0-0.9-0.5-1.3-1.5-1.3H686v2.6h1.4C688,318.6,688.4,318.5,688.6,318.3z"/>
		<path class="st6" d="M693.9,316v2.3h3.1v1.4h-3.1v2.4h3.4v1.5h-5.3v-9.1h5.3v1.5H693.9z"/>
		<path class="st6" d="M700.5,323.4c-0.5-0.2-0.9-0.5-1.2-0.9c-0.3-0.4-0.4-0.9-0.5-1.4h2c0,0.4,0.2,0.7,0.4,0.9
			c0.2,0.2,0.6,0.3,1,0.3c0.4,0,0.8-0.1,1-0.3c0.2-0.2,0.4-0.5,0.4-0.8c0-0.3-0.1-0.5-0.2-0.7c-0.2-0.2-0.4-0.3-0.6-0.4
			c-0.2-0.1-0.6-0.2-1-0.3c-0.6-0.2-1.1-0.3-1.4-0.5c-0.4-0.2-0.7-0.4-0.9-0.8c-0.3-0.3-0.4-0.8-0.4-1.4c0-0.5,0.1-1,0.4-1.4
			s0.6-0.7,1.1-0.9c0.5-0.2,1-0.3,1.7-0.3c0.9,0,1.7,0.2,2.3,0.7c0.6,0.5,0.9,1.1,1,1.9h-2c0-0.3-0.1-0.6-0.4-0.8
			c-0.2-0.2-0.6-0.3-1-0.3c-0.4,0-0.6,0.1-0.9,0.3c-0.2,0.2-0.3,0.4-0.3,0.8c0,0.2,0.1,0.4,0.2,0.6c0.2,0.2,0.4,0.3,0.6,0.4
			s0.6,0.2,1,0.3c0.6,0.2,1.1,0.3,1.4,0.5c0.4,0.2,0.7,0.4,1,0.8s0.4,0.8,0.4,1.4c0,0.5-0.1,0.9-0.4,1.4c-0.3,0.4-0.6,0.7-1.1,1
			s-1.1,0.4-1.7,0.4C701.5,323.7,701,323.6,700.5,323.4z"/>
		<path class="st6" d="M716.3,318.7c-0.2,0.4-0.6,0.8-1.1,1c-0.5,0.3-1.1,0.4-1.9,0.4h-1.5v3.5h-1.8v-9.1h3.3c0.7,0,1.3,0.1,1.8,0.4
			c0.5,0.2,0.9,0.6,1.1,1s0.4,0.9,0.4,1.4C716.7,317.8,716.6,318.3,716.3,318.7z M714.4,318.3c0.2-0.2,0.4-0.6,0.4-1
			c0-0.9-0.5-1.3-1.5-1.3h-1.4v2.6h1.4C713.8,318.6,714.2,318.5,714.4,318.3z"/>
		<path class="st6" d="M719.8,316v2.3h3.1v1.4h-3.1v2.4h3.4v1.5H718v-9.1h5.3v1.5H719.8z"/>
		<path class="st6" d="M729.6,323.6l-2-3.5h-0.9v3.5h-1.8v-9.1h3.4c0.7,0,1.3,0.1,1.8,0.4s0.9,0.6,1.1,1c0.2,0.4,0.4,0.9,0.4,1.4
			c0,0.6-0.2,1.1-0.5,1.6c-0.3,0.5-0.9,0.8-1.5,1l2.2,3.7H729.6z M726.7,318.7h1.5c0.5,0,0.9-0.1,1.1-0.4c0.2-0.2,0.4-0.6,0.4-1
			c0-0.4-0.1-0.7-0.4-1c-0.2-0.2-0.6-0.3-1.1-0.3h-1.5V318.7z"/>
		<path class="st6" d="M743.1,314.5v9.1h-1.8v-5.9l-2.4,5.9h-1.4l-2.4-5.9v5.9h-1.8v-9.1h2.1l2.9,6.7l2.9-6.7H743.1z"/>
		<path class="st6" d="M750.5,321.9h-3.6l-0.6,1.7h-1.9l3.3-9.1h2.1l3.3,9.1h-1.9L750.5,321.9z M750,320.4l-1.3-3.8l-1.3,3.8H750z"
			/>
		<path class="st6" d="M762,323.6h-1.8l-4.1-6.2v6.2h-1.8v-9.1h1.8l4.1,6.2v-6.2h1.8V323.6z"/>
		<path class="st6" d="M765.6,316v2.3h3.1v1.4h-3.1v2.4h3.4v1.5h-5.3v-9.1h5.3v1.5H765.6z"/>
		<path class="st6" d="M778.4,323.6h-1.8l-4.1-6.2v6.2h-1.8v-9.1h1.8l4.1,6.2v-6.2h1.8V323.6z"/>
		<path class="st6" d="M786.4,314.5v1.5H784v7.6h-1.8V316h-2.4v-1.5H786.4z"/>
		<path class="st6" d="M789.5,316v2.3h3.1v1.4h-3.1v2.4h3.4v1.5h-5.3v-9.1h5.3v1.5H789.5z"/>
		<path class="st6" d="M796.1,323.4c-0.5-0.2-0.9-0.5-1.2-0.9s-0.4-0.9-0.5-1.4h1.9c0,0.4,0.2,0.7,0.4,0.9c0.2,0.2,0.6,0.3,1,0.3
			c0.4,0,0.8-0.1,1-0.3c0.2-0.2,0.4-0.5,0.4-0.8c0-0.3-0.1-0.5-0.2-0.7c-0.2-0.2-0.4-0.3-0.6-0.4c-0.2-0.1-0.6-0.2-1-0.3
			c-0.6-0.2-1.1-0.3-1.4-0.5c-0.4-0.2-0.7-0.4-0.9-0.8c-0.3-0.3-0.4-0.8-0.4-1.4c0-0.5,0.1-1,0.4-1.4s0.6-0.7,1.1-0.9
			c0.5-0.2,1-0.3,1.7-0.3c0.9,0,1.7,0.2,2.3,0.7c0.6,0.5,0.9,1.1,1,1.9h-2c0-0.3-0.1-0.6-0.4-0.8c-0.2-0.2-0.6-0.3-1-0.3
			c-0.4,0-0.6,0.1-0.9,0.3c-0.2,0.2-0.3,0.4-0.3,0.8c0,0.2,0.1,0.4,0.2,0.6s0.4,0.3,0.6,0.4s0.6,0.2,1,0.3c0.6,0.2,1.1,0.3,1.4,0.5
			c0.4,0.2,0.7,0.4,1,0.8s0.4,0.8,0.4,1.4c0,0.5-0.1,0.9-0.4,1.4c-0.3,0.4-0.6,0.7-1.1,1s-1.1,0.4-1.7,0.4
			C797.1,323.7,796.6,323.6,796.1,323.4z"/>
	</g>
</g>
</svg>
