<svg xmlns="http://www.w3.org/2000/svg" xmlns:xlink="http://www.w3.org/1999/xlink" width="657" height="119" viewBox="0 0 657 119">
  <defs>
    <clipPath id="clip-path">
      <rect id="Retângulo_981" data-name="Retângulo 981" width="72" height="72" transform="translate(0 2.4)" fill="#fff"/>
    </clipPath>
    <clipPath id="clip-path-2">
      <rect id="Retângulo_982" data-name="Retângulo 982" width="72" height="72" transform="translate(87.24 0)" fill="#fff"/>
    </clipPath>
    <clipPath id="clip-path-3">
      <rect id="Retângulo_983" data-name="Retângulo 983" width="72" height="72" transform="translate(179.64 0)" fill="#fff"/>
    </clipPath>
    <clipPath id="clip-path-4">
      <rect id="Retângulo_984" data-name="Retângulo 984" width="72" height="72" transform="translate(272.04 0)" fill="#fff"/>
    </clipPath>
    <clipPath id="clip-path-5">
      <rect id="Retângulo_985" data-name="Retângulo 985" width="72" height="72" transform="translate(378 0)" fill="#fff"/>
    </clipPath>
  </defs>
  <g id="img-slide-68" transform="translate(-10278 -12133)">
    <rect id="Retângulo_459" data-name="Retângulo 459" width="132.784" height="72.983" transform="translate(10278 12134)" fill="#284565"/>
    <rect id="Retângulo_460" data-name="Retângulo 460" width="132.787" height="72.983" transform="translate(10410.533 12134)" fill="#3e6d92"/>
    <rect id="Retângulo_461" data-name="Retângulo 461" width="132.787" height="72.983" transform="translate(10543.068 12134)" fill="#f29f00"/>
    <rect id="Retângulo_462" data-name="Retângulo 462" width="132.787" height="72.983" transform="translate(10675.601 12134)" fill="#1b8891"/>
    <rect id="Retângulo_876" data-name="Retângulo 876" width="132.784" height="72.983" transform="translate(10802.216 12134)" fill="#6aaac6"/>
    <g id="Grupo_1288" data-name="Grupo 1288" transform="translate(10308.393 12131.6)" clip-path="url(#clip-path)">
      <path id="Caminho_1406" data-name="Caminho 1406" d="M38.02,49.241H13.711a2.594,2.594,0,1,0,0,5.188H25.717l3.706,3.484,3.78-3.484H38.02a2.594,2.594,0,0,0,0-5.188" fill="#fff"/>
      <path id="Caminho_1407" data-name="Caminho 1407" d="M29.275,61.915l-5.114-4.743H10.969v3.483a3.48,3.48,0,0,0,3.483,3.484h22.6a3.48,3.48,0,0,0,3.483-3.484V57.172H34.463Z" fill="#fff"/>
      <path id="Caminho_1408" data-name="Caminho 1408" d="M25.717,35.011c-8.152,0-14.748,3.113-14.748,11.266h29.5c0-8.079-6.6-11.266-14.749-11.266" fill="#fff"/>
      <path id="Caminho_1409" data-name="Caminho 1409" d="M61.217,15.889a1.467,1.467,0,1,0-2.075-2.075l-7.411,7.634-.3,2.742H30.979v2.223l.519,6.3C39.131,34.27,43.5,39.161,43.5,46.425v14.3a6.4,6.4,0,0,1-1.038,3.484h12.3l2.965-37.8V24.19H54.621l.148-1.482Z" fill="#fff"/>
    </g>
    <g id="Grupo_1290" data-name="Grupo 1290" transform="translate(10357.723 12134)" clip-path="url(#clip-path-2)">
      <path id="Caminho_1410" data-name="Caminho 1410" d="M125.038,52.029v3.928h-2.965V52.029A4.46,4.46,0,1,1,128,47.805a4.587,4.587,0,0,1-2.964,4.224m-12.6-27.2a11.117,11.117,0,1,1,22.234,0v8.227l-11.117-.816-11.117.816Zm26.681,8.523V24.829a15.564,15.564,0,1,0-31.127,0v8.523l-5.188.371V61.887l20.751,1.482,20.752-1.482V33.723Z" fill="#fff"/>
    </g>
    <g id="Grupo_1292" data-name="Grupo 1292" transform="translate(10402.36 12135)" clip-path="url(#clip-path-3)">
      <path id="Caminho_1411" data-name="Caminho 1411" d="M241.821,29.721h-.667l-1.927-5.188a9.258,9.258,0,0,0-9.042-16.158,9.034,9.034,0,0,0-4.373,5.633l-6.892-.741a6,6,0,0,0-11.932.89,6.433,6.433,0,0,0,.815,3.038l-8.3,8.153a9.059,9.059,0,0,0-5.484-1.853,9.264,9.264,0,0,0,0,18.529l1.853,11.117a6.025,6.025,0,1,0,8.226,3.78l6.522-3.409a11.488,11.488,0,0,0,20.011-7.634,9.731,9.731,0,0,0-.3-2.52l7.189-3.706a6.038,6.038,0,1,0,9.042-8,7.442,7.442,0,0,0-4.743-1.927m0,2.223a1.7,1.7,0,1,1-1.705,1.7,1.677,1.677,0,0,1,1.705-1.7m-7.115-21.123a2.594,2.594,0,1,1-2.594,2.594,2.578,2.578,0,0,1,2.594-2.594m-5.262,8.45a1.413,1.413,0,0,1,.519-1.038,7.846,7.846,0,0,1,2.52-1.186,6.861,6.861,0,0,1,2.149-.3,10.036,10.036,0,0,1,2.149.3,6.722,6.722,0,0,1,2.52,1.26,1.417,1.417,0,0,1,.519,1.038v2H229.444Zm-16.527-8.894a1.7,1.7,0,1,1-1.705,1.7,1.724,1.724,0,0,1,1.705-1.7m-3.484,5.558a.781.781,0,0,1,.371-.667,4.986,4.986,0,0,1,1.705-.741,4.576,4.576,0,0,1,2.816,0,4.812,4.812,0,0,1,1.63.815.885.885,0,0,1,.371.667v1.335h-6.819V15.935ZM193.87,27.127a2.594,2.594,0,1,1-2.594,2.594,2.677,2.677,0,0,1,2.594-2.594m-5.188,10.45v-2a1.415,1.415,0,0,1,.519-1.038,7.87,7.87,0,0,1,2.519-1.185,6.839,6.839,0,0,1,2.15-.3,9.972,9.972,0,0,1,2.149.3,6.722,6.722,0,0,1,2.52,1.26,1.416,1.416,0,0,1,.519,1.037v2ZM201.5,61.739h-6.892V60.4a.778.778,0,0,1,.37-.667,5.15,5.15,0,0,1,1.705-.815,4.556,4.556,0,0,1,2.816,0,4.808,4.808,0,0,1,1.631.815.883.883,0,0,1,.37.667Zm-5.188-5.188a1.705,1.705,0,1,1,1.705,1.7,1.722,1.722,0,0,1-1.705-1.7m5.929-2.075a6.152,6.152,0,0,0-3.631-1.705L196.76,41.654a9.188,9.188,0,0,0,4.447-3.187L208.1,42.1a11.2,11.2,0,0,0,.593,9.116Zm7.263-15.12L202.689,35.8a9.884,9.884,0,0,0,.445-2.964,9.149,9.149,0,0,0-1.705-5.337l8.3-8.078a5.985,5.985,0,0,0,8.226-1.927,7.4,7.4,0,0,0,.519-1.112l6.893.741A9.25,9.25,0,0,0,229,23.94l-6.077,11.34a11.335,11.335,0,0,0-13.415,4.076m12.6,2.742a3.227,3.227,0,0,1-3.261,3.187,3.187,3.187,0,0,1,0-6.374h.074a3.163,3.163,0,0,1,3.187,3.187m3.187,9.709H212.472V49.362a1.455,1.455,0,0,1,.667-1.26,12.265,12.265,0,0,1,3.113-1.557,9.8,9.8,0,0,1,5.336,0A8.214,8.214,0,0,1,224.7,48.1a1.781,1.781,0,0,1,.667,1.26ZM235.818,35.8a4.2,4.2,0,0,0,.222,1.334l-6.818,3.558a10.886,10.886,0,0,0-3.558-4l6.077-11.34a8.449,8.449,0,0,0,3.039.519,14.418,14.418,0,0,0,1.779-.148l1.927,5.188a5.346,5.346,0,0,0-2.668,4.891m9.412,2.965h-6.893V37.429a.778.778,0,0,1,.371-.667,5.15,5.15,0,0,1,1.705-.815,4.557,4.557,0,0,1,2.816,0,4.794,4.794,0,0,1,1.63.815.883.883,0,0,1,.371.667Z" fill="#fff"/>
    </g>
    <g id="Grupo_1294" data-name="Grupo 1294" transform="translate(10427 12133)" clip-path="url(#clip-path-4)">
      <path id="Caminho_1412" data-name="Caminho 1412" d="M329.106,57.069H287.6V15.564h41.5Zm2.966-29.646a2.964,2.964,0,0,1,2.964-2.965V21.494a2.965,2.965,0,0,1,0-5.93V9.635h-5.93a2.964,2.964,0,1,1-5.929,0h-2.963a2.965,2.965,0,1,1-5.93,0h-2.965a2.964,2.964,0,1,1-5.928,0h-2.965a2.964,2.964,0,1,1-5.929,0h-2.964a2.965,2.965,0,1,1-5.93,0h-5.929v5.929a2.965,2.965,0,0,1,0,5.93v2.964a2.965,2.965,0,0,1,0,5.93v2.964a2.965,2.965,0,0,1,0,5.93v2.964a2.965,2.965,0,1,1,0,5.929V51.14a2.965,2.965,0,1,1,0,5.929V63H287.6a2.965,2.965,0,1,1,5.93,0H296.5a2.964,2.964,0,1,1,5.929,0h2.965a2.964,2.964,0,1,1,5.928,0h2.965a2.965,2.965,0,1,1,5.93,0h2.963a2.964,2.964,0,1,1,5.929,0h5.93v-5.93a2.965,2.965,0,0,1,0-5.929V48.175a2.965,2.965,0,0,1,0-5.929V39.282a2.965,2.965,0,0,1,0-5.93V30.388a2.964,2.964,0,0,1-2.964-2.965" fill="#fff"/>
      <path id="Caminho_1413" data-name="Caminho 1413" d="M314.121,35.086c-3.787-7.508-10.213-3.009-10.213,1.23,0,6.308,10.213,14.082,10.213,14.082s10.2-7.8,10.2-14.082c0-4.239-6.425-8.738-10.2-1.23" fill="#fff"/>
      <path id="Caminho_1414" data-name="Caminho 1414" d="M302.426,36.317a6.811,6.811,0,0,1,1.942-4.6,6.134,6.134,0,0,1,9.753.63,7.184,7.184,0,0,1,3.128-2.408c-.163-5.144-7.975-10.488-12.6-1.32-4.669-9.264-12.6-3.7-12.6,1.483,0,7.782,12.6,17.417,12.6,17.417s.927-.741,2.268-1.9c-2.371-2.765-4.491-6.13-4.491-9.3" fill="#fff"/>
    </g>
    <g id="Grupo_1296" data-name="Grupo 1296" transform="translate(10455 12135)" clip-path="url(#clip-path-5)">
      <path id="Caminho_1415" data-name="Caminho 1415" d="M414.315,40.319a8.783,8.783,0,1,0,8.745,8.82,8.762,8.762,0,0,0-8.745-8.82" fill="#fff"/>
      <path id="Caminho_1416" data-name="Caminho 1416" d="M414.315,32.833a16.306,16.306,0,1,0,16.3,16.305,16.353,16.353,0,0,0-16.3-16.305m0,28.164a11.859,11.859,0,1,1,11.858-11.859A11.893,11.893,0,0,1,414.315,61" fill="#fff"/>
      <path id="Caminho_1417" data-name="Caminho 1417" d="M418.318,30.239a20.24,20.24,0,0,1,8.077,3.78l9.117-20.6-4.151-6.226h-2.668l-5.781,12.674Z" fill="#fff"/>
      <path id="Caminho_1418" data-name="Caminho 1418" d="M410.313,30.239l-4.6-10.376L399.937,7.189h-2.668l-4.076,6.226,9.116,20.6a20.474,20.474,0,0,1,8-3.78" fill="#fff"/>
      <path id="Caminho_1419" data-name="Caminho 1419" d="M421.356,16.157l4.076-8.894H403.2l4.077,8.894Z" fill="#fff"/>
    </g>
    <text id="Fisiológica" transform="translate(10303 12216)" fill="#294667" font-size="14" font-family="Poppins-Bold, Poppins" font-weight="700"><tspan x="-38.654" y="15">Fisiológica</tspan></text>
    <text id="Segurança" transform="translate(10434 12216)" fill="#294667" font-size="14" font-family="Poppins-Bold, Poppins" font-weight="700"><tspan x="-39.543" y="15">Segurança</tspan></text>
    <text id="Social" transform="translate(10565 12216)" fill="#294667" font-size="14" font-family="Poppins-Bold, Poppins" font-weight="700"><tspan x="-21.882" y="15">Social</tspan></text>
    <text id="Estima" transform="translate(10695 12216)" fill="#294667" font-size="14" font-family="Poppins-Bold, Poppins" font-weight="700"><tspan x="-24.766" y="15">Estima</tspan></text>
    <text id="Realização_Pessoal" data-name="Realização Pessoal" transform="translate(10826 12216)" fill="#294667" font-size="14" font-family="Poppins-Bold, Poppins" font-weight="700"><tspan x="-39.431" y="15">Realização </tspan><tspan x="-27.769" y="31">Pessoal</tspan></text>
  </g>
</svg>
