<?xml version="1.0" encoding="utf-8"?>
<!-- Generator: Adobe Illustrator 26.1.0, SVG Export Plug-In . SVG Version: 6.00 Build 0)  -->
<svg version="1.1" id="Camada_1" xmlns="http://www.w3.org/2000/svg" xmlns:xlink="http://www.w3.org/1999/xlink" x="0px" y="0px"
	 viewBox="0 0 534 237" style="enable-background:new 0 0 534 237;" xml:space="preserve">
<style type="text/css">
	.st0{fill:#F0F0F3;}
	.st1{enable-background:new    ;}
	.st2{fill:#108141;}
	.st3{fill:#FFFFFF;}
	.st4{fill:#1B8992;}
	.st5{fill:#2F5579;}
	.st6{fill:#294667;}
	.st7{fill:#6DAFCC;}
</style>
<g id="img-slide-21" transform="translate(-280 -243)">
	<g id="Grupo_1311" transform="translate(159 89)">
		<path id="Retângulo_1002" class="st0" d="M311.5,243h168.9c16.9,0,30.5,13.7,30.5,30.5v0c0,16.9-13.7,30.5-30.5,30.5H311.5
			c-16.9,0-30.5-13.7-30.5-30.5v0C281,256.7,294.7,243,311.5,243z"/>
		<g class="st1">
			<path d="M333.6,268.2v9.8h-2v-6.4L329,278h-1.5l-2.6-6.4v6.4h-2v-9.8h2.2l3.1,7.3l3.1-7.3H333.6z"/>
			<path d="M342.7,274.7H337c0,0.6,0.2,1,0.6,1.3c0.3,0.3,0.8,0.5,1.3,0.5c0.7,0,1.2-0.3,1.6-0.9h2.1c-0.2,0.7-0.7,1.4-1.3,1.8
				s-1.4,0.7-2.3,0.7c-0.7,0-1.4-0.2-2-0.5c-0.6-0.3-1.1-0.8-1.4-1.4c-0.3-0.6-0.5-1.3-0.5-2.1c0-0.8,0.2-1.5,0.5-2.1
				c0.3-0.6,0.8-1.1,1.4-1.4c0.6-0.3,1.3-0.5,2-0.5c0.7,0,1.4,0.2,2,0.5c0.6,0.3,1,0.8,1.4,1.4c0.3,0.6,0.5,1.3,0.5,2
				C342.8,274.2,342.7,274.5,342.7,274.7z M340.7,273.4c0-0.5-0.2-0.9-0.5-1.2c-0.4-0.3-0.8-0.5-1.3-0.5c-0.5,0-0.9,0.1-1.2,0.4
				c-0.3,0.3-0.5,0.7-0.6,1.2H340.7z"/>
			<path d="M346.5,271.9v3.8c0,0.3,0.1,0.5,0.2,0.6c0.1,0.1,0.3,0.2,0.6,0.2h0.9v1.7H347c-1.7,0-2.5-0.8-2.5-2.4v-3.7h-0.9v-1.6h0.9
				v-1.9h2v1.9h1.7v1.6H346.5z"/>
			<path d="M351,277.6c-0.6-0.3-1.1-0.8-1.4-1.4c-0.3-0.6-0.5-1.3-0.5-2.1s0.2-1.5,0.5-2.1c0.4-0.6,0.8-1.1,1.4-1.4
				c0.6-0.3,1.3-0.5,2-0.5s1.4,0.2,2,0.5c0.6,0.3,1.1,0.8,1.4,1.4c0.3,0.6,0.5,1.3,0.5,2.1s-0.2,1.5-0.5,2.1
				c-0.4,0.6-0.8,1.1-1.5,1.4s-1.3,0.5-2.1,0.5C352.3,278.1,351.6,278,351,277.6z M354.1,276.2c0.3-0.2,0.6-0.4,0.7-0.8
				c0.2-0.3,0.3-0.8,0.3-1.3c0-0.7-0.2-1.3-0.6-1.7s-0.9-0.6-1.4-0.6s-1,0.2-1.4,0.6c-0.4,0.4-0.6,1-0.6,1.7s0.2,1.3,0.6,1.7
				c0.4,0.4,0.8,0.6,1.4,0.6C353.4,276.4,353.8,276.3,354.1,276.2z"/>
			<path d="M358.5,272c0.3-0.6,0.7-1.1,1.3-1.4c0.5-0.3,1.1-0.5,1.8-0.5c0.5,0,1,0.1,1.4,0.3c0.5,0.2,0.8,0.5,1.1,0.9v-3.7h2V278h-2
				v-1.1c-0.2,0.4-0.6,0.7-1,0.9c-0.4,0.2-0.9,0.3-1.5,0.3c-0.7,0-1.3-0.2-1.8-0.5s-1-0.8-1.3-1.4c-0.3-0.6-0.5-1.3-0.5-2.1
				C358,273.3,358.2,272.6,358.5,272z M363.9,272.9c-0.2-0.3-0.4-0.6-0.8-0.8c-0.3-0.2-0.7-0.3-1-0.3c-0.4,0-0.7,0.1-1,0.3
				c-0.3,0.2-0.6,0.4-0.7,0.8s-0.3,0.7-0.3,1.2s0.1,0.9,0.3,1.2c0.2,0.3,0.4,0.6,0.8,0.8c0.3,0.2,0.6,0.3,1,0.3c0.4,0,0.7-0.1,1-0.3
				c0.3-0.2,0.6-0.4,0.8-0.8c0.2-0.3,0.3-0.7,0.3-1.2S364.1,273.2,363.9,272.9z"/>
			<path d="M369.5,277.6c-0.6-0.3-1.1-0.8-1.4-1.4c-0.3-0.6-0.5-1.3-0.5-2.1s0.2-1.5,0.5-2.1c0.4-0.6,0.8-1.1,1.4-1.4
				c0.6-0.3,1.3-0.5,2-0.5s1.4,0.2,2,0.5c0.6,0.3,1.1,0.8,1.4,1.4c0.3,0.6,0.5,1.3,0.5,2.1s-0.2,1.5-0.5,2.1
				c-0.4,0.6-0.8,1.1-1.5,1.4s-1.3,0.5-2.1,0.5C370.7,278.1,370.1,278,369.5,277.6z M372.5,276.2c0.3-0.2,0.6-0.4,0.7-0.8
				c0.2-0.3,0.3-0.8,0.3-1.3c0-0.7-0.2-1.3-0.6-1.7s-0.9-0.6-1.4-0.6s-1,0.2-1.4,0.6c-0.4,0.4-0.6,1-0.6,1.7s0.2,1.3,0.6,1.7
				c0.4,0.4,0.8,0.6,1.4,0.6C371.8,276.4,372.2,276.3,372.5,276.2z"/>
			<path d="M378.9,267.6V278h-2v-10.4H378.9z"/>
			<path d="M382.3,277.6c-0.6-0.3-1.1-0.8-1.4-1.4c-0.3-0.6-0.5-1.3-0.5-2.1s0.2-1.5,0.5-2.1c0.4-0.6,0.8-1.1,1.4-1.4
				c0.6-0.3,1.3-0.5,2-0.5s1.4,0.2,2,0.5c0.6,0.3,1.1,0.8,1.4,1.4c0.3,0.6,0.5,1.3,0.5,2.1s-0.2,1.5-0.5,2.1
				c-0.4,0.6-0.8,1.1-1.5,1.4s-1.3,0.5-2.1,0.5C383.6,278.1,382.9,278,382.3,277.6z M385.3,276.2c0.3-0.2,0.6-0.4,0.7-0.8
				c0.2-0.3,0.3-0.8,0.3-1.3c0-0.7-0.2-1.3-0.6-1.7s-0.9-0.6-1.4-0.6s-1,0.2-1.4,0.6c-0.4,0.4-0.6,1-0.6,1.7s0.2,1.3,0.6,1.7
				c0.4,0.4,0.8,0.6,1.4,0.6C384.7,276.4,385,276.3,385.3,276.2z"/>
			<path d="M394.4,270.5c0.4,0.2,0.8,0.5,1,0.9v-1.1h2v7.8c0,0.7-0.1,1.4-0.4,1.9c-0.3,0.6-0.7,1-1.3,1.3c-0.6,0.3-1.3,0.5-2.1,0.5
				c-1.1,0-2-0.3-2.7-0.8c-0.7-0.5-1.1-1.2-1.2-2.1h1.9c0.1,0.4,0.3,0.6,0.7,0.8c0.3,0.2,0.8,0.3,1.2,0.3c0.6,0,1-0.2,1.4-0.5
				c0.4-0.3,0.5-0.9,0.5-1.5v-1.2c-0.3,0.4-0.6,0.7-1,0.9c-0.4,0.2-0.9,0.4-1.5,0.4c-0.7,0-1.3-0.2-1.8-0.5s-1-0.8-1.3-1.4
				s-0.5-1.3-0.5-2.1c0-0.8,0.2-1.5,0.5-2.1c0.3-0.6,0.7-1.1,1.3-1.4c0.5-0.3,1.1-0.5,1.8-0.5C393.4,270.1,393.9,270.2,394.4,270.5z
				 M395.1,272.9c-0.2-0.3-0.4-0.6-0.8-0.8c-0.3-0.2-0.7-0.3-1-0.3s-0.7,0.1-1,0.3c-0.3,0.2-0.6,0.4-0.7,0.8s-0.3,0.7-0.3,1.2
				s0.1,0.9,0.3,1.2c0.2,0.3,0.4,0.6,0.8,0.8s0.6,0.3,1,0.3c0.4,0,0.7-0.1,1-0.3c0.3-0.2,0.6-0.4,0.8-0.8c0.2-0.3,0.3-0.7,0.3-1.2
				S395.3,273.2,395.1,272.9z"/>
			<path d="M399.4,269c-0.2-0.2-0.3-0.5-0.3-0.8c0-0.3,0.1-0.6,0.3-0.8c0.2-0.2,0.5-0.3,0.9-0.3c0.3,0,0.6,0.1,0.9,0.3
				c0.2,0.2,0.3,0.5,0.3,0.8c0,0.3-0.1,0.6-0.3,0.8c-0.2,0.2-0.5,0.3-0.9,0.3C399.9,269.3,399.7,269.2,399.4,269z M401.3,270.2v7.8
				h-2v-7.8H401.3z"/>
			<path d="M403.2,272c0.3-0.6,0.7-1.1,1.3-1.4c0.5-0.3,1.1-0.5,1.8-0.5c0.6,0,1.1,0.1,1.5,0.3c0.4,0.2,0.8,0.5,1,0.9v-1.1h2v7.8h-2
				v-1.1c-0.3,0.4-0.6,0.7-1,0.9c-0.4,0.2-1,0.4-1.5,0.4c-0.7,0-1.2-0.2-1.8-0.5s-1-0.8-1.3-1.4c-0.3-0.6-0.5-1.3-0.5-2.1
				C402.7,273.3,402.8,272.6,403.2,272z M408.5,272.9c-0.2-0.3-0.4-0.6-0.8-0.8c-0.3-0.2-0.7-0.3-1-0.3c-0.4,0-0.7,0.1-1,0.3
				c-0.3,0.2-0.6,0.4-0.7,0.8s-0.3,0.7-0.3,1.2s0.1,0.9,0.3,1.2c0.2,0.3,0.4,0.6,0.8,0.8c0.3,0.2,0.6,0.3,1,0.3c0.4,0,0.7-0.1,1-0.3
				c0.3-0.2,0.6-0.4,0.8-0.8c0.2-0.3,0.3-0.7,0.3-1.2S408.7,273.2,408.5,272.9z"/>
			<path d="M429.3,269.5h-4.5v2.4c0.2-0.2,0.5-0.4,0.8-0.6c0.4-0.2,0.8-0.2,1.2-0.2c0.7,0,1.4,0.2,1.8,0.5c0.5,0.3,0.8,0.7,1,1.3
				s0.3,1.1,0.3,1.6c0,1.1-0.3,1.9-0.9,2.6c-0.6,0.7-1.5,1-2.6,1c-1.1,0-1.9-0.3-2.5-0.8c-0.6-0.5-1-1.2-1.1-2.1h1.9
				c0.1,0.4,0.3,0.7,0.6,0.9c0.3,0.2,0.7,0.3,1.1,0.3c0.6,0,1-0.2,1.2-0.5c0.3-0.3,0.4-0.8,0.4-1.4c0-0.6-0.1-1-0.4-1.3
				c-0.3-0.3-0.7-0.5-1.3-0.5c-0.4,0-0.7,0.1-1,0.3c-0.3,0.2-0.4,0.5-0.6,0.8H423v-6h6.3V269.5z"/>
			<path d="M444.8,268.2L442,278h-2.3l-1.8-7l-1.9,7l-2.3,0l-2.6-9.8h2.1l1.7,7.6l2-7.6h2.2l1.9,7.5l1.7-7.5H444.8z"/>
			<path d="M446.4,275.8c0.9-0.7,1.6-1.4,2.1-1.9c0.5-0.5,1-1,1.3-1.6c0.4-0.5,0.5-1.1,0.5-1.6c0-0.5-0.1-0.8-0.3-1.1
				c-0.2-0.3-0.6-0.4-1-0.4c-0.5,0-0.8,0.2-1.1,0.5s-0.4,0.7-0.4,1.3h-1.9c0-1.1,0.4-2,1-2.5c0.6-0.6,1.4-0.9,2.4-0.9
				c1.1,0,1.9,0.3,2.4,0.8c0.6,0.6,0.9,1.3,0.9,2.2c0,0.7-0.2,1.4-0.6,2.1c-0.4,0.7-0.8,1.2-1.3,1.7s-1.2,1.1-2,1.8h4.1v1.6h-6.9
				v-1.5L446.4,275.8z"/>
			<path d="M462.2,268.2v9.8h-2v-4.2H456v4.2h-2v-9.8h2v4h4.2v-4H462.2z"/>
		</g>
	</g>
	<g id="Grupo_1315" transform="translate(181 65)">
		<path id="Retângulo_1004" class="st2" d="M146,205h73c5.5,0,10,4.5,10,10v25c0,5.5-4.5,10-10,10h-73c-5.5,0-10-4.5-10-10v-25
			C136,209.5,140.5,205,146,205z"/>
		<g class="st1">
			<path class="st3" d="M169.5,225.1c-2.7,0-4.9-2.1-4.9-5s2.2-5,4.9-5c2.8,0,4.9,2.1,4.9,5S172.2,225.1,169.5,225.1z M169.5,224
				c2.1,0,3.6-1.5,3.6-3.9c0-2.4-1.5-3.9-3.6-3.9s-3.6,1.5-3.6,3.9C165.9,222.5,167.4,224,169.5,224z"/>
			<path class="st3" d="M181.6,220.7c0-1.6-0.9-2.4-2.1-2.4c-1.3,0-2.2,0.8-2.2,2.5v4.2H176v-7.7h1.3v1.1c0.5-0.8,1.4-1.2,2.5-1.2
				c1.8,0,3.1,1.1,3.1,3.3v4.5h-1.3V220.7z"/>
			<path class="st3" d="M188.2,217.2c1.2,0,2.3,0.6,2.8,1.5v-4.1h1.3V225H191v-1.4c-0.5,0.9-1.5,1.6-2.9,1.6c-2.1,0-3.6-1.6-3.6-4
				C184.5,218.7,186.1,217.2,188.2,217.2z M188.4,218.3c-1.4,0-2.6,1-2.6,2.8s1.2,2.9,2.6,2.9c1.4,0,2.6-1.1,2.6-2.9
				C191,219.4,189.8,218.3,188.4,218.3z"/>
			<path class="st3" d="M197.8,225.1c-2.2,0-3.8-1.5-3.8-4c0-2.4,1.6-3.9,3.8-3.9c2.2,0,3.7,1.6,3.7,3.7c0,0.3,0,0.5,0,0.8h-6.1
				c0.1,1.6,1.2,2.4,2.5,2.4c1.1,0,1.9-0.6,2.2-1.4h1.4C200.9,224,199.7,225.1,197.8,225.1z M195.3,220.6h4.8c0-1.5-1.1-2.3-2.4-2.3
				C196.5,218.3,195.4,219.1,195.3,220.6z"/>
		</g>
		<g class="st1">
			<path class="st3" d="M159.5,243.6c-1.8-1.8-2.8-4.6-2.8-7.7c0-3.2,1.1-6.1,3.1-8h1.3v0.1c-2.2,2-3.2,5-3.2,7.8
				c0,2.8,1,5.6,2.9,7.6v0.1H159.5z"/>
		</g>
		<g class="st1">
			<path class="st3" d="M173.4,233.3l-3.8,7.7h-1.3l-0.8-6.1l-2.9,6.1h-1.3l-1-7.7h1.3l0.6,6.4l3-6.4h1.3l0.7,6.4l2.9-6.4H173.4z"/>
			<path class="st3" d="M180.4,233.8c0.5,0.4,0.7,1,0.7,1.8c0,0.3,0,0.6-0.1,0.8l-0.8,4.5h-1.3l0.8-4.3c0-0.2,0.1-0.4,0.1-0.6
				c0-0.6-0.2-1-0.5-1.3c-0.3-0.3-0.7-0.4-1.3-0.4c-0.7,0-1.2,0.2-1.7,0.6c-0.5,0.4-0.8,1-0.9,1.8v0l-0.8,4.3h-1.3l1.8-10.4h1.3
				l-0.7,3.8c0.3-0.4,0.7-0.7,1.2-0.9c0.5-0.2,1-0.3,1.5-0.3C179.3,233.2,179.9,233.4,180.4,233.8z"/>
			<path class="st3" d="M188.7,233.6c0.5,0.2,0.8,0.6,1.1,1c0.2,0.4,0.4,0.9,0.4,1.5c0,0.2,0,0.4-0.1,0.7c0,0.2-0.1,0.5-0.2,0.8
				h-6.1c0,0.2,0,0.3,0,0.4c0,0.6,0.2,1.1,0.6,1.5c0.4,0.4,0.9,0.5,1.5,0.5c0.6,0,1-0.1,1.4-0.4c0.4-0.3,0.7-0.6,0.9-1h1.4
				c-0.3,0.7-0.9,1.3-1.5,1.8s-1.5,0.7-2.4,0.7c-1,0-1.7-0.3-2.3-0.8c-0.6-0.6-0.9-1.3-0.9-2.3c0-0.3,0-0.6,0.1-0.9
				c0.1-0.8,0.4-1.5,0.9-2.1c0.4-0.6,1-1.1,1.6-1.4c0.6-0.3,1.3-0.5,2.1-0.5C187.6,233.2,188.2,233.3,188.7,233.6z M188.8,236.2
				c0-0.6-0.2-1.1-0.6-1.4c-0.4-0.3-0.9-0.5-1.5-0.5c-0.7,0-1.2,0.2-1.8,0.6c-0.5,0.4-0.9,1-1.1,1.8h4.9
				C188.8,236.5,188.8,236.3,188.8,236.2z"/>
			<path class="st3" d="M194.5,233.6c0.5-0.3,1-0.4,1.6-0.4l-0.2,1.3h-0.3c-0.7,0-1.2,0.2-1.7,0.5s-0.7,1-0.9,1.8l-0.7,4.2H191
				l1.4-7.7h1.3l-0.3,1.5C193.7,234.3,194,233.9,194.5,233.6z"/>
			<path class="st3" d="M202.6,233.6c0.5,0.2,0.8,0.6,1.1,1c0.2,0.4,0.4,0.9,0.4,1.5c0,0.2,0,0.4-0.1,0.7c0,0.2-0.1,0.5-0.2,0.8
				h-6.1c0,0.2,0,0.3,0,0.4c0,0.6,0.2,1.1,0.6,1.5c0.4,0.4,0.9,0.5,1.5,0.5c0.6,0,1-0.1,1.4-0.4c0.4-0.3,0.7-0.6,0.9-1h1.4
				c-0.3,0.7-0.9,1.3-1.5,1.8s-1.5,0.7-2.4,0.7c-1,0-1.7-0.3-2.3-0.8c-0.6-0.6-0.9-1.3-0.9-2.3c0-0.3,0-0.6,0.1-0.9
				c0.1-0.8,0.4-1.5,0.9-2.1c0.4-0.6,1-1.1,1.6-1.4c0.6-0.3,1.3-0.5,2.1-0.5C201.5,233.2,202.1,233.3,202.6,233.6z M202.7,236.2
				c0-0.6-0.2-1.1-0.6-1.4c-0.4-0.3-0.9-0.5-1.5-0.5c-0.7,0-1.2,0.2-1.8,0.6c-0.5,0.4-0.9,1-1.1,1.8h4.9
				C202.7,236.5,202.7,236.3,202.7,236.2z"/>
		</g>
		<g class="st1">
			<path class="st3" d="M205.2,243.6v-0.1c1.9-2,2.9-4.8,2.9-7.6c0-2.9-1-5.8-3.2-7.8v-0.1h1.3c2,1.8,3.1,4.8,3.1,8
				c0,3.2-1.1,6-2.8,7.7H205.2z"/>
		</g>
	</g>
	<g id="Grupo_1316" transform="translate(131 56)">
		<path id="Retângulo_1005" class="st4" d="M159,297h73c5.5,0,10,4.5,10,10v25c0,5.5-4.5,10-10,10h-73c-5.5,0-10-4.5-10-10v-25
			C149,301.5,153.5,297,159,297z"/>
		<g class="st1">
			<path class="st3" d="M175.7,316.4l2.5,2.5h-1.7l-1.9-1.9c-0.5,0.1-1,0.2-1.5,0.2c-2.7,0-4.9-2.1-4.9-5s2.2-5,4.9-5
				c2.8,0,4.9,2.1,4.9,5C178,314,177.1,315.6,175.7,316.4z M173.1,316c2.1,0,3.6-1.5,3.6-3.9c0-2.4-1.5-3.9-3.6-3.9
				s-3.6,1.5-3.6,3.9C169.5,314.5,171,316,173.1,316z"/>
			<path class="st3" d="M186.5,317h-1.3v-1.1c-0.5,0.8-1.4,1.2-2.5,1.2c-1.8,0-3.2-1.1-3.2-3.3v-4.5h1.3v4.3c0,1.6,0.9,2.4,2.1,2.4
				c1.3,0,2.2-0.8,2.2-2.5v-4.2h1.3V317z"/>
			<path class="st3" d="M191.8,309.2c1.4,0,2.4,0.7,2.9,1.5v-1.4h1.3v7.7h-1.3v-1.4c-0.5,0.8-1.5,1.6-2.9,1.6c-2,0-3.6-1.6-3.6-4
				C188.2,310.7,189.8,309.2,191.8,309.2z M192.1,310.3c-1.4,0-2.6,1-2.6,2.8s1.2,2.9,2.6,2.9c1.4,0,2.6-1.1,2.6-2.9
				C194.7,311.4,193.5,310.3,192.1,310.3z"/>
			<path class="st3" d="M203.7,312.7c0-1.6-0.9-2.4-2.1-2.4c-1.3,0-2.2,0.8-2.2,2.5v4.2h-1.3v-7.7h1.3v1.1c0.5-0.8,1.4-1.2,2.5-1.2
				c1.8,0,3.1,1.1,3.1,3.3v4.5h-1.3V312.7z"/>
			<path class="st3" d="M210.3,309.2c1.2,0,2.3,0.6,2.8,1.5v-4.1h1.3V317h-1.3v-1.4c-0.5,0.9-1.5,1.6-2.9,1.6c-2.1,0-3.6-1.6-3.6-4
				C206.6,310.7,208.2,309.2,210.3,309.2z M210.5,310.3c-1.4,0-2.6,1-2.6,2.8s1.2,2.9,2.6,2.9c1.4,0,2.6-1.1,2.6-2.9
				C213.1,311.4,211.9,310.3,210.5,310.3z"/>
			<path class="st3" d="M219.9,317.1c-2.2,0-3.8-1.5-3.8-4c0-2.4,1.7-3.9,3.9-3.9c2.2,0,3.9,1.5,3.9,3.9
				C223.8,315.6,222.1,317.1,219.9,317.1z M219.9,316c1.3,0,2.6-0.9,2.6-2.9c0-1.9-1.3-2.8-2.6-2.8c-1.3,0-2.6,0.9-2.6,2.8
				C217.4,315.1,218.6,316,219.9,316z"/>
		</g>
		<g class="st1">
			<path class="st3" d="M175,335.6c-1.8-1.8-2.8-4.6-2.8-7.7c0-3.2,1.1-6.1,3.1-8h1.3v0.1c-2.2,2-3.2,5-3.2,7.8c0,2.8,1,5.6,2.9,7.6
				v0.1H175z"/>
		</g>
		<g class="st1">
			<path class="st3" d="M188.9,325.3l-3.8,7.7h-1.3l-0.8-6.1l-2.9,6.1h-1.3l-1-7.7h1.3l0.6,6.4l3-6.4h1.3l0.7,6.4l2.9-6.4H188.9z"/>
			<path class="st3" d="M195.8,325.8c0.5,0.4,0.7,1,0.7,1.8c0,0.3,0,0.6-0.1,0.8l-0.8,4.5h-1.3l0.8-4.3c0-0.2,0.1-0.4,0.1-0.6
				c0-0.6-0.2-1-0.5-1.3c-0.3-0.3-0.7-0.4-1.3-0.4c-0.7,0-1.2,0.2-1.7,0.6c-0.5,0.4-0.8,1-0.9,1.8v0l-0.8,4.3h-1.3l1.8-10.4h1.3
				l-0.7,3.8c0.3-0.4,0.7-0.7,1.2-0.9c0.5-0.2,1-0.3,1.5-0.3C194.8,325.2,195.4,325.4,195.8,325.8z"/>
			<path class="st3" d="M204.1,325.6c0.5,0.2,0.8,0.6,1.1,1c0.2,0.4,0.4,0.9,0.4,1.5c0,0.2,0,0.4-0.1,0.7c0,0.2-0.1,0.5-0.2,0.8
				h-6.1c0,0.2,0,0.3,0,0.4c0,0.6,0.2,1.1,0.6,1.5c0.4,0.4,0.9,0.5,1.5,0.5c0.6,0,1-0.1,1.4-0.4c0.4-0.3,0.7-0.6,0.9-1h1.4
				c-0.3,0.7-0.9,1.3-1.5,1.8s-1.5,0.7-2.4,0.7c-1,0-1.7-0.3-2.3-0.8c-0.6-0.6-0.9-1.3-0.9-2.3c0-0.3,0-0.6,0.1-0.9
				c0.1-0.8,0.4-1.5,0.9-2.1c0.4-0.6,1-1.1,1.6-1.4c0.6-0.3,1.3-0.5,2.1-0.5C203.1,325.2,203.7,325.3,204.1,325.6z M204.3,328.2
				c0-0.6-0.2-1.1-0.6-1.4c-0.4-0.3-0.9-0.5-1.5-0.5c-0.7,0-1.2,0.2-1.8,0.6c-0.5,0.4-0.9,1-1.1,1.8h4.9
				C204.2,328.5,204.3,328.3,204.3,328.2z"/>
			<path class="st3" d="M213.5,325.8c0.5,0.4,0.7,1,0.7,1.9c0,0.3,0,0.6-0.1,0.8l-0.8,4.5h-1.3l0.8-4.3c0-0.2,0.1-0.4,0.1-0.6
				c0-0.6-0.2-1-0.5-1.3c-0.3-0.3-0.7-0.4-1.3-0.4c-0.7,0-1.2,0.2-1.7,0.6c-0.5,0.4-0.8,1-0.9,1.8v0l-0.8,4.3h-1.3l1.4-7.7h1.3
				l-0.2,1.1c0.3-0.4,0.7-0.7,1.2-0.9c0.5-0.2,1-0.3,1.5-0.3C212.4,325.2,213,325.4,213.5,325.8z"/>
		</g>
		<g class="st1">
			<path class="st3" d="M215.7,335.6v-0.1c1.9-2,2.9-4.8,2.9-7.6c0-2.9-1-5.8-3.2-7.8v-0.1h1.3c2,1.8,3.1,4.8,3.1,8
				c0,3.2-1.1,6-2.8,7.7H215.7z"/>
		</g>
	</g>
	<g id="Grupo_1313" transform="translate(141 82)">
		<path id="Retângulo_1007" class="st5" d="M573,188h73c5.5,0,10,4.5,10,10v25c0,5.5-4.5,10-10,10h-73c-5.5,0-10-4.5-10-10v-25
			C563,192.5,567.5,188,573,188z"/>
		<g class="st1">
			<path class="st3" d="M587.7,203.9h-1.9v4.1h-1.3v-9.8h3.2c2.3,0,3.4,1.3,3.4,2.9C591,202.6,590.1,203.9,587.7,203.9z
				 M587.7,202.9c1.5,0,2.1-0.7,2.1-1.8c0-1.1-0.6-1.8-2.1-1.8h-1.9v3.6H587.7z"/>
			<path class="st3" d="M596,208.1c-2.2,0-3.8-1.5-3.8-4c0-2.4,1.7-3.9,3.9-3.9c2.2,0,3.9,1.5,3.9,3.9
				C599.9,206.6,598.2,208.1,596,208.1z M596,207c1.3,0,2.6-0.9,2.6-2.9c0-1.9-1.3-2.8-2.6-2.8c-1.3,0-2.6,0.9-2.6,2.8
				C593.4,206.1,594.6,207,596,207z"/>
			<path class="st3" d="M602.9,208h-1.3v-7.7h1.3v1.2c0.4-0.9,1.3-1.4,2.5-1.4v1.3H605c-1.2,0-2.1,0.5-2.1,2.3V208z"/>
			<path class="st3" d="M613.7,200.2c1.4,0,2.4,0.7,2.8,1.5v-1.4h1.3v11.3h-1.3v-5.1c-0.4,0.8-1.5,1.5-2.9,1.5c-2,0-3.6-1.6-3.6-4
				C610.1,201.7,611.6,200.2,613.7,200.2z M614,201.3c-1.4,0-2.6,1-2.6,2.8s1.2,2.9,2.6,2.9s2.6-1.1,2.6-2.9
				C616.6,202.4,615.4,201.3,614,201.3z"/>
			<path class="st3" d="M626.8,208h-1.3v-1.1c-0.5,0.8-1.4,1.2-2.5,1.2c-1.8,0-3.2-1.1-3.2-3.3v-4.5h1.3v4.3c0,1.6,0.9,2.4,2.1,2.4
				c1.3,0,2.2-0.8,2.2-2.5v-4.2h1.3V208z"/>
			<path class="st3" d="M632.3,208.1c-2.2,0-3.8-1.5-3.8-4c0-2.4,1.6-3.9,3.8-3.9c2.2,0,3.7,1.6,3.7,3.7c0,0.3,0,0.5,0,0.8h-6.1
				c0.1,1.6,1.2,2.4,2.5,2.4c1.1,0,1.9-0.6,2.2-1.4h1.4C635.4,207,634.2,208.1,632.3,208.1z M629.8,203.6h4.8c0-1.5-1.1-2.3-2.4-2.3
				C631,201.3,629.9,202.1,629.8,203.6z"/>
		</g>
		<g class="st1">
			<path class="st3" d="M593.8,226.6c-1.8-1.8-2.8-4.6-2.8-7.7c0-3.2,1.1-6.1,3.1-8h1.3v0.1c-2.2,2-3.2,5-3.2,7.8
				c0,2.8,1,5.6,2.9,7.6v0.1H593.8z"/>
		</g>
		<g class="st1">
			<path class="st3" d="M607.8,216.3L604,224h-1.3l-0.8-6.1L599,224h-1.3l-1-7.7h1.3l0.6,6.4l3-6.4h1.3l0.7,6.4l2.9-6.4H607.8z"/>
			<path class="st3" d="M614.7,216.8c0.5,0.4,0.7,1,0.7,1.8c0,0.3,0,0.6-0.1,0.8l-0.8,4.5h-1.3l0.8-4.3c0-0.2,0.1-0.4,0.1-0.6
				c0-0.6-0.2-1-0.5-1.3c-0.3-0.3-0.7-0.4-1.3-0.4c-0.7,0-1.2,0.2-1.7,0.6s-0.8,1-0.9,1.8v0L609,224h-1.3l1.8-10.4h1.3l-0.7,3.8
				c0.3-0.4,0.7-0.7,1.2-0.9c0.5-0.2,1-0.3,1.5-0.3C613.6,216.2,614.3,216.4,614.7,216.8z"/>
			<path class="st3" d="M618.5,216.3l1.3,6.2l3.5-6.2h1.3l-6.6,11.3h-1.3l2.2-3.7l-1.8-7.6H618.5z"/>
		</g>
		<g class="st1">
			<path class="st3" d="M624.8,226.6v-0.1c1.9-2,2.9-4.8,2.9-7.6c0-2.9-1-5.8-3.2-7.8v-0.1h1.3c2,1.8,3.1,4.8,3.1,8
				c0,3.2-1.1,6-2.8,7.7H624.8z"/>
		</g>
	</g>
	<g id="Grupo_1312" transform="translate(111 70)">
		<path id="Retângulo_1008" class="st2" d="M620,283h73c5.5,0,10,4.5,10,10v25c0,5.5-4.5,10-10,10h-73c-5.5,0-10-4.5-10-10v-25
			C610,287.5,614.5,283,620,283z"/>
		<g class="st1">
			<path class="st3" d="M643.5,302.4l2.5,2.5h-1.7l-1.9-1.9c-0.5,0.1-1,0.2-1.5,0.2c-2.7,0-4.9-2.1-4.9-5s2.2-5,4.9-5
				c2.8,0,4.9,2.1,4.9,5C645.9,300,645,301.6,643.5,302.4z M641,302c2.1,0,3.6-1.5,3.6-3.9c0-2.4-1.5-3.9-3.6-3.9
				c-2.1,0-3.6,1.5-3.6,3.9C637.4,300.5,638.9,302,641,302z"/>
			<path class="st3" d="M654.4,303h-1.3v-1.1c-0.5,0.8-1.4,1.2-2.5,1.2c-1.8,0-3.2-1.1-3.2-3.3v-4.5h1.3v4.3c0,1.6,0.9,2.4,2.1,2.4
				c1.3,0,2.2-0.8,2.2-2.5v-4.2h1.3V303z"/>
			<path class="st3" d="M659.8,303.1c-2.2,0-3.8-1.5-3.8-4c0-2.4,1.6-3.9,3.8-3.9c2.2,0,3.7,1.6,3.7,3.7c0,0.3,0,0.5,0,0.8h-6.1
				c0.1,1.6,1.2,2.4,2.5,2.4c1.1,0,1.9-0.6,2.2-1.4h1.4C663,302,661.7,303.1,659.8,303.1z M657.4,298.6h4.8c0-1.5-1.1-2.3-2.4-2.3
				C658.5,296.3,657.5,297.1,657.4,298.6z"/>
			<path class="st3" d="M676.3,298.7c0-1.6-0.8-2.4-2.1-2.4c-1.3,0-2.2,0.8-2.2,2.5v4.2h-1.3v-4.3c0-1.6-0.8-2.4-2.1-2.4
				c-1.3,0-2.2,0.8-2.2,2.5v4.2h-1.3v-7.7h1.3v1.1c0.5-0.8,1.4-1.2,2.4-1.2c1.3,0,2.3,0.6,2.8,1.7c0.4-1.1,1.5-1.7,2.7-1.7
				c1.8,0,3.1,1.1,3.1,3.3v4.5h-1.3V298.7z"/>
		</g>
		<g class="st1">
			<path class="st3" d="M640.3,321.6c-1.8-1.8-2.8-4.6-2.8-7.7c0-3.2,1.1-6.1,3.1-8h1.3v0.1c-2.2,2-3.2,5-3.2,7.8
				c0,2.8,1,5.6,2.9,7.6v0.1H640.3z"/>
		</g>
		<g class="st1">
			<path class="st3" d="M654.2,311.3l-3.8,7.7h-1.3l-0.8-6.1l-2.9,6.1h-1.3l-1-7.7h1.3l0.6,6.4l3-6.4h1.3l0.7,6.4l2.9-6.4H654.2z"/>
			<path class="st3" d="M661.2,311.8c0.5,0.4,0.7,1,0.7,1.8c0,0.3,0,0.6-0.1,0.8L661,319h-1.3l0.8-4.3c0-0.2,0.1-0.4,0.1-0.6
				c0-0.6-0.2-1-0.5-1.3c-0.3-0.3-0.7-0.4-1.3-0.4c-0.7,0-1.2,0.2-1.7,0.6s-0.8,1-0.9,1.8v0l-0.8,4.3h-1.3l1.8-10.4h1.3l-0.7,3.8
				c0.3-0.4,0.7-0.7,1.2-0.9c0.5-0.2,1-0.3,1.5-0.3C660.1,311.2,660.7,311.4,661.2,311.8z"/>
			<path class="st3" d="M664.8,318.7c-0.5-0.3-0.9-0.6-1.1-1.1c-0.3-0.5-0.4-1-0.4-1.7c0-0.9,0.2-1.7,0.6-2.4c0.4-0.7,1-1.3,1.7-1.7
				c0.7-0.4,1.5-0.6,2.4-0.6c0.6,0,1.2,0.1,1.7,0.4c0.5,0.3,0.9,0.6,1.2,1.1c0.3,0.5,0.4,1,0.4,1.7c0,0.9-0.2,1.7-0.6,2.4
				c-0.4,0.7-1,1.3-1.7,1.7s-1.5,0.6-2.4,0.6C665.8,319.1,665.3,319,664.8,318.7z M668.3,317.6c0.5-0.3,0.9-0.8,1.1-1.3
				s0.4-1.1,0.4-1.8c0-0.7-0.2-1.3-0.6-1.6c-0.4-0.4-0.9-0.6-1.5-0.6c-0.6,0-1.1,0.2-1.6,0.5s-0.8,0.8-1.1,1.3
				c-0.3,0.6-0.4,1.1-0.4,1.8c0,0.7,0.2,1.2,0.6,1.6c0.4,0.4,0.9,0.6,1.5,0.6S667.8,317.9,668.3,317.6z"/>
		</g>
		<g class="st1">
			<path class="st3" d="M672.4,321.6v-0.1c1.9-2,2.9-4.8,2.9-7.6c0-2.9-1-5.8-3.2-7.8v-0.1h1.3c2,1.8,3.1,4.8,3.1,8
				c0,3.2-1.1,6-2.8,7.7H672.4z"/>
		</g>
	</g>
	<g id="Grupo_1318" transform="translate(157 83)">
		<path id="Retângulo_1009" class="st6" d="M481,350h73c5.5,0,10,4.5,10,10v25c0,5.5-4.5,10-10,10h-73c-5.5,0-10-4.5-10-10v-25
			C471,354.5,475.5,350,481,350z"/>
		<g class="st1">
			<path class="st3" d="M501.9,360.1c2.1,0,3.8,1.1,4.5,3h-1.5c-0.5-1.2-1.6-1.8-3-1.8c-2,0-3.6,1.5-3.6,3.9c0,2.4,1.5,3.9,3.6,3.9
				c1.4,0,2.5-0.7,3-1.8h1.5c-0.7,1.9-2.4,2.9-4.5,2.9c-2.7,0-4.9-2-4.9-5S499.2,360.1,501.9,360.1z"/>
			<path class="st3" d="M511.7,370.1c-2.2,0-3.8-1.5-3.8-4c0-2.4,1.7-3.9,3.9-3.9c2.2,0,3.9,1.5,3.9,3.9
				C515.6,368.6,513.8,370.1,511.7,370.1z M511.7,369c1.3,0,2.6-0.9,2.6-2.9c0-1.9-1.3-2.8-2.6-2.8c-1.3,0-2.6,0.9-2.6,2.8
				C509.1,368.1,510.3,369,511.7,369z"/>
			<path class="st3" d="M528.4,365.7c0-1.6-0.8-2.4-2.1-2.4c-1.3,0-2.2,0.8-2.2,2.5v4.2h-1.3v-4.3c0-1.6-0.8-2.4-2.1-2.4
				c-1.3,0-2.2,0.8-2.2,2.5v4.2h-1.3v-7.7h1.3v1.1c0.5-0.8,1.4-1.2,2.4-1.2c1.3,0,2.3,0.6,2.8,1.7c0.4-1.1,1.5-1.7,2.7-1.7
				c1.8,0,3.1,1.1,3.1,3.3v4.5h-1.3V365.7z"/>
			<path class="st3" d="M535,370.1c-2.2,0-3.8-1.5-3.8-4c0-2.4,1.7-3.9,3.9-3.9c2.2,0,3.9,1.5,3.9,3.9
				C539,368.6,537.2,370.1,535,370.1z M535,369c1.3,0,2.6-0.9,2.6-2.9c0-1.9-1.3-2.8-2.6-2.8c-1.3,0-2.6,0.9-2.6,2.8
				C532.5,368.1,533.7,369,535,369z"/>
		</g>
		<g class="st1">
			<path class="st3" d="M501.3,388.6c-1.8-1.8-2.8-4.6-2.8-7.7c0-3.2,1.1-6.1,3.1-8h1.3v0.1c-2.2,2-3.2,5-3.2,7.8
				c0,2.8,1,5.6,2.9,7.6v0.1H501.3z"/>
		</g>
		<g class="st1">
			<path class="st3" d="M510.7,378.8c0.5,0.4,0.7,1,0.7,1.8c0,0.3,0,0.6-0.1,0.8l-0.8,4.5h-1.3l0.8-4.3c0-0.2,0.1-0.4,0.1-0.6
				c0-0.6-0.2-1-0.5-1.3s-0.7-0.4-1.3-0.4c-0.7,0-1.2,0.2-1.7,0.6c-0.5,0.4-0.8,1-0.9,1.8v0l-0.8,4.3h-1.3l1.8-10.4h1.3l-0.7,3.8
				c0.3-0.4,0.7-0.7,1.2-0.9c0.5-0.2,1-0.3,1.5-0.3C509.6,378.2,510.2,378.4,510.7,378.8z"/>
			<path class="st3" d="M514.3,385.7c-0.5-0.3-0.9-0.6-1.1-1.1c-0.3-0.5-0.4-1-0.4-1.7c0-0.9,0.2-1.7,0.6-2.4c0.4-0.7,1-1.3,1.7-1.7
				c0.7-0.4,1.5-0.6,2.4-0.6c0.6,0,1.2,0.1,1.7,0.4c0.5,0.3,0.9,0.6,1.2,1.1c0.3,0.5,0.4,1,0.4,1.7c0,0.9-0.2,1.7-0.6,2.4
				s-1,1.3-1.7,1.7c-0.7,0.4-1.5,0.6-2.4,0.6C515.4,386.1,514.8,386,514.3,385.7z M517.8,384.6c0.5-0.3,0.9-0.8,1.1-1.3
				s0.4-1.1,0.4-1.8c0-0.7-0.2-1.3-0.6-1.6c-0.4-0.4-0.9-0.6-1.5-0.6c-0.6,0-1.1,0.2-1.6,0.5c-0.5,0.3-0.8,0.8-1.1,1.3
				c-0.3,0.6-0.4,1.1-0.4,1.8c0,0.7,0.2,1.2,0.6,1.6c0.4,0.4,0.9,0.6,1.5,0.6C516.8,385,517.3,384.9,517.8,384.6z"/>
			<path class="st3" d="M533.2,378.3l-3.8,7.7h-1.3l-0.8-6.1l-2.9,6.1h-1.3l-1-7.7h1.3l0.6,6.4l3-6.4h1.3l0.7,6.4l2.9-6.4H533.2z"/>
		</g>
		<g class="st1">
			<path class="st3" d="M533.4,388.6v-0.1c1.9-2,2.9-4.8,2.9-7.6c0-2.9-1-5.8-3.2-7.8v-0.1h1.3c2,1.8,3.1,4.8,3.1,8
				c0,3.2-1.1,6-2.8,7.7H533.4z"/>
		</g>
	</g>
	<g id="Grupo_1317" transform="translate(111 72)">
		<path id="Retângulo_1010" class="st7" d="M304,363h93c5.5,0,10,4.5,10,10v25c0,5.5-4.5,10-10,10h-93c-5.5,0-10-4.5-10-10v-25
			C294,367.5,298.5,363,304,363z"/>
		<g class="st1">
			<path class="st3" d="M311.3,382.4l2.5,2.5h-1.7l-1.9-1.9c-0.5,0.1-1,0.2-1.5,0.2c-2.7,0-4.9-2.1-4.9-5s2.2-5,4.9-5
				c2.8,0,4.9,2.1,4.9,5C313.6,380,312.7,381.6,311.3,382.4z M308.7,382c2.1,0,3.6-1.5,3.6-3.9c0-2.4-1.5-3.9-3.6-3.9
				s-3.6,1.5-3.6,3.9C305.1,380.5,306.7,382,308.7,382z"/>
			<path class="st3" d="M322.1,383h-1.3v-1.1c-0.5,0.8-1.4,1.2-2.5,1.2c-1.8,0-3.2-1.1-3.2-3.3v-4.5h1.3v4.3c0,1.6,0.9,2.4,2.1,2.4
				c1.3,0,2.2-0.8,2.2-2.5v-4.2h1.3V383z"/>
			<path class="st3" d="M327.5,375.2c1.4,0,2.4,0.7,2.9,1.5v-1.4h1.3v7.7h-1.3v-1.4c-0.5,0.8-1.5,1.6-2.9,1.6c-2,0-3.6-1.6-3.6-4
				C323.8,376.7,325.4,375.2,327.5,375.2z M327.7,376.3c-1.4,0-2.6,1-2.6,2.8s1.2,2.9,2.6,2.9c1.4,0,2.6-1.1,2.6-2.9
				C330.3,377.4,329.1,376.3,327.7,376.3z"/>
			<path class="st3" d="M339.4,378.7c0-1.6-0.9-2.4-2.1-2.4c-1.3,0-2.2,0.8-2.2,2.5v4.2h-1.3v-7.7h1.3v1.1c0.5-0.8,1.4-1.2,2.5-1.2
				c1.8,0,3.1,1.1,3.1,3.3v4.5h-1.3V378.7z"/>
			<path class="st3" d="M343,376.4h-1v-1h1v-1.9h1.3v1.9h2v1h-2v4.5c0,0.8,0.3,1,1.1,1h0.9v1.1h-1.1c-1.4,0-2.1-0.6-2.1-2.1V376.4z"
				/>
			<path class="st3" d="M351.2,383.1c-2.2,0-3.8-1.5-3.8-4c0-2.4,1.7-3.9,3.9-3.9c2.2,0,3.9,1.5,3.9,3.9
				C355.1,381.6,353.4,383.1,351.2,383.1z M351.2,382c1.3,0,2.6-0.9,2.6-2.9c0-1.9-1.3-2.8-2.6-2.8c-1.3,0-2.6,0.9-2.6,2.8
				C348.6,381.1,349.8,382,351.2,382z"/>
			<path class="st3" d="M363.8,375.2c1.9,0,3.2,1,3.5,2.6H366c-0.3-0.9-1-1.5-2.2-1.5c-1.4,0-2.4,1-2.4,2.9c0,1.9,1,2.9,2.4,2.9
				c1.1,0,1.9-0.5,2.2-1.5h1.4c-0.4,1.5-1.6,2.6-3.5,2.6c-2.2,0-3.7-1.5-3.7-4C360,376.7,361.6,375.2,363.8,375.2z"/>
			<path class="st3" d="M375.8,383h-1.3v-1.1c-0.5,0.8-1.4,1.2-2.5,1.2c-1.8,0-3.2-1.1-3.2-3.3v-4.5h1.3v4.3c0,1.6,0.9,2.4,2.1,2.4
				c1.3,0,2.2-0.8,2.2-2.5v-4.2h1.3V383z"/>
			<path class="st3" d="M380.7,383.1c-1.8,0-3.1-1-3.1-2.4h1.3c0.1,0.7,0.7,1.3,1.8,1.3c1,0,1.6-0.5,1.6-1.1c0-1.7-4.5-0.7-4.5-3.6
				c0-1.2,1.1-2.1,2.8-2.1c1.7,0,2.8,0.9,2.9,2.4h-1.3c-0.1-0.8-0.6-1.3-1.7-1.3c-0.9,0-1.5,0.4-1.5,1.1c0,1.8,4.5,0.8,4.5,3.6
				C383.5,382.2,382.4,383.1,380.7,383.1z"/>
			<path class="st3" d="M385.6,376.4h-1v-1h1v-1.9h1.3v1.9h2v1h-2v4.5c0,0.8,0.3,1,1.1,1h0.9v1.1h-1.1c-1.4,0-2.1-0.6-2.1-2.1V376.4
				z"/>
			<path class="st3" d="M393.5,375.2c1.4,0,2.4,0.7,2.9,1.5v-1.4h1.3v7.7h-1.3v-1.4c-0.5,0.8-1.5,1.6-2.9,1.6c-2,0-3.6-1.6-3.6-4
				C389.9,376.7,391.5,375.2,393.5,375.2z M393.8,376.3c-1.4,0-2.6,1-2.6,2.8s1.2,2.9,2.6,2.9c1.4,0,2.6-1.1,2.6-2.9
				C396.4,377.4,395.2,376.3,393.8,376.3z"/>
		</g>
		<g class="st1">
			<path class="st3" d="M311.8,401.6c-1.8-1.8-2.8-4.6-2.8-7.7c0-3.2,1.1-6.1,3.1-8h1.3v0.1c-2.2,2-3.2,5-3.2,7.8
				c0,2.8,1,5.6,2.9,7.6v0.1H311.8z"/>
		</g>
		<g class="st1">
			<path class="st3" d="M321.2,391.8c0.5,0.4,0.7,1,0.7,1.8c0,0.3,0,0.6-0.1,0.8L321,399h-1.3l0.8-4.3c0-0.2,0.1-0.4,0.1-0.6
				c0-0.6-0.2-1-0.5-1.3c-0.3-0.3-0.7-0.4-1.3-0.4c-0.7,0-1.2,0.2-1.7,0.6c-0.5,0.4-0.8,1-0.9,1.8v0l-0.8,4.3h-1.3l1.8-10.4h1.3
				l-0.7,3.8c0.3-0.4,0.7-0.7,1.2-0.9c0.5-0.2,1-0.3,1.5-0.3C320.1,391.2,320.7,391.4,321.2,391.8z"/>
			<path class="st3" d="M324.8,398.7c-0.5-0.3-0.9-0.6-1.1-1.1c-0.3-0.5-0.4-1-0.4-1.7c0-0.9,0.2-1.7,0.6-2.4c0.4-0.7,1-1.3,1.7-1.7
				s1.5-0.6,2.4-0.6c0.6,0,1.2,0.1,1.7,0.4c0.5,0.3,0.9,0.6,1.2,1.1c0.3,0.5,0.4,1,0.4,1.7c0,0.9-0.2,1.7-0.6,2.4
				c-0.4,0.7-1,1.3-1.7,1.7c-0.7,0.4-1.5,0.6-2.4,0.6C325.8,399.1,325.3,399,324.8,398.7z M328.3,397.6c0.5-0.3,0.9-0.8,1.1-1.3
				s0.4-1.1,0.4-1.8c0-0.7-0.2-1.3-0.6-1.6s-0.9-0.6-1.5-0.6c-0.6,0-1.1,0.2-1.6,0.5c-0.5,0.3-0.8,0.8-1.1,1.3
				c-0.3,0.6-0.4,1.1-0.4,1.8c0,0.7,0.2,1.2,0.6,1.6c0.4,0.4,0.9,0.6,1.5,0.6C327.3,398,327.8,397.9,328.3,397.6z"/>
			<path class="st3" d="M343.7,391.3l-3.8,7.7h-1.3l-0.8-6.1l-2.9,6.1h-1.3l-1-7.7h1.3l0.6,6.4l3-6.4h1.3l0.7,6.4l2.9-6.4H343.7z"/>
			<path class="st3" d="M360.2,391.8c0.5,0.4,0.7,1,0.7,1.9c0,0.3,0,0.6-0.1,0.8l-0.8,4.5h-1.3l0.8-4.3c0-0.2,0.1-0.4,0.1-0.6
				c0-0.6-0.2-1-0.5-1.3c-0.3-0.3-0.7-0.4-1.3-0.4c-0.6,0-1.2,0.2-1.6,0.6c-0.5,0.4-0.8,0.9-0.9,1.7l-0.8,4.5h-1.3l0.8-4.3
				c0-0.2,0.1-0.4,0.1-0.6c0-0.6-0.2-1-0.5-1.3s-0.7-0.4-1.3-0.4c-0.7,0-1.2,0.2-1.7,0.6c-0.5,0.4-0.8,1-0.9,1.8v0L349,399h-1.3
				l1.4-7.7h1.3l-0.2,1.1c0.3-0.4,0.7-0.7,1.2-0.9c0.5-0.2,1-0.3,1.5-0.3c0.6,0,1.2,0.1,1.6,0.4c0.4,0.3,0.7,0.7,0.9,1.3
				c0.3-0.5,0.7-1,1.3-1.3c0.5-0.3,1.1-0.4,1.7-0.4C359.1,391.2,359.8,391.4,360.2,391.8z"/>
			<path class="st3" d="M370.3,391.3L369,399h-1.3l0.2-1.1c-0.3,0.4-0.7,0.7-1.2,0.9s-1,0.3-1.5,0.3c-0.8,0-1.4-0.2-1.9-0.7
				s-0.7-1.1-0.7-1.9c0-0.2,0-0.5,0.1-0.8l0.8-4.5h1.3l-0.8,4.3c0,0.2-0.1,0.4-0.1,0.6c0,0.6,0.2,1,0.5,1.3c0.3,0.3,0.7,0.4,1.3,0.4
				c0.7,0,1.2-0.2,1.7-0.6s0.8-1,0.9-1.8v0l0.8-4.3H370.3z"/>
			<path class="st3" d="M372.2,393.1c0.4-0.6,0.9-1.1,1.6-1.4c0.6-0.3,1.3-0.5,2-0.5c0.9,0,1.7,0.2,2.2,0.7c0.5,0.5,0.8,1.1,0.9,1.9
				h-1.4c0-0.5-0.2-0.8-0.6-1.1c-0.3-0.3-0.8-0.4-1.3-0.4c-0.7,0-1.4,0.2-1.9,0.7s-0.9,1.2-1,2.1c0,0.3-0.1,0.6-0.1,0.8
				c0,0.7,0.2,1.2,0.5,1.6c0.4,0.4,0.8,0.6,1.5,0.6c0.6,0,1-0.1,1.5-0.4c0.4-0.3,0.7-0.6,1-1.1h1.4c-0.3,0.8-0.9,1.4-1.6,1.9
				c-0.7,0.5-1.5,0.7-2.4,0.7c-1,0-1.7-0.3-2.3-0.8c-0.6-0.6-0.8-1.3-0.8-2.3c0-0.3,0-0.6,0.1-0.9
				C371.4,394.4,371.7,393.7,372.2,393.1z"/>
			<path class="st3" d="M386.7,391.8c0.5,0.4,0.7,1,0.7,1.8c0,0.3,0,0.6-0.1,0.8l-0.8,4.5h-1.3l0.8-4.3c0-0.2,0.1-0.4,0.1-0.6
				c0-0.6-0.2-1-0.5-1.3c-0.3-0.3-0.7-0.4-1.3-0.4c-0.7,0-1.2,0.2-1.7,0.6c-0.5,0.4-0.8,1-0.9,1.8v0l-0.8,4.3h-1.3l1.8-10.4h1.3
				l-0.7,3.8c0.3-0.4,0.7-0.7,1.2-0.9c0.5-0.2,1-0.3,1.5-0.3C385.6,391.2,386.2,391.4,386.7,391.8z"/>
		</g>
		<g class="st1">
			<path class="st3" d="M388.9,401.6v-0.1c1.9-2,2.9-4.8,2.9-7.6c0-2.9-1-5.8-3.2-7.8v-0.1h1.3c2,1.8,3.1,4.8,3.1,8
				c0,3.2-1.1,6-2.8,7.7H388.9z"/>
		</g>
	</g>
	<g id="Grupo_1328" transform="translate(111 73)">
		<g id="Grupo_1314" transform="translate(47)">
			<path id="Retângulo_1006" class="st4" d="M361,170h73c5.5,0,10,4.5,10,10v25c0,5.5-4.5,10-10,10h-73c-5.5,0-10-4.5-10-10v-25
				C351,174.5,355.5,170,361,170z"/>
			<g class="st1">
				<path class="st3" d="M382.6,190.1c-2.7,0-4.9-2.1-4.9-5s2.2-5,4.9-5c2.8,0,4.9,2.1,4.9,5S385.3,190.1,382.6,190.1z M382.6,189
					c2.1,0,3.6-1.5,3.6-3.9c0-2.4-1.5-3.9-3.6-3.9s-3.6,1.5-3.6,3.9C379,187.5,380.5,189,382.6,189z"/>
				<path class="st3" d="M396.1,182.2c1.4,0,2.4,0.7,2.8,1.5v-1.4h1.3v11.3h-1.3v-5.1c-0.4,0.8-1.5,1.5-2.9,1.5c-2,0-3.6-1.6-3.6-4
					C392.4,183.7,394,182.2,396.1,182.2z M396.3,183.3c-1.4,0-2.6,1-2.6,2.8s1.2,2.9,2.6,2.9c1.4,0,2.6-1.1,2.6-2.9
					C398.9,184.4,397.7,183.3,396.3,183.3z"/>
				<path class="st3" d="M409.2,190h-1.3v-1.1c-0.5,0.8-1.4,1.2-2.5,1.2c-1.8,0-3.2-1.1-3.2-3.3v-4.5h1.3v4.3c0,1.6,0.9,2.4,2.1,2.4
					c1.3,0,2.2-0.8,2.2-2.5v-4.2h1.3V190z"/>
				<path class="st3" d="M414.6,190.1c-2.2,0-3.8-1.5-3.8-4c0-2.4,1.6-3.9,3.8-3.9c2.2,0,3.7,1.6,3.7,3.7c0,0.3,0,0.5,0,0.8h-6.1
					c0.1,1.6,1.2,2.4,2.5,2.4c1.1,0,1.9-0.6,2.2-1.4h1.4C417.8,189,416.5,190.1,414.6,190.1z M412.2,185.6h4.8
					c0-1.5-1.1-2.3-2.4-2.3C413.3,183.3,412.3,184.1,412.2,185.6z"/>
			</g>
			<g class="st1">
				<path class="st3" d="M378.5,208.6c-1.8-1.8-2.8-4.6-2.8-7.7c0-3.2,1.1-6.1,3.1-8h1.3v0.1c-2.2,2-3.2,5-3.2,7.8
					c0,2.8,1,5.6,2.9,7.6v0.1H378.5z"/>
			</g>
			<g class="st1">
				<path class="st3" d="M392.4,198.3l-3.8,7.7h-1.3l-0.8-6.1l-2.9,6.1h-1.3l-1-7.7h1.3l0.6,6.4l3-6.4h1.3l0.7,6.4l2.9-6.4H392.4z"
					/>
				<path class="st3" d="M399.4,198.8c0.5,0.4,0.7,1,0.7,1.8c0,0.3,0,0.6-0.1,0.8l-0.8,4.5H398l0.8-4.3c0-0.2,0.1-0.4,0.1-0.6
					c0-0.6-0.2-1-0.5-1.3s-0.7-0.4-1.3-0.4c-0.7,0-1.2,0.2-1.7,0.6c-0.5,0.4-0.8,1-0.9,1.8v0l-0.8,4.3h-1.3l1.8-10.4h1.3l-0.7,3.8
					c0.3-0.4,0.7-0.7,1.2-0.9c0.5-0.2,1-0.3,1.5-0.3C398.3,198.2,398.9,198.4,399.4,198.8z"/>
				<path class="st3" d="M402.3,200.1c0.4-0.6,0.9-1.1,1.6-1.4c0.6-0.3,1.3-0.5,2-0.5c0.7,0,1.2,0.1,1.7,0.4
					c0.4,0.3,0.7,0.7,0.9,1.1l0.3-1.4h1.3l-1.4,7.7h-1.3l0.3-1.4c-0.3,0.4-0.8,0.8-1.3,1.1s-1.2,0.4-1.8,0.4c-0.6,0-1.1-0.1-1.6-0.4
					s-0.8-0.6-1.1-1.1c-0.3-0.5-0.4-1-0.4-1.7c0-0.3,0-0.6,0.1-0.9C401.6,201.4,401.9,200.7,402.3,200.1z M408.1,201.5
					c0-0.7-0.2-1.2-0.6-1.6c-0.4-0.4-0.9-0.6-1.5-0.6c-0.5,0-0.9,0.1-1.4,0.3c-0.4,0.2-0.8,0.6-1.1,1s-0.5,0.9-0.6,1.5
					c0,0.2-0.1,0.4-0.1,0.6c0,0.7,0.2,1.2,0.6,1.6s0.9,0.6,1.5,0.6c0.5,0,0.9-0.1,1.4-0.3c0.4-0.2,0.8-0.6,1.1-1s0.5-0.9,0.6-1.5
					C408,202,408.1,201.7,408.1,201.5z"/>
				<path class="st3" d="M412.7,203.9c0,0.1,0,0.3,0,0.4c0,0.2,0.1,0.4,0.2,0.5c0.1,0.1,0.4,0.2,0.7,0.2h0.9l-0.2,1.1h-1.1
					c-0.6,0-1.1-0.1-1.4-0.3c-0.3-0.2-0.5-0.6-0.5-1.1c0-0.2,0-0.4,0.1-0.6l0.8-4.5h-1l0.2-1h1l0.3-1.9h1.3l-0.3,1.9h2l-0.2,1h-2
					L412.7,203.9z"/>
			</g>
			<g class="st1">
				<path class="st3" d="M416.2,208.6v-0.1c1.9-2,2.9-4.8,2.9-7.6c0-2.9-1-5.8-3.2-7.8v-0.1h1.3c2,1.8,3.1,4.8,3.1,8
					c0,3.2-1.1,6-2.8,7.7H416.2z"/>
			</g>
		</g>
	</g>
</g>
</svg>
