<svg xmlns="http://www.w3.org/2000/svg" xmlns:xlink="http://www.w3.org/1999/xlink" width="920.555" height="159.888" viewBox="0 0 920.555 159.888">
  <defs>
    <clipPath id="clip-path">
      <rect id="Retângulo_981" data-name="Retângulo 981" width="100.883" height="100.883" transform="translate(0 0)" fill="#fff"/>
    </clipPath>
    <clipPath id="clip-path-3">
      <rect id="Retângulo_983" data-name="Retângulo 983" width="101" height="101" transform="translate(-0.172 0.086)" fill="#fff"/>
    </clipPath>
    <clipPath id="clip-path-5">
      <rect id="Retângulo_985" data-name="Retângulo 985" width="101" height="101" transform="translate(0.14 0.086)" fill="#fff"/>
    </clipPath>
  </defs>
  <g id="Grupo_2199" data-name="Grupo 2199" transform="translate(-1902 1804)">
    <g id="Grupo_2198" data-name="Grupo 2198" transform="translate(1902 -1804)">
      <g id="Grupo_2197" data-name="Grupo 2197">
        <path id="Caminho_1944" data-name="Caminho 1944" d="M0,0H186.051V102.261H0Z" transform="translate(0 1.401)" fill="#284565"/>
        <path id="Caminho_1945" data-name="Caminho 1945" d="M0,0H186.054V102.261H0Z" transform="translate(185.699 1.401)" fill="#3e6d92"/>
        <path id="Caminho_1946" data-name="Caminho 1946" d="M0,0H186.054V102.261H0Z" transform="translate(371.4 1.401)" fill="#f29f00"/>
        <path id="Caminho_1947" data-name="Caminho 1947" d="M0,0H186.054V102.261H0Z" transform="translate(557.097 1.401)" fill="#1b8891"/>
        <path id="Caminho_1948" data-name="Caminho 1948" d="M0,0H186.051V102.261H0Z" transform="translate(734.504 1.401)" fill="#6aaac6"/>
        <g id="Grupo_1288" data-name="Grupo 1288" transform="translate(42.585 1.401)" clip-path="url(#clip-path)">
          <path id="Caminho_1406" data-name="Caminho 1406" d="M48.812,49.241H14.752a3.635,3.635,0,1,0,0,7.269H31.574l5.193,4.882,5.3-4.882h6.749a3.635,3.635,0,0,0,0-7.269" transform="translate(4.46 16.39)" fill="#fff"/>
          <path id="Caminho_1407" data-name="Caminho 1407" d="M36.618,63.818l-7.165-6.646H10.969v4.88a4.875,4.875,0,0,0,4.88,4.882H47.522a4.875,4.875,0,0,0,4.88-4.882v-4.88H43.888Z" transform="translate(4.4 19.572)" fill="#fff"/>
          <path id="Caminho_1408" data-name="Caminho 1408" d="M31.633,35.011c-11.422,0-20.664,4.362-20.664,15.785H52.3c0-11.32-9.243-15.785-20.666-15.785" transform="translate(4.4 10.682)" fill="#fff"/>
          <path id="Caminho_1409" data-name="Caminho 1409" d="M73.347,16.9a2.056,2.056,0,1,0-2.907-2.907l-10.384,10.7-.416,3.842H30.979v3.115l.727,8.827C42.4,42.654,48.528,49.507,48.528,59.685V79.727a8.969,8.969,0,0,1-1.454,4.882H64.312l4.154-52.963V28.531H64.1l.207-2.076Z" transform="translate(12.427 2)" fill="#fff"/>
        </g>
        <g id="Grupo_1290" data-name="Grupo 1290" transform="translate(233.939 1.401)" clip-path="url(#clip-path)">
          <path id="Caminho_1410" data-name="Caminho 1410" d="M133.957,69.184v5.5H129.8v-5.5a6.249,6.249,0,1,1,8.307-5.918,6.426,6.426,0,0,1-4.153,5.918M116.3,31.073a15.577,15.577,0,1,1,31.153,0V42.6l-15.577-1.143L116.3,42.6Zm37.384,11.942V31.073a21.807,21.807,0,1,0-43.614,0V43.015l-7.269.52V83l29.075,2.076L160.956,83V43.535Z" transform="translate(-80.997 3.716)" fill="#fff"/>
        </g>
        <g id="Grupo_1292" data-name="Grupo 1292" transform="translate(425.95 2.802)" clip-path="url(#clip-path-3)">
          <path id="Caminho_1411" data-name="Caminho 1411" d="M264.713,38.747h-.935l-2.7-7.269A12.972,12.972,0,0,0,248.41,8.838a12.658,12.658,0,0,0-6.127,7.893l-9.657-1.038a8.406,8.406,0,0,0-16.718,1.247,9.013,9.013,0,0,0,1.142,4.257L205.418,32.62a12.694,12.694,0,0,0-7.684-2.6,12.981,12.981,0,0,0,0,25.962l2.6,15.577a8.441,8.441,0,1,0,11.526,5.3l9.138-4.777a16.1,16.1,0,0,0,28.038-10.7,13.635,13.635,0,0,0-.416-3.531l10.073-5.193a8.46,8.46,0,1,0,12.669-11.215,10.427,10.427,0,0,0-6.646-2.7m0,3.115a2.389,2.389,0,1,1-2.389,2.389,2.35,2.35,0,0,1,2.389-2.389m-9.969-29.6A3.635,3.635,0,1,1,251.11,15.9a3.612,3.612,0,0,1,3.635-3.635m-7.373,11.84a1.98,1.98,0,0,1,.727-1.454,10.994,10.994,0,0,1,3.531-1.662,9.613,9.613,0,0,1,3.011-.415,14.061,14.061,0,0,1,3.011.415,9.419,9.419,0,0,1,3.531,1.765,1.985,1.985,0,0,1,.727,1.454v2.8H247.371ZM224.215,11.643a2.388,2.388,0,1,1-2.389,2.388,2.415,2.415,0,0,1,2.389-2.388m-4.882,7.788a1.094,1.094,0,0,1,.52-.935,6.985,6.985,0,0,1,2.389-1.038,6.412,6.412,0,0,1,3.946,0,6.743,6.743,0,0,1,2.284,1.142,1.24,1.24,0,0,1,.52.935v1.871h-9.554V19.431ZM197.527,35.112a3.635,3.635,0,1,1-3.635,3.635,3.751,3.751,0,0,1,3.635-3.635m-7.269,14.642v-2.8a1.983,1.983,0,0,1,.727-1.454,11.027,11.027,0,0,1,3.529-1.66,9.582,9.582,0,0,1,3.012-.416,13.972,13.972,0,0,1,3.011.416,9.418,9.418,0,0,1,3.531,1.765,1.985,1.985,0,0,1,.727,1.453v2.8Zm17.964,33.855h-9.657V81.74a1.089,1.089,0,0,1,.518-.935,7.216,7.216,0,0,1,2.389-1.142,6.384,6.384,0,0,1,3.946,0,6.736,6.736,0,0,1,2.285,1.142,1.238,1.238,0,0,1,.518.935Zm-7.269-7.269a2.389,2.389,0,1,1,2.389,2.388,2.413,2.413,0,0,1-2.389-2.388m8.307-2.907a8.62,8.62,0,0,0-5.088-2.389l-2.6-15.577A12.874,12.874,0,0,0,207.807,51l9.657,5.088a15.69,15.69,0,0,0,.831,12.773Zm10.177-21.185-9.553-4.985a13.849,13.849,0,0,0,.624-4.153,12.819,12.819,0,0,0-2.389-7.478l11.631-11.318a8.385,8.385,0,0,0,11.526-2.7A10.361,10.361,0,0,0,232,20.054l9.658,1.038a12.961,12.961,0,0,0,5.088,9.554l-8.515,15.889a15.882,15.882,0,0,0-18.8,5.711m17.654,3.842a4.522,4.522,0,0,1-4.569,4.465,4.465,4.465,0,0,1,0-8.931h.1a4.432,4.432,0,0,1,4.465,4.465m4.465,13.6H223.591V66.267a2.038,2.038,0,0,1,.935-1.765,17.185,17.185,0,0,1,4.362-2.182,13.737,13.737,0,0,1,7.477,0,11.509,11.509,0,0,1,4.362,2.182,2.5,2.5,0,0,1,.935,1.765ZM256.3,47.262a5.882,5.882,0,0,0,.311,1.869l-9.553,4.985a15.253,15.253,0,0,0-4.985-5.607L250.59,32.62a11.839,11.839,0,0,0,4.258.727,20.2,20.2,0,0,0,2.493-.207l2.7,7.269a7.49,7.49,0,0,0-3.738,6.853m13.188,4.154h-9.658V49.547a1.091,1.091,0,0,1,.52-.935,7.216,7.216,0,0,1,2.389-1.142,6.384,6.384,0,0,1,3.946,0,6.718,6.718,0,0,1,2.284,1.142,1.237,1.237,0,0,1,.52.935Z" transform="translate(-177.589 2.896)" fill="#fff"/>
        </g>
        <g id="Grupo_1294" data-name="Grupo 1294" transform="translate(589.94 0)" clip-path="url(#clip-path)">
          <path id="Caminho_1412" data-name="Caminho 1412" d="M348.133,76.1H289.981V17.942h58.152Zm4.156-41.538a4.153,4.153,0,0,1,4.153-4.154V26.251a4.154,4.154,0,0,1,0-8.309V9.635h-8.309a4.154,4.154,0,1,1-8.307,0h-4.152a4.154,4.154,0,1,1-8.309,0h-4.154a4.153,4.153,0,1,1-8.306,0h-4.154a4.154,4.154,0,1,1-8.307,0H298.29a4.154,4.154,0,1,1-8.309,0h-8.307v8.307a4.154,4.154,0,0,1,0,8.309V30.4a4.154,4.154,0,0,1,0,8.309v4.153a4.154,4.154,0,0,1,0,8.309v4.153a4.154,4.154,0,1,1,0,8.307V67.79a4.154,4.154,0,1,1,0,8.307v8.309h8.307a4.154,4.154,0,1,1,8.309,0h4.153a4.154,4.154,0,1,1,8.307,0H314.9a4.153,4.153,0,1,1,8.306,0h4.154a4.154,4.154,0,1,1,8.309,0h4.152a4.154,4.154,0,1,1,8.307,0h8.309V76.1a4.154,4.154,0,0,1,0-8.307V63.635a4.154,4.154,0,0,1,0-8.307V51.175a4.154,4.154,0,0,1,0-8.309V38.713a4.153,4.153,0,0,1-4.153-4.154" transform="translate(-268.175 3.865)" fill="#fff"/>
          <path id="Caminho_1413" data-name="Caminho 1413" d="M318.218,36.7c-5.306-10.52-14.31-4.216-14.31,1.723,0,8.838,14.31,19.731,14.31,19.731s14.3-10.935,14.3-19.731c0-5.939-9-12.243-14.3-1.723" transform="translate(-259.256 12.457)" fill="#fff"/>
          <path id="Caminho_1414" data-name="Caminho 1414" d="M306.588,41.4a9.544,9.544,0,0,1,2.721-6.449,9.128,9.128,0,0,1,6.511-2.969c1.672,0,4.537.57,7.154,3.852a10.065,10.065,0,0,1,4.383-3.374c-.228-7.208-11.174-14.7-17.654-1.85-6.542-12.98-17.653-5.191-17.653,2.078,0,10.9,17.653,24.4,17.653,24.4s1.3-1.038,3.178-2.658c-3.322-3.874-6.293-8.589-6.293-13.033" transform="translate(-264.013 9.482)" fill="#fff"/>
        </g>
        <g id="Grupo_1296" data-name="Grupo 1296" transform="translate(777.637 2.802)" clip-path="url(#clip-path-5)">
          <path id="Caminho_1415" data-name="Caminho 1415" d="M417.823,40.319a12.306,12.306,0,1,0,12.253,12.358,12.276,12.276,0,0,0-12.253-12.358" transform="translate(-366.94 16.174)" fill="#fff"/>
          <path id="Caminho_1416" data-name="Caminho 1416" d="M420.856,32.833A22.846,22.846,0,1,0,443.7,55.679a22.912,22.912,0,0,0-22.846-22.846m0,39.462a16.616,16.616,0,1,1,16.615-16.616,16.664,16.664,0,0,1-16.615,16.616" transform="translate(-369.973 13.171)" fill="#fff"/>
          <path id="Caminho_1417" data-name="Caminho 1417" d="M418.318,39.485a28.36,28.36,0,0,1,11.317,5.3l12.774-28.869-5.816-8.724h-3.738l-8.1,17.758Z" transform="translate(-361.827 2.884)" fill="#fff"/>
          <path id="Caminho_1418" data-name="Caminho 1418" d="M417.181,39.485l-6.438-14.538-8.1-17.758H398.9l-5.711,8.724,12.773,28.869a28.686,28.686,0,0,1,11.215-5.3" transform="translate(-371.905 2.884)" fill="#fff"/>
          <path id="Caminho_1419" data-name="Caminho 1419" d="M428.64,19.725l5.711-12.462H403.2l5.712,12.462Z" transform="translate(-367.892 2.914)" fill="#fff"/>
        </g>
        <path id="Caminho_1949" data-name="Caminho 1949" d="M12.679,5.913V8.6H7.068v2.9h4.2v2.609h-4.2v5.571H3.714V5.913ZM16.131,7.6a2.033,2.033,0,0,1-1.442-.52A1.684,1.684,0,0,1,14.13,5.8a1.706,1.706,0,0,1,.559-1.3,2.033,2.033,0,0,1,1.442-.52,2.006,2.006,0,0,1,1.422.52,1.706,1.706,0,0,1,.559,1.3,1.684,1.684,0,0,1-.559,1.285A2.006,2.006,0,0,1,16.131,7.6ZM17.8,8.738V19.684H14.444V8.738Zm6.885,11.1a6.291,6.291,0,0,1-2.55-.49,4.355,4.355,0,0,1-1.765-1.344,3.534,3.534,0,0,1-.726-1.913h3.315a1.274,1.274,0,0,0,.53.922,1.874,1.874,0,0,0,1.157.353,1.652,1.652,0,0,0,.971-.245.751.751,0,0,0,.343-.638.736.736,0,0,0-.49-.7,9.907,9.907,0,0,0-1.589-.5,14.918,14.918,0,0,1-1.962-.579,3.389,3.389,0,0,1-1.354-.961A2.619,2.619,0,0,1,20,11.975a3.014,3.014,0,0,1,.52-1.716,3.5,3.5,0,0,1,1.53-1.226,5.859,5.859,0,0,1,2.4-.451A4.817,4.817,0,0,1,27.695,9.6a3.969,3.969,0,0,1,1.363,2.707h-3.1a1.336,1.336,0,0,0-.5-.9,1.735,1.735,0,0,0-1.108-.333,1.532,1.532,0,0,0-.9.226.72.72,0,0,0-.314.618.754.754,0,0,0,.5.706,8.012,8.012,0,0,0,1.559.471,17.061,17.061,0,0,1,1.981.618,3.418,3.418,0,0,1,1.344.981,2.775,2.775,0,0,1,.6,1.814,2.88,2.88,0,0,1-.539,1.716,3.568,3.568,0,0,1-1.55,1.187A5.927,5.927,0,0,1,24.684,19.841ZM32.863,7.6a2.033,2.033,0,0,1-1.442-.52A1.684,1.684,0,0,1,30.863,5.8a1.706,1.706,0,0,1,.559-1.3,2.033,2.033,0,0,1,1.442-.52,2.006,2.006,0,0,1,1.422.52,1.706,1.706,0,0,1,.559,1.3,1.684,1.684,0,0,1-.559,1.285A2.006,2.006,0,0,1,32.863,7.6Zm1.667,1.138V19.684H31.177V8.738Zm7.415,11.1a6.042,6.042,0,0,1-2.893-.687,5.027,5.027,0,0,1-2.02-1.962,5.861,5.861,0,0,1-.736-2.982,5.814,5.814,0,0,1,.745-2.972,5.058,5.058,0,0,1,2.04-1.971,6.481,6.481,0,0,1,5.806,0,5.058,5.058,0,0,1,2.04,1.971,5.814,5.814,0,0,1,.745,2.972,5.755,5.755,0,0,1-.755,2.972,5.107,5.107,0,0,1-2.06,1.971A6.157,6.157,0,0,1,41.946,19.841Zm0-2.9a2.185,2.185,0,0,0,1.638-.706,2.805,2.805,0,0,0,.677-2.02,2.858,2.858,0,0,0-.657-2.02,2.229,2.229,0,0,0-3.246-.01,2.879,2.879,0,0,0-.647,2.03,2.914,2.914,0,0,0,.638,2.02A2.063,2.063,0,0,0,41.946,16.938ZM52.813,5.168V19.684H49.459V5.168Zm7.415,14.673a6.042,6.042,0,0,1-2.893-.687,5.027,5.027,0,0,1-2.02-1.962,5.861,5.861,0,0,1-.736-2.982,5.814,5.814,0,0,1,.745-2.972,5.058,5.058,0,0,1,2.04-1.971,6.481,6.481,0,0,1,5.806,0,5.058,5.058,0,0,1,2.04,1.971,5.814,5.814,0,0,1,.745,2.972,5.755,5.755,0,0,1-.755,2.972,5.107,5.107,0,0,1-2.06,1.971A6.157,6.157,0,0,1,60.228,19.841Zm0-2.9a2.185,2.185,0,0,0,1.638-.706,2.805,2.805,0,0,0,.677-2.02,2.858,2.858,0,0,0-.657-2.02,2.229,2.229,0,0,0-3.246-.01,2.879,2.879,0,0,0-.647,2.03,2.914,2.914,0,0,0,.638,2.02A2.063,2.063,0,0,0,60.228,16.938Zm2.589-11L58.09,7.914V5.6l4.727-2.275ZM71.9,8.581a4.212,4.212,0,0,1,2.03.471,3.468,3.468,0,0,1,1.344,1.236V8.738h3.354V19.664a6.156,6.156,0,0,1-.6,2.736,4.56,4.56,0,0,1-1.824,1.952,5.9,5.9,0,0,1-3.05.726,6.344,6.344,0,0,1-3.943-1.148,4.331,4.331,0,0,1-1.726-3.109H70.8a1.587,1.587,0,0,0,.745.991A2.717,2.717,0,0,0,73,22.175a2.282,2.282,0,0,0,1.658-.6,2.566,2.566,0,0,0,.618-1.913v-1.55A3.72,3.72,0,0,1,73.92,19.36a4.086,4.086,0,0,1-2.02.481,4.485,4.485,0,0,1-2.452-.7,4.812,4.812,0,0,1-1.736-1.981,6.6,6.6,0,0,1-.638-2.972,6.542,6.542,0,0,1,.638-2.962,4.755,4.755,0,0,1,1.736-1.962A4.532,4.532,0,0,1,71.9,8.581Zm3.374,5.63a2.742,2.742,0,0,0-.7-1.981,2.357,2.357,0,0,0-3.394-.01,2.708,2.708,0,0,0-.7,1.971,2.778,2.778,0,0,0,.7,1.991,2.335,2.335,0,0,0,3.394.01A2.742,2.742,0,0,0,75.273,14.211ZM82.747,7.6a2.033,2.033,0,0,1-1.442-.52A1.684,1.684,0,0,1,80.746,5.8a1.706,1.706,0,0,1,.559-1.3,2.033,2.033,0,0,1,1.442-.52,2.006,2.006,0,0,1,1.422.52,1.706,1.706,0,0,1,.559,1.3,1.684,1.684,0,0,1-.559,1.285A2.006,2.006,0,0,1,82.747,7.6Zm1.667,1.138V19.684H81.06V8.738Zm1.765,5.473a6.125,6.125,0,0,1,.7-2.982,4.837,4.837,0,0,1,1.942-1.962,5.815,5.815,0,0,1,2.854-.687A5.427,5.427,0,0,1,95.115,9.66,5.09,5.09,0,0,1,96.93,12.7h-3.57a1.718,1.718,0,0,0-1.746-1.255,1.76,1.76,0,0,0-1.471.716,3.312,3.312,0,0,0-.549,2.05,3.312,3.312,0,0,0,.549,2.05,1.76,1.76,0,0,0,1.471.716,1.718,1.718,0,0,0,1.746-1.255h3.57a5.139,5.139,0,0,1-1.824,3.021,5.371,5.371,0,0,1-3.433,1.1,5.815,5.815,0,0,1-2.854-.687,4.837,4.837,0,0,1-1.942-1.962A6.125,6.125,0,0,1,86.18,14.211Zm11.868-.02a6.542,6.542,0,0,1,.638-2.962,4.755,4.755,0,0,1,1.736-1.962,4.532,4.532,0,0,1,2.452-.687,4.212,4.212,0,0,1,2.03.471,3.468,3.468,0,0,1,1.344,1.236V8.738H109.6V19.684h-3.354v-1.55a3.622,3.622,0,0,1-1.363,1.236,4.212,4.212,0,0,1-2.03.471,4.451,4.451,0,0,1-2.432-.7,4.812,4.812,0,0,1-1.736-1.981A6.6,6.6,0,0,1,98.048,14.191Zm8.2.02a2.742,2.742,0,0,0-.7-1.981,2.357,2.357,0,0,0-3.394-.01,2.708,2.708,0,0,0-.7,1.971,2.778,2.778,0,0,0,.7,1.991,2.335,2.335,0,0,0,3.394.01A2.743,2.743,0,0,0,106.247,14.211Z" transform="translate(36.519 117.629)" fill="#294667"/>
        <path id="Caminho_1950" data-name="Caminho 1950" d="M7.92,19.136a7.084,7.084,0,0,1-2.707-.49A4.412,4.412,0,0,1,3.3,17.194a3.966,3.966,0,0,1-.755-2.315h3.57a1.732,1.732,0,0,0,.53,1.167,1.7,1.7,0,0,0,1.177.4A1.841,1.841,0,0,0,9,16.105a1.148,1.148,0,0,0,.432-.951,1.126,1.126,0,0,0-.343-.843,2.769,2.769,0,0,0-.843-.549,13.569,13.569,0,0,0-1.422-.49,15.485,15.485,0,0,1-2.177-.824,4.023,4.023,0,0,1-1.452-1.216,3.389,3.389,0,0,1-.608-2.1A3.609,3.609,0,0,1,3.977,6.121,5.723,5.723,0,0,1,7.606,5.032a5.789,5.789,0,0,1,3.668,1.089,3.9,3.9,0,0,1,1.491,3.031H9.136A1.419,1.419,0,0,0,8.646,8.1a1.728,1.728,0,0,0-1.157-.383,1.443,1.443,0,0,0-.981.324,1.167,1.167,0,0,0-.373.932,1.155,1.155,0,0,0,.628,1.04,10.29,10.29,0,0,0,1.962.8,18.141,18.141,0,0,1,2.168.863,4.126,4.126,0,0,1,1.442,1.2,3.2,3.2,0,0,1,.608,2.02,3.965,3.965,0,0,1-.6,2.138,4.19,4.19,0,0,1-1.736,1.53A5.943,5.943,0,0,1,7.92,19.136Zm17.4-5.787a8.563,8.563,0,0,1-.059.981H17.669a2.281,2.281,0,0,0,.657,1.559,2.008,2.008,0,0,0,1.422.539,1.763,1.763,0,0,0,1.746-1.059h3.57a4.9,4.9,0,0,1-.991,1.942,4.96,4.96,0,0,1-1.795,1.354,5.765,5.765,0,0,1-2.413.49A5.871,5.871,0,0,1,17,18.469a4.883,4.883,0,0,1-1.962-1.962,6.056,6.056,0,0,1-.706-2.982,6.125,6.125,0,0,1,.7-2.982,4.82,4.82,0,0,1,1.952-1.962A5.912,5.912,0,0,1,19.866,7.9a5.853,5.853,0,0,1,2.825.667,4.789,4.789,0,0,1,1.932,1.9A5.776,5.776,0,0,1,25.319,13.349Zm-3.433-.883a1.725,1.725,0,0,0-.588-1.373,2.166,2.166,0,0,0-1.471-.51,2.125,2.125,0,0,0-1.422.49,2.178,2.178,0,0,0-.716,1.393ZM31.243,7.9a4.212,4.212,0,0,1,2.03.471A3.468,3.468,0,0,1,34.617,9.6V8.053h3.354V18.979a6.156,6.156,0,0,1-.6,2.736,4.56,4.56,0,0,1-1.824,1.952,5.9,5.9,0,0,1-3.05.726,6.344,6.344,0,0,1-3.943-1.148,4.331,4.331,0,0,1-1.726-3.109h3.315a1.587,1.587,0,0,0,.745.991,2.717,2.717,0,0,0,1.452.363,2.282,2.282,0,0,0,1.658-.6,2.566,2.566,0,0,0,.618-1.913v-1.55a3.72,3.72,0,0,1-1.354,1.246,4.086,4.086,0,0,1-2.02.481,4.485,4.485,0,0,1-2.452-.7,4.812,4.812,0,0,1-1.736-1.981,6.6,6.6,0,0,1-.638-2.972,6.542,6.542,0,0,1,.638-2.962,4.755,4.755,0,0,1,1.736-1.962A4.532,4.532,0,0,1,31.243,7.9Zm3.374,5.63a2.742,2.742,0,0,0-.7-1.981,2.357,2.357,0,0,0-3.394-.01,2.708,2.708,0,0,0-.7,1.971,2.778,2.778,0,0,0,.7,1.991,2.335,2.335,0,0,0,3.394.01A2.743,2.743,0,0,0,34.617,13.526Zm16.6-5.473V19H47.858V17.508a3.681,3.681,0,0,1-1.383,1.167,4.22,4.22,0,0,1-1.932.441,4.328,4.328,0,0,1-2.217-.559,3.769,3.769,0,0,1-1.491-1.618,5.507,5.507,0,0,1-.53-2.491V8.053h3.335V14A2.4,2.4,0,0,0,44.21,15.7a2,2,0,0,0,1.53.608,2.019,2.019,0,0,0,1.55-.608A2.4,2.4,0,0,0,47.858,14V8.053ZM56.98,9.877a4.425,4.425,0,0,1,1.471-1.422,3.794,3.794,0,0,1,1.962-.52v3.551H59.49a2.826,2.826,0,0,0-1.883.539,2.4,2.4,0,0,0-.628,1.893V19H53.625V8.053H56.98Zm4.374,3.629a6.542,6.542,0,0,1,.638-2.962,4.755,4.755,0,0,1,1.736-1.962A4.532,4.532,0,0,1,66.18,7.9a4.212,4.212,0,0,1,2.03.471A3.468,3.468,0,0,1,69.554,9.6V8.053h3.354V19H69.554v-1.55a3.622,3.622,0,0,1-1.363,1.236,4.212,4.212,0,0,1-2.03.471,4.451,4.451,0,0,1-2.432-.7,4.812,4.812,0,0,1-1.736-1.981A6.6,6.6,0,0,1,61.354,13.506Zm8.2.02a2.742,2.742,0,0,0-.7-1.981,2.357,2.357,0,0,0-3.394-.01,2.708,2.708,0,0,0-.7,1.971,2.778,2.778,0,0,0,.7,1.991,2.335,2.335,0,0,0,3.394.01A2.742,2.742,0,0,0,69.554,13.526ZM82.01,7.935a3.972,3.972,0,0,1,3.07,1.246A4.859,4.859,0,0,1,86.227,12.6V19H82.892V13.055a2.4,2.4,0,0,0-.569-1.707,2.229,2.229,0,0,0-3.06,0,2.4,2.4,0,0,0-.569,1.707V19H75.34V8.053h3.354V9.5a3.539,3.539,0,0,1,1.373-1.148A4.365,4.365,0,0,1,82.01,7.935Zm11.318,8.356a1.718,1.718,0,0,0,1.746-1.255h3.57a5.22,5.22,0,0,1-1.491,2.727,5.049,5.049,0,0,1-2.785,1.314V19.8a2.944,2.944,0,0,1,1.785.559,1.942,1.942,0,0,1,.765,1.677,1.958,1.958,0,0,1-.8,1.7,3.2,3.2,0,0,1-1.922.579H91.17V22.471h2.57a1.167,1.167,0,0,0,.588-.118.421.421,0,0,0,.2-.392.4.4,0,0,0-.2-.383,1.257,1.257,0,0,0-.588-.108H92.347V19.077a5.029,5.029,0,0,1-3.237-1.795,5.724,5.724,0,0,1-1.216-3.756,6.125,6.125,0,0,1,.7-2.982,4.837,4.837,0,0,1,1.942-1.962A5.815,5.815,0,0,1,93.387,7.9,5.427,5.427,0,0,1,96.83,8.975a5.09,5.09,0,0,1,1.814,3.04h-3.57a1.718,1.718,0,0,0-1.746-1.255,1.76,1.76,0,0,0-1.471.716,3.312,3.312,0,0,0-.549,2.05,3.312,3.312,0,0,0,.549,2.05A1.76,1.76,0,0,0,93.328,16.292Zm6.434-2.785a6.542,6.542,0,0,1,.638-2.962,4.755,4.755,0,0,1,1.736-1.962,4.532,4.532,0,0,1,2.452-.687,4.212,4.212,0,0,1,2.03.471A3.468,3.468,0,0,1,107.962,9.6V8.053h3.354V19h-3.354v-1.55a3.622,3.622,0,0,1-1.363,1.236,4.212,4.212,0,0,1-2.03.471,4.451,4.451,0,0,1-2.432-.7,4.812,4.812,0,0,1-1.736-1.981A6.6,6.6,0,0,1,99.762,13.506Zm8.2.02a2.742,2.742,0,0,0-.7-1.981,2.357,2.357,0,0,0-3.394-.01,2.708,2.708,0,0,0-.7,1.971,2.778,2.778,0,0,0,.7,1.991,2.335,2.335,0,0,0,3.394.01A2.743,2.743,0,0,0,107.962,13.526Z" transform="translate(219.6 118.314)" fill="#294667"/>
        <path id="Caminho_1951" data-name="Caminho 1951" d="M25.581,19.636a7.084,7.084,0,0,1-2.707-.49,4.412,4.412,0,0,1-1.913-1.452,3.966,3.966,0,0,1-.755-2.315h3.57a1.732,1.732,0,0,0,.53,1.167,1.7,1.7,0,0,0,1.177.4,1.841,1.841,0,0,0,1.177-.343,1.148,1.148,0,0,0,.432-.951,1.126,1.126,0,0,0-.343-.843,2.769,2.769,0,0,0-.843-.549,13.568,13.568,0,0,0-1.422-.49,15.485,15.485,0,0,1-2.177-.824,4.023,4.023,0,0,1-1.452-1.216,3.389,3.389,0,0,1-.608-2.1,3.609,3.609,0,0,1,1.393-3.011,5.723,5.723,0,0,1,3.629-1.089,5.789,5.789,0,0,1,3.668,1.089,3.9,3.9,0,0,1,1.491,3.031H26.8a1.419,1.419,0,0,0-.49-1.049,1.728,1.728,0,0,0-1.157-.383,1.443,1.443,0,0,0-.981.324,1.167,1.167,0,0,0-.373.932,1.155,1.155,0,0,0,.628,1.04,10.29,10.29,0,0,0,1.962.8,18.141,18.141,0,0,1,2.168.863,4.127,4.127,0,0,1,1.442,1.2A3.2,3.2,0,0,1,30.6,15.4a3.965,3.965,0,0,1-.6,2.138,4.19,4.19,0,0,1-1.736,1.53A5.943,5.943,0,0,1,25.581,19.636Zm12.064.02a6.042,6.042,0,0,1-2.893-.687,5.027,5.027,0,0,1-2.02-1.962A5.861,5.861,0,0,1,32,14.026a5.814,5.814,0,0,1,.745-2.972,5.058,5.058,0,0,1,2.04-1.971,6.481,6.481,0,0,1,5.806,0,5.058,5.058,0,0,1,2.04,1.971,5.814,5.814,0,0,1,.745,2.972A5.755,5.755,0,0,1,42.617,17a5.107,5.107,0,0,1-2.06,1.971A6.157,6.157,0,0,1,37.645,19.655Zm0-2.9a2.185,2.185,0,0,0,1.638-.706,2.805,2.805,0,0,0,.677-2.02,2.858,2.858,0,0,0-.657-2.02A2.229,2.229,0,0,0,36.056,12a2.879,2.879,0,0,0-.647,2.03,2.914,2.914,0,0,0,.638,2.02A2.063,2.063,0,0,0,37.645,16.752Zm6.846-2.727a6.125,6.125,0,0,1,.7-2.982,4.837,4.837,0,0,1,1.942-1.962A5.815,5.815,0,0,1,49.983,8.4a5.427,5.427,0,0,1,3.443,1.079,5.09,5.09,0,0,1,1.814,3.04H51.67a1.718,1.718,0,0,0-1.746-1.255,1.76,1.76,0,0,0-1.471.716,3.312,3.312,0,0,0-.549,2.05,3.312,3.312,0,0,0,.549,2.05,1.76,1.76,0,0,0,1.471.716,1.718,1.718,0,0,0,1.746-1.255h3.57a5.139,5.139,0,0,1-1.824,3.021,5.371,5.371,0,0,1-3.433,1.1,5.815,5.815,0,0,1-2.854-.687,4.837,4.837,0,0,1-1.942-1.962A6.125,6.125,0,0,1,44.491,14.026ZM58.712,7.415a2.033,2.033,0,0,1-1.442-.52,1.684,1.684,0,0,1-.559-1.285,1.706,1.706,0,0,1,.559-1.3,2.033,2.033,0,0,1,1.442-.52,2.006,2.006,0,0,1,1.422.52,1.706,1.706,0,0,1,.559,1.3A1.684,1.684,0,0,1,60.135,6.9,2.006,2.006,0,0,1,58.712,7.415ZM60.38,8.553V19.5H57.025V8.553Zm1.765,5.453a6.542,6.542,0,0,1,.638-2.962,4.755,4.755,0,0,1,1.736-1.962A4.532,4.532,0,0,1,66.971,8.4,4.212,4.212,0,0,1,69,8.867,3.468,3.468,0,0,1,70.345,10.1V8.553H73.7V19.5H70.345v-1.55a3.622,3.622,0,0,1-1.363,1.236,4.212,4.212,0,0,1-2.03.471,4.451,4.451,0,0,1-2.432-.7,4.812,4.812,0,0,1-1.736-1.981A6.6,6.6,0,0,1,62.145,14.006Zm8.2.02a2.742,2.742,0,0,0-.7-1.981,2.357,2.357,0,0,0-3.394-.01,2.708,2.708,0,0,0-.7,1.971,2.778,2.778,0,0,0,.7,1.991,2.335,2.335,0,0,0,3.394.01A2.742,2.742,0,0,0,70.345,14.026Zm9.141-9.043V19.5H76.131V4.983Z" transform="translate(410.235 117.814)" fill="#294667"/>
        <path id="Caminho_1952" data-name="Caminho 1952" d="M20.956,8.415V11.2h4.492V13.79H20.956v3.021h5.081V19.5H17.6V5.728h8.435V8.415Zm11.711,11.24a6.291,6.291,0,0,1-2.55-.49,4.355,4.355,0,0,1-1.765-1.344,3.534,3.534,0,0,1-.726-1.913h3.315a1.274,1.274,0,0,0,.53.922,1.874,1.874,0,0,0,1.157.353,1.652,1.652,0,0,0,.971-.245.751.751,0,0,0,.343-.638.736.736,0,0,0-.49-.7,9.907,9.907,0,0,0-1.589-.5,14.918,14.918,0,0,1-1.962-.579,3.389,3.389,0,0,1-1.354-.961,2.619,2.619,0,0,1-.569-1.775,3.014,3.014,0,0,1,.52-1.716,3.5,3.5,0,0,1,1.53-1.226,5.859,5.859,0,0,1,2.4-.451,4.817,4.817,0,0,1,3.246,1.02,3.969,3.969,0,0,1,1.363,2.707h-3.1a1.336,1.336,0,0,0-.5-.9,1.735,1.735,0,0,0-1.108-.333,1.532,1.532,0,0,0-.9.226.72.72,0,0,0-.314.618.754.754,0,0,0,.5.706,8.012,8.012,0,0,0,1.559.471,17.061,17.061,0,0,1,1.981.618,3.418,3.418,0,0,1,1.344.981,2.775,2.775,0,0,1,.6,1.814,2.88,2.88,0,0,1-.539,1.716,3.568,3.568,0,0,1-1.55,1.187A5.927,5.927,0,0,1,32.667,19.655Zm12.594-3V19.5H43.554a4.177,4.177,0,0,1-2.844-.893,3.688,3.688,0,0,1-1.02-2.913V11.338H38.356V8.553H39.69V5.885h3.354V8.553h2.2v2.785h-2.2v4.394a.919.919,0,0,0,.235.706,1.149,1.149,0,0,0,.785.216Zm3.551-9.239a2.033,2.033,0,0,1-1.442-.52A1.684,1.684,0,0,1,46.81,5.61a1.706,1.706,0,0,1,.559-1.3,2.033,2.033,0,0,1,1.442-.52,2.006,2.006,0,0,1,1.422.52,1.706,1.706,0,0,1,.559,1.3A1.684,1.684,0,0,1,50.233,6.9,2.006,2.006,0,0,1,48.811,7.415Zm1.667,1.138V19.5H47.124V8.553Zm16.4-.118a4.329,4.329,0,0,1,3.246,1.236A4.706,4.706,0,0,1,71.33,13.1V19.5H68V13.555a2.261,2.261,0,0,0-.559-1.638,2.338,2.338,0,0,0-3.08,0,2.261,2.261,0,0,0-.559,1.638V19.5H60.463V13.555a2.261,2.261,0,0,0-.559-1.638,2.338,2.338,0,0,0-3.08,0,2.261,2.261,0,0,0-.559,1.638V19.5H52.911V8.553h3.354V9.926A3.59,3.59,0,0,1,57.6,8.837a4.194,4.194,0,0,1,1.864-.4,4.533,4.533,0,0,1,2.207.53,3.8,3.8,0,0,1,1.52,1.51A4.409,4.409,0,0,1,64.739,9,4.187,4.187,0,0,1,66.878,8.435Zm6.14,5.571a6.542,6.542,0,0,1,.638-2.962,4.755,4.755,0,0,1,1.736-1.962A4.532,4.532,0,0,1,77.843,8.4a4.212,4.212,0,0,1,2.03.471A3.468,3.468,0,0,1,81.217,10.1V8.553h3.354V19.5H81.217v-1.55a3.622,3.622,0,0,1-1.363,1.236,4.212,4.212,0,0,1-2.03.471,4.451,4.451,0,0,1-2.432-.7,4.812,4.812,0,0,1-1.736-1.981A6.6,6.6,0,0,1,73.017,14.006Zm8.2.02a2.743,2.743,0,0,0-.7-1.981,2.357,2.357,0,0,0-3.394-.01,2.708,2.708,0,0,0-.7,1.971,2.778,2.778,0,0,0,.7,1.991,2.335,2.335,0,0,0,3.394.01A2.743,2.743,0,0,0,81.217,14.026Z" transform="translate(591.34 117.814)" fill="#294667"/>
        <path id="Caminho_1953" data-name="Caminho 1953" d="M9.96,19.5,7.1,14.3h-.8v5.2H2.937V5.728h5.63a6.2,6.2,0,0,1,2.776.569,3.919,3.919,0,0,1,1.716,1.559,4.352,4.352,0,0,1,.569,2.207,4.1,4.1,0,0,1-.775,2.452,4.17,4.17,0,0,1-2.285,1.53L13.745,19.5ZM6.291,11.927H8.371a1.9,1.9,0,0,0,1.383-.451,1.7,1.7,0,0,0,.461-1.275,1.65,1.65,0,0,0-.461-1.236,1.9,1.9,0,0,0-1.383-.451H6.291Zm19.753,1.922a8.563,8.563,0,0,1-.059.981H18.394a2.281,2.281,0,0,0,.657,1.559,2.008,2.008,0,0,0,1.422.539A1.763,1.763,0,0,0,22.22,15.87h3.57a4.9,4.9,0,0,1-.991,1.942A4.96,4.96,0,0,1,23,19.165a5.765,5.765,0,0,1-2.413.49,5.871,5.871,0,0,1-2.864-.687,4.883,4.883,0,0,1-1.962-1.962,6.056,6.056,0,0,1-.706-2.982,6.125,6.125,0,0,1,.7-2.982,4.82,4.82,0,0,1,1.952-1.962A5.912,5.912,0,0,1,20.591,8.4a5.853,5.853,0,0,1,2.825.667,4.789,4.789,0,0,1,1.932,1.9A5.775,5.775,0,0,1,26.045,13.849Zm-3.433-.883a1.725,1.725,0,0,0-.588-1.373,2.166,2.166,0,0,0-1.471-.51,2.125,2.125,0,0,0-1.422.49,2.178,2.178,0,0,0-.716,1.393Zm4.531,1.04a6.542,6.542,0,0,1,.638-2.962,4.755,4.755,0,0,1,1.736-1.962A4.532,4.532,0,0,1,31.969,8.4,4.212,4.212,0,0,1,34,8.867,3.468,3.468,0,0,1,35.343,10.1V8.553H38.7V19.5H35.343v-1.55a3.622,3.622,0,0,1-1.363,1.236,4.212,4.212,0,0,1-2.03.471,4.451,4.451,0,0,1-2.432-.7,4.812,4.812,0,0,1-1.736-1.981A6.6,6.6,0,0,1,27.143,14.006Zm8.2.02a2.743,2.743,0,0,0-.7-1.981,2.357,2.357,0,0,0-3.394-.01,2.708,2.708,0,0,0-.7,1.971,2.778,2.778,0,0,0,.7,1.991,2.335,2.335,0,0,0,3.394.01A2.743,2.743,0,0,0,35.343,14.026Zm9.141-9.043V19.5H41.13V4.983ZM48.6,7.415a2.033,2.033,0,0,1-1.442-.52A1.684,1.684,0,0,1,46.6,5.61a1.706,1.706,0,0,1,.559-1.3,2.033,2.033,0,0,1,1.442-.52,2.006,2.006,0,0,1,1.422.52,1.706,1.706,0,0,1,.559,1.3A1.684,1.684,0,0,1,50.025,6.9,2.006,2.006,0,0,1,48.6,7.415Zm1.667,1.138V19.5H46.916V8.553Zm5.571,8.18h4.747V19.5H52.095V16.831l4.551-5.512H52.134V8.553h8.356V11.22Zm5.924-2.727a6.542,6.542,0,0,1,.638-2.962,4.755,4.755,0,0,1,1.736-1.962A4.532,4.532,0,0,1,66.591,8.4a4.212,4.212,0,0,1,2.03.471A3.468,3.468,0,0,1,69.965,10.1V8.553h3.354V19.5H69.965v-1.55A3.622,3.622,0,0,1,68.6,19.185a4.212,4.212,0,0,1-2.03.471,4.451,4.451,0,0,1-2.432-.7A4.812,4.812,0,0,1,62.4,16.978,6.6,6.6,0,0,1,61.766,14.006Zm8.2.02a2.742,2.742,0,0,0-.7-1.981,2.357,2.357,0,0,0-3.394-.01,2.708,2.708,0,0,0-.7,1.971,2.778,2.778,0,0,0,.7,1.991,2.335,2.335,0,0,0,3.394.01A2.742,2.742,0,0,0,69.965,14.026Zm10.553,2.766a1.718,1.718,0,0,0,1.746-1.255h3.57a5.22,5.22,0,0,1-1.491,2.727,5.049,5.049,0,0,1-2.785,1.314V20.3a2.944,2.944,0,0,1,1.785.559,1.942,1.942,0,0,1,.765,1.677,1.958,1.958,0,0,1-.8,1.7,3.2,3.2,0,0,1-1.922.579H78.361V22.971h2.57a1.167,1.167,0,0,0,.588-.118.421.421,0,0,0,.2-.392.4.4,0,0,0-.2-.383,1.257,1.257,0,0,0-.588-.108H79.538V19.577A5.029,5.029,0,0,1,76.3,17.782a5.724,5.724,0,0,1-1.216-3.756,6.125,6.125,0,0,1,.7-2.982,4.837,4.837,0,0,1,1.942-1.962A5.815,5.815,0,0,1,80.577,8.4,5.427,5.427,0,0,1,84.02,9.475a5.09,5.09,0,0,1,1.814,3.04h-3.57a1.718,1.718,0,0,0-1.746-1.255,1.76,1.76,0,0,0-1.471.716,3.312,3.312,0,0,0-.549,2.05,3.312,3.312,0,0,0,.549,2.05A1.76,1.76,0,0,0,80.519,16.791Zm6.434-2.785a6.542,6.542,0,0,1,.638-2.962,4.755,4.755,0,0,1,1.736-1.962A4.532,4.532,0,0,1,91.778,8.4a4.212,4.212,0,0,1,2.03.471A3.468,3.468,0,0,1,95.152,10.1V8.553h3.354V19.5H95.152v-1.55a3.622,3.622,0,0,1-1.363,1.236,4.212,4.212,0,0,1-2.03.471,4.451,4.451,0,0,1-2.432-.7,4.812,4.812,0,0,1-1.736-1.981A6.6,6.6,0,0,1,86.953,14.006Zm8.2.02a2.743,2.743,0,0,0-.7-1.981,2.357,2.357,0,0,0-3.394-.01,2.708,2.708,0,0,0-.7,1.971,2.778,2.778,0,0,0,.7,1.991,2.335,2.335,0,0,0,3.394.01A2.743,2.743,0,0,0,95.152,14.026ZM89.209,7.631q.471-2.9,2.707-2.9a2.053,2.053,0,0,1,.755.128,7.534,7.534,0,0,1,.794.383,5.664,5.664,0,0,0,.569.284,1.18,1.18,0,0,0,.451.088q.726,0,.843-.883h1.726q-.471,2.9-2.707,2.9a2.053,2.053,0,0,1-.755-.128,7.533,7.533,0,0,1-.794-.383,5.664,5.664,0,0,0-.569-.284,1.18,1.18,0,0,0-.451-.088q-.726,0-.863.883Zm16.713,12.025a6.042,6.042,0,0,1-2.893-.687,5.027,5.027,0,0,1-2.02-1.962,5.862,5.862,0,0,1-.736-2.982,5.814,5.814,0,0,1,.745-2.972,5.058,5.058,0,0,1,2.04-1.971,6.481,6.481,0,0,1,5.806,0,5.058,5.058,0,0,1,2.04,1.971,5.814,5.814,0,0,1,.745,2.972A5.755,5.755,0,0,1,110.894,17a5.107,5.107,0,0,1-2.06,1.971A6.157,6.157,0,0,1,105.921,19.655Zm0-2.9a2.185,2.185,0,0,0,1.638-.706,2.805,2.805,0,0,0,.677-2.02,2.858,2.858,0,0,0-.657-2.02,2.229,2.229,0,0,0-3.246-.01,2.879,2.879,0,0,0-.647,2.03,2.914,2.914,0,0,0,.638,2.02A2.063,2.063,0,0,0,105.921,16.752ZM29.772,32.58a4.434,4.434,0,0,1-.549,2.187,4.038,4.038,0,0,1-1.687,1.6,5.939,5.939,0,0,1-2.825.608H22.632v4.943H19.277V28.146h5.434a6.184,6.184,0,0,1,2.785.569A3.91,3.91,0,0,1,29.2,30.285,4.561,4.561,0,0,1,29.772,32.58Zm-5.316,1.726a2,2,0,0,0,1.432-.451,1.962,1.962,0,0,0,0-2.55,2,2,0,0,0-1.432-.451H22.632v3.452Zm17.38,1.962a8.563,8.563,0,0,1-.059.981H34.185a2.281,2.281,0,0,0,.657,1.559,2.008,2.008,0,0,0,1.422.539,1.763,1.763,0,0,0,1.746-1.059h3.57a4.9,4.9,0,0,1-.991,1.942A4.96,4.96,0,0,1,38.8,41.583a5.765,5.765,0,0,1-2.413.49,5.871,5.871,0,0,1-2.864-.687,4.883,4.883,0,0,1-1.962-1.962,6.056,6.056,0,0,1-.706-2.982,6.125,6.125,0,0,1,.7-2.982A4.82,4.82,0,0,1,33.5,31.5a5.912,5.912,0,0,1,2.884-.687,5.853,5.853,0,0,1,2.825.667,4.789,4.789,0,0,1,1.932,1.9A5.776,5.776,0,0,1,41.836,36.267ZM38.4,35.385a1.725,1.725,0,0,0-.588-1.373,2.166,2.166,0,0,0-1.471-.51,2.125,2.125,0,0,0-1.422.49,2.178,2.178,0,0,0-.716,1.393Zm9.651,6.689a6.291,6.291,0,0,1-2.55-.49,4.355,4.355,0,0,1-1.765-1.344,3.534,3.534,0,0,1-.726-1.913h3.315a1.274,1.274,0,0,0,.53.922,1.874,1.874,0,0,0,1.157.353,1.652,1.652,0,0,0,.971-.245.751.751,0,0,0,.343-.638.736.736,0,0,0-.49-.7,9.907,9.907,0,0,0-1.589-.5,14.917,14.917,0,0,1-1.962-.579,3.389,3.389,0,0,1-1.354-.961,2.619,2.619,0,0,1-.569-1.775,3.014,3.014,0,0,1,.52-1.716,3.5,3.5,0,0,1,1.53-1.226,5.859,5.859,0,0,1,2.4-.451,4.817,4.817,0,0,1,3.246,1.02,3.969,3.969,0,0,1,1.363,2.707h-3.1a1.336,1.336,0,0,0-.5-.9,1.735,1.735,0,0,0-1.108-.333,1.532,1.532,0,0,0-.9.226.72.72,0,0,0-.314.618.754.754,0,0,0,.5.706,8.011,8.011,0,0,0,1.559.471,17.061,17.061,0,0,1,1.981.618,3.418,3.418,0,0,1,1.344.981,2.775,2.775,0,0,1,.6,1.814,2.88,2.88,0,0,1-.539,1.716,3.568,3.568,0,0,1-1.55,1.187A5.927,5.927,0,0,1,48.054,42.074Zm10.946,0a6.291,6.291,0,0,1-2.55-.49,4.355,4.355,0,0,1-1.765-1.344,3.534,3.534,0,0,1-.726-1.913h3.315a1.274,1.274,0,0,0,.53.922,1.874,1.874,0,0,0,1.157.353,1.652,1.652,0,0,0,.971-.245.751.751,0,0,0,.343-.638.736.736,0,0,0-.49-.7,9.907,9.907,0,0,0-1.589-.5,14.917,14.917,0,0,1-1.962-.579,3.389,3.389,0,0,1-1.354-.961,2.619,2.619,0,0,1-.569-1.775,3.014,3.014,0,0,1,.52-1.716,3.5,3.5,0,0,1,1.53-1.226,5.859,5.859,0,0,1,2.4-.451,4.817,4.817,0,0,1,3.246,1.02,3.969,3.969,0,0,1,1.363,2.707h-3.1a1.336,1.336,0,0,0-.5-.9,1.735,1.735,0,0,0-1.108-.333,1.532,1.532,0,0,0-.9.226.72.72,0,0,0-.314.618.754.754,0,0,0,.5.706,8.011,8.011,0,0,0,1.559.471,17.061,17.061,0,0,1,1.981.618,3.417,3.417,0,0,1,1.344.981,2.775,2.775,0,0,1,.6,1.814,2.88,2.88,0,0,1-.539,1.716,3.568,3.568,0,0,1-1.55,1.187A5.927,5.927,0,0,1,59,42.074Zm11.475,0a6.042,6.042,0,0,1-2.893-.687,5.027,5.027,0,0,1-2.02-1.962,6.353,6.353,0,0,1,.01-5.953,5.058,5.058,0,0,1,2.04-1.971,6.481,6.481,0,0,1,5.806,0,5.058,5.058,0,0,1,2.04,1.971,5.814,5.814,0,0,1,.745,2.972,5.755,5.755,0,0,1-.755,2.972,5.107,5.107,0,0,1-2.06,1.971A6.157,6.157,0,0,1,70.475,42.074Zm0-2.9a2.185,2.185,0,0,0,1.638-.706,2.805,2.805,0,0,0,.677-2.02,2.858,2.858,0,0,0-.657-2.02,2.229,2.229,0,0,0-3.246-.01,2.879,2.879,0,0,0-.647,2.03,2.914,2.914,0,0,0,.638,2.02A2.063,2.063,0,0,0,70.475,39.171Zm6.846-2.746a6.542,6.542,0,0,1,.638-2.962A4.755,4.755,0,0,1,79.695,31.5a4.532,4.532,0,0,1,2.452-.687,4.212,4.212,0,0,1,2.03.471,3.468,3.468,0,0,1,1.344,1.236v-1.55h3.354V41.917H85.521v-1.55A3.622,3.622,0,0,1,84.157,41.6a4.212,4.212,0,0,1-2.03.471,4.451,4.451,0,0,1-2.432-.7A4.812,4.812,0,0,1,77.959,39.4,6.6,6.6,0,0,1,77.321,36.424Zm8.2.02a2.743,2.743,0,0,0-.7-1.981,2.357,2.357,0,0,0-3.394-.01,2.708,2.708,0,0,0-.7,1.971,2.778,2.778,0,0,0,.7,1.991,2.335,2.335,0,0,0,3.394.01A2.743,2.743,0,0,0,85.521,36.444ZM94.662,27.4V41.917H91.307V27.4Z" transform="translate(769.008 117.814)" fill="#294667"/>
      </g>
    </g>
  </g>
</svg>
