<svg id="img-slide-5" xmlns="http://www.w3.org/2000/svg" xmlns:xlink="http://www.w3.org/1999/xlink" width="353.372" height="260.539" viewBox="0 0 353.372 260.539">
  <defs>
    <clipPath id="clip-path">
      <rect id="Retângulo_1074" data-name="Retângulo 1074" width="353.372" height="260.539" fill="none"/>
    </clipPath>
    <clipPath id="clip-path-4">
      <rect id="Retângulo_1070" data-name="Retângulo 1070" width="169.037" height="3.797" fill="none"/>
    </clipPath>
    <clipPath id="clip-path-5">
      <rect id="Retângulo_1071" data-name="Retângulo 1071" width="50.415" height="3.797" fill="none"/>
    </clipPath>
    <clipPath id="clip-path-6">
      <rect id="Retângulo_1072" data-name="Retângulo 1072" width="56.088" height="3.797" fill="none"/>
    </clipPath>
  </defs>
  <g id="Grupo_1882" data-name="Grupo 1882" clip-path="url(#clip-path)">
    <g id="Grupo_1870" data-name="Grupo 1870">
      <g id="Grupo_1869" data-name="Grupo 1869" clip-path="url(#clip-path)">
        <path id="Caminho_1614" data-name="Caminho 1614" d="M93.3,46.649A46.648,46.648,0,1,1,46.648,0,46.649,46.649,0,0,1,93.3,46.649" fill="#ebebeb"/>
        <path id="Caminho_1615" data-name="Caminho 1615" d="M89.988,46.991A42.215,42.215,0,1,1,47.773,4.776,42.215,42.215,0,0,1,89.988,46.991" transform="translate(-0.944 -0.812)" fill="#fff"/>
        <path id="Caminho_1616" data-name="Caminho 1616" d="M5.018,44.422s.012.234.013.69,0,1.142-.007,2.02q0,.669-.012,1.487c.022.546.1,1.142.151,1.788s.122,1.341.19,2.084a23.1,23.1,0,0,0,.4,2.347A40.456,40.456,0,0,0,9.7,66.394a42.2,42.2,0,0,0,9.948,12.683l1.736,1.479c.613.463,1.263.892,1.9,1.347.656.432,1.271.946,1.98,1.326l2.122,1.194,1.079.6,1.142.5,2.318,1.022c.789.319,1.621.546,2.441.828a21.5,21.5,0,0,0,2.514.745,39.2,39.2,0,0,0,5.293.968c.906.091,1.817.241,2.741.287l2.8.039c.47,0,.942.032,1.414,0l1.42-.125c.949-.094,1.91-.141,2.867-.274a44.621,44.621,0,0,0,5.729-1.28l1.432-.421c.239-.073.481-.136.718-.217l.7-.282,2.809-1.135c.922-.424,1.813-.931,2.728-1.4.449-.248.926-.453,1.356-.738l1.3-.848a47.664,47.664,0,0,0,5.048-3.749l2.3-2.219.578-.558.526-.609,1.049-1.228,1.054-1.233.94-1.331.94-1.34.471-.672c.144-.232.272-.476.409-.713l1.626-2.878,1.348-3.046A45.117,45.117,0,0,0,89.53,49.978a45.1,45.1,0,0,0-1.3-13.442l-.938-3.2-1.236-3.067-.311-.761-.379-.728L84.61,27.33l-.757-1.443-.885-1.361-.88-1.356-.442-.672-.5-.629-1.988-2.5a47.41,47.41,0,0,0-4.515-4.378l-1.18-1.011c-.39-.339-.835-.6-1.248-.909-.847-.581-1.664-1.2-2.523-1.741L67.055,9.837l-.655-.37c-.223-.111-.456-.205-.683-.309l-1.365-.6a44.577,44.577,0,0,0-5.514-2.019c-.931-.257-1.878-.43-2.806-.647l-1.392-.309c-.464-.092-.937-.12-1.4-.183l-2.782-.327c-.922-.075-1.844-.046-2.756-.075a39.351,39.351,0,0,0-5.373.268,21.587,21.587,0,0,0-2.591.411c-.85.173-1.706.289-2.529.5l-2.43.709-1.2.349-1.149.456L30.169,8.6c-.752.284-1.429.712-2.136,1.056-.695.367-1.4.708-2.064,1.087l-1.914,1.239a42.233,42.233,0,0,0-11.52,11.274A40.473,40.473,0,0,0,7.11,34.193a22.837,22.837,0,0,0-.7,2.274q-.247,1.091-.461,2.041c-.137.633-.291,1.214-.383,1.753q-.1.813-.183,1.475-.168,1.306-.257,2c-.061.451-.1.681-.1.681s.011-.232.056-.686.119-1.137.211-2.011q.072-.666.161-1.483c.085-.541.232-1.125.362-1.762s.284-1.321.442-2.053a22.842,22.842,0,0,1,.686-2.29A40.287,40.287,0,0,1,12.319,23.1,42.318,42.318,0,0,1,23.871,11.7L25.8,10.445c.672-.384,1.378-.73,2.077-1.1.711-.349,1.393-.783,2.151-1.072L32.3,7.35l1.157-.462,1.208-.357,2.45-.722c.831-.217,1.693-.338,2.551-.514a21.626,21.626,0,0,1,2.614-.421A39.658,39.658,0,0,1,47.7,4.591c.921.027,1.851,0,2.782.07l2.809.325c.471.062.948.09,1.417.183l1.406.309c.938.217,1.9.39,2.836.648a45.061,45.061,0,0,1,5.573,2.03l1.38.609c.23.1.464.2.691.31l.662.374,2.667,1.506c.868.546,1.7,1.169,2.551,1.755.418.307.868.576,1.263.917l1.194,1.02A48.028,48.028,0,0,1,79.5,19.067l2.012,2.526.506.636.447.679.891,1.37.895,1.375.767,1.458.765,1.468.384.735.315.769q.623,1.544,1.251,3.1l.95,3.232A45.579,45.579,0,0,1,90,50.009a45.532,45.532,0,0,1-3.085,13.3l-1.365,3.079L83.906,69.3c-.139.241-.268.486-.413.721l-.476.679-.95,1.355L81.115,73.4l-1.067,1.246-1.062,1.24-.533.615-.584.564L75.545,79.3a47.85,47.85,0,0,1-5.1,3.785l-1.317.855c-.436.286-.917.494-1.372.744-.926.469-1.826.979-2.758,1.406l-2.841,1.144-.7.283c-.239.081-.484.145-.725.218l-1.448.423a45,45,0,0,1-5.791,1.284c-.966.133-1.937.179-2.9.271l-1.434.122c-.476.031-.954,0-1.429,0L44.9,89.788c-.933-.049-1.852-.2-2.767-.295a39.482,39.482,0,0,1-5.34-.989,21.684,21.684,0,0,1-2.536-.759c-.827-.286-1.666-.518-2.461-.843l-2.335-1.037-1.15-.511-1.087-.609-2.136-1.212c-.714-.384-1.332-.9-1.992-1.342-.645-.461-1.3-.9-1.915-1.365l-1.744-1.5A42.327,42.327,0,0,1,9.469,66.514a40.283,40.283,0,0,1-3.9-11.642,22.853,22.853,0,0,1-.38-2.361q-.091-1.119-.169-2.093c-.046-.649-.115-1.247-.128-1.795q.017-.822.033-1.492.036-1.317.054-2.022c.015-.455.035-.687.035-.687" transform="translate(-0.832 -0.776)" fill="#e0e0e0"/>
        <path id="Caminho_1617" data-name="Caminho 1617" d="M75.527,51.9a8.45,8.45,0,0,1-1.5.1l-4.127.084c-3.5.048-8.382.081-13.89.09h-.272V51.9c0-.882,0-1.81,0-2.754,0-6.151.031-11.72.081-15.75.036-1.943.065-3.552.087-4.773a10.7,10.7,0,0,1,.107-1.751,10.7,10.7,0,0,1,.107,1.751c.022,1.221.051,2.83.087,4.773.05,4.03.081,9.6.081,15.75,0,.944,0,1.873,0,2.754l-.273-.273c5.508.009,10.388.042,13.89.09l4.127.083a8.488,8.488,0,0,1,1.5.1" transform="translate(-9.471 -4.567)" fill="#e0e0e0"/>
        <path id="Caminho_1618" data-name="Caminho 1618" d="M56.167,12.7a11.81,11.81,0,0,1,.275,3.567,11.814,11.814,0,0,1-.275,3.568,11.845,11.845,0,0,1-.275-3.568,11.842,11.842,0,0,1,.275-3.567" transform="translate(-9.497 -2.158)" fill="#e0e0e0"/>
        <path id="Caminho_1619" data-name="Caminho 1619" d="M78.514,19.6a11.475,11.475,0,0,1-2.292,2.68,11.475,11.475,0,0,1-2.68,2.292,11.519,11.519,0,0,1,2.292-2.68,11.5,11.5,0,0,1,2.68-2.292" transform="translate(-12.495 -3.329)" fill="#e0e0e0"/>
        <path id="Caminho_1620" data-name="Caminho 1620" d="M91.931,34.484a14.776,14.776,0,0,1-2.926,1.953,14.844,14.844,0,0,1-3.081,1.7,9.407,9.407,0,0,1,2.8-2.168,9.432,9.432,0,0,1,3.212-1.483" transform="translate(-14.6 -5.856)" fill="#e0e0e0"/>
        <path id="Caminho_1621" data-name="Caminho 1621" d="M99.159,56.527a21.76,21.76,0,0,1-4.864.275,21.754,21.754,0,0,1-4.864-.275,21.754,21.754,0,0,1,4.864-.275,21.76,21.76,0,0,1,4.864.275" transform="translate(-15.196 -9.558)" fill="#e0e0e0"/>
        <path id="Caminho_1622" data-name="Caminho 1622" d="M18.01,55.746a19.484,19.484,0,0,1-4.594.275,19.483,19.483,0,0,1-4.594-.275,19.431,19.431,0,0,1,4.594-.275,19.432,19.432,0,0,1,4.594.275" transform="translate(-1.499 -9.426)" fill="#e0e0e0"/>
        <path id="Caminho_1623" data-name="Caminho 1623" d="M24.145,72.249A20.114,20.114,0,0,1,20.674,75.4a20.042,20.042,0,0,1-3.816,2.721A20.229,20.229,0,0,1,20.33,74.97a20.266,20.266,0,0,1,3.816-2.721" transform="translate(-2.864 -12.275)" fill="#e0e0e0"/>
        <path id="Caminho_1624" data-name="Caminho 1624" d="M38.815,84.971a31.283,31.283,0,0,1-2.362,4.1,31.325,31.325,0,0,1-2.508,4.008,15.425,15.425,0,0,1,2.036-4.292,15.4,15.4,0,0,1,2.834-3.813" transform="translate(-5.766 -14.438)" fill="#e0e0e0"/>
        <path id="Caminho_1625" data-name="Caminho 1625" d="M56.167,99.388a21.819,21.819,0,0,1-.275-4.864,21.813,21.813,0,0,1,.275-4.864,21.754,21.754,0,0,1,.275,4.864,21.76,21.76,0,0,1-.275,4.864" transform="translate(-9.497 -15.235)" fill="#e0e0e0"/>
        <path id="Caminho_1626" data-name="Caminho 1626" d="M79.992,92.271a14.253,14.253,0,0,1-4.01-2.748,14.246,14.246,0,0,1-3.27-3.6,44.874,44.874,0,0,1,3.631,3.184,44.963,44.963,0,0,1,3.649,3.162" transform="translate(-12.354 -14.6)" fill="#e0e0e0"/>
        <path id="Caminho_1627" data-name="Caminho 1627" d="M92.1,79.563a16.9,16.9,0,0,1-3.221-2.832,16.909,16.909,0,0,1-2.833-3.222,16.909,16.909,0,0,1,3.222,2.833A16.931,16.931,0,0,1,92.1,79.563" transform="translate(-14.619 -12.49)" fill="#e0e0e0"/>
        <path id="Caminho_1628" data-name="Caminho 1628" d="M24.014,38.958A13.012,13.012,0,0,1,21.172,36.5a13.045,13.045,0,0,1-2.455-2.843,13,13,0,0,1,2.843,2.455,12.991,12.991,0,0,1,2.454,2.842" transform="translate(-3.179 -5.719)" fill="#e0e0e0"/>
        <path id="Caminho_1629" data-name="Caminho 1629" d="M38.664,23.572a12.512,12.512,0,0,1-2.794-2.394,12.474,12.474,0,0,1-2.406-2.783,12.512,12.512,0,0,1,2.794,2.394,12.474,12.474,0,0,1,2.406,2.783" transform="translate(-5.685 -3.124)" fill="#e0e0e0"/>
        <path id="Caminho_1630" data-name="Caminho 1630" d="M9.849,47.491A42.213,42.213,0,0,1,49.555,5.357c-.831-.049-1.667-.081-2.51-.081a42.215,42.215,0,0,0,0,84.431c.843,0,1.679-.032,2.51-.081A42.212,42.212,0,0,1,9.849,47.491" transform="translate(-0.821 -0.897)" fill="#f5f5f5"/>
        <path id="Caminho_1631" data-name="Caminho 1631" d="M278.363,92.058a23.41,23.41,0,0,1,10.578,10.006c-4.662.6-11.125.17-15.274-1.986a22.382,22.382,0,0,1-9.682-9.514,23.131,23.131,0,0,1,14.379,1.495" transform="translate(-44.856 -15.302)" fill="#455a64"/>
        <path id="Caminho_1632" data-name="Caminho 1632" d="M282.459,98.786a4.529,4.529,0,0,0-.643-.472c-.423-.291-1.048-.691-1.834-1.167a56.666,56.666,0,0,0-13.111-5.762c-.882-.257-1.6-.448-2.1-.563a4.5,4.5,0,0,0-.784-.155,4.449,4.449,0,0,0,.756.256c.491.145,1.2.364,2.073.644a68.363,68.363,0,0,1,13.072,5.745c.8.452,1.435.827,1.874,1.091a4.535,4.535,0,0,0,.7.383" transform="translate(-44.856 -15.406)" fill="#263238"/>
        <path id="Caminho_1633" data-name="Caminho 1633" d="M299.428,76.485a23.41,23.41,0,0,1,10.578,10.006c-4.662.6-11.125.169-15.274-1.986a23.2,23.2,0,0,1-9.787-9.764,23.538,23.538,0,0,1,14.483,1.745" transform="translate(-48.418 -12.624)" fill="#455a64"/>
        <path id="Caminho_1634" data-name="Caminho 1634" d="M303.546,83.252a4.527,4.527,0,0,0-.643-.472c-.423-.291-1.048-.691-1.835-1.167a56.624,56.624,0,0,0-13.111-5.762c-.882-.257-1.6-.448-2.1-.563a4.5,4.5,0,0,0-.784-.155,4.456,4.456,0,0,0,.755.256c.492.145,1.2.364,2.074.644a68.361,68.361,0,0,1,13.072,5.745c.8.452,1.435.827,1.874,1.091a4.539,4.539,0,0,0,.7.383" transform="translate(-48.439 -12.766)" fill="#263238"/>
        <path id="Caminho_1635" data-name="Caminho 1635" d="M298.1,51.287a23.809,23.809,0,0,0-3.6-14.2c-2.758,3.854-5.48,9.8-5.6,14.526a23.569,23.569,0,0,0,3.771,13.378A24.273,24.273,0,0,0,298.1,51.287" transform="translate(-49.089 -6.302)" fill="#455a64"/>
        <path id="Caminho_1636" data-name="Caminho 1636" d="M295.062,45.981a4.638,4.638,0,0,1,.1.8c.051.515.1,1.264.133,2.19A58.4,58.4,0,0,1,294,63.382c-.2.908-.379,1.639-.52,2.138a4.679,4.679,0,0,1-.241.771,4.582,4.582,0,0,1,.139-.794c.11-.506.261-1.242.436-2.151.352-1.819.76-4.345,1.013-7.157s.3-5.366.275-7.214c-.011-.924-.029-1.672-.047-2.189a4.719,4.719,0,0,1,0-.805" transform="translate(-49.827 -7.813)" fill="#263238"/>
        <path id="Caminho_1637" data-name="Caminho 1637" d="M276.364,64.982a23.809,23.809,0,0,0-3.6-14.2c-2.758,3.854-5.48,9.806-5.6,14.526a23.567,23.567,0,0,0,3.771,13.378,24.273,24.273,0,0,0,5.431-13.707" transform="translate(-45.395 -8.629)" fill="#455a64"/>
        <path id="Caminho_1638" data-name="Caminho 1638" d="M273.324,59.677a4.631,4.631,0,0,1,.1.8c.051.515.1,1.264.133,2.19a58.4,58.4,0,0,1-1.291,14.414c-.2.908-.379,1.639-.52,2.138a4.651,4.651,0,0,1-.241.771,4.582,4.582,0,0,1,.139-.794c.11-.506.261-1.242.436-2.151.352-1.819.76-4.345,1.013-7.157s.3-5.366.275-7.214c-.011-.924-.029-1.672-.047-2.189a4.727,4.727,0,0,1,0-.805" transform="translate(-46.134 -10.14)" fill="#263238"/>
        <path id="Caminho_1639" data-name="Caminho 1639" d="M252.585,97.743a3.851,3.851,0,0,1,.33-.515l1.007-1.438.735-1.034c.276-.372.6-.762.928-1.189.677-.845,1.413-1.837,2.327-2.848l1.405-1.613c.491-.559,1.043-1.1,1.591-1.687,1.086-1.181,2.342-2.344,3.646-3.588a82.576,82.576,0,0,1,19.22-13.248c1.622-.772,3.153-1.531,4.637-2.121.739-.3,1.441-.623,2.135-.881l2-.734c1.266-.491,2.448-.822,3.472-1.15.515-.158.991-.315,1.434-.439l1.221-.314,1.691-.423a3.811,3.811,0,0,1,.594-.123,3.748,3.748,0,0,1-.578.194l-1.672.486-1.21.344c-.44.134-.912.3-1.423.466-1.017.345-2.19.692-3.446,1.2l-1.984.753c-.689.265-1.387.589-2.12.9-1.473.6-2.994,1.365-4.605,2.142a85.152,85.152,0,0,0-19.144,13.2c-1.3,1.233-2.563,2.383-3.654,3.551-.552.577-1.106,1.115-1.6,1.666L258.1,90.887c-.924,1-1.672,1.975-2.362,2.806-.339.42-.665.8-.949,1.168l-.759,1.014-1.059,1.4a3.926,3.926,0,0,1-.389.473" transform="translate(-42.919 -10.943)" fill="#263238"/>
        <path id="Caminho_1640" data-name="Caminho 1640" d="M315.087,56.922a23.573,23.573,0,0,1,14.565.966c-3.273,3.423-8.607,7.2-13.21,8.175a23.338,23.338,0,0,1-13.793-1.282,24.123,24.123,0,0,1,12.438-7.858" transform="translate(-51.426 -9.549)" fill="#455a64"/>
        <path id="Caminho_1641" data-name="Caminho 1641" d="M322.5,60.064a4.608,4.608,0,0,0-.8.046c-.514.044-1.256.134-2.169.268a57.916,57.916,0,0,0-13.886,3.9c-.853.363-1.536.672-2,.9a4.616,4.616,0,0,0-.711.379,4.631,4.631,0,0,0,.753-.283c.476-.2,1.169-.483,2.028-.822,1.717-.678,4.119-1.541,6.827-2.3s5.2-1.272,7.017-1.585c.906-.158,1.643-.276,2.152-.353a4.58,4.58,0,0,0,.789-.15" transform="translate(-51.475 -10.205)" fill="#263238"/>
        <path id="Caminho_1642" data-name="Caminho 1642" d="M231.946,43.726a27.067,27.067,0,0,1,13.581-9.289c-.544,5.239-2.675,12.211-6.082,16.259a26.807,26.807,0,0,1-13.115,8.479,26.989,26.989,0,0,1,5.616-15.449" transform="translate(-38.458 -5.852)" fill="#455a64"/>
        <path id="Caminho_1643" data-name="Caminho 1643" d="M240.252,42.05a5.261,5.261,0,0,0-.678.6c-.425.4-1.02.989-1.738,1.741a65.724,65.724,0,0,0-9.626,13.031c-.506.906-.9,1.649-1.151,2.171a5.23,5.23,0,0,0-.37.823,5.253,5.253,0,0,0,.473-.769c.284-.5.7-1.231,1.232-2.121,1.055-1.781,2.59-4.2,4.466-6.741s3.738-4.717,5.131-6.251c.7-.767,1.267-1.382,1.666-1.8a5.213,5.213,0,0,0,.6-.678" transform="translate(-38.519 -7.145)" fill="#263238"/>
        <path id="Caminho_1644" data-name="Caminho 1644" d="M238.168,70.718a23.488,23.488,0,0,1,13.547-4.712c-1.665,4.3-5.064,9.709-8.859,12.343a23.247,23.247,0,0,1-12.969,4.135,23.7,23.7,0,0,1,8.281-11.766" transform="translate(-39.063 -11.216)" fill="#455a64"/>
        <path id="Caminho_1645" data-name="Caminho 1645" d="M245.829,70.957a4.6,4.6,0,0,0-.707.347c-.448.237-1.085.6-1.861,1.07a57.315,57.315,0,0,0-11.089,8.792c-.634.649-1.135,1.187-1.468,1.57a4.622,4.622,0,0,0-.5.61,4.518,4.518,0,0,0,.574-.54c.355-.361.875-.878,1.524-1.509,1.3-1.262,3.144-2.95,5.306-4.667s4.227-3.124,5.75-4.1c.761-.487,1.383-.876,1.815-1.138a4.611,4.611,0,0,0,.657-.436" transform="translate(-39.116 -12.057)" fill="#263238"/>
        <path id="Caminho_1646" data-name="Caminho 1646" d="M217.393,63.826a22.905,22.905,0,0,0-13.228-5.217c1.387,4.362,4.435,9.888,8.056,12.662a22.7,22.7,0,0,0,12.688,4.619,22.872,22.872,0,0,0-7.516-12.064" transform="translate(-34.692 -9.959)" fill="#455a64"/>
        <path id="Caminho_1647" data-name="Caminho 1647" d="M210.993,63.824a4.407,4.407,0,0,1,.684.374c.432.253,1.045.641,1.79,1.138a55.14,55.14,0,0,1,10.511,9.2c.593.672,1.058,1.229,1.366,1.624a4.417,4.417,0,0,1,.461.628,4.379,4.379,0,0,1-.54-.562c-.331-.374-.817-.91-1.425-1.564a66.492,66.492,0,0,0-10.48-9.172c-.729-.515-1.325-.926-1.739-1.205a4.373,4.373,0,0,1-.628-.46" transform="translate(-35.852 -10.845)" fill="#263238"/>
        <path id="Caminho_1648" data-name="Caminho 1648" d="M209.264,41.317a22.569,22.569,0,0,0-13.847-1.548c2.417,3.75,6.7,8.171,10.833,9.861a22.381,22.381,0,0,0,13.184,1.122,22.278,22.278,0,0,0-10.169-9.436" transform="translate(-33.205 -6.679)" fill="#455a64"/>
        <path id="Caminho_1649" data-name="Caminho 1649" d="M203.2,43.032a4.308,4.308,0,0,1,.742.178c.474.128,1.152.337,1.983.616a54.069,54.069,0,0,1,12.282,5.982c.731.481,1.312.887,1.7,1.18a4.215,4.215,0,0,1,.6.473,4.335,4.335,0,0,1-.652-.391c-.408-.268-1-.648-1.746-1.109A65.213,65.213,0,0,0,205.867,44c-.821-.3-1.489-.535-1.952-.691a4.325,4.325,0,0,1-.711-.273" transform="translate(-34.528 -7.312)" fill="#263238"/>
        <path id="Caminho_1650" data-name="Caminho 1650" d="M225.554,118.2a1.057,1.057,0,0,1,.02-.222l.094-.646c.095-.589.227-1.418.4-2.474.089-.539.188-1.136.295-1.786q.131-.986.283-2.133c.2-1.531.46-3.271.62-5.207q.143-1.451.3-3.035c.094-1.056.144-2.157.222-3.3.181-2.277.215-4.715.294-7.279a163.41,163.41,0,0,0-.661-16.654,152.939,152.939,0,0,0-2.567-16.443c-.6-2.486-1.1-4.864-1.759-7.041-.311-1.092-.587-2.156-.9-3.163s-.639-1.965-.938-2.884c-.564-1.849-1.214-3.471-1.744-4.911q-.4-1.076-.75-2c-.256-.6-.49-1.155-.7-1.654l-.96-2.3-.241-.6a1.043,1.043,0,0,1-.071-.21,1.009,1.009,0,0,1,.1.194l.274.586,1.022,2.269q.331.745.73,1.644.361.921.779,1.994c.549,1.435,1.217,3.054,1.8,4.9q.461,1.377.962,2.882c.318,1.008.6,2.071.919,3.164.668,2.179,1.189,4.56,1.8,7.049a148.52,148.52,0,0,1,2.6,16.48,158.052,158.052,0,0,1,.633,16.694c-.088,2.57-.133,5.013-.327,7.294-.085,1.141-.142,2.244-.242,3.3s-.218,2.069-.321,3.037c-.177,1.938-.46,3.678-.674,5.21q-.168,1.146-.313,2.132-.178.975-.325,1.783l-.463,2.465c-.053.266-.1.476-.129.639a1.084,1.084,0,0,1-.056.216" transform="translate(-36.836 -5.822)" fill="#263238"/>
        <path id="Caminho_1651" data-name="Caminho 1651" d="M165.494,85.25a23.411,23.411,0,0,0-12.642,7.224c4.388,1.688,10.77,2.793,15.311,1.678A22.393,22.393,0,0,0,179.819,87.2a23.127,23.127,0,0,0-14.325-1.945" transform="translate(-25.973 -14.416)" fill="#455a64"/>
        <path id="Caminho_1652" data-name="Caminho 1652" d="M161.4,91.194a4.535,4.535,0,0,1,.737-.307c.479-.183,1.182-.424,2.058-.7a56.607,56.607,0,0,1,14.1-2.5c.918-.042,1.662-.057,2.176-.051a4.493,4.493,0,0,1,.8.035,4.519,4.519,0,0,1-.8.071c-.512.025-1.253.07-2.167.136a68.3,68.3,0,0,0-14.059,2.494c-.88.252-1.59.465-2.079.618a4.553,4.553,0,0,1-.77.207" transform="translate(-27.425 -14.891)" fill="#263238"/>
        <path id="Caminho_1653" data-name="Caminho 1653" d="M148.673,65.165a23.4,23.4,0,0,0-12.642,7.224c4.388,1.688,10.77,2.792,15.311,1.678a23.211,23.211,0,0,0,11.817-7.176,23.536,23.536,0,0,0-14.486-1.727" transform="translate(-23.114 -10.996)" fill="#455a64"/>
        <path id="Caminho_1654" data-name="Caminho 1654" d="M144.581,71.118a4.532,4.532,0,0,1,.737-.307c.479-.183,1.182-.424,2.058-.7a56.589,56.589,0,0,1,14.1-2.5c.918-.042,1.662-.057,2.176-.051a4.494,4.494,0,0,1,.8.035,4.636,4.636,0,0,1-.8.071c-.512.025-1.253.07-2.167.136a68.275,68.275,0,0,0-14.059,2.494c-.88.252-1.59.464-2.079.617a4.543,4.543,0,0,1-.77.208" transform="translate(-24.567 -11.479)" fill="#263238"/>
        <path id="Caminho_1655" data-name="Caminho 1655" d="M158.9,41.079a23.816,23.816,0,0,1,6.853-12.944c1.769,4.4,3.009,10.823,2.011,15.438a23.571,23.571,0,0,1-6.826,12.108,24.275,24.275,0,0,1-2.039-14.6" transform="translate(-26.941 -4.781)" fill="#455a64"/>
        <path id="Caminho_1656" data-name="Caminho 1656" d="M164.7,36.825a4.624,4.624,0,0,0-.286.752c-.17.489-.393,1.2-.646,2.1a58.357,58.357,0,0,0-2.151,14.311c-.021.929-.019,1.681,0,2.2a4.635,4.635,0,0,0,.052.806,4.7,4.7,0,0,0,.051-.805c.013-.518.04-1.268.085-2.192.088-1.85.289-4.4.707-7.194s.979-5.284,1.438-7.074c.228-.9.423-1.618.563-2.116a4.653,4.653,0,0,0,.187-.784" transform="translate(-27.46 -6.257)" fill="#263238"/>
        <path id="Caminho_1657" data-name="Caminho 1657" d="M176.787,59.522a23.811,23.811,0,0,1,6.853-12.943c1.77,4.4,3.009,10.822,2.01,15.438a23.565,23.565,0,0,1-6.825,12.108,24.273,24.273,0,0,1-2.039-14.6" transform="translate(-29.98 -7.915)" fill="#455a64"/>
        <path id="Caminho_1658" data-name="Caminho 1658" d="M182.588,55.269a4.625,4.625,0,0,0-.286.752c-.171.489-.393,1.2-.646,2.1A58.359,58.359,0,0,0,179.5,72.428c-.021.929-.019,1.681,0,2.2a4.634,4.634,0,0,0,.052.806,4.707,4.707,0,0,0,.051-.805c.013-.518.041-1.268.085-2.193.087-1.849.288-4.4.706-7.193s.978-5.284,1.438-7.074c.228-.9.423-1.618.563-2.116a4.653,4.653,0,0,0,.187-.784" transform="translate(-30.499 -9.391)" fill="#263238"/>
        <path id="Caminho_1659" data-name="Caminho 1659" d="M185.122,94.905a3.9,3.9,0,0,0-.2-.579q-.235-.605-.638-1.634l-.469-1.178c-.181-.427-.4-.882-.621-1.375-.457-.98-.939-2.118-1.589-3.316l-.984-1.9c-.345-.658-.752-1.317-1.147-2.015-.776-1.4-1.722-2.831-2.7-4.348a82.622,82.622,0,0,0-15.546-17.413c-1.393-1.134-2.7-2.232-4.005-3.156-.645-.469-1.252-.945-1.866-1.361l-1.769-1.185c-1.114-.776-2.184-1.377-3.1-1.937-.463-.275-.889-.54-1.291-.765l-1.111-.594-1.544-.809a3.841,3.841,0,0,0-.549-.261,3.821,3.821,0,0,0,.516.325l1.51.868,1.095.619c.4.234.814.507,1.272.789.907.576,1.965,1.19,3.065,1.977l1.751,1.2c.607.42,1.209.9,1.848,1.373,1.29.931,2.587,2.035,3.969,3.17a85.174,85.174,0,0,1,15.484,17.345c.975,1.506,1.928,2.921,2.712,4.314.4.691.811,1.344,1.161,2l1,1.883c.662,1.187,1.157,2.313,1.631,3.284.231.488.457.938.647,1.36l.5,1.164.7,1.606a3.773,3.773,0,0,0,.267.552" transform="translate(-24.808 -8.679)" fill="#263238"/>
        <path id="Caminho_1660" data-name="Caminho 1660" d="M138.2,41.794a23.578,23.578,0,0,0-14.38-2.5c2.372,4.1,6.663,9.025,10.9,11.064a23.342,23.342,0,0,0,13.706,2.012A24.121,24.121,0,0,0,138.2,41.794" transform="translate(-21.04 -6.635)" fill="#455a64"/>
        <path id="Caminho_1661" data-name="Caminho 1661" d="M131.815,43.17a4.524,4.524,0,0,1,.767.234c.489.164,1.188.427,2.044.773A57.848,57.848,0,0,1,147.2,51.248c.743.554,1.333,1.016,1.73,1.35a4.628,4.628,0,0,1,.6.536,4.662,4.662,0,0,1-.665-.453c-.415-.307-1.021-.745-1.776-1.277-1.508-1.065-3.638-2.47-6.089-3.852a71.836,71.836,0,0,0-6.444-3.2c-.844-.368-1.531-.657-2.009-.852a4.6,4.6,0,0,1-.73-.332" transform="translate(-22.398 -7.335)" fill="#263238"/>
        <rect id="Retângulo_1066" data-name="Retângulo 1066" width="282.123" height="191.747" transform="translate(56.038 62.485)" fill="#91644a"/>
        <rect id="Retângulo_1067" data-name="Retângulo 1067" width="262.196" height="175.6" transform="translate(65.882 71.189)" fill="#455a64"/>
        <path id="Caminho_1662" data-name="Caminho 1662" d="M349.632,75.276s-.211.21-.638.6-1.077.984-1.914,1.75L339.61,84.4l-.026.023h-.035l-131,.126L77.353,84.422h-.036l-.026-.024L70,77.63l-1.868-1.75c-.418-.394-.623-.6-.623-.6s.227.187.655.569l1.9,1.717,7.35,6.7-.061-.023,131.194-.126,131,.125-.061.023,7.529-6.7,1.945-1.716c.438-.383.67-.569.67-.569" transform="translate(-11.471 -12.791)" fill="#263238"/>
        <path id="Caminho_1663" data-name="Caminho 1663" d="M349.632,304.706s-.232-.151-.67-.466l-1.947-1.409c-1.72-1.256-4.246-3.1-7.52-5.5l.053.017-131,.129-131.2-.129.052-.018-7.339,5.5-1.9,1.41c-.428.315-.655.466-.655.466s.208-.176.628-.5l1.875-1.446,7.288-5.563.023-.017h.03l131.2-.13,131,.129h.028l.023.017,7.469,5.565,1.919,1.445c.431.327.643.5.643.5" transform="translate(-11.471 -50.474)" fill="#263238"/>
        <path id="Caminho_1664" data-name="Caminho 1664" d="M395.193,86.185c.119,0,.215,39.234.215,87.62,0,48.4-.1,87.629-.215,87.629s-.216-39.226-.216-87.629c0-48.386.1-87.62.216-87.62" transform="translate(-67.115 -14.645)" fill="#263238"/>
        <rect id="Retângulo_1068" data-name="Retângulo 1068" width="306.794" height="6.341" transform="translate(45.776 254.198)" fill="#91644a"/>
        <path id="Caminho_1665" data-name="Caminho 1665" d="M362.812,306.621c0,.12-68.788.216-153.622.216-84.864,0-153.637-.1-153.637-.216s68.773-.216,153.637-.216c84.834,0,153.622.1,153.622.216" transform="translate(-9.44 -52.065)" fill="#263238"/>
        <path id="Caminho_1666" data-name="Caminho 1666" d="M79.323,85.762c.12,0,.216,39.7.216,88.651,0,48.973-.1,88.66-.216,88.66s-.216-39.687-.216-88.66c0-48.956.1-88.651.216-88.651" transform="translate(-13.442 -14.573)" fill="#263238"/>
      </g>
    </g>
    <text id="Autores_e" data-name="Autores e" transform="translate(152.072 139.253)" fill="#fff" font-size="33" font-family="ChalkBoard, Chalk Board"><tspan x="0" y="0">Au</tspan><tspan y="0" letter-spacing="-0.039em">t</tspan><tspan y="0">ores e</tspan></text>
    <text id="Conceitos_de_Liderança" data-name="Conceitos de Liderança" transform="translate(89.451 179.097)" fill="#fff" font-size="33" font-family="ChalkBoard, Chalk Board"><tspan x="0" y="0">Concei</tspan><tspan y="0" letter-spacing="-0.04em">t</tspan><tspan y="0">os de Liderança</tspan></text>
    <g id="Grupo_1881" data-name="Grupo 1881">
      <g id="Grupo_1880" data-name="Grupo 1880" clip-path="url(#clip-path)">
        <g id="Grupo_1873" data-name="Grupo 1873" transform="translate(117.88 187.709)" opacity="0.36">
          <g id="Grupo_1872" data-name="Grupo 1872">
            <g id="Grupo_1871" data-name="Grupo 1871" clip-path="url(#clip-path-4)">
              <path id="Caminho_1667" data-name="Caminho 1667" d="M345.442,227.3l-.16-.263-.856.335Z" transform="translate(-176.405 -226.288)" fill="#fff"/>
              <path id="Caminho_1668" data-name="Caminho 1668" d="M334.609,227c-.785.289-2.286.473-2.311,1.024l1.421-.492c.2.418,1.132.39,1.958.255l-.936.027c.242-.056.087-.32.329-.376,1.433.213,1.8-.361,3.124.095l-.076.044,1.044-.27c.33.062.2.257.093.332a9.9,9.9,0,0,1,2.9-.425c-.978-.754-2.772.588-3.745-.168l.074-.044c-1.219.281-2.637-.206-3.876,0" transform="translate(-174.345 -226.273)" fill="#fff"/>
              <path id="Caminho_1669" data-name="Caminho 1669" d="M340.663,227.781l-.081.019c0,.022.041.009.081-.019" transform="translate(-175.752 -226.414)" fill="#fff"/>
              <path id="Caminho_1670" data-name="Caminho 1670" d="M279.761,226.464l-.051.12c.076-.043.145-.087.051-.12" transform="translate(-165.409 -226.19)" fill="#fff"/>
              <path id="Caminho_1671" data-name="Caminho 1671" d="M298.361,228.291l-.075-.014c-.1.167-.047.125.075.014" transform="translate(-168.557 -226.498)" fill="#fff"/>
              <path id="Caminho_1672" data-name="Caminho 1672" d="M178.562,226.648l-.3-.174a.255.255,0,0,0,.3.174" transform="translate(-148.17 -226.192)" fill="#fff"/>
              <path id="Caminho_1673" data-name="Caminho 1673" d="M153.63,226.52l-.032.008.032-.008" transform="translate(-143.98 -226.2)" fill="#fff"/>
              <path id="Caminho_1674" data-name="Caminho 1674" d="M165.016,229.341l.041.153c.039-.086.017-.13-.041-.153" transform="translate(-145.92 -226.679)" fill="#fff"/>
              <path id="Caminho_1675" data-name="Caminho 1675" d="M156.834,229.7a3.048,3.048,0,0,0-.557-.072.853.853,0,0,0,.557.072" transform="translate(-144.435 -226.727)" fill="#fff"/>
              <path id="Caminho_1676" data-name="Caminho 1676" d="M153.839,226.443a1.165,1.165,0,0,1-.2.064.734.734,0,0,0,.2-.064" transform="translate(-143.986 -226.187)" fill="#fff"/>
              <path id="Caminho_1677" data-name="Caminho 1677" d="M177.156,229.681l.261.4c0-.13-.137-.267-.261-.4" transform="translate(-147.983 -226.737)" fill="#fff"/>
              <path id="Caminho_1678" data-name="Caminho 1678" d="M154.884,230.066a.757.757,0,0,0-.35-.142.452.452,0,0,0,.35.142" transform="translate(-144.139 -226.778)" fill="#fff"/>
              <path id="Caminho_1679" data-name="Caminho 1679" d="M333.441,227.031a4.51,4.51,0,0,0,.667-.057,1.673,1.673,0,0,0-.667.057" transform="translate(-174.539 -226.275)" fill="#fff"/>
              <path id="Caminho_1680" data-name="Caminho 1680" d="M222.634,230.117a.421.421,0,0,0-.12.153c.149-.035.157-.09.12-.153" transform="translate(-155.69 -226.811)" fill="#fff"/>
              <path id="Caminho_1681" data-name="Caminho 1681" d="M195.989,230.04l-.072.013a.505.505,0,0,0,.091.064Z" transform="translate(-151.171 -226.798)" fill="#fff"/>
              <path id="Caminho_1682" data-name="Caminho 1682" d="M203.768,229.962a.6.6,0,0,0-.085.086c.062-.037.079-.064.085-.086" transform="translate(-152.49 -226.785)" fill="#fff"/>
              <path id="Caminho_1683" data-name="Caminho 1683" d="M190.078,230.545a.894.894,0,0,0-.227.136Z" transform="translate(-150.14 -226.884)" fill="#fff"/>
              <path id="Caminho_1684" data-name="Caminho 1684" d="M177.278,229.382c.209.142-.015.276-.236.409,1.165.191,1.552-.3,2.764.04l-.569-.2a4.377,4.377,0,0,1,2.93.029l-.218.13c.745-.319,1.918.271,2.235,0-.305-.174.014-.274-.461-.437l1.9-.329.142.539,1-.18c-.246-.215,1.334.171,1.36-.339.568.2-.234.408-.437.618.561-.156.622.075,1.142-.236l.555.47,1.462-.338c-.074.045.017.078-.053.122.667-.4,1.7.233,2.547-.453-.044.025-.031.047-.044.078.466-.371,1.616-.1,2.037-.023.754-.091.313-.452.344-.651,2.185.121,1.487.09,3.322-.468,1.1.589-1.3.952.1,1.364a4.206,4.206,0,0,1,2.248-.628,22.778,22.778,0,0,1,3.643.763l-.1-.386,1.406-.215-.8.563c.224-.131.931-.377,1.4-.567,1.46-.337.828.843,1.961.254a.755.755,0,0,1,.106.123c.364-.3,1.324-.189,2.426-.3l-.384.5-.716-.105c.385.481,1.184-.083,1.879-.055.728-.169.366-.573.755-.719.264.022.656-.125.866.017.64.151.068.583-.134.793.554-.508.745-.442,1.979-.648.066.239-.024.345-.188.393a.938.938,0,0,0,.62-.384l.42.285c1.4.411,1.391-.921,3.07-.764-.447.266,1.447-.062,1.961.254-.582.08.279.725-.074,1.023,1.341.18.535-.586,1.622-.7l-.439.618c1.047-.27.255-.332,1.324-.525-.295.178.474.164-.16.364,1.394.06,1.032.006,2.258.077l.1-.594a.692.692,0,0,1,.682.3c-.17.012-.435-.009-.411.068.479.514.784-.291,1.338.181-.136-.188-.291-.451.217-.486-.163.364.779.337.816.491-.322-.251,1.089-.115,1.157-.512.589.273-.184.288-.217.486.481-.464,2.052-.066,2.5-.331.009.036.034.062.032.085.62-.282,1.65-.352,2.885-.761l-.423.343c1.246.148.757-.719,1.79-.714-.217.486,1.711-.041,1.25.5a5.3,5.3,0,0,0,1.676-.823c.589.272-1.116.666-.3.8l.877-.256.157.262c.036-.2.805-.213.765-.368.137.315.49.537.451.776.555-.1,1.336.206,1.8-.072l.042.154c.534-.585,1.689-.119,1.958-.726l.344.328c.846-.059.685-.674,1.077-.82a5.33,5.33,0,0,1,1.107-.038c-1.1.391.556.471.785.689a4.646,4.646,0,0,0,2.062-.34c-.522.31-.2.562-1.136.589.5.592,1.428-.139,2.481-.056l-.011.276c1.5-.184,1.546-.657,2.194-1.135.178.34.03.429-.4.774a27.923,27.923,0,0,0,3.705.013c.355.242.122.383-.252.488,1.164-.262,2.6.058,3.336-.548-.287.241.468.157.9.273,0-.125.082-.286.134-.268a7.031,7.031,0,0,1,3.119-.258l-.3.178c1.921.1,2.766-.939,4.864-.5.377.129-.388.5.383.481.374-.222.251-.684,1.229-.556l-.066.4.667-.4c-.344-.328-1.434-.212-.67-.579.876.369.764-.367,1.828.067a1.963,1.963,0,0,0-.742.5c2.23.468,3.121-.388,5.379.111,1.125-.314,2.571-.376,3.349-.667a1.172,1.172,0,0,1-.577,1.058c.96.051,1.411-.843,2.082-.262.461-.542,2.665-.344,2.895-1.1.039.154,1.034,0,.027.429,1.311-.249,1.725.662,2.326.658.337-.023-.386-.482.384-.5.095.032.116.11.212.141l.3-.177c.306.173-.334.375-.364.574,1.077.16,1.777-.438,3.051-.488l-.218.132,1.3.027-.074.044,1.046-.269-.032.2c.242-.056.3-.178.636-.2l-.109.242a3.974,3.974,0,0,1,2.17-.583l.115.109,1.419-.491c.756.261-.966.578.535.394l-.385.5c1.067-.193,1.225.071,1.955-.1-.33-.251-.835-.216-.461-.437.838.567,1.339-.146,2.143-.377a1.17,1.17,0,0,0-.963.293c-.432-.009-.156-.263-.421-.286l-.613.279-.174-.34-1.049.27c.066-.4-.964-.051-.554-.471-.733.169-1.152-.115-1.82.285-.5-.239.784-.291.257-.33a58.673,58.673,0,0,1-9.006.123l.3-.178c-.3.178-.688.324-.91.457-.517-.318-2.516-.725-3.219-.127-.1-.033.055-.121.129-.166-1.016.071-2.846-.348-4.292-.286-.611.632-2.174-.4-2.721.466l.3-.177c.492.238-.7.6-.9.808-.406-.559-.027-.429-.511-.944l.574.2-.126-.462c-1.836,1.187-3.417-.543-4.56.32.069-.045.051-.12.126-.164-.76-.261-1.293.325-1.852.482-.064-.231.333-.376.626-.554-1.336-.18-3.581.447-5.054.081-.52.311.2.417-.344.652-.455-.086-.778-.337-.217-.495-1.273-.576-4.2.375-6.153-.154-1.027.346-.385.5-1.959.725.369-.222-.374-.757.565-.784l.11-.243c-1.564-.046-3.651-.135-4.5.551-.049-.506-.284-.1-.874-.369-.24.056.022.076.119.11-.574.432-.867-.017-1.278.051l.146-.089-1.124.314c-.187-.066-.468-.162-.508-.317l.007.353c-.6,0-.292-.45-1.045-.358l.159.264c-.477-.164-1.241.2-1.341-.181-.02-.076.074-.044.243-.056-.747-.535-1.932.175-2.857-.074l.236.571c-.9.18-.55-.118-.516-.317-.6,0-.735-.182-1.527-.245-.392.145-.2.211-.331.376l-.809-.139.52-.31c-1.245.831-3.124-.094-3.954.669-.473-.163.422-.343.14-.439-1.477-.367-3.3.545-4.53.121-2-.407-4.306-.011-6.53-.286l.04.154-1.582-.123c-.427.343-1.5.183-2.17.584.055-.121-.086-.308.066-.4a4.268,4.268,0,0,1-1.8.009l.225-.132a15.106,15.106,0,0,0-4.34.187c-.51.036-.5-.24-.633-.426a5.555,5.555,0,0,0-2.134.384,2.355,2.355,0,0,1-.59-.271l-.328.374c-.361-.052-.083-.307-.369-.4-1.343.447-2.911.048-3.853.075l.134.187c-.39.145-1.148-.116-.684-.3-1.865-.222-2.767.587-5.289.489-.352-.68-2.274.2-2.645-.559-1.065.194-1.751-.11-2.494.334-.022-.077-.115-.11.054-.123-.422-.282-1.826-.066-2.894.125l-.06-.23c-.385.5-2.23.353-2.616.849-.118-.11.2-.21.353-.3-.558-.469-.975.227-1.692.12.054-.121-.157-.262-.007-.352-2.384-.537-5.844.372-8.953,0-.865-.018.314.525-.816.488-.326-.252.553-.509-.164-.616-.52.311-.711.247-1.406.217.127-.165.013-.275.5-.388-.4-.207-1.7.394-2.5-.018.04.153-.106.242-.255.33-1.178.436-2.7-.436-2.808-.193,0,0-.412.068-.055.121-.432-.009-1.053-.082-.945-.326a1.636,1.636,0,0,1-.765.369l.184-.288a6.658,6.658,0,0,1-.615.278l.305.175c-.495-.239-1.464.337-1.435-.212l.168-.013-.925-.247a1.945,1.945,0,0,1-1.365.369c-.239-.569-1.583-.123-2.373-.183l.035-.2c-.618.277-2.2.153-1.915.252-.6,0-1.414-.136-1.115-.314-.489.113-1.522.107-1.78.438l-.983-.479c-.59.707-1.966-.255-2.025.495-.547-.118-.42-.284-.8-.414a4.385,4.385,0,0,1-2.344.244l-.021-.078c-.792-.061-1.722.317-2.832.356l-.235-.571c-.582.081-.724.522-1.276.4-.129-.088-.007-.118.141-.149a3.627,3.627,0,0,1-1.686-.173c-.838.412-1.481.26-2.22.7-.652-.5.972-.224.413-.695a9.207,9.207,0,0,0-3.717.261c-.112-.108.034-.2.089-.319,0,0-2.66,1.372-2.164,1.916-.329.374-.7.6.417.909.372-.222,1.421-.491,1.617-.074l.066-.4c1.5-.184.131.813,1.936.8l-.38-.13c.34-.024.613-.278,1-.149.115.11-.13.165-.278.255l1.493-.536c.063.231.007.352-.291.53,1.371-.017-.276-.724,1.4-.568.3.173-.108.242-.329.375.775.337,1.3.027,2.1-.187.012.353-.517.311.144.538-.132-.185-.216-.494.293-.529-.246.357.387.19.882.281a.214.214,0,0,1,.132-.353c.243-.056.451.086.79.063l-.608-.349c.853-.335,1.336.18,1.985.331a.489.489,0,0,1-.3.131,3.755,3.755,0,0,0,2.251.122l-.074.045c1.629-.349-.5-.592,1.392-.921.623.074-.3,1.156,1.141.742-.681-.3.929-.731,1.75-.867l-.848.686a8.517,8.517,0,0,1,1.086-.115l-.042-.154c-.062-.583,1.06.082,1.655-.273-.739.8-.78.643-.916,1.435a3.149,3.149,0,0,1,2.3-.749l-.869.61c1.409.134,3.066-.765,4.223-1.276-.311.452.164.613-.34,1l1.354-.095-.383.5c.554-.509,1.161-.159,1.071-.819-.147.089-.128.165-.391.145.033-.2.268-.607.967-.578.471.164-.277.255-.145.441.449-.266.476.163.942-.027l-.417-.283c.328-.377.773-.016,1.234-.2-.554.162-.373.382-.165.611l-.03-.049c.336-.024.782-.29,1.014-.071l-.286.529.5-.387c.188.065.322.252.006.352,1.546.322-.044-1.133,1.981-.649-.034.2-.256.333-.8.214-.089.32.047.506.6.624a.145.145,0,0,1,0,.059,8.275,8.275,0,0,0,3.117-.318" transform="translate(-142.011 -226.134)" fill="#fff"/>
              <path id="Caminho_1685" data-name="Caminho 1685" d="M180.484,230.43a5.475,5.475,0,0,0-1.258.068c.106.1,1.287.262,1.258-.068" transform="translate(-148.335 -226.864)" fill="#fff"/>
              <path id="Caminho_1686" data-name="Caminho 1686" d="M280.661,229.75c-.071.016-.14.032-.208.053.072-.017.141-.035.208-.053" transform="translate(-165.535 -226.749)" fill="#fff"/>
              <path id="Caminho_1687" data-name="Caminho 1687" d="M286.039,229.535a.467.467,0,0,0-.235-.117c0,.1.057.183.235.117" transform="translate(-166.444 -226.692)" fill="#fff"/>
              <path id="Caminho_1688" data-name="Caminho 1688" d="M230.447,229.966l.019,0-.019,0" transform="translate(-157.038 -226.785)" fill="#fff"/>
              <path id="Caminho_1689" data-name="Caminho 1689" d="M261.046,230.049c.391-.169.537-.31.558-.447a.669.669,0,0,0-.558.447" transform="translate(-162.238 -226.724)" fill="#fff"/>
              <path id="Caminho_1690" data-name="Caminho 1690" d="M250.692,229.887c-.055.026-.113.05-.161.079.126-.029.16-.052.161-.079" transform="translate(-160.451 -226.772)" fill="#fff"/>
              <path id="Caminho_1691" data-name="Caminho 1691" d="M228.834,230.227a7.758,7.758,0,0,1,1.339-.261c-.369.095-1.081-.076-1.339.261" transform="translate(-156.764 -226.785)" fill="#fff"/>
              <path id="Caminho_1692" data-name="Caminho 1692" d="M292.554,228.863l-.447.266.468-.189Z" transform="translate(-167.516 -226.598)" fill="#fff"/>
              <path id="Caminho_1693" data-name="Caminho 1693" d="M287.464,229.072c-.187-.066-.92.1-.708.245a2.425,2.425,0,0,1,.708-.245" transform="translate(-166.6 -226.631)" fill="#fff"/>
              <path id="Caminho_1694" data-name="Caminho 1694" d="M268.319,228.776l-.178.287.37-.222Z" transform="translate(-163.443 -226.583)" fill="#fff"/>
            </g>
          </g>
        </g>
        <g id="Grupo_1876" data-name="Grupo 1876" transform="translate(119.723 192.075)" opacity="0.36">
          <g id="Grupo_1875" data-name="Grupo 1875">
            <g id="Grupo_1874" data-name="Grupo 1874" clip-path="url(#clip-path-5)">
              <path id="Caminho_1695" data-name="Caminho 1695" d="M204.9,232.559l-.048-.263-.255.335Z" transform="translate(-154.489 -231.547)" fill="#fff"/>
              <path id="Caminho_1696" data-name="Caminho 1696" d="M201.673,232.26c-.234.289-.681.473-.689,1.024l.423-.492c.059.418.338.39.584.255l-.28.026c.072-.055.027-.32.1-.375.427.213.536-.361.931.095l-.022.044.311-.27c.1.062.06.257.028.332.278-.219.488-.45.865-.425-.292-.755-.827.588-1.117-.168l.022-.045c-.364.281-.787-.206-1.156,0" transform="translate(-153.875 -231.532)" fill="#fff"/>
              <path id="Caminho_1697" data-name="Caminho 1697" d="M203.479,233.04l-.024.019c0,.022.012.009.024-.019" transform="translate(-154.294 -231.673)" fill="#fff"/>
              <path id="Caminho_1698" data-name="Caminho 1698" d="M185.315,231.723l-.015.12c.022-.043.043-.086.015-.12" transform="translate(-151.209 -231.449)" fill="#fff"/>
              <path id="Caminho_1699" data-name="Caminho 1699" d="M190.862,233.55c-.007-.006-.015-.009-.022-.014-.029.167-.014.125.022.014" transform="translate(-152.148 -231.757)" fill="#fff"/>
              <path id="Caminho_1700" data-name="Caminho 1700" d="M155.132,231.907l-.09-.174c.023.162.055.2.09.174" transform="translate(-146.068 -231.451)" fill="#fff"/>
              <path id="Caminho_1701" data-name="Caminho 1701" d="M147.7,231.779l-.009.008.009-.008" transform="translate(-144.818 -231.459)" fill="#fff"/>
              <path id="Caminho_1702" data-name="Caminho 1702" d="M151.092,234.6l.012.153c.012-.086,0-.131-.012-.153" transform="translate(-145.397 -231.938)" fill="#fff"/>
              <path id="Caminho_1703" data-name="Caminho 1703" d="M148.652,234.954a.347.347,0,0,0-.166-.072c.038.086.108.105.166.072" transform="translate(-144.954 -231.986)" fill="#fff"/>
              <path id="Caminho_1704" data-name="Caminho 1704" d="M147.759,231.7a.281.281,0,0,1-.061.064.173.173,0,0,0,.061-.064" transform="translate(-144.82 -231.446)" fill="#fff"/>
              <path id="Caminho_1705" data-name="Caminho 1705" d="M154.713,234.94l.078.4a1.647,1.647,0,0,0-.078-.4" transform="translate(-146.012 -231.996)" fill="#fff"/>
              <path id="Caminho_1706" data-name="Caminho 1706" d="M148.071,235.325a.256.256,0,0,0-.1-.142c.019.078.054.139.1.142" transform="translate(-144.866 -232.037)" fill="#fff"/>
              <path id="Caminho_1707" data-name="Caminho 1707" d="M201.324,232.289a.451.451,0,0,0,.2-.057.181.181,0,0,0-.2.057" transform="translate(-153.932 -231.534)" fill="#fff"/>
              <path id="Caminho_1708" data-name="Caminho 1708" d="M168.277,235.376a.727.727,0,0,0-.036.153.148.148,0,0,0,.036-.153" transform="translate(-148.311 -232.07)" fill="#fff"/>
              <path id="Caminho_1709" data-name="Caminho 1709" d="M160.33,235.3l-.022.013a.443.443,0,0,0,.027.064Z" transform="translate(-146.963 -232.057)" fill="#fff"/>
              <path id="Caminho_1710" data-name="Caminho 1710" d="M162.65,235.221a.834.834,0,0,0-.026.086.214.214,0,0,0,.026-.086" transform="translate(-147.356 -232.044)" fill="#fff"/>
              <path id="Caminho_1711" data-name="Caminho 1711" d="M158.567,235.8a.561.561,0,0,0-.067.136Z" transform="translate(-146.656 -232.143)" fill="#fff"/>
              <path id="Caminho_1712" data-name="Caminho 1712" d="M154.749,234.641a.472.472,0,0,1-.071.409c.348.191.463-.3.824.04l-.169-.2a.505.505,0,0,1,.874.028l-.066.131c.222-.319.573.271.667,0-.091-.174,0-.274-.138-.437l.565-.329.042.538.3-.179c-.073-.215.4.171.406-.339.169.2-.071.408-.13.618.167-.156.185.075.34-.236l.165.47.436-.338c-.022.045,0,.077-.016.122.2-.4.506.233.76-.453a.211.211,0,0,0-.012.078c.139-.371.481-.1.607-.023.225-.091.094-.452.1-.651.652.121.444.09.991-.468.327.589-.388.952.029,1.364a.959.959,0,0,1,.671-.628,3.482,3.482,0,0,1,1.087.763l-.03-.386.419-.215-.238.563a6.679,6.679,0,0,1,.418-.567c.435-.337.247.843.584.254a1.127,1.127,0,0,1,.032.123c.109-.3.394-.189.723-.3l-.115.5-.213-.105c.115.481.353-.083.561-.055.217-.169.109-.573.225-.719.079.022.2-.124.258.017.191.151.02.582-.04.793.165-.508.222-.442.59-.648.02.239-.007.345-.056.393a.6.6,0,0,0,.185-.384l.125.285c.418.411.415-.921.916-.765-.134.266.432-.062.585.254-.173.08.083.725-.022,1.023.4.18.159-.586.484-.7l-.131.618c.312-.27.076-.332.4-.525-.088.178.141.164-.048.364.416.06.308.006.674.077l.03-.594c.122-.069.169.2.2.3-.051.012-.129-.009-.123.068.143.514.234-.291.4.181-.041-.188-.087-.451.065-.486-.049.364.232.337.243.491-.1-.251.325-.115.345-.512.175.273-.056.288-.065.486.144-.464.612-.066.745-.332,0,.037.01.063.01.086.184-.282.492-.352.86-.761l-.126.343c.372.148.226-.719.534-.714-.065.486.51-.041.373.5a2.432,2.432,0,0,0,.5-.823c.175.272-.333.666-.09.8l.261-.257.046.262c.011-.2.24-.213.228-.368a5.345,5.345,0,0,1,.134.776c.166-.1.4.206.537-.072l.012.154c.159-.585.5-.119.584-.725l.1.328c.252-.059.2-.674.321-.82.1-.023.224-.091.33-.038-.329.391.165.471.234.689a.628.628,0,0,0,.614-.34c-.155.31-.058.562-.339.589.15.592.426-.139.74-.056l0,.276c.447-.184.461-.657.654-1.135a1.183,1.183,0,0,1-.118.774c.3.2.769-.026,1.1.013a.382.382,0,0,1-.076.488c.347-.262.777.058,1-.548-.086.241.139.157.268.273,0-.125.024-.286.04-.268.213-.246.682-.474.93-.258l-.09.178c.573.1.825-.939,1.451-.5.112.129-.116.5.114.481.112-.222.075-.684.367-.556l-.02.4.2-.4c-.1-.328-.427-.213-.2-.58.261.369.228-.366.545.068a1.476,1.476,0,0,0-.221.5c.665.468.931-.388,1.6.111.335-.314.767-.376,1-.667a2.627,2.627,0,0,1-.173,1.058c.286.051.421-.843.621-.262.138-.542.8-.344.863-1.1.012.154.309,0,.008.429.391-.249.515.662.694.658.1-.023-.115-.482.115-.5.028.032.034.11.063.141l.088-.177c.091.173-.1.375-.109.574.321.16.53-.438.911-.488l-.066.132.387.027-.022.044.312-.269-.009.2c.072-.056.089-.178.189-.2l-.032.242a.808.808,0,0,1,.647-.583l.034.109.423-.491c.226.261-.288.578.16.394l-.115.5c.319-.193.366.071.584-.1-.1-.252-.249-.216-.138-.437.251.567.4-.146.639-.377-.121.011-.2,0-.287.293-.129-.009-.046-.263-.125-.286l-.183.279-.052-.34-.312.27c.019-.4-.288-.051-.166-.471-.218.169-.344-.115-.542.285-.149-.239.233-.291.076-.33a5.314,5.314,0,0,1-2.686.123l.089-.178c-.089.178-.206.324-.271.457-.154-.318-.75-.725-.96-.127-.029-.033.017-.121.038-.166-.3.071-.848-.348-1.28-.286-.182.631-.648-.4-.811.466l.089-.177c.147.238-.209.6-.27.808-.12-.559-.008-.429-.152-.944l.171.2-.038-.462c-.547,1.187-1.019-.543-1.36.32.021-.045.015-.12.037-.164-.227-.261-.385.325-.552.482a.983.983,0,0,1,.187-.554c-.4-.18-1.068.447-1.507.081-.155.311.058.416-.1.652a.326.326,0,0,1-.065-.495c-.379-.576-1.253.375-1.835-.154-.305.346-.115.5-.584.725.11-.222-.111-.757.169-.784l.033-.242c-.467-.046-1.088-.135-1.343.551-.015-.506-.085-.1-.261-.369-.072.056.006.076.035.11-.171.432-.258-.017-.381.051l.043-.089-.335.314a.527.527,0,0,1-.152-.317l0,.353c-.181,0-.087-.45-.312-.358l.047.264c-.142-.164-.37.2-.4-.181-.007-.076.022-.044.072-.056-.222-.535-.577.174-.852-.074l.071.571c-.268.18-.164-.118-.154-.317-.18,0-.219-.182-.456-.245-.117.145-.061.211-.1.376l-.242-.139.155-.31c-.371.831-.932-.094-1.18.669-.141-.163.126-.343.042-.44-.44-.366-.984.545-1.351.122-.6-.408-1.284-.011-1.947-.286l.012.154-.471-.123c-.128.343-.448.183-.647.584.017-.121-.026-.308.02-.4-.2.047-.419.217-.538.009l.066-.132c-.444-.093-1.061-.1-1.294.187-.152.036-.149-.24-.188-.426-.257-.017-.426.139-.637.384a.946.946,0,0,1-.176-.271l-.1.374c-.108-.052-.025-.307-.11-.4-.4.447-.868.048-1.15.075l.04.187c-.116.145-.342-.116-.2-.3-.557-.222-.826.587-1.578.489-.1-.68-.678.2-.789-.559-.318.194-.522-.11-.744.334-.007-.077-.034-.11.016-.123-.125-.282-.545-.066-.863.125l-.017-.23c-.115.5-.666.353-.78.849-.035-.11.061-.21.105-.3-.167-.469-.291.226-.5.12.017-.121-.046-.262,0-.352-.711-.537-1.743.372-2.67,0-.258-.018.094.525-.243.488-.1-.252.164-.509-.049-.616-.155.311-.212.247-.419.217.037-.165,0-.275.149-.388-.12-.207-.509.394-.747-.019a.556.556,0,0,1-.076.33c-.351.436-.805-.436-.838-.193,0,0-.123.068-.017.121a.275.275,0,0,1-.282-.326c-.067.134-.126.344-.227.369l.055-.288c-.059.061-.126.243-.183.278l.09.175c-.147-.239-.437.337-.427-.212l.05-.013-.276-.247c-.11.222-.222.444-.408.369-.071-.569-.471-.123-.707-.183l.01-.2c-.184.277-.657.153-.571.252-.179,0-.422-.136-.332-.314-.146.113-.455.107-.531.438l-.293-.479c-.176.707-.586-.255-.6.495-.164-.118-.125-.284-.239-.414a.518.518,0,0,1-.7.244l-.007-.078c-.236-.061-.513.317-.844.356l-.071-.571c-.173.081-.216.522-.38.4a.1.1,0,0,1,.042-.149c-.162.114-.381-.032-.5-.173-.25.412-.442.26-.662.7-.194-.5.291-.224.124-.695-.355-.269-.718.012-1.109.261a.722.722,0,0,1,.027-.319s-.793,1.372-.645,1.916c-.1.374-.21.6.124.909.111-.222.424-.491.482-.074l.02-.4c.447-.184.039.813.577.8l-.113-.13c.1-.024.183-.278.3-.149.035.11-.038.165-.082.255l.445-.536a.854.854,0,0,1-.087.53c.409-.017-.082-.724.418-.568.09.173-.032.242-.1.375.232.337.387.027.626-.187,0,.353-.154.311.042.538-.039-.185-.064-.494.088-.529-.074.357.115.19.263.281a.455.455,0,0,1,.039-.353c.072-.056.134.085.236.063l-.182-.349c.255-.335.4.18.593.331a.2.2,0,0,1-.088.131c.2.144.413.429.671.122l-.022.045c.486-.349-.15-.592.415-.921.186.074-.089,1.156.34.742-.2-.3.277-.731.521-.867l-.252.686c.1.007.27-.183.324-.115l-.012-.154c-.019-.583.316.082.493-.273a4.069,4.069,0,0,0-.272,1.435c.172-.432.37-.832.686-.749l-.259.609c.42.135.914-.764,1.259-1.275-.093.452.049.613-.1,1l.4-.095-.114.5c.164-.509.346-.159.319-.819-.044.089-.038.165-.116.145.01-.2.08-.607.288-.578.141.163-.082.255-.043.441.134-.266.142.163.281-.027l-.125-.283c.1-.377.231-.016.368-.2-.165.162-.111.382-.049.611l-.009-.049c.1-.024.233-.291.3-.071l-.086.529.149-.387a.3.3,0,0,1,0,.352c.462.322-.012-1.133.591-.649-.01.2-.076.333-.24.214-.027.32.014.506.178.624a.356.356,0,0,1,0,.059c.314.008.723.036.93-.318" transform="translate(-144.231 -231.393)" fill="#fff"/>
              <path id="Caminho_1713" data-name="Caminho 1713" d="M155.705,235.689c-.168,0-.31,0-.375.068.032.1.383.262.375-.068" transform="translate(-146.117 -232.123)" fill="#fff"/>
              <path id="Caminho_1714" data-name="Caminho 1714" d="M185.583,235.009a.461.461,0,0,0-.062.053c.022-.017.042-.035.062-.053" transform="translate(-151.247 -232.008)" fill="#fff"/>
              <path id="Caminho_1715" data-name="Caminho 1715" d="M187.187,234.794a.221.221,0,0,0-.07-.117c0,.1.017.183.07.117" transform="translate(-151.518 -231.951)" fill="#fff"/>
              <path id="Caminho_1716" data-name="Caminho 1716" d="M170.607,235.225l.006,0-.006,0" transform="translate(-148.713 -232.044)" fill="#fff"/>
              <path id="Caminho_1717" data-name="Caminho 1717" d="M179.733,235.307a.833.833,0,0,0,.167-.447c-.074.042-.134.162-.167.447" transform="translate(-150.264 -231.982)" fill="#fff"/>
              <path id="Caminho_1718" data-name="Caminho 1718" d="M176.645,235.146a.735.735,0,0,0-.048.079.1.1,0,0,0,.048-.079" transform="translate(-149.731 -232.031)" fill="#fff"/>
              <path id="Caminho_1719" data-name="Caminho 1719" d="M170.126,235.487c.112-.172.271-.16.4-.261-.11.094-.322-.076-.4.261" transform="translate(-148.631 -232.044)" fill="#fff"/>
              <path id="Caminho_1720" data-name="Caminho 1720" d="M189.13,234.121l-.133.266.139-.19Z" transform="translate(-151.838 -231.857)" fill="#fff"/>
              <path id="Caminho_1721" data-name="Caminho 1721" d="M187.613,234.33c-.056-.066-.274.1-.211.245a.642.642,0,0,1,.211-.245" transform="translate(-151.565 -231.89)" fill="#fff"/>
              <path id="Caminho_1722" data-name="Caminho 1722" d="M181.9,234.035l-.053.287.11-.222Z" transform="translate(-150.623 -231.842)" fill="#fff"/>
            </g>
          </g>
        </g>
        <g id="Grupo_1879" data-name="Grupo 1879" transform="translate(226.773 192.075)" opacity="0.36">
          <g id="Grupo_1878" data-name="Grupo 1878">
            <g id="Grupo_1877" data-name="Grupo 1877" clip-path="url(#clip-path-6)">
              <path id="Caminho_1723" data-name="Caminho 1723" d="M340.7,232.559l-.053-.263-.284.335Z" transform="translate(-284.607 -231.547)" fill="#fff"/>
              <path id="Caminho_1724" data-name="Caminho 1724" d="M337.1,232.26c-.261.289-.759.473-.767,1.024l.471-.492c.066.418.376.39.65.255l-.31.026c.08-.055.029-.32.109-.375.476.213.6-.361,1.037.095l-.025.044.346-.27c.11.062.066.257.032.332a1.427,1.427,0,0,1,.962-.425c-.325-.755-.92.588-1.243-.168l.024-.045c-.4.281-.875-.206-1.286,0" transform="translate(-283.923 -231.532)" fill="#fff"/>
              <path id="Caminho_1725" data-name="Caminho 1725" d="M339.109,233.04l-.027.019c0,.022.014.009.027-.019" transform="translate(-284.39 -231.673)" fill="#fff"/>
              <path id="Caminho_1726" data-name="Caminho 1726" d="M318.9,231.723l-.017.12c.025-.043.048-.086.017-.12" transform="translate(-280.958 -231.449)" fill="#fff"/>
              <path id="Caminho_1727" data-name="Caminho 1727" d="M325.073,233.55c-.008-.006-.017-.009-.025-.014-.032.167-.016.125.025.014" transform="translate(-282.002 -231.757)" fill="#fff"/>
              <path id="Caminho_1728" data-name="Caminho 1728" d="M285.322,231.907l-.1-.174c.025.162.061.2.1.174" transform="translate(-275.238 -231.451)" fill="#fff"/>
              <path id="Caminho_1729" data-name="Caminho 1729" d="M277.05,231.779l-.011.008.011-.008" transform="translate(-273.847 -231.459)" fill="#fff"/>
              <path id="Caminho_1730" data-name="Caminho 1730" d="M280.828,234.6l.013.153c.013-.086.006-.131-.013-.153" transform="translate(-274.491 -231.938)" fill="#fff"/>
              <path id="Caminho_1731" data-name="Caminho 1731" d="M278.113,234.954a.41.41,0,0,0-.185-.072.133.133,0,0,0,.185.072" transform="translate(-273.998 -231.986)" fill="#fff"/>
              <path id="Caminho_1732" data-name="Caminho 1732" d="M277.119,231.7a.3.3,0,0,1-.067.064.19.19,0,0,0,.067-.064" transform="translate(-273.85 -231.446)" fill="#fff"/>
              <path id="Caminho_1733" data-name="Caminho 1733" d="M284.856,234.94l.086.4a1.46,1.46,0,0,0-.086-.4" transform="translate(-275.176 -231.996)" fill="#fff"/>
              <path id="Caminho_1734" data-name="Caminho 1734" d="M277.466,235.325a.259.259,0,0,0-.116-.142c.022.078.06.139.116.142" transform="translate(-273.9 -232.037)" fill="#fff"/>
              <path id="Caminho_1735" data-name="Caminho 1735" d="M336.713,232.289a.549.549,0,0,0,.222-.057.216.216,0,0,0-.222.057" transform="translate(-283.987 -231.534)" fill="#fff"/>
              <path id="Caminho_1736" data-name="Caminho 1736" d="M299.946,235.376a.665.665,0,0,0-.04.153.136.136,0,0,0,.04-.153" transform="translate(-277.733 -232.07)" fill="#fff"/>
              <path id="Caminho_1737" data-name="Caminho 1737" d="M291.105,235.3l-.024.013a.427.427,0,0,0,.031.064Z" transform="translate(-276.233 -232.057)" fill="#fff"/>
              <path id="Caminho_1738" data-name="Caminho 1738" d="M293.686,235.221a.818.818,0,0,0-.028.086.213.213,0,0,0,.028-.086" transform="translate(-276.671 -232.044)" fill="#fff"/>
              <path id="Caminho_1739" data-name="Caminho 1739" d="M289.144,235.8a.553.553,0,0,0-.076.136Z" transform="translate(-275.891 -232.143)" fill="#fff"/>
              <path id="Caminho_1740" data-name="Caminho 1740" d="M284.9,234.641c.07.142,0,.276-.078.409.387.191.515-.3.917.04l-.189-.2a.6.6,0,0,1,.973.028l-.073.131c.247-.319.637.271.742,0-.1-.174,0-.274-.153-.437l.628-.329.047.538.33-.179c-.081-.215.443.171.452-.339.188.2-.078.408-.145.618.187-.156.207.075.379-.236l.184.47.485-.338c-.025.045,0,.077-.018.122.222-.4.563.233.846-.453a.182.182,0,0,0-.015.078c.154-.371.536-.1.676-.023.251-.091.1-.452.115-.651.725.121.493.09,1.1-.468.364.589-.431.952.032,1.364a1.027,1.027,0,0,1,.746-.628,3.909,3.909,0,0,1,1.209.763l-.033-.386.467-.215-.266.563a6.959,6.959,0,0,1,.465-.567c.485-.337.275.843.651.254a1.176,1.176,0,0,1,.036.123c.12-.3.439-.189.8-.3l-.127.5-.237-.105c.128.481.393-.083.623-.055.242-.169.121-.573.251-.719.087.022.217-.124.287.017.212.151.022.582-.044.793.183-.508.247-.442.657-.648.022.239-.008.345-.063.393a.579.579,0,0,0,.206-.384l.139.285c.466.411.462-.921,1.018-.765-.149.266.48-.062.651.254-.193.08.093.725-.024,1.023.445.18.177-.586.538-.7l-.146.618c.348-.27.085-.332.44-.525-.1.178.157.164-.053.364.462.06.342.006.749.077l.033-.594c.136-.069.188.2.227.3-.056.012-.144-.009-.136.068.159.514.26-.291.444.181-.046-.188-.1-.451.071-.486-.054.364.258.337.271.491-.107-.251.361-.115.383-.512.2.273-.061.288-.072.486.16-.464.681-.066.828-.332,0,.037.012.063.011.086.206-.282.548-.352.958-.761l-.141.343c.413.148.251-.719.594-.714-.072.486.568-.041.415.5a2.412,2.412,0,0,0,.556-.823c.2.272-.37.666-.1.8l.291-.257.052.262c.012-.2.266-.213.254-.368a4.955,4.955,0,0,1,.149.776c.184-.1.443.206.6-.072l.014.154c.177-.585.56-.119.65-.725l.114.328c.281-.059.227-.674.357-.82.112-.023.25-.091.368-.038-.365.391.184.471.261.689.144.009.568-.042.684-.34-.173.31-.065.562-.377.589.167.592.474-.139.823-.056l0,.276c.5-.184.513-.657.728-1.135a1.081,1.081,0,0,1-.132.774c.332.2.855-.026,1.229.013a.357.357,0,0,1-.084.488c.386-.262.864.058,1.107-.548-.1.241.155.157.3.273,0-.125.027-.286.044-.268.237-.246.759-.474,1.035-.258l-.1.178c.638.1.917-.939,1.614-.5.125.129-.129.5.127.481.125-.222.083-.684.408-.556l-.022.4.222-.4c-.115-.328-.476-.213-.222-.58.29.369.253-.366.606.068-.081.041-.188.344-.246.5.74.468,1.036-.388,1.785.111.374-.314.853-.376,1.111-.667a2.371,2.371,0,0,1-.192,1.058c.319.051.469-.843.691-.262.153-.542.884-.344.96-1.1.012.154.343,0,.008.429.436-.249.573.662.772.658.112-.023-.128-.482.128-.5.031.032.038.11.07.141l.1-.177c.1.173-.11.375-.12.574.357.16.589-.438,1.013-.488l-.073.132.431.027-.025.044.347-.269-.01.2c.08-.056.1-.178.211-.2l-.037.242a.878.878,0,0,1,.721-.583l.038.109.471-.491c.252.261-.32.578.178.394l-.128.5c.354-.193.407.071.649-.1-.11-.252-.277-.216-.154-.437.279.567.445-.146.711-.377-.135.011-.227,0-.32.293-.143-.009-.051-.263-.139-.286l-.2.279-.057-.34-.349.27c.022-.4-.32-.051-.183-.471-.243.169-.383-.115-.6.285-.164-.239.261-.291.086-.33a6.552,6.552,0,0,1-2.988.123l.1-.178c-.1.178-.228.324-.3.457-.172-.318-.835-.725-1.068-.127-.032-.033.018-.121.043-.166-.338.071-.945-.348-1.424-.286-.2.631-.721-.4-.9.466l.1-.177c.164.238-.232.6-.3.808a8.986,8.986,0,0,0-.17-.944l.191.2-.042-.462c-.609,1.187-1.134-.543-1.513.32.023-.045.017-.12.042-.164-.252-.261-.429.325-.615.482a.933.933,0,0,1,.208-.554c-.443-.18-1.188.447-1.677.081-.172.311.066.416-.114.652a.307.307,0,0,1-.072-.495c-.423-.576-1.4.375-2.042-.154-.34.346-.128.5-.65.725.123-.222-.124-.757.188-.784l.037-.242c-.52-.046-1.212-.135-1.495.551-.017-.506-.095-.1-.291-.369-.08.056.007.076.04.11-.191.432-.288-.017-.424.051l.048-.089-.373.314a.513.513,0,0,1-.169-.317l0,.353c-.2,0-.1-.45-.347-.358l.052.264c-.158-.164-.411.2-.444-.181-.007-.076.024-.044.081-.056-.248-.535-.642.174-.948-.074l.078.571c-.3.18-.183-.118-.171-.317-.2,0-.244-.182-.507-.245-.13.145-.068.211-.11.376l-.269-.139.173-.31c-.413.831-1.037-.094-1.312.669-.157-.163.14-.343.046-.44-.49-.366-1.094.545-1.5.122-.665-.408-1.429-.011-2.167-.286l.012.154-.525-.123c-.142.343-.5.183-.72.584.017-.121-.029-.308.022-.4-.223.047-.467.217-.6.009l.075-.132c-.494-.093-1.181-.1-1.44.187-.169.036-.165-.24-.21-.426-.286-.017-.473.139-.708.384a.947.947,0,0,1-.2-.271l-.109.374c-.12-.052-.027-.307-.122-.4-.446.447-.966.048-1.279.075l.045.187c-.129.145-.381-.116-.227-.3-.619-.222-.918.587-1.756.489-.116-.68-.754.2-.877-.559-.354.194-.581-.11-.828.334-.007-.077-.038-.11.018-.123-.14-.282-.606-.066-.96.125l-.02-.23c-.128.5-.74.353-.867.849-.039-.11.067-.21.117-.3-.185-.469-.324.226-.562.12.018-.121-.051-.262,0-.352-.791-.537-1.939.372-2.971,0-.287-.018.1.525-.271.488-.108-.252.183-.509-.055-.616-.173.311-.236.247-.467.217.042-.165,0-.275.167-.388-.134-.207-.566.394-.831-.019a.51.51,0,0,1-.085.33c-.391.436-.9-.436-.931-.193,0,0-.137.068-.018.121-.144-.009-.349-.082-.314-.326-.075.134-.141.344-.254.369l.061-.288c-.066.061-.14.243-.205.278l.1.175c-.164-.239-.486.337-.476-.212l.056-.013-.307-.247c-.123.222-.247.444-.452.369-.08-.569-.525-.123-.788-.183l.012-.2c-.205.277-.73.153-.635.252-.2,0-.469-.136-.37-.314-.162.113-.506.107-.59.438l-.326-.479c-.2.707-.652-.255-.672.495-.182-.118-.139-.284-.266-.414a.61.61,0,0,1-.778.244l-.007-.078c-.262-.061-.571.317-.94.356l-.078-.571c-.193.081-.24.522-.423.4-.042-.088,0-.118.047-.149-.18.114-.423-.032-.559-.173-.278.412-.491.26-.737.7-.216-.5.323-.224.138-.695-.4-.269-.8.012-1.234.261-.037-.109.011-.2.029-.319,0,0-.882,1.372-.718,1.916-.109.374-.232.6.139.909.124-.222.471-.491.536-.074l.022-.4c.5-.184.043.813.642.8l-.126-.13c.113-.024.2-.278.33-.149.038.11-.043.165-.092.255l.5-.536a.778.778,0,0,1-.1.53c.455-.017-.091-.724.465-.568.1.173-.037.242-.11.375.257.337.431.027.7-.187,0,.353-.172.311.047.538-.043-.185-.071-.494.1-.529-.081.357.129.19.293.281a.418.418,0,0,1,.044-.353c.081-.056.149.085.261.063l-.2-.349c.283-.335.443.18.658.331a.2.2,0,0,1-.1.131c.227.144.461.429.747.122l-.025.045c.54-.349-.166-.592.462-.921.207.074-.1,1.156.379.742-.227-.3.308-.731.58-.867l-.281.686c.11.007.3-.183.36-.115l-.013-.154c-.021-.583.351.082.549-.273a3.717,3.717,0,0,0-.3,1.435c.192-.432.413-.832.763-.749l-.288.609c.467.135,1.017-.764,1.4-1.275-.1.452.055.613-.113,1l.449-.095-.127.5c.183-.509.385-.159.355-.819-.049.089-.042.165-.13.145.011-.2.089-.607.321-.578.156.163-.092.255-.049.441.149-.266.159.163.313-.027l-.139-.283c.11-.377.257-.016.409-.2-.183.162-.123.382-.055.611l-.01-.049c.112-.024.26-.291.337-.071l-.1.529.166-.387a.276.276,0,0,1,0,.352c.513.322-.015-1.133.657-.649-.012.2-.085.333-.267.214-.029.32.016.506.2.624a.354.354,0,0,1,0,.059c.349.008.8.036,1.034-.318" transform="translate(-273.194 -231.393)" fill="#fff"/>
              <path id="Caminho_1741" data-name="Caminho 1741" d="M285.961,235.689a.646.646,0,0,0-.418.068c.036.1.427.262.418-.068" transform="translate(-275.292 -232.123)" fill="#fff"/>
              <path id="Caminho_1742" data-name="Caminho 1742" d="M319.2,235.009a.51.51,0,0,0-.069.053c.024-.017.046-.035.069-.053" transform="translate(-281 -232.008)" fill="#fff"/>
              <path id="Caminho_1743" data-name="Caminho 1743" d="M320.985,234.794a.216.216,0,0,0-.078-.117c0,.1.019.183.078.117" transform="translate(-281.301 -231.951)" fill="#fff"/>
              <path id="Caminho_1744" data-name="Caminho 1744" d="M302.539,235.225l.007,0-.007,0" transform="translate(-278.18 -232.044)" fill="#fff"/>
              <path id="Caminho_1745" data-name="Caminho 1745" d="M312.692,235.307a.781.781,0,0,0,.185-.447c-.081.042-.149.162-.185.447" transform="translate(-279.906 -231.982)" fill="#fff"/>
              <path id="Caminho_1746" data-name="Caminho 1746" d="M309.256,235.146a.765.765,0,0,0-.053.079c.041-.029.053-.052.053-.079" transform="translate(-279.313 -232.031)" fill="#fff"/>
              <path id="Caminho_1747" data-name="Caminho 1747" d="M302,235.487c.125-.172.3-.16.444-.261-.122.094-.359-.076-.444.261" transform="translate(-278.089 -232.044)" fill="#fff"/>
              <path id="Caminho_1748" data-name="Caminho 1748" d="M323.147,234.121l-.148.266.155-.19Z" transform="translate(-281.657 -231.857)" fill="#fff"/>
              <path id="Caminho_1749" data-name="Caminho 1749" d="M321.457,234.33c-.062-.066-.3.1-.235.245a.682.682,0,0,1,.235-.245" transform="translate(-281.353 -231.89)" fill="#fff"/>
              <path id="Caminho_1750" data-name="Caminho 1750" d="M315.1,234.035l-.059.287.123-.222Z" transform="translate(-280.306 -231.842)" fill="#fff"/>
            </g>
          </g>
        </g>
      </g>
    </g>
  </g>
</svg>
