<svg id="img-slide-20" xmlns="http://www.w3.org/2000/svg" xmlns:xlink="http://www.w3.org/1999/xlink" width="284.56" height="309.22" viewBox="0 0 284.56 309.22">
  <defs>
    <clipPath id="clip-path">
      <rect id="Retângulo_1075" data-name="Retângulo 1075" width="284.56" height="309.22" fill="none"/>
    </clipPath>
  </defs>
  <path id="Caminho_1751" data-name="Caminho 1751" d="M110.075,62.514l18.289-19.226,15.9,6.658,21.018-16.458L143.766,48.252,125.984,40.73Z" transform="translate(-56.153 -17.083)" fill="#ff9739"/>
  <path id="Caminho_1752" data-name="Caminho 1752" d="M146.705,92.8l10.315-7.426,8.913,3.654,10.143-7.445-10.264,9.769L157.283,87.2Z" transform="translate(-74.839 -41.619)" fill="#ff9739"/>
  <g id="Grupo_1884" data-name="Grupo 1884">
    <g id="Grupo_1883" data-name="Grupo 1883" clip-path="url(#clip-path)">
      <path id="Caminho_1753" data-name="Caminho 1753" d="M103.078,140.035s17.333,46.368,17.333,49.482S99.953,215.9,99.953,215.9L98.16,202.584l8.557-19.6L93.96,151.427Z" transform="translate(-47.932 -71.437)" fill="#384945"/>
      <path id="Caminho_1754" data-name="Caminho 1754" d="M82.565,581.467l-1.946,9.6,9.085.621,14,.957s-.6-2.434-7.208-4.323-7.239-4.644-7.239-4.644l1.321-5.973-6.046-1.371Z" transform="translate(-41.126 -294.008)" fill="#4c5063"/>
      <path id="Caminho_1755" data-name="Caminho 1755" d="M83.2,313.66s1.813,70.385.62,95.6.553,38.352.553,38.352l-10.221,2s-8.119-47.686-6.3-65.277-2.5-60.137-2.5-60.137l4.164-12.258Z" transform="translate(-33.338 -159.133)" fill="#464f7c"/>
      <path id="Caminho_1756" data-name="Caminho 1756" d="M47.987,584.138l-.724,5.284s2.575,7.954,6.2,11.569,11.167,3.584,11.064.4-8.284-12.771-8.409-16.59-8.134-.664-8.134-.664" transform="translate(-24.11 -297.364)" fill="#4c5063"/>
      <path id="Caminho_1757" data-name="Caminho 1757" d="M64.568,298.842l-8.44,31.211s-9.775,42.094-10.967,67.311S46.544,439.7,46.544,439.7L35.493,442s-8.119-51.97-6.3-69.562-2.5-60.137-2.5-60.137l4.165-12.258Z" transform="translate(-13.616 -152.449)" fill="#5d69a5"/>
      <path id="Caminho_1758" data-name="Caminho 1758" d="M40.467,128.908l9.3-.575,9.572,1.816s8.167,1.714,9.683,3.916c6.686,9.714,2.113,47.826,2.113,47.826l-5.651,43.318-38.28-5.826,6.94-28.6-2.575-51.479a9.747,9.747,0,0,1,8.893-10.4" transform="translate(-13.88 -65.467)" fill="#709289"/>
      <path id="Caminho_1759" data-name="Caminho 1759" d="M69.15,90.1s-5.193,5.081-6.847,14.835-.765,8.433-.765,8.433c1.76,3.118,13.545,5,16.059,1.934,0,0-3.406-11.844-.209-16.542Z" transform="translate(-31.271 -45.963)" fill="#fd5e5a"/>
      <path id="Caminho_1760" data-name="Caminho 1760" d="M72.956,90.1a23.816,23.816,0,0,0-4.2,6.355c3.117,4.6,7.591,6.945,11.1,7.121a9.7,9.7,0,0,1,1.332-4.816Z" transform="translate(-35.077 -45.963)" fill="#e55757"/>
      <path id="Caminho_1761" data-name="Caminho 1761" d="M100.319,95.9l.018-.126c-.128-.011-.259-.016-.391-.016-1.77,0-3.205.967-3.205,2.159,0,1.023,1.057,1.879,2.474,2.1-1.106-.34-1.875-1.092-1.875-1.965,0-1.141,1.315-2.076,2.98-2.154" transform="translate(-49.35 -48.851)" fill="#172866"/>
      <path id="Caminho_1762" data-name="Caminho 1762" d="M79.3,73.966c0-1.129,1.574-2.047,3.534-2.074.318-2.1.5-3.838.5-3.838l2.926-.863s-2.2-.987-3.2-5.159c-.217-.908,1.007-4,.772-4.986-1.32-5.518-6.21-7.81-10.246-8.309-8.217-1.016-13.579,12.45-10,21.447S77.5,81.764,80.859,79.146a7.069,7.069,0,0,0,1.22-3.161c-1.6-.217-2.784-1.039-2.784-2.019" transform="translate(-31.861 -24.835)" fill="#fd5e5a"/>
      <path id="Caminho_1763" data-name="Caminho 1763" d="M76.754,39.21l-.165-.69a5.747,5.747,0,0,0-3.086,3.2c-.484,1.539.117,2.668.975,4.017l.171-.113a6.583,6.583,0,0,1-.811-1.871,3.5,3.5,0,0,1,1.308-3.523,6.5,6.5,0,0,1,1.508-.977c.071-.034.17-.064.1-.043" transform="translate(-37.408 -19.65)" fill="#052f43"/>
      <path id="Caminho_1764" data-name="Caminho 1764" d="M99.123,73.617a1,1,0,0,1-1.09.759.831.831,0,0,1-.557-1.1,1,1,0,0,1,1.09-.759.83.83,0,0,1,.557,1.1" transform="translate(-49.704 -36.986)" fill="#052f43"/>
      <path id="Caminho_1765" data-name="Caminho 1765" d="M91.951,66.859a7.531,7.531,0,0,1,3.519.8,6.966,6.966,0,0,1,1.716,1.313l.565-.7s-3.07-2.588-5.8-1.416" transform="translate(-46.907 -33.951)" fill="#2846a6"/>
      <path id="Caminho_1766" data-name="Caminho 1766" d="M69.443,40.016,81.185,42.26l-.916,2.311,2.517-1.947,3.877,1.912s-5.8,3.011-7.154,4.992c0,0-7.525-.809-8.8,1.065s.59,8.432-1.784,9-3.653,1.184-4.327,2.174-1.6,8.163-1.6,8.163l-.485.976s-5.975-10.944-6-15.869,3.618-13.868,3.618-13.868l4.372-1.045,1.042,1.992Z" transform="translate(-28.825 -20.414)" fill="#0c2051"/>
      <path id="Caminho_1767" data-name="Caminho 1767" d="M72.024,73.65s-2.381-5.1-3.965-2.77.416,6.923,1.588,6.643S72.8,76.9,72.024,73.65" transform="translate(-34.42 -35.848)" fill="#fd5e5a"/>
      <path id="Caminho_1768" data-name="Caminho 1768" d="M72.671,76.346s-1.733-2.657-2.512-1.512-.518,3.891.852,3.563,1.9-1.052,1.66-2.051" transform="translate(-35.569 -38.029)" fill="#e55757"/>
      <path id="Caminho_1769" data-name="Caminho 1769" d="M44.511,129.507c2.043,0,21.494,9.492,28.965,14.329l-1.627,12.635s-27.4-2.822-33.347-9.044-4.05-17.92,6.009-17.92" transform="translate(-17.925 -66.066)" fill="#a9beb8"/>
      <path id="Caminho_1770" data-name="Caminho 1770" d="M190.562,141.872s-1.7,1.152-.76,2.316,8.241-.111,8.241-.111l-1.463-1.815Z" transform="translate(-96.68 -72.374)" fill="#fd5e5a"/>
      <path id="Caminho_1771" data-name="Caminho 1771" d="M101.936,141.83c5.885-5.078,35.114-12.844,35.114-12.844s6.1-5.237,7.507-5.866,16.657.433,16.511,2.371-9.32-1.089-10.051.556a5.683,5.683,0,0,1,2.208,2.617c.81,1.856-.919,5.06-1.227,5.753s-1.154-1.772-5.729-.9-37.415,22.543-42.771,20.425c-2.847-1.126-7.053-7.376-1.563-12.115" transform="translate(-50.636 -62.715)" fill="#fc7575"/>
      <path id="Caminho_1772" data-name="Caminho 1772" d="M106.2,169.865c.991-.421,4.023-.521,3.775,2.4s-.836,1.921-1.427,2.4-3.36-4.366-2.347-4.8" transform="translate(-54.065 -86.542)" fill="#fd5e5a"/>
      <path id="Caminho_1773" data-name="Caminho 1773" d="M254.816,611.747c0,3.491-57.042,6.321-127.408,6.321S0,615.238,0,611.747s57.043-6.321,127.408-6.321,127.408,2.83,127.408,6.321" transform="translate(0 -308.848)" fill="#4b6172"/>
      <path id="Caminho_1774" data-name="Caminho 1774" d="M319.118,144.236c-.057.279-.1.491-.114.608-.241,1.684-15.276-7.287-21.293-10.94s-2.218-8.469-4.987-11.83-4.59-4.962-4.983-4.68,2.3,3.7,2.242,4.088-2.618,1.993-4.892.6-4-10.557-5.181-10.7-.335,4.307.2,6.018-.31.688-1.755-1.066-2.616-3.936-2.783-2.77,2,5.773,2,5.773-1.857-3.318-2.409-2.923,9.056,14.183,14.334,18.309c4.325,3.38,18.971,22.648,27.989,27.815,1.241-5.161,4.29-13.691,1.636-18.307" transform="translate(-140.356 -56.821)" fill="#fc7575"/>
      <path id="Caminho_1775" data-name="Caminho 1775" d="M382.265,130.208l-19.087,20.1-2.032,3.262-1.588,20.921s17.405-7.606,29.652-14.324-6.945-29.96-6.945-29.96" transform="translate(-183.423 -66.423)" fill="#2a182d"/>
      <path id="Caminho_1776" data-name="Caminho 1776" d="M464.966,585.473l1.056,5.143s-2.729,7.871-6.866,11.533-13.027,3.9-13.027.779,9.274-12.782,9.274-16.522,9.563-.934,9.563-.934" transform="translate(-227.585 -298.154)" fill="#223b7c"/>
      <path id="Caminho_1777" data-name="Caminho 1777" d="M400.314,583.078l1.584,9.507H374.61s.88-2.338,8.8-3.741,8.265-4.052,8.265-4.052l-.518-5.922,7.218-.936Z" transform="translate(-191.101 -294.824)" fill="#223b7c"/>
      <path id="Caminho_1778" data-name="Caminho 1778" d="M422.161,308.3,398.032,386.82l5.9,60.425H393.543l-14.26-63.9,14.26-73.174Z" transform="translate(-193.485 -157.277)" fill="#6d70a8"/>
      <path id="Caminho_1779" data-name="Caminho 1779" d="M423.964,301.981l5.95,18.529s10.717,53.216,13.094,77.842,0,41.458,0,41.458l13.116,1.87s7.57-51.121,4.754-68.265.629-58.913.629-58.913l-4.7-17.106Z" transform="translate(-216.278 -151.712)" fill="#7c8bde"/>
      <path id="Caminho_1780" data-name="Caminho 1780" d="M426.369,117.921s-14.085-2.46-26.109,5.846c-10.817,7.471-3.006,71.841,2.308,94.981,19.538.418,52.01-1.916,52.01-1.916l-13.91-43.042-1.486-22.154s1.81-31.243-12.813-33.714" transform="translate(-201.418 -59.982)" fill="#542f5a"/>
      <path id="Caminho_1781" data-name="Caminho 1781" d="M399.649,130.208c-11.249,8.571-.19,81.885,2.308,94.981-4.065-15.709-15.14-85.9-2.308-94.981" transform="translate(-200.806 -66.423)" fill="#95719c"/>
      <path id="Caminho_1782" data-name="Caminho 1782" d="M478.978,448.433l-.059,0a.527.527,0,0,1-.51-.555l.786-6.78a.561.561,0,0,1,.627-.452.527.527,0,0,1,.51.556l-.787,6.779a.549.549,0,0,1-.567.454m1.574-13.559-.059,0a.525.525,0,0,1-.509-.555l.793-6.78a.556.556,0,0,1,.628-.451.526.526,0,0,1,.509.556l-.793,6.779a.55.55,0,0,1-.568.454m1.59-13.558-.06,0a.524.524,0,0,1-.508-.556l.618-5.2q.093-.779.168-1.565a.563.563,0,0,1,.617-.461.528.528,0,0,1,.522.546q-.076.8-.171,1.587l-.618,5.2a.55.55,0,0,1-.567.453m1.108-13.58h0a.54.54,0,0,1-.567-.509V407c0-2.092-.081-4.293-.241-6.543a.532.532,0,0,1,.534-.536.553.553,0,0,1,.606.473c.162,2.271.243,4.494.243,6.606v.235a.542.542,0,0,1-.571.5m-.931-13.59a.55.55,0,0,1-.566-.448c-.276-2.129-.623-4.393-1.033-6.73a.517.517,0,0,1,.477-.577.568.568,0,0,1,.653.422c.412,2.351.761,4.628,1.039,6.77a.523.523,0,0,1-.5.56.606.606,0,0,1-.066,0m-2.336-13.464a.558.558,0,0,1-.561-.413c-.439-2.094-.926-4.277-1.489-6.672a.511.511,0,0,1,.444-.6.574.574,0,0,1,.675.393c.563,2.4,1.052,4.592,1.493,6.693a.513.513,0,0,1-.457.59.642.642,0,0,1-.1.008m-3.11-13.341a.561.561,0,0,1-.556-.4l-.255-1.013c-.437-1.739-.85-3.657-1.228-5.7a.517.517,0,0,1,.472-.581.57.57,0,0,1,.656.418c.373,2.024.782,3.921,1.215,5.642l.255,1.014a.51.51,0,0,1-.434.6.68.68,0,0,1-.125.012m-2.537-13.432a.553.553,0,0,1-.567-.446c-.286-2.136-.547-4.422-.777-6.794a.528.528,0,0,1,.52-.548.547.547,0,0,1,.618.46c.23,2.362.49,4.638.775,6.763a.524.524,0,0,1-.5.561.625.625,0,0,1-.068,0M473,340.336a.546.546,0,0,1-.57-.475c-.153-2.226-.283-4.519-.387-6.815a.535.535,0,0,1,.548-.526.551.551,0,0,1,.593.485c.1,2.289.234,4.574.387,6.794a.532.532,0,0,1-.536.535H473" transform="translate(-240.804 -169.629)" fill="#12289e"/>
      <path id="Caminho_1783" data-name="Caminho 1783" d="M483.189,585.379l-.058,0a.525.525,0,0,1-.511-.554l.4-3.517a.57.57,0,0,1,.626-.452.526.526,0,0,1,.51.555l-.4,3.516a.551.551,0,0,1-.568.455" transform="translate(-246.199 -296.312)" fill="#12289e"/>
      <path id="Caminho_1784" data-name="Caminho 1784" d="M502.272,180.755a93.144,93.144,0,0,0,12.787-8.367c5.863-4.7,4.52-5.894,4.52-5.894l-16.43,3.268Z" transform="translate(-256.226 -84.934)" fill="#2a182d"/>
      <path id="Caminho_1785" data-name="Caminho 1785" d="M448.974,179.031c2.321,1.628,4.013,2.812,4.521,3.162,2.016,1.39-12.549,10.685-20.955,15.4-7.1,3.723-11.3-1.218-16.506-.361-5.275.869-7.376.164-7.255.736s6.514,1.745,6.93,2.032-.162,1.946-2.927,3.467-14.146-2.112-14.916-.978,4.759,2.888,6.991,3.349.627.726-2.125,1.179-5.854.372-4.605,1.232,7.638,1.348,7.638,1.348-4.755-.046-4.586.755,20.9-.955,28.345-3.957l.016-.044c8.808-3.56,42.845-17.851,44.476-24.157.6-2.334-3.959-8.942-10.525-16.128a23.951,23.951,0,0,0-14.518,12.967" transform="translate(-202.928 -84.715)" fill="#fc7575"/>
      <path id="Caminho_1786" data-name="Caminho 1786" d="M458.291,118.251s-2.769,20.837,1.5,23.783c3.221,2.22,12.493,9.125,19.59,14.1,3.1-6.671,11.073-12.176,17.306-14.261-11.3-12.371-30.349-24.237-38.4-23.621" transform="translate(-233.34 -60.312)" fill="#76597b"/>
      <path id="Caminho_1787" data-name="Caminho 1787" d="M404.748,92.586l1.173,2.538s2.788-1.189,3.586-2.8a5.528,5.528,0,0,0,.739-2.5Z" transform="translate(-206.476 -45.823)" fill="#fff"/>
      <path id="Caminho_1788" data-name="Caminho 1788" d="M441.108,40.262a6.475,6.475,0,0,1,5.745-1.66l-.2.879a6.078,6.078,0,0,0-5.546.78" transform="translate(-225.024 -19.641)" fill="#1b2b80"/>
      <path id="Caminho_1789" data-name="Caminho 1789" d="M448.54,45.565a6.086,6.086,0,0,0-2.758-2.983,4.8,4.8,0,0,0-3-.377c-.338.059-.666.172-1,.256a7.045,7.045,0,0,1,2.022-.452c2.139-.164,4.131,1.379,5.137,3.375Z" transform="translate(-225.365 -21.424)" fill="#1b2b80"/>
      <path id="Caminho_1790" data-name="Caminho 1790" d="M413.645,93.5c-.121-4.661-.184-8.115-.184-8.115l9.582-8.063s.8,2.892,1.789,6.9c1.134,4.569,2.524,10.582,3.286,15.4-5.318,4.64-11.3,5-13.94,4.4-.15-.5-.462-7.765-.533-10.514" transform="translate(-210.92 -39.444)" fill="#fc7575"/>
      <path id="Caminho_1791" data-name="Caminho 1791" d="M424.832,84.216c-.994-4-1.789-6.9-1.789-6.9l-9.582,8.064s.063,3.455.184,8.115a56.343,56.343,0,0,0,11.188-9.282" transform="translate(-210.92 -39.443)" fill="#fd5e5a"/>
      <path id="Caminho_1792" data-name="Caminho 1792" d="M398.945,34.063s-2.041-.544-3.322,2.247-1.666,11.643.772,19.455,3.908,10.714,7.248,10.295,9.292-2.653,12.416-14.022.01-23.555-17.113-17.974" transform="translate(-201.304 -16.664)" fill="#fc7575"/>
      <path id="Caminho_1793" data-name="Caminho 1793" d="M393.759,26.895c-.754.095-7.532,1.975-9.636-5.079S391.728,4.054,397.1,5.781s-.508,6.645-.508,6.645,3.386-2.6,4.785-.257-.072,3.668.539,4.162,3.432-4.995,7.825-1.44,2.121,6.365,3.383,8.493,6.13,4.807,2.663,12.929a12.352,12.352,0,0,1-6.908,6.67,23.382,23.382,0,0,0-.017-6.029c-.437-3.375-2.673-.35-2.673-.35s1.152-.408.719-3.749c-.466-3.589.559-6.666.439-7.584s-.1-3.321-3.561-1.286-10.025,2.909-10.025,2.909" transform="translate(-195.804 -2.854)" fill="#1b2b80"/>
      <path id="Caminho_1794" data-name="Caminho 1794" d="M407.558,70a.227.227,0,0,0-.016-.453l-2.84.068-.287-7.686c-.039,2.2-.111,6.293-.144,8.149L407.558,70" transform="translate(-206.233 -31.594)" fill="#172866"/>
      <path id="Caminho_1795" data-name="Caminho 1795" d="M413.2,55.482c-3.84-1.56-5.285,2.216-5.3,2.255-.1.271.318.445.417.175a3.443,3.443,0,0,1,4.736-2.019.211.211,0,0,0,.283-.121.234.234,0,0,0-.136-.29" transform="translate(-208.076 -28.111)" fill="#172866"/>
      <path id="Caminho_1796" data-name="Caminho 1796" d="M397.569,56.09a.227.227,0,0,0,.058.45,2.416,2.416,0,0,1,2.491,1.725.217.217,0,1,0,.412-.137c-.007-.024-.761-2.315-2.961-2.038" transform="translate(-202.717 -28.602)" fill="#172866"/>
      <path id="Caminho_1797" data-name="Caminho 1797" d="M410.892,84.23l-.009,0c-1.47-.517-3.663.716-4.855,1.638l-.007.006c-.271.209-.611-.21-.354-.436,3.188-2.8,6.064-2.459,5.773-1.479a.418.418,0,0,1-.548.274" transform="translate(-206.898 -42.466)" fill="#172866"/>
      <path id="Caminho_1798" data-name="Caminho 1798" d="M428.022,65.8s-.871-5.035,2.768-6.522,3.727,3.024,1.915,5.476-4.683,1.045-4.683,1.045" transform="translate(-218.302 -30.09)" fill="#fc7575"/>
      <path id="Caminho_1799" data-name="Caminho 1799" d="M431.989,62.632c-1.639-.252-2.016,2.137-2.055,2.373-.127.778.07,1.458,1.433,1.554s2.261-3.675.622-3.927" transform="translate(-219.307 -31.941)" fill="#fd5e5a"/>
      <path id="Caminho_1800" data-name="Caminho 1800" d="M414.27,62.29c.085.652-.2,1.223-.631,1.278s-.853-.43-.937-1.08.2-1.223.631-1.277.852.429.937,1.08" transform="translate(-210.526 -31.223)" fill="#18287d"/>
      <path id="Caminho_1801" data-name="Caminho 1801" d="M399.143,63.612c.074.574-.113,1.07-.418,1.109s-.613-.4-.687-.97.113-1.071.418-1.109.613.4.688.97" transform="translate(-203.044 -31.954)" fill="#18287d"/>
      <path id="Caminho_1802" data-name="Caminho 1802" d="M313.649,76.007,292.207,91.638l-14.443-9.4L254.133,94.653,277.945,83.99l16.145,10.591Z" transform="translate(-129.642 -38.774)" fill="#ff9739"/>
      <path id="Caminho_1803" data-name="Caminho 1803" d="M307.994,23.23,282.429,2.706,270,13.138,248.91,0l21.6,15.316,12-11.419Z" transform="translate(-126.978 0)" fill="#ff9739"/>
      <path id="Caminho_1804" data-name="Caminho 1804" d="M309.515,55.794l-11.481,5.454-8.112-5.194-11.315,5.5,11.851-7.768L298.1,59.41Z" transform="translate(-142.127 -27.44)" fill="#ff9739"/>
      <path id="Caminho_1805" data-name="Caminho 1805" d="M47.176,51.639a.527.527,0,0,1-.507-.386C43.426,39.6,50.531,29.008,52.786,26.041c.607-.8,2.664-3.406,3.648-3.406a.527.527,0,0,1,.048,1.051c-1.388.5-12.648,13.439-8.8,27.285a.526.526,0,0,1-.366.649.54.54,0,0,1-.141.019" transform="translate(-23.382 -11.547)" fill="#2d1e66"/>
      <path id="Caminho_1806" data-name="Caminho 1806" d="M340.783,216.152c-15.843,0-20.68-14.662-20.731-14.821a.527.527,0,0,1,1-.318c.21.66,5.343,16.145,23.151,13.86a.536.536,0,0,1,.589.456.526.526,0,0,1-.456.589,27.907,27.907,0,0,1-3.558.234" transform="translate(-163.257 -102.356)" fill="#2d1e66"/>
      <path id="Caminho_1807" data-name="Caminho 1807" d="M560.617,165.787a.526.526,0,0,1-.527-.527c0-19.026-17.445-28.054-17.622-28.143a.527.527,0,0,1,.474-.941c.182.092,18.2,9.4,18.2,29.084a.526.526,0,0,1-.526.527" transform="translate(-276.584 -69.439)" fill="#2d1e66"/>
    </g>
  </g>
</svg>
