<svg xmlns="http://www.w3.org/2000/svg" xmlns:xlink="http://www.w3.org/1999/xlink" width="510" height="361" viewBox="0 0 510 361">
  <defs>
    <clipPath id="clip-path">
      <rect id="Retângulo_145" data-name="Retângulo 145" width="510" height="361" transform="translate(338 82)" fill="#fff" stroke="#707070" stroke-width="1"/>
    </clipPath>
    <clipPath id="clip-path-2">
      <rect id="Retângulo_169" data-name="Retângulo 169" width="433.727" height="425.183" fill="none"/>
    </clipPath>
    <clipPath id="clip-path-4">
      <rect id="Retângulo_154" data-name="Retângulo 154" width="13.628" height="8.134" transform="translate(148.164 53.668)" fill="none"/>
    </clipPath>
    <clipPath id="clip-path-5">
      <rect id="Retângulo_155" data-name="Retângulo 155" width="13.627" height="8.134" transform="translate(166.305 53.668)" fill="none"/>
    </clipPath>
    <clipPath id="clip-path-6">
      <rect id="Retângulo_160" data-name="Retângulo 160" width="14.102" height="27.44" transform="translate(187.301 198.363)" fill="none"/>
    </clipPath>
    <clipPath id="clip-path-7">
      <rect id="Retângulo_161" data-name="Retângulo 161" width="14.103" height="27.44" transform="translate(126.838 198.363)" fill="none"/>
    </clipPath>
    <clipPath id="clip-path-8">
      <rect id="Retângulo_162" data-name="Retângulo 162" width="16.942" height="9.44" transform="translate(248.139 38.786)" fill="none"/>
    </clipPath>
    <clipPath id="clip-path-9">
      <rect id="Retângulo_163" data-name="Retângulo 163" width="16.942" height="9.44" transform="translate(270.691 38.786)" fill="none"/>
    </clipPath>
  </defs>
  <g id="img-slide-50" transform="translate(-338 -82)">
    <g id="Grupo_de_máscara_4" data-name="Grupo de máscara 4" clip-path="url(#clip-path)">
      <g id="Grupo_514" data-name="Grupo 514" transform="translate(376 112)">
        <g id="Grupo_513" data-name="Grupo 513" clip-path="url(#clip-path-2)">
          <g id="Grupo_512" data-name="Grupo 512">
            <g id="Grupo_511" data-name="Grupo 511" clip-path="url(#clip-path-2)">
              <path id="Caminho_456" data-name="Caminho 456" d="M420.007,172.014V126.583c0-5.347-4.491-11.239-10.03-13.16l-22.928-7.492V74.42H362.976v31.511l-22.927,7.492c-5.54,1.921-10.03,7.813-10.03,13.159v45.432Z" fill="#994d3c"/>
              <path id="Caminho_457" data-name="Caminho 457" d="M395.069,68c0,27.21-12.517,32.652-19.9,32.652s-19.9-5.442-19.9-32.652c0-13.692,8.909-22.07,19.9-22.07s19.9,8.378,19.9,22.07" fill="#ad5d4b"/>
              <path id="Caminho_458" data-name="Caminho 458" d="M358.894,73.32c.808,4.305-.145,8.1-2.129,8.47s-4.248-2.816-5.056-7.121.145-8.1,2.129-8.47,4.248,2.816,5.056,7.121" fill="#ad5d4b"/>
              <path id="Caminho_459" data-name="Caminho 459" d="M391.141,73.32c-.808,4.305.145,8.1,2.129,8.47s4.248-2.816,5.056-7.121-.145-8.1-2.129-8.47-4.248,2.816-5.056,7.121" fill="#ad5d4b"/>
              <path id="Caminho_460" data-name="Caminho 460" d="M398.74,221.418l21.39-94.836c0-5.379-4.535-11.33-10.109-13.263l-22.9-7.533-11.826,7.4-12.391-7.4-22.9,7.534c-5.574,1.933-10.109,7.883-10.109,13.262l16.99,98.2Z" fill="#e7eae1"/>
              <path id="Caminho_461" data-name="Caminho 461" d="M362.977,78.373V95.848c3.677,6.146,8.636,8.73,12.036,9.337a12.185,12.185,0,0,0,12.037-4.427V82.673L375.012,77.5Z" fill="#893d30"/>
              <path id="Caminho_462" data-name="Caminho 462" d="M393.012,76.469l-18-4.023-18,4.023c.608,5.809,2.274,14.2,2.274,14.2,4.289,7.9,11.2,10.206,15.725,10.206a17.645,17.645,0,0,0,15.724-9.488s1.675-9.182,2.275-14.914" fill="#e7eae1"/>
              <path id="Caminho_463" data-name="Caminho 463" d="M375.012,73.3v7.81s-14.66,3.537-16.959-3.847Z" fill="#f6f7f5"/>
              <path id="Caminho_464" data-name="Caminho 464" d="M379.6,113.244h-8.5v5.3l2.107,1.978-1.563,45.29,3.7,2.823,3.7-2.823-1.564-45.3,2.124-1.963Z" fill="#003e4d"/>
              <path id="Caminho_465" data-name="Caminho 465" d="M375.3,113.189l-6.747,8.8-10.04-14.5,4.468-4.32Z" fill="#f6f7f5"/>
              <path id="Caminho_466" data-name="Caminho 466" d="M375.3,113.189l7.013,8.8,9.214-14.5-4.494-4.322Z" fill="#f6f7f5"/>
              <path id="Caminho_467" data-name="Caminho 467" d="M392.634,60.585a5.436,5.436,0,0,1,1.281-.3c-2.755-8.87-10.1-14.066-18.764-14.066-10.018,0-18.288,6.95-19.7,18.509.066.668.107,1.353.107,2.062a23.208,23.208,0,0,0,2.235-9.148c-.049-2.3,6.3-7.115,17.146-1.367,11.505-2.645,16.756,2.1,17.7,4.311" fill="#994d3c"/>
              <path id="Caminho_468" data-name="Caminho 468" d="M358.6,45.255c-7.362,9.707-3.042,14.06-3.042,21.41,0,0,2.331-4.968,2.236-9.37-.05-2.291,6.295-7.739,17.146-3.068,12.791-4.209,17.87,1.5,17.87,3.179,0,3.359-1.045,2.406,1.726,9.871,2.371-9.413,3.325-15.15-3.388-23.262-6.65-8.035-23.58-10.585-32.548,1.24" fill="#3a3a3a"/>
              <path id="Caminho_469" data-name="Caminho 469" d="M355.453,64.682l-.9,1.635,2.7,12.157.6-2.034Z" fill="#e7eae1"/>
              <path id="Caminho_470" data-name="Caminho 470" d="M394.5,64.682l.9,1.635-2.7,12.157-.6-2.034Z" fill="#e7eae1"/>
              <path id="Caminho_471" data-name="Caminho 471" d="M382.554,43.577c-16.664.731-22.8,9.378-22.8,4.687s5.988-9.117,13.375-9.887,14.114,4.994,9.428,5.2" fill="#494949"/>
              <path id="Caminho_472" data-name="Caminho 472" d="M402.28,210.859l-26.96.812-26.374.289s-1.8,17.04-1.8,34.032c0,8.492,7.841,137.1,7.841,137.1l13.221-.332,5.423-136.2.076-.071,2.764-.018,6.338,137.995,14,.234s7.313-134.209,7.8-140.307c.676-8.455-2.335-33.541-2.335-33.541" fill="#0269af"/>
              <path id="Caminho_473" data-name="Caminho 473" d="M413.41,266.313c0-46.036,6-139.179,6-139.179,0-5.957-4.523-12.545-10.082-14.686l-19.161-7.432s-8.8,107.1,8.782,117.415c1.9,51.913,14.459,51.557,14.459,43.882" fill="#ddd"/>
              <path id="Caminho_474" data-name="Caminho 474" d="M398.775,133.965l-3.149-9.807,2.476-1.583-1.649-15.519s-6.024-4.116-6.284-2.45c-5.389,34.493-1.689,76.776-1.689,76.776Z" fill="#f4f4f4"/>
              <path id="Caminho_475" data-name="Caminho 475" d="M409.691,113.185l-11.973-4.256,1.277,6.731c5.995-.416,13.8-1.189,10.7-2.475" fill="#f6f7f5"/>
              <rect id="Retângulo_146" data-name="Retângulo 146" width="14.779" height="7.407" transform="translate(395.737 138.825)" fill="#003e4d"/>
              <rect id="Retângulo_147" data-name="Retângulo 147" width="13.983" height="6.612" transform="translate(396.135 139.222)" fill="#f4f4f4"/>
              <rect id="Retângulo_148" data-name="Retângulo 148" width="1.938" height="1.629" transform="translate(402.158 138.037)" fill="#b7bdbd"/>
              <rect id="Retângulo_149" data-name="Retângulo 149" width="4.429" height="5.447" transform="translate(397.071 139.87)" fill="#b7bdbd"/>
              <path id="Caminho_476" data-name="Caminho 476" d="M369.031,392.867c0,2.371-2.734,4.293-6.106,4.293h-4.071c-3.372,0-6.106-1.922-6.106-4.293v-9.158c0-2.371,2.734-2.757,6.106-2.757h4.071c3.372,0,6.106.386,6.106,2.757Z" fill="#003e61"/>
              <path id="Caminho_477" data-name="Caminho 477" d="M369.031,390.395c0,1.776-2.734,3.216-6.106,3.216h-4.071c-3.372,0-6.106-1.44-6.106-3.216v-6.861c0-1.776,2.734-5.594,6.106-5.594h4.071c3.372,0,6.106,3.818,6.106,5.594Z" fill="#3f5e77"/>
              <path id="Caminho_478" data-name="Caminho 478" d="M397.932,392.867c0,2.371-2.734,4.293-6.106,4.293h-4.071c-3.372,0-6.106-1.922-6.106-4.293v-9.158c0-2.371,2.734-2.757,6.106-2.757h4.071c3.372,0,6.106.386,6.106,2.757Z" fill="#003e61"/>
              <path id="Caminho_479" data-name="Caminho 479" d="M397.932,390.395c0,1.776-2.734,3.216-6.106,3.216h-4.071c-3.372,0-6.106-1.44-6.106-3.216v-6.861c0-1.776,2.734-5.594,6.106-5.594h4.071c3.372,0,6.106,3.818,6.106,5.594Z" fill="#3f5e77"/>
              <path id="Caminho_480" data-name="Caminho 480" d="M409.534,152.533c3.084,25.675-1.48,31.418-12.281,67.6a1.612,1.612,0,0,0-.419.434,8.359,8.359,0,0,0,2.117,1.859c.292,7.981.837,14.722,1.549,20.4a140.306,140.306,0,0,0,13.806-16.53c.943-25.864,2.445-54.071,3.576-73.764Z" fill="#b7bdbd"/>
              <path id="Caminho_481" data-name="Caminho 481" d="M409.007,229.831c-2.538,1.591-12.78-11.711-9.313-13.968,14.873-36.126,17.564-37,9.771-63.913,2.423-10.6-2.124-32.159,1.447-33.258l.266-5.342c12.427,6.632,12.279,13.442,16.453,25.455,6.346,18.267,15.541,48.368-18.624,91.026" fill="#ddd"/>
              <path id="Caminho_482" data-name="Caminho 482" d="M388.749,232.37c3.717,2.372,7.42,4.783,11.337,6.865,1.241-2.32,5.546-8.022,6.654-11.1-1.88-.238-5-3.355-6.58-6.3-2.8,1.37-7.914,2.873-8.663,4.132-1.479,2.487-1.909,5.3-2.748,6.411" fill="#eab794"/>
              <path id="Caminho_483" data-name="Caminho 483" d="M335.685,266.313c0-46.036-6-139.179-6-139.179,0-5.957,4.523-12.545,10.082-14.686l19.161-7.432s8.8,107.1-8.782,117.415c-1.9,51.913-14.459,51.557-14.459,43.882" fill="#ddd"/>
              <path id="Caminho_484" data-name="Caminho 484" d="M350.32,133.965l3.149-9.807-2.476-1.583,1.649-15.519s6.024-4.116,6.284-2.45c5.389,34.493,1.689,76.776,1.689,76.776Z" fill="#f4f4f4"/>
              <path id="Caminho_485" data-name="Caminho 485" d="M339.4,113.185l11.973-4.256L350.1,115.66c-5.995-.416-13.8-1.189-10.7-2.475" fill="#f6f7f5"/>
              <path id="Caminho_486" data-name="Caminho 486" d="M339.562,152.533c-3.084,25.675,1.48,31.418,12.281,67.6a1.612,1.612,0,0,1,.419.434,8.36,8.36,0,0,1-2.117,1.859c-.292,7.981-.837,14.722-1.549,20.4A140.306,140.306,0,0,1,334.79,226.3c-.943-25.864-2.445-54.071-3.576-73.764Z" fill="#b7bdbd"/>
              <path id="Caminho_487" data-name="Caminho 487" d="M340.088,229.831c2.538,1.591,12.78-11.711,9.313-13.968-14.873-36.126-17.564-37-9.771-63.913-2.423-10.6,2.124-32.159-1.447-33.258l-.266-5.342c-12.427,6.632-12.279,13.442-16.453,25.455-6.346,18.267-15.541,48.368,18.624,91.026" fill="#ddd"/>
              <path id="Caminho_488" data-name="Caminho 488" d="M360.346,232.37c-3.717,2.372-7.42,4.783-11.337,6.865-1.241-2.32-5.545-8.022-6.654-11.1,1.88-.238,5-3.355,6.58-6.3,2.8,1.37,7.914,2.873,8.663,4.132,1.479,2.487,1.909,5.3,2.748,6.411" fill="#eab794"/>
              <path id="Caminho_489" data-name="Caminho 489" d="M101.48,119.481v-7.236a15.4,15.4,0,0,0-9.172-13.361L72.555,91.278V59.285H48.113V91.278L28.36,98.884a15.4,15.4,0,0,0-9.172,13.361v7.236Z" fill="#e29a59"/>
              <path id="Caminho_490" data-name="Caminho 490" d="M48.113,63.3V81.041c3.733,6.241,8.768,8.864,12.221,9.48a12.37,12.37,0,0,0,12.22-4.5V67.665L60.332,62.407Z" fill="#d67f43"/>
              <path id="Caminho_491" data-name="Caminho 491" d="M80.58,52.99c0,27.626-12.736,33.152-20.247,33.152S40.086,80.616,40.086,52.99c0-13.9,9.065-22.408,20.247-22.408S80.58,39.089,80.58,52.99" fill="#efaf6a"/>
              <path id="Caminho_492" data-name="Caminho 492" d="M43.968,58.168c.821,4.371-.147,8.221-2.162,8.6s-4.313-2.858-5.133-7.229.147-8.222,2.161-8.6,4.313,2.859,5.134,7.23" fill="#efaf6a"/>
              <path id="Caminho_493" data-name="Caminho 493" d="M76.708,58.168c-.821,4.371.147,8.221,2.162,8.6s4.312-2.859,5.133-7.23-.147-8.221-2.161-8.6-4.313,2.859-5.134,7.23" fill="#efaf6a"/>
              <path id="Caminho_494" data-name="Caminho 494" d="M80.485,50.657C72.47,39.864,48.77,37.628,40.177,50.8l0,.044s16.473-15,40.31-.191" fill="#e29a59"/>
              <path id="Caminho_495" data-name="Caminho 495" d="M79.227,44.37c-.915,25.387-5.981,37.982-18.894,37.982-12.966,0-17.978-12.595-18.893-37.982a27.005,27.005,0,0,0-1.353,8.619c0,27.627,12.735,34.427,20.246,34.427s20.247-6.8,20.247-34.427a27.033,27.033,0,0,0-1.353-8.619" fill="#474747"/>
              <path id="Caminho_496" data-name="Caminho 496" d="M40.1,33.186V50.921c8.533-13.322,32.393-11.087,40.412-.237V32.608c-4.106-5.57-12.363-14.141-20.59-14.157-7.842-.015-15.658,8.234-19.822,14.735" fill="#017de1"/>
              <path id="Caminho_497" data-name="Caminho 497" d="M59.976,19.585c-5.175-.057-14.6,7.349-18.479,14.326V40.5C56.384,31.88,59.976,19.585,59.976,19.585" fill="#31acff"/>
              <path id="Caminho_498" data-name="Caminho 498" d="M58,79.118l-3.094,3.094,2.953,2.954H63.09l2.953-2.954-3.094-3.094Z" fill="#474747"/>
              <path id="Caminho_499" data-name="Caminho 499" d="M53.134,71.1c-2.113,2.113,0,11.955,0,11.955h1.473s-1.691-7.873,0-9.564c2.057-2.057,9.578-2.057,11.635,0,1.69,1.691,0,9.564,0,9.564h1.472s2.114-9.842,0-11.955c-2.577-2.578-12-2.578-14.58,0" fill="#474747"/>
              <path id="Caminho_500" data-name="Caminho 500" d="M30.337,278.854l-2.965-.059c2.578,27.5,4.717,49.525,6.694,69.686.176,1.8.675,10.063.832,11.657.143,1.453-2.458,9.242-2.334,10.5.635,6.455,3.666,8.46,3.666,8.46l17.057,1.117,1.7-8.026-1.348-8.74,1.743-84.114q-12.523-.227-25.041-.485" fill="#0269af"/>
              <path id="Caminho_501" data-name="Caminho 501" d="M62.819,279.465l3.895,84.817-1.721,7.628,2.433,7.865,15.319.255s2.892-2.425,3.479-8.922c.158-1.752-2.255-10.361-2.065-12.473,1.79-19.831,4.959-49.228,7.628-78.775q-14.484-.135-28.968-.395" fill="#0269af"/>
              <path id="Caminho_502" data-name="Caminho 502" d="M96.442,297.426c0-23.119-.168-76.979,2.969-120.754a550.509,550.509,0,0,1,8.522-64.452c0-5.885-4.795-12.394-10.689-14.509l-22.8-8.24L59.868,119.21,46.01,89.47,23.2,97.711c-5.894,2.115-10.689,8.623-10.689,14.508,0,0,5.3,22.953,8.043,65.17,2.517,38.695,2.5,95.762,2.5,119.914,0,10.635,73.382,10.355,73.382.123" fill="#017de1"/>
              <path id="Caminho_503" data-name="Caminho 503" d="M71.693,100.528l3.535-9.473,21.545,7.786c5.075,1.822-25.08,1.687-25.08,1.687" fill="#31acff"/>
              <path id="Caminho_504" data-name="Caminho 504" d="M23.673,98.843,45.2,91.062l7.045,14.963S5.22,107.9,23.673,98.843" fill="#31acff"/>
              <rect id="Retângulo_150" data-name="Retângulo 150" width="16.167" height="8.103" transform="translate(73.669 122.771)" fill="#003e4d"/>
              <rect id="Retângulo_151" data-name="Retângulo 151" width="15.297" height="7.233" transform="translate(74.104 123.205)" fill="#f4f4f4"/>
              <rect id="Retângulo_152" data-name="Retângulo 152" width="2.12" height="1.782" transform="translate(80.693 121.908)" fill="#b7bdbd"/>
              <rect id="Retângulo_153" data-name="Retângulo 153" width="4.845" height="5.959" transform="translate(75.127 123.913)" fill="#b7bdbd"/>
              <path id="Caminho_505" data-name="Caminho 505" d="M53.287,390.428c0,2.593-2.99,4.7-6.679,4.7H42.154c-3.689,0-6.679-2.1-6.679-4.7V380.41c0-2.594,2.99-3.016,6.679-3.016h4.454c3.689,0,6.679.422,6.679,3.016Z" fill="#003e61"/>
              <path id="Caminho_506" data-name="Caminho 506" d="M53.287,387.724c0,1.943-2.99,3.518-6.679,3.518H42.154c-3.689,0-6.679-1.575-6.679-3.518v-7.505c0-1.943,2.99-6.119,6.679-6.119h4.454c3.689,0,6.679,4.176,6.679,6.119Z" fill="#3f5e77"/>
              <path id="Caminho_507" data-name="Caminho 507" d="M84.048,390.428c0,2.593-2.991,4.7-6.68,4.7H72.915c-3.689,0-6.679-2.1-6.679-4.7V380.41c0-2.594,2.99-3.016,6.679-3.016h4.453c3.689,0,6.68.422,6.68,3.016Z" fill="#003e61"/>
              <path id="Caminho_508" data-name="Caminho 508" d="M84.048,387.724c0,1.943-2.991,3.518-6.68,3.518H72.915c-3.689,0-6.679-1.575-6.679-3.518v-7.505c0-1.943,2.99-6.119,6.679-6.119h4.453c3.689,0,6.68,4.176,6.68,6.119Z" fill="#3f5e77"/>
              <path id="Caminho_509" data-name="Caminho 509" d="M96.441,138.068c3.159,26.3-1.516,32.178-12.578,69.239-.161.1-5.639,5.62-5.768,5.8a19.551,19.551,0,0,1,8.671,13.757c2.865-2.451,6.67-1.883,10.564-7.394.966-26.489,6.5-61.235,7.661-81.4Z" fill="#0269af"/>
              <path id="Caminho_510" data-name="Caminho 510" d="M95.9,217.235c-2.6,1.629-13.089-11.994-9.538-14.306,15.232-37,17.988-37.891,10.007-65.458,2.481-10.86-2.175-32.936,1.482-34.061l.273-5.472c12.727,6.792,12.575,13.768,16.85,26.071,6.5,18.708,15.917,49.536-19.074,93.226" fill="#017de1"/>
              <path id="Caminho_511" data-name="Caminho 511" d="M75.154,219.835c3.807,2.429,7.6,4.9,11.611,7.031,1.271-2.377,6.271-6.738,7.407-9.894-1.4-.667-5.652-5.5-7.274-8.521-2.869,1.4-8.163,3.528-8.93,4.818-1.515,2.547-1.955,5.432-2.814,6.566" fill="#eab794"/>
              <path id="Caminho_512" data-name="Caminho 512" d="M24.778,138.068c-4.58,27.959,2.09,39.007,19.188,76.583.16.1-8.784,6.4-9.513,12.215-2.895.343-8.3-2.7-12.192-8.211-.966-26.489-4.875-60.418-6.033-80.587Z" fill="#0269af"/>
              <path id="Caminho_513" data-name="Caminho 513" d="M25.317,217.235c2.6,1.629,13.089-11.994,9.538-14.306-15.232-37-17.988-37.891-10.007-65.458-2.481-10.86,2.175-32.936-1.482-34.061l-.273-5.472c-12.727,6.792-12.575,13.768-16.85,26.071-6.5,18.708-15.917,49.536,19.074,93.226" fill="#017de1"/>
              <path id="Caminho_514" data-name="Caminho 514" d="M46.065,219.835c-3.807,2.429-7.6,4.9-11.611,7.031-1.271-2.377-6.244-6.754-7.38-9.91,2.7-1.9,5.491-5.97,7.24-8.487,2.869,1.4,8.17,3.51,8.937,4.8,1.515,2.547,1.955,5.432,2.814,6.566" fill="#eab794"/>
              <path id="Caminho_515" data-name="Caminho 515" d="M44.628,245.24c1.735-8.479,1.418-22.5,1.418-37.731-4.586,5.212-21.054,13.133-21.054,13.133,0,12.051.834,19.721,2.366,24.6Z" fill="#31acff"/>
              <path id="Caminho_516" data-name="Caminho 516" d="M76.045,245.24c-1.735-8.479-1.418-22.5-1.418-37.731,4.586,5.212,21.054,13.133,21.054,13.133,0,12.051-.834,19.721-2.366,24.6Z" fill="#31acff"/>
              <path id="Caminho_517" data-name="Caminho 517" d="M170.006,90.253a6.243,6.243,0,0,0,6.243-6.243c0-.193-.01-.383-.027-.571A4.444,4.444,0,0,0,184,80.493c0-.013,0-.026,0-.039a6.242,6.242,0,0,0,7.938-9.442,4.421,4.421,0,0,0,4.2-5.185,6.24,6.24,0,0,0,2.056-9.962,5.305,5.305,0,0,0,.093-9.243,6.244,6.244,0,0,0-2.3-10.242,4.44,4.44,0,0,0-4.042-5.823A6.243,6.243,0,0,0,184,21.114c0-.013,0-.025,0-.039a4.444,4.444,0,0,0-7.777-2.945c.017-.188.027-.378.027-.571a6.243,6.243,0,0,0-12.074-2.232,4.444,4.444,0,0,0-7.757.6A6.242,6.242,0,0,0,145.1,19.568c0,.027,0,.053,0,.079a4.427,4.427,0,0,0-5.991,4.713,6.249,6.249,0,0,0-7.5,6.116,6.213,6.213,0,0,0,.674,2.821,4.441,4.441,0,0,0-1.431,7.871,4.774,4.774,0,0,0-3.27,6.244,4.433,4.433,0,0,0,.845,6.171c-2.206,0-3.271,6.961,2.233,6.961a4.444,4.444,0,0,0,1.623,7.727,6.243,6.243,0,0,0,5.569,9.065,6.3,6.3,0,0,0,1.259-.127,4.437,4.437,0,0,0,5.991,4.712c0,.027,0,.053,0,.079a6.242,6.242,0,0,0,11.313,3.642,4.444,4.444,0,0,0,7.757.6,6.246,6.246,0,0,0,5.831,4.011" fill="#4d0100"/>
              <path id="Caminho_518" data-name="Caminho 518" d="M163.946,27.23c-13.765,0-24.924,9.9-24.924,26.072,0,20.172,6.175,30.213,13.06,34.9a6.237,6.237,0,0,0,4.336-2.557,4.444,4.444,0,0,0,7.757.6,6.243,6.243,0,0,0,12.074-2.232c0-.193-.01-.383-.027-.571a4.431,4.431,0,0,0,3.328,1.5c.014,0,.027,0,.04,0,5.212-5.579,9.28-15.269,9.28-31.637,0-16.175-11.159-26.072-24.924-26.072" fill="#3d0000"/>
              <path id="Caminho_519" data-name="Caminho 519" d="M197.71,100.1a12.356,12.356,0,0,0-4.208-3.122L173.333,88.46v-32.8H154.4v32.8l-20.168,8.518a12.346,12.346,0,0,0-4.208,3.122Z" fill="#a25742"/>
              <path id="Caminho_520" data-name="Caminho 520" d="M154.4,82.237a14.217,14.217,0,0,0,10.938,5.437,13.653,13.653,0,0,0,7.991-2.666V55.662H154.4Z" fill="#893d30"/>
              <path id="Caminho_521" data-name="Caminho 521" d="M183.477,53.514c0,25.76-12.238,30.912-19.455,30.912s-19.455-5.152-19.455-30.912c0-12.962,8.71-20.894,19.455-20.894s19.455,7.932,19.455,20.894" fill="#ad5d4b"/>
              <path id="Caminho_522" data-name="Caminho 522" d="M180.927,53.279a.663.663,0,0,0-.661-.578H168.033c-1.033,0-2.6.724-3.985.724s-2.952-.724-3.985-.724H147.83a.664.664,0,0,0-.661.578h-3.388v1.194h3.374c.394,2.735,1.743,7.682,2.42,7.682h9.469c1.1,0,2.719-2.391,3.313-3.912a1.734,1.734,0,0,1,3.382,0c.6,1.521,2.209,3.912,3.313,3.912h9.47c.677,0,2.026-4.947,2.419-7.682h3.374V53.279Zm-21.85,8.509c-.879,0-8.275.014-9.019.014s-3.091-8.134-1.13-8.134h10.265c5.458,0,.762,8.12-.116,8.12m18.961.014c-.743,0-8.14-.014-9.019-.014s-5.573-8.12-.115-8.12h10.265c1.961,0-.388,8.134-1.131,8.134" fill="#003e4d"/>
              <g id="Grupo_495" data-name="Grupo 495" opacity="0.3">
                <g id="Grupo_494" data-name="Grupo 494">
                  <g id="Grupo_493" data-name="Grupo 493" clip-path="url(#clip-path-4)">
                    <path id="Caminho_523" data-name="Caminho 523" d="M159.077,61.788c-.878,0-8.275.014-9.018.014s-3.092-8.134-1.131-8.134h10.265c5.458,0,.762,8.12-.116,8.12" fill="#e7eae1"/>
                  </g>
                </g>
              </g>
              <g id="Grupo_498" data-name="Grupo 498" opacity="0.3">
                <g id="Grupo_497" data-name="Grupo 497">
                  <g id="Grupo_496" data-name="Grupo 496" clip-path="url(#clip-path-5)">
                    <path id="Caminho_524" data-name="Caminho 524" d="M178.038,61.8c-.743,0-8.14-.014-9.019-.014s-5.573-8.12-.115-8.12h10.265c1.961,0-.388,8.134-1.131,8.134" fill="#e7eae1"/>
                  </g>
                </g>
              </g>
              <path id="Caminho_525" data-name="Caminho 525" d="M164.022,32.62c-10.745,0-19.455,7.932-19.455,20.894q0,1.2.035,2.334a4.634,4.634,0,0,0,.511-2.969,4.882,4.882,0,0,0,3.8-3.506c.087.019.172.043.261.059a7.062,7.062,0,0,0,5.952-1.747,4.868,4.868,0,0,0,6.434.646,6.7,6.7,0,0,0,10.125,1.593,4.871,4.871,0,0,0,6.513,1.612,6.7,6.7,0,0,0,5.083,4.091c.026,0,.052.005.078.009a4.859,4.859,0,0,0,.061.717c.035-.92.058-1.86.058-2.839,0-12.962-8.71-20.894-19.455-20.894" fill="#3d0000"/>
              <path id="Caminho_526" data-name="Caminho 526" d="M195.046,55.748c-1.105-12.638-11.083-31.005-22.339-32.927-7.785-1.33-16.882-1.857-23.634,2.97-6.95,4.967-7.712,9.96-9.938,17.606-.536,1.842-.281,2.471-1.089,4.039-.68,1.319-2.25,1.571-2.57,3.451a4.882,4.882,0,1,0,9.637.089,4.88,4.88,0,0,0,3.8-3.507c.088.019.173.044.262.059a7.059,7.059,0,0,0,5.951-1.747,4.869,4.869,0,0,0,6.434.647,6.705,6.705,0,0,0,10.126,1.592,4.871,4.871,0,0,0,6.513,1.612,6.7,6.7,0,0,0,5.082,4.091c.026.005.052.005.078.01a4.881,4.881,0,0,0,2.43,4.188,4.881,4.881,0,1,0,9.122,3.1,20.974,20.974,0,0,0,.136-5.277" fill="#4d0100"/>
              <path id="Caminho_527" data-name="Caminho 527" d="M155.538,36.21c-2.464,2.893,10.486,5.459,18.185,6.159,6.173.561,11.463.937,7.069-4.366-7.885-9.517-22.936-4.514-25.254-1.793" fill="#5b0909"/>
              <path id="Caminho_528" data-name="Caminho 528" d="M140.335,187.393l22.91,9.175,22.413-8.054s5.946,17.343,5.946,34.638c0,8.643-8.689,77.3-8.689,77.823l-10.45,81.639-6.973,4.592.455-48.458.323-48.781s-.859-41.337-.459-52.135c.131-3.534,1.2-14.094,1.2-14.094l-2.395-.073-4.347-.018s1.175,10.445,1.321,13.943c.448,10.811-.5,52.2-.5,52.2l.5,48.475-.3,48.719-6.948-2.914-10.189-81.877c0-3.564-8.54-73.021-8.954-79.228-.573-8.6,5.143-35.568,5.143-35.568" fill="#a25742"/>
              <path id="Caminho_529" data-name="Caminho 529" d="M188.717,187.8l-.375-9.932H137.447l-.243,9.081c-.291.967-7.369,24.578-7.106,32.787.1,3.107,3.239,22.578,6.44,42.445,1.454,9.01,4.284,21.264,4.284,26.852,0,11.4,45.017,11.383,45.588,0,1-19.793,10.6-62.912,10.3-69.194-.756-16.189-7.924-31.886-8-32.039" fill="#16c4b3"/>
              <path id="Caminho_530" data-name="Caminho 530" d="M145.437,273.22c-4.222-16.955-9.306-37.371-9.89-41.064-1.161-7.337-.393-28.146.186-40.118-2.122,7.571-5.825,21.746-5.634,27.7.1,3.108,2.337,22.351,5.539,42.218,1.452,9.01,3.019,18.56,4.249,26.756.862,5.751,10.075,7.349,10.075,7.349-1.138-4.635-3.133-17.248-4.525-22.836" fill="#0eaf9c"/>
              <path id="Caminho_531" data-name="Caminho 531" d="M190.456,192.052c1.008,9.235,2.292,25.705.783,40.229-.838,8.06-11.284,47.554-15.562,64.069,0,0,7.05-1.257,9.74-4.75,3.733-4.845,11.589-65.481,11.295-71.763-.521-11.142-4.078-22.047-6.256-27.785" fill="#0eaf9c"/>
              <path id="Caminho_532" data-name="Caminho 532" d="M152.148,379.6s-4.215,6.926-4.556,9.25-1.094,8.849.82,9.67,9.911.957,11.005.273,3.417-5.3,3.622-7.893-1.36-12.993-1.36-12.993Z" fill="#0eaf9c"/>
              <path id="Caminho_533" data-name="Caminho 533" d="M152.336,378.748s-4.343,8.673-1.519,12.1c1.136,1.379,11.281-1.25,10.851-12.869s-9.332.767-9.332.767" fill="#a25742"/>
              <path id="Caminho_534" data-name="Caminho 534" d="M174.641,379.6s4.215,6.926,4.556,9.25,1.094,8.849-.82,9.67-9.911.957-11,.273-3.418-5.3-3.623-7.893,1.36-12.993,1.36-12.993Z" fill="#0eaf9c"/>
              <path id="Caminho_535" data-name="Caminho 535" d="M174.452,378.748s4.343,8.673,1.52,12.1c-1.136,1.379-11.282-1.25-10.852-12.869s9.332.767,9.332.767" fill="#a25742"/>
              <path id="Caminho_536" data-name="Caminho 536" d="M188.177,181.088l14.491-71.813c0-5.576-3.866-11.72-8.634-13.724l-20.295-8.528a37.4,37.4,0,0,1-9.881,11.709,40.15,40.15,0,0,1-9.72-11.709l-20.295,8.528c-4.768,2-8.633,8.148-8.633,13.723l15.675,71.814Z" fill="#16c4b3"/>
              <path id="Caminho_537" data-name="Caminho 537" d="M205.818,240.239c-1.954-18.24-13.072-55.65-13.21-69.972-.153-15.938,11.459-61.818,11.459-61.818,0-5.336-4.829-12.272-9.809-14.19l-15.844-6.1-13.121,66.321.478,103.567s41.428-4.918,40.047-17.807" fill="#ddd"/>
              <path id="Caminho_538" data-name="Caminho 538" d="M184.846,97.478l-1.063-6.556,11.311,4.537c4.846,1.867-10.248,2.019-10.248,2.019" fill="#f4f4f4"/>
              <path id="Caminho_539" data-name="Caminho 539" d="M186.036,115.174,182.62,109.9l1.856-5.412-2.167-14.832-3.9-1.5L165.88,151.51Z" fill="#f4f4f4"/>
              <rect id="Retângulo_156" data-name="Retângulo 156" width="16.567" height="8.303" transform="translate(180.876 123.044)" fill="#003e4d"/>
              <rect id="Retângulo_157" data-name="Retângulo 157" width="15.675" height="7.412" transform="translate(181.322 123.489)" fill="#f4f4f4"/>
              <rect id="Retângulo_158" data-name="Retângulo 158" width="2.173" height="1.826" transform="translate(188.073 122.16)" fill="#b7bdbd"/>
              <rect id="Retângulo_159" data-name="Retângulo 159" width="4.965" height="6.106" transform="translate(182.371 124.215)" fill="#b7bdbd"/>
              <g id="Grupo_501" data-name="Grupo 501" opacity="0.2">
                <g id="Grupo_500" data-name="Grupo 500">
                  <g id="Grupo_499" data-name="Grupo 499" clip-path="url(#clip-path-6)">
                    <path id="Caminho_540" data-name="Caminho 540" d="M197.276,198.363a181,181,0,0,1-9.108,17c-3.431,2.277,4.259,11.866,6.775,10.264,2.376-3,4.51-5.986,6.46-8.961-1.337-6.022-2.792-12.287-4.127-18.3" fill="#48545b"/>
                  </g>
                </g>
              </g>
              <path id="Caminho_541" data-name="Caminho 541" d="M190.851,211.346c-2.8,1.355-8.518,4.338-7.646,5.7,1.146,1.786-2.512,5.082-4.013,6.966s11.152,9.533,14.129,5.892c1.521-1.86,3.276-6.976,4.631-11.539-1.943-.33-5.312-3.793-7.1-7.014" fill="#a25742"/>
              <path id="Caminho_542" data-name="Caminho 542" d="M179.235,214s-1.956,34.984,1.266,34.524,16.569-4.164,19.333-9.667-2.762-17.952-2.762-17.952Z" fill="#f4f4f4"/>
              <path id="Caminho_543" data-name="Caminho 543" d="M198.826,218.264c-2.516,1.6-11.845-9.776-8.414-12.054,24.727-41.348,17.818-45.836,8.331-74.97,1.9-11.259-5.818-27.6-2.215-28.633l-.028-6.8c13.116,7.6,13.346,15.973,18.294,29,7.525,19.814,12.946,56.964-15.968,93.449" fill="#ddd"/>
              <path id="Caminho_544" data-name="Caminho 544" d="M122.424,240.239c1.954-18.24,13.072-55.65,13.21-69.972.153-15.938-11.459-61.818-11.459-61.818,0-5.336,4.829-12.272,9.809-14.19l15.844-6.1,17.739,70.007-1.8,99.881s-44.728-4.918-43.347-17.807" fill="#ddd"/>
              <path id="Caminho_545" data-name="Caminho 545" d="M143.4,97.478l1.063-6.556-11.312,4.537C128.3,97.326,143.4,97.478,143.4,97.478" fill="#f4f4f4"/>
              <path id="Caminho_546" data-name="Caminho 546" d="M142.206,115.174l3.416-5.272-1.855-5.412,2.166-14.832,3.9-1.5,17.738,70.008Z" fill="#f4f4f4"/>
              <g id="Grupo_504" data-name="Grupo 504" opacity="0.2">
                <g id="Grupo_503" data-name="Grupo 503">
                  <g id="Grupo_502" data-name="Grupo 502" clip-path="url(#clip-path-7)">
                    <path id="Caminho_547" data-name="Caminho 547" d="M130.966,198.363a181,181,0,0,0,9.108,17c3.431,2.277-4.26,11.866-6.775,10.264-2.376-3-4.51-5.986-6.46-8.961,1.337-6.022,2.792-12.287,4.127-18.3" fill="#48545b"/>
                  </g>
                </g>
              </g>
              <path id="Caminho_548" data-name="Caminho 548" d="M137.39,211.346c2.8,1.355,8.518,4.338,7.646,5.7-1.146,1.786,2.512,5.082,4.013,6.966S137.9,233.54,134.92,229.9c-1.521-1.86-3.276-6.976-4.631-11.539,1.943-.33,5.312-3.793,7.1-7.014" fill="#a25742"/>
              <path id="Caminho_549" data-name="Caminho 549" d="M149.007,214s1.956,34.984-1.266,34.524-16.569-4.164-19.333-9.667,2.762-17.952,2.762-17.952Z" fill="#f4f4f4"/>
              <path id="Caminho_550" data-name="Caminho 550" d="M129.416,218.264c2.516,1.6,11.845-9.776,8.414-12.054-24.727-41.348-17.818-45.836-8.331-74.97-1.9-11.259,5.818-27.6,2.215-28.633l.028-6.8c-13.116,7.6-13.346,15.973-18.294,29-7.525,19.814-12.946,56.964,15.968,93.449" fill="#ddd"/>
              <path id="Caminho_551" data-name="Caminho 551" d="M174.813,145.135c-4.05-4.724-6.785-13.489-6.808-23.559h.827c.022,9.332,2.407,17.5,5.981,22.149Z" fill="#b7bdbd"/>
              <path id="Caminho_552" data-name="Caminho 552" d="M188.687,143.48c3.466-4.692,5.763-12.741,5.784-21.9h.827c-.022,9.905-2.671,18.543-6.611,23.32Z" fill="#b7bdbd"/>
              <path id="Caminho_553" data-name="Caminho 553" d="M187.777,145.068a.589.589,0,1,0,1.178,0V143.3a.589.589,0,0,0-1.178,0Z" fill="#b7bdbd"/>
              <path id="Caminho_554" data-name="Caminho 554" d="M174.519,145.068a.589.589,0,0,0,1.178,0V143.3a.589.589,0,1,0-1.178,0Z" fill="#b7bdbd"/>
              <path id="Caminho_555" data-name="Caminho 555" d="M185.715,144.368a1.068,1.068,0,0,0,1.068,1.068h.147a1.068,1.068,0,1,0,0-2.136h-.147a1.068,1.068,0,0,0-1.068,1.068" fill="#b7bdbd"/>
              <path id="Caminho_556" data-name="Caminho 556" d="M175.4,144.368a1.068,1.068,0,0,0,1.068,1.068h.147a1.068,1.068,0,1,0,0-2.136h-.147a1.068,1.068,0,0,0-1.068,1.068" fill="#b7bdbd"/>
              <path id="Caminho_557" data-name="Caminho 557" d="M169.248,122.181v-.415c.033-14.239,5.6-25.825,12.4-25.825s12.37,11.586,12.4,25.825v.415h1.66v-.417c-.034-15.267-6.342-27.688-14.062-27.688S167.624,106.5,167.59,121.764l0,.417Z" fill="#003e4d"/>
              <path id="Caminho_558" data-name="Caminho 558" d="M174.477,85.678a20.593,20.593,0,0,1,7.929,9.8h-1.375a19.193,19.193,0,0,0-6.554-8.162Z" fill="#003e4d"/>
              <path id="Caminho_559" data-name="Caminho 559" d="M145,137.909l1.529-.006c-2.066-19.453,3.14-48.346,6.1-50.52V85.739c-3.675,2.5-9.06,25.476-7.626,52.17" fill="#003e4d"/>
              <path id="Caminho_560" data-name="Caminho 560" d="M145.8,155.106A8.91,8.91,0,1,0,136.9,146.2a8.92,8.92,0,0,0,8.909,8.909" fill="#003e4d"/>
              <path id="Caminho_561" data-name="Caminho 561" d="M154.131,146.2a8.327,8.327,0,1,0-8.327,8.327,8.327,8.327,0,0,0,8.327-8.327" fill="#b7bdbd"/>
              <path id="Caminho_562" data-name="Caminho 562" d="M147.826,146.2a2.022,2.022,0,1,0-2.022,2.022,2.022,2.022,0,0,0,2.022-2.022" fill="#6a686b"/>
              <path id="Caminho_563" data-name="Caminho 563" d="M142.328,147.725a4.373,4.373,0,0,0,6.951,0h2.657a6.149,6.149,0,0,1-12.265,0Z" fill="#ddd"/>
              <path id="Caminho_564" data-name="Caminho 564" d="M386.813,160.135c-4.05-4.724-6.785-13.489-6.808-23.559h.827c.022,9.332,2.407,17.5,5.981,22.149Z" fill="#b7bdbd"/>
              <path id="Caminho_565" data-name="Caminho 565" d="M400.687,158.48c3.466-4.692,5.763-12.741,5.784-21.9h.827c-.022,9.9-2.671,18.543-6.611,23.32Z" fill="#b7bdbd"/>
              <path id="Caminho_566" data-name="Caminho 566" d="M399.777,160.068a.589.589,0,1,0,1.178,0V158.3a.589.589,0,1,0-1.178,0Z" fill="#b7bdbd"/>
              <path id="Caminho_567" data-name="Caminho 567" d="M386.519,160.068a.589.589,0,1,0,1.178,0V158.3a.589.589,0,1,0-1.178,0Z" fill="#b7bdbd"/>
              <path id="Caminho_568" data-name="Caminho 568" d="M397.715,159.368a1.068,1.068,0,0,0,1.068,1.068h.147a1.068,1.068,0,0,0,0-2.136h-.147a1.068,1.068,0,0,0-1.068,1.068" fill="#b7bdbd"/>
              <path id="Caminho_569" data-name="Caminho 569" d="M387.4,159.368a1.068,1.068,0,0,0,1.068,1.068h.147a1.068,1.068,0,0,0,0-2.136h-.147a1.068,1.068,0,0,0-1.068,1.068" fill="#b7bdbd"/>
              <path id="Caminho_570" data-name="Caminho 570" d="M381.248,137.181v-.415c.033-14.239,5.6-25.825,12.4-25.825s12.37,11.586,12.4,25.825v.415h1.66v-.417c-.034-15.267-6.342-27.688-14.062-27.688S379.624,121.5,379.59,136.764l0,.417Z" fill="#003e4d"/>
              <path id="Caminho_571" data-name="Caminho 571" d="M386.477,100.678a20.593,20.593,0,0,1,7.929,9.8h-1.375a19.193,19.193,0,0,0-6.554-8.162Z" fill="#003e4d"/>
              <path id="Caminho_572" data-name="Caminho 572" d="M356,151.909l1.529-.006c-2.066-19.453,3.14-48.346,6.1-50.52V99.739c-3.675,2.5-9.06,25.476-7.626,52.17" fill="#003e4d"/>
              <path id="Caminho_573" data-name="Caminho 573" d="M356.8,169.106a8.91,8.91,0,1,0-8.909-8.909,8.92,8.92,0,0,0,8.909,8.909" fill="#003e4d"/>
              <path id="Caminho_574" data-name="Caminho 574" d="M365.131,160.2a8.327,8.327,0,1,0-8.327,8.327,8.327,8.327,0,0,0,8.327-8.327" fill="#b7bdbd"/>
              <path id="Caminho_575" data-name="Caminho 575" d="M358.826,160.2a2.022,2.022,0,1,0-2.022,2.022,2.022,2.022,0,0,0,2.022-2.022" fill="#6a686b"/>
              <path id="Caminho_576" data-name="Caminho 576" d="M353.328,161.725a4.373,4.373,0,0,0,6.951,0h2.657a6.149,6.149,0,0,1-12.265,0Z" fill="#ddd"/>
              <path id="Caminho_577" data-name="Caminho 577" d="M235.068,296.79q-1.635-.035-3.275-.065c2.848,30.37,5.21,54.689,7.392,76.952.2,1.988.747,11.113.919,12.873.158,1.6-2.714,10.205-2.577,11.6.7,7.128,4.049,9.342,4.049,9.342l18.835,1.233,1.873-8.863L260.8,390.21l1.925-92.884q-13.828-.25-27.652-.536" fill="#ddd"/>
              <path id="Caminho_578" data-name="Caminho 578" d="M270.937,297.465l4.3,93.661-1.9,8.424,2.686,8.684,16.917.282s3.194-2.678,3.841-9.852c.175-1.936-2.49-11.441-2.28-13.774,1.976-21.9,5.476-54.361,8.423-86.989q-15.993-.15-31.988-.436" fill="#ddd"/>
              <path id="Caminho_579" data-name="Caminho 579" d="M315.369,105.967a18.078,18.078,0,0,0-9.255-9.082l-23.5-9.051V49.77h-29.08V87.834l-23.5,9.051a18.078,18.078,0,0,0-9.255,9.082l46.776,19.75Z" fill="#994d3c"/>
              <path id="Caminho_580" data-name="Caminho 580" d="M292.161,42.279c0,32.869-15.153,39.443-24.089,39.443s-24.09-6.574-24.09-39.443c0-16.539,10.786-26.661,24.09-26.661s24.089,10.122,24.089,26.661" fill="#ad5d4b"/>
              <path id="Caminho_581" data-name="Caminho 581" d="M248.6,48.441c.976,5.2-.175,9.781-2.572,10.231s-5.131-3.4-6.108-8.6.175-9.782,2.572-10.232,5.132,3.4,6.108,8.6" fill="#ad5d4b"/>
              <path id="Caminho_582" data-name="Caminho 582" d="M287.554,48.441c-.976,5.2.175,9.781,2.572,10.231s5.131-3.4,6.108-8.6-.175-9.782-2.572-10.232-5.132,3.4-6.108,8.6" fill="#ad5d4b"/>
              <path id="Caminho_583" data-name="Caminho 583" d="M243.992,11.15V39.818c10.153-15.85,38.539-13.191,48.08-.281V10.462c-9.543-12.945-37.929-15.16-48.08.688" fill="#16c4b3"/>
              <path id="Caminho_584" data-name="Caminho 584" d="M308.065,317.3c0-25.53-.186-85.006,3.279-133.345a607.758,607.758,0,0,1,9.411-71.173c0-6.5-5.3-13.686-11.8-16.021l-25.18-9.1L267.677,120.5l-15.3-32.841-25.182,9.1c-6.509,2.335-11.805,9.522-11.805,16.021,0,0,5.851,25.346,8.883,71.964,2.779,42.73,2.762,105.748,2.762,132.419,0,11.743,81.033,11.434,81.033.135" fill="#16c4b3"/>
              <path id="Caminho_585" data-name="Caminho 585" d="M267.646,2.535c-8.7-.025-17.368,2.962-21.986,9.726V20.1Z" fill="#29d6c1"/>
              <path id="Caminho_586" data-name="Caminho 586" d="M280.737,99.87l3.9-10.46,23.792,8.6c5.6,2.012-27.694,1.863-27.694,1.863" fill="#29d6c1"/>
              <path id="Caminho_587" data-name="Caminho 587" d="M227.708,98.009l23.777-8.592,7.778,16.523s-51.932,2.066-31.555-7.931" fill="#29d6c1"/>
              <path id="Caminho_588" data-name="Caminho 588" d="M292.047,39.5c-9.536-12.842-37.734-15.5-47.958.175l0,.052s19.6-17.849,47.96-.227" fill="#994d3c"/>
              <path id="Caminho_589" data-name="Caminho 589" d="M253.532,54.545v21.11c4.442,7.424,10.432,10.545,14.54,11.279a14.72,14.72,0,0,0,14.539-5.349V59.74L268.07,53.484Z" fill="#893d30"/>
              <path id="Caminho_590" data-name="Caminho 590" d="M243.992,38.672l-1.05,1.132,3.674,14.864.722-2.458Z" fill="#e7eae1"/>
              <path id="Caminho_591" data-name="Caminho 591" d="M292.072,38.672l1.05,1.132-3.674,14.864-.722-2.458Z" fill="#e7eae1"/>
              <path id="Caminho_592" data-name="Caminho 592" d="M288.87,38.334a.81.81,0,0,0-.822-.671H272.84c-1.284,0-3.228.841-4.954.841s-3.67-.841-4.954-.841H247.724a.812.812,0,0,0-.823.671H242.69V39.72h4.195c.489,3.174,2.166,8.915,3.007,8.915h11.773c1.373,0,3.379-2.774,4.119-4.54a2.193,2.193,0,0,1,4.2,0c.739,1.766,2.746,4.54,4.119,4.54h11.772c.842,0,2.519-5.741,3.008-8.915h4.2V38.334ZM261.7,48.209c-1.092,0-10.287.017-11.211.017s-3.844-9.44-1.406-9.44H261.85c6.785,0,.948,9.423-.145,9.423m23.573.017c-.924,0-10.12-.017-11.212-.017s-6.929-9.423-.144-9.423h12.762c2.438,0-.482,9.44-1.406,9.44" fill="#003e4d"/>
              <g id="Grupo_507" data-name="Grupo 507" opacity="0.3">
                <g id="Grupo_506" data-name="Grupo 506">
                  <g id="Grupo_505" data-name="Grupo 505" clip-path="url(#clip-path-8)">
                    <path id="Caminho_593" data-name="Caminho 593" d="M261.7,48.21c-1.092,0-10.288.017-11.212.017s-3.843-9.441-1.4-9.441h12.761c6.786,0,.948,9.424-.144,9.424" fill="#e7eae1"/>
                  </g>
                </g>
              </g>
              <g id="Grupo_510" data-name="Grupo 510" opacity="0.3">
                <g id="Grupo_509" data-name="Grupo 509">
                  <g id="Grupo_508" data-name="Grupo 508" clip-path="url(#clip-path-9)">
                    <path id="Caminho_594" data-name="Caminho 594" d="M285.278,48.226c-.924,0-10.12-.017-11.212-.017s-6.929-9.423-.144-9.423h12.762c2.438,0-.482,9.44-1.406,9.44" fill="#e7eae1"/>
                  </g>
                </g>
              </g>
              <path id="Caminho_595" data-name="Caminho 595" d="M289.814,52.245l-21.744-4.86-21.741,4.86c.735,7.018,2.748,17.149,2.748,17.149,5.18,9.547,13.53,12.329,18.994,12.329a21.316,21.316,0,0,0,18.995-11.462s2.023-11.092,2.748-18.016" fill="#e7eae1"/>
              <path id="Caminho_596" data-name="Caminho 596" d="M268.07,48.42v9.434s-17.709,4.273-20.487-4.647Z" fill="#f6f7f5"/>
              <rect id="Retângulo_164" data-name="Retângulo 164" width="17.853" height="8.948" transform="translate(282.918 124.432)" fill="#003e4d"/>
              <rect id="Retângulo_165" data-name="Retângulo 165" width="16.892" height="7.987" transform="translate(283.398 124.912)" fill="#f4f4f4"/>
              <rect id="Retângulo_166" data-name="Retângulo 166" width="2.342" height="1.968" transform="translate(290.673 123.479)" fill="#b7bdbd"/>
              <rect id="Retângulo_167" data-name="Retângulo 167" width="5.35" height="6.58" transform="translate(284.529 125.693)" fill="#b7bdbd"/>
              <path id="Caminho_597" data-name="Caminho 597" d="M260.411,420c0,2.864-3.3,5.186-7.376,5.186h-4.917c-4.074,0-7.377-2.322-7.377-5.186V408.935c0-2.863,3.3-3.33,7.377-3.33h4.917c4.074,0,7.376.467,7.376,3.33Z" fill="#003e61"/>
              <path id="Caminho_598" data-name="Caminho 598" d="M260.411,417.012c0,2.146-3.3,3.885-7.376,3.885h-4.917c-4.074,0-7.377-1.739-7.377-3.885v-8.288c0-2.145,3.3-6.757,7.377-6.757h4.917c4.074,0,7.376,4.612,7.376,6.757Z" fill="#3f5e77"/>
              <path id="Caminho_599" data-name="Caminho 599" d="M294.379,420c0,2.864-3.3,5.186-7.376,5.186h-4.917c-4.074,0-7.377-2.322-7.377-5.186V408.935c0-2.863,3.3-3.33,7.377-3.33H287c4.074,0,7.376.467,7.376,3.33Z" fill="#003e61"/>
              <path id="Caminho_600" data-name="Caminho 600" d="M294.379,417.012c0,2.146-3.3,3.885-7.376,3.885h-4.917c-4.074,0-7.377-1.739-7.377-3.885v-8.288c0-2.145,3.3-6.757,7.377-6.757H287c4.074,0,7.376,4.612,7.376,6.757Z" fill="#3f5e77"/>
              <path id="Caminho_601" data-name="Caminho 601" d="M215.79,113.965c-.045.149-.093.311-.138.462,1.173,7.426,6.014,39.107,8.992,74.6,22.508-2.987,72.546-17.156,79.378-19.227-1.731-8.369-18.248-15.594-18.248-15.594s-54.884,5.1-54.595.767,3.1-27.8,3.1-27.8Z" fill="#0eaf9c"/>
              <path id="Caminho_602" data-name="Caminho 602" d="M215.79,109.636c-7,23.139-18.829,69.026-9.594,74.8s80.135-13.575,89.659-16.461c-1.732-8.369-10.383-11.088-10.383-11.088s-59.363,8.214-59.075,3.885,8.37-35.5,8.37-35.5Z" fill="#16c4b3"/>
              <path id="Caminho_603" data-name="Caminho 603" d="M320.246,113.965c.045.149.093.311.138.462-1.173,7.426-6.71,43.89-9.688,79.381-22.508-2.987-60.625-25.179-67.457-27.249,1.731-8.37,4.5-11.416,4.5-11.416s59.3,13.995,59.013,9.666-4.993-37.635-4.993-37.635Z" fill="#0eaf9c"/>
              <path id="Caminho_604" data-name="Caminho 604" d="M320.246,109.636c7,23.139,18.829,69.026,9.594,74.8s-74.68-16.833-84.2-19.719c1.732-8.369,3.514-15.67,3.514-15.67s57.2,12.046,60.461,12.713c3.781.775-.138-4.843-8.342-36.485Z" fill="#16c4b3"/>
              <path id="Caminho_605" data-name="Caminho 605" d="M250.271,151.514c1.187.8,51.608,9.7,61.089,10.68,29.259,13.769-36.212,2.781-61.089-10.68" fill="#29d6c1"/>
              <path id="Caminho_606" data-name="Caminho 606" d="M323.353,155.84a28.6,28.6,0,0,0-16.021-6.9l-.542-2.2c-2.817-.19-21.318,10.148-21.318,10.148s27.286,4.327,33.187,7.646c2.67,1.5,9.078-4.961,4.694-8.69" fill="#f4f4f4"/>
              <path id="Caminho_607" data-name="Caminho 607" d="M307.71,149.675c7.893,3.352,16.187,10.384,16,8.217s-7.46-7.676-16-8.217" fill="#fff"/>
              <path id="Caminho_608" data-name="Caminho 608" d="M240.648,144.827l-6.337,1.516s-1.264-.681-4.916.163c-1.263,5.35-2.251,9.876-2.348,11.338a.541.541,0,0,0,.259.467c7.568-.53,19.175,2.419,19.175,2.419l2.669-11.685s-5.739-3.635-8.5-4.218" fill="#f4f4f4"/>
              <path id="Caminho_609" data-name="Caminho 609" d="M229.041,147.652c-.2.843-.387,1.66-.566,2.445a69.9,69.9,0,0,1,10.326-2.368,25.282,25.282,0,0,0-9.76-.077" fill="#fff"/>
            </g>
          </g>
        </g>
      </g>
    </g>
    <g id="Grupo_515" data-name="Grupo 515" transform="translate(-5810 -6190)">
      <circle id="Elipse_24" data-name="Elipse 24" cx="11.5" cy="11.5" r="11.5" transform="translate(6468 6449)" fill="#ffa800" opacity="0.5"/>
      <circle id="Elipse_23" data-name="Elipse 23" cx="9.994" cy="9.994" r="9.994" transform="matrix(1, 0.017, -0.017, 1, 6469.841, 6450.502)" fill="#ffa800"/>
      <path id="Icon_awesome-eye" data-name="Icon awesome-eye" d="M12.94,8.51A7.249,7.249,0,0,0,6.509,4.5,7.25,7.25,0,0,0,.079,8.51a.731.731,0,0,0,0,.66,7.249,7.249,0,0,0,6.431,4.01,7.25,7.25,0,0,0,6.431-4.01A.731.731,0,0,0,12.94,8.51ZM6.509,12.094A3.255,3.255,0,1,1,9.764,8.84,3.255,3.255,0,0,1,6.509,12.094Zm0-5.424a2.154,2.154,0,0,0-.572.086A1.081,1.081,0,0,1,4.425,8.267a2.165,2.165,0,1,0,2.084-1.6Z" transform="translate(6473.33 6451.829)" fill="#fff"/>
    </g>
    <g id="Grupo_519" data-name="Grupo 519" transform="translate(-5865 -6252)">
      <circle id="Elipse_24-2" data-name="Elipse 24" cx="11.5" cy="11.5" r="11.5" transform="translate(6468 6449)" fill="#ffa800" opacity="0.5"/>
      <circle id="Elipse_23-2" data-name="Elipse 23" cx="9.994" cy="9.994" r="9.994" transform="matrix(1, 0.017, -0.017, 1, 6469.841, 6450.502)" fill="#ffa800"/>
      <path id="Icon_awesome-eye-2" data-name="Icon awesome-eye" d="M12.94,8.51A7.249,7.249,0,0,0,6.509,4.5,7.25,7.25,0,0,0,.079,8.51a.731.731,0,0,0,0,.66,7.249,7.249,0,0,0,6.431,4.01,7.25,7.25,0,0,0,6.431-4.01A.731.731,0,0,0,12.94,8.51ZM6.509,12.094A3.255,3.255,0,1,1,9.764,8.84,3.255,3.255,0,0,1,6.509,12.094Zm0-5.424a2.154,2.154,0,0,0-.572.086A1.081,1.081,0,0,1,4.425,8.267a2.165,2.165,0,1,0,2.084-1.6Z" transform="translate(6473.33 6451.829)" fill="#fff"/>
    </g>
    <g id="Grupo_516" data-name="Grupo 516" transform="translate(-6007 -6252)">
      <circle id="Elipse_24-3" data-name="Elipse 24" cx="11.5" cy="11.5" r="11.5" transform="translate(6468 6449)" fill="#ffa800" opacity="0.5"/>
      <circle id="Elipse_23-3" data-name="Elipse 23" cx="9.994" cy="9.994" r="9.994" transform="matrix(1, 0.017, -0.017, 1, 6469.841, 6450.502)" fill="#ffa800"/>
      <path id="Icon_awesome-eye-3" data-name="Icon awesome-eye" d="M12.94,8.51A7.249,7.249,0,0,0,6.509,4.5,7.25,7.25,0,0,0,.079,8.51a.731.731,0,0,0,0,.66,7.249,7.249,0,0,0,6.431,4.01,7.25,7.25,0,0,0,6.431-4.01A.731.731,0,0,0,12.94,8.51ZM6.509,12.094A3.255,3.255,0,1,1,9.764,8.84,3.255,3.255,0,0,1,6.509,12.094Zm0-5.424a2.154,2.154,0,0,0-.572.086A1.081,1.081,0,0,1,4.425,8.267a2.165,2.165,0,1,0,2.084-1.6Z" transform="translate(6473.33 6451.829)" fill="#fff"/>
    </g>
    <g id="Grupo_517" data-name="Grupo 517" transform="translate(-5915 -6222)">
      <circle id="Elipse_24-4" data-name="Elipse 24" cx="11.5" cy="11.5" r="11.5" transform="translate(6468 6449)" fill="#ffa800" opacity="0.5"/>
      <circle id="Elipse_23-4" data-name="Elipse 23" cx="9.994" cy="9.994" r="9.994" transform="matrix(1, 0.017, -0.017, 1, 6469.841, 6450.502)" fill="#ffa800"/>
      <path id="Icon_awesome-eye-4" data-name="Icon awesome-eye" d="M12.94,8.51A7.249,7.249,0,0,0,6.509,4.5,7.25,7.25,0,0,0,.079,8.51a.731.731,0,0,0,0,.66,7.249,7.249,0,0,0,6.431,4.01,7.25,7.25,0,0,0,6.431-4.01A.731.731,0,0,0,12.94,8.51ZM6.509,12.094A3.255,3.255,0,1,1,9.764,8.84,3.255,3.255,0,0,1,6.509,12.094Zm0-5.424a2.154,2.154,0,0,0-.572.086A1.081,1.081,0,0,1,4.425,8.267a2.165,2.165,0,1,0,2.084-1.6Z" transform="translate(6473.33 6451.829)" fill="#fff"/>
    </g>
    <g id="Grupo_518" data-name="Grupo 518" transform="translate(-5702 -6233)">
      <circle id="Elipse_24-5" data-name="Elipse 24" cx="11.5" cy="11.5" r="11.5" transform="translate(6468 6449)" fill="#ffa800" opacity="0.5"/>
      <circle id="Elipse_23-5" data-name="Elipse 23" cx="9.994" cy="9.994" r="9.994" transform="matrix(1, 0.017, -0.017, 1, 6469.841, 6450.502)" fill="#ffa800"/>
      <path id="Icon_awesome-eye-5" data-name="Icon awesome-eye" d="M12.94,8.51A7.249,7.249,0,0,0,6.509,4.5,7.25,7.25,0,0,0,.079,8.51a.731.731,0,0,0,0,.66,7.249,7.249,0,0,0,6.431,4.01,7.25,7.25,0,0,0,6.431-4.01A.731.731,0,0,0,12.94,8.51ZM6.509,12.094A3.255,3.255,0,1,1,9.764,8.84,3.255,3.255,0,0,1,6.509,12.094Zm0-5.424a2.154,2.154,0,0,0-.572.086A1.081,1.081,0,0,1,4.425,8.267a2.165,2.165,0,1,0,2.084-1.6Z" transform="translate(6473.33 6451.829)" fill="#fff"/>
    </g>
  </g>
</svg>
